<?xml version="1.0" encoding="utf-8"?>
<!-- Generator: Adobe Illustrator 17.0.0, SVG Export Plug-In . SVG Version: 6.00 Build 0)  -->
<!DOCTYPE svg PUBLIC "-//W3C//DTD SVG 1.1//EN" "http://www.w3.org/Graphics/SVG/1.1/DTD/svg11.dtd">
<svg version="1.1" id="Layer_1" xmlns="http://www.w3.org/2000/svg" xmlns:xlink="http://www.w3.org/1999/xlink" x="0px" y="0px"
	 width="44px" height="44px" viewBox="-102.708 0 44 44" enable-background="new -102.708 0 44 44" xml:space="preserve">
<g>
	<path fill="#FFFFFF" d="M-101.552,18.038h5.705v1.198h-4.317v2.076h3.996v1.132h-3.996v2.319h4.395v1.198h-5.782V18.038z"/>
	<path fill="#FFFFFF" d="M-94.86,22.344h3.229v1.199h-3.229V22.344z"/>
	<path fill="#FFFFFF" d="M-89.334,23.321c0,0.304,0.052,0.563,0.155,0.777s0.248,0.39,0.433,0.527
		c0.185,0.137,0.397,0.236,0.638,0.299c0.24,0.063,0.501,0.095,0.782,0.095c0.303,0,0.562-0.035,0.777-0.105
		c0.214-0.07,0.389-0.161,0.521-0.271c0.133-0.111,0.229-0.239,0.289-0.383c0.059-0.145,0.089-0.291,0.089-0.438
		c0-0.304-0.068-0.527-0.205-0.672c-0.137-0.145-0.287-0.246-0.45-0.305c-0.281-0.104-0.608-0.202-0.982-0.295
		c-0.374-0.092-0.834-0.212-1.382-0.36c-0.34-0.089-0.624-0.205-0.849-0.35s-0.405-0.305-0.538-0.482s-0.228-0.366-0.283-0.566
		c-0.055-0.2-0.083-0.403-0.083-0.61c0-0.399,0.083-0.745,0.25-1.038c0.167-0.292,0.387-0.534,0.66-0.727
		c0.274-0.192,0.584-0.335,0.933-0.428c0.348-0.092,0.699-0.139,1.054-0.139c0.414,0,0.805,0.054,1.171,0.161
		s0.688,0.268,0.965,0.483c0.277,0.214,0.498,0.479,0.661,0.793c0.163,0.314,0.244,0.679,0.244,1.093h-1.388
		c-0.037-0.51-0.21-0.871-0.521-1.082c-0.311-0.21-0.707-0.316-1.188-0.316c-0.163,0-0.329,0.017-0.5,0.05
		c-0.17,0.033-0.325,0.089-0.466,0.167s-0.257,0.183-0.35,0.316c-0.093,0.133-0.139,0.299-0.139,0.499
		c0,0.281,0.087,0.501,0.261,0.661s0.401,0.279,0.683,0.36c0.029,0.008,0.146,0.039,0.35,0.095c0.203,0.055,0.431,0.116,0.683,0.183
		c0.251,0.066,0.497,0.131,0.738,0.194c0.24,0.063,0.412,0.109,0.516,0.14c0.259,0.08,0.484,0.191,0.677,0.332
		s0.354,0.302,0.483,0.483c0.129,0.181,0.226,0.375,0.289,0.582c0.063,0.207,0.094,0.415,0.094,0.622
		c0,0.443-0.091,0.822-0.272,1.137c-0.181,0.315-0.42,0.572-0.716,0.771c-0.296,0.2-0.632,0.346-1.01,0.438
		s-0.762,0.139-1.154,0.139c-0.451,0-0.876-0.056-1.276-0.166c-0.399-0.111-0.747-0.281-1.043-0.511s-0.533-0.523-0.71-0.882
		c-0.177-0.359-0.27-0.783-0.277-1.271H-89.334z"/>
	<path fill="#FFFFFF" d="M-82.242,23.421c0,0.222,0.031,0.437,0.094,0.644c0.063,0.207,0.157,0.388,0.283,0.544
		c0.126,0.155,0.285,0.279,0.478,0.371c0.192,0.093,0.421,0.139,0.688,0.139c0.37,0,0.667-0.079,0.894-0.238
		c0.226-0.159,0.394-0.397,0.505-0.716h1.198c-0.066,0.311-0.181,0.588-0.344,0.832c-0.163,0.244-0.359,0.45-0.588,0.616
		s-0.486,0.292-0.771,0.377c-0.285,0.085-0.583,0.128-0.894,0.128c-0.452,0-0.851-0.074-1.199-0.222
		c-0.348-0.148-0.642-0.355-0.882-0.622c-0.24-0.266-0.421-0.584-0.543-0.954s-0.183-0.776-0.183-1.221
		c0-0.407,0.064-0.794,0.194-1.16c0.129-0.365,0.314-0.688,0.555-0.965c0.24-0.277,0.531-0.497,0.871-0.66
		c0.34-0.163,0.725-0.244,1.154-0.244c0.451,0,0.856,0.094,1.215,0.283c0.359,0.188,0.657,0.438,0.894,0.749
		c0.237,0.31,0.409,0.667,0.516,1.071c0.107,0.403,0.135,0.819,0.083,1.249H-82.242z M-79.29,22.588
		c-0.015-0.199-0.057-0.392-0.127-0.577c-0.07-0.185-0.167-0.346-0.289-0.482s-0.27-0.248-0.444-0.333s-0.368-0.127-0.583-0.127
		c-0.222,0-0.424,0.039-0.605,0.116c-0.182,0.078-0.337,0.185-0.466,0.322c-0.129,0.138-0.233,0.298-0.311,0.483
		c-0.078,0.185-0.121,0.385-0.127,0.599H-79.29z"/>
	<path fill="#FFFFFF" d="M-77.059,20.224h1.188v1.11h0.022c0.037-0.155,0.109-0.307,0.216-0.455
		c0.107-0.148,0.237-0.283,0.389-0.405c0.151-0.122,0.32-0.22,0.505-0.294c0.185-0.074,0.374-0.111,0.566-0.111
		c0.148,0,0.25,0.004,0.305,0.011c0.056,0.007,0.113,0.015,0.172,0.022v1.221c-0.089-0.015-0.18-0.027-0.272-0.039
		c-0.093-0.011-0.183-0.017-0.272-0.017c-0.215,0-0.417,0.042-0.605,0.127c-0.188,0.085-0.354,0.211-0.494,0.377
		c-0.141,0.166-0.252,0.372-0.333,0.616c-0.082,0.244-0.122,0.525-0.122,0.843v2.73h-1.265V20.224z"/>
	<path fill="#FFFFFF" d="M-73.119,18.038h1.265v1.198h-1.265V18.038z M-73.119,20.224h1.265v5.738h-1.265V20.224z"/>
	<path fill="#FFFFFF" d="M-69.49,23.421c0,0.222,0.031,0.437,0.094,0.644c0.063,0.207,0.157,0.388,0.283,0.544
		c0.126,0.155,0.285,0.279,0.478,0.371c0.192,0.093,0.421,0.139,0.688,0.139c0.37,0,0.667-0.079,0.894-0.238
		c0.226-0.159,0.394-0.397,0.505-0.716h1.198c-0.066,0.311-0.181,0.588-0.344,0.832c-0.163,0.244-0.359,0.45-0.588,0.616
		s-0.486,0.292-0.771,0.377c-0.285,0.085-0.583,0.128-0.894,0.128c-0.452,0-0.851-0.074-1.199-0.222
		c-0.348-0.148-0.642-0.355-0.882-0.622c-0.24-0.266-0.421-0.584-0.543-0.954s-0.183-0.776-0.183-1.221
		c0-0.407,0.064-0.794,0.194-1.16c0.129-0.365,0.314-0.688,0.555-0.965c0.24-0.277,0.531-0.497,0.871-0.66
		c0.34-0.163,0.725-0.244,1.154-0.244c0.451,0,0.856,0.094,1.215,0.283c0.359,0.188,0.657,0.438,0.894,0.749
		c0.237,0.31,0.409,0.667,0.516,1.071c0.107,0.403,0.135,0.819,0.083,1.249H-69.49z M-66.539,22.588
		c-0.015-0.199-0.057-0.392-0.127-0.577c-0.07-0.185-0.167-0.346-0.289-0.482s-0.27-0.248-0.444-0.333s-0.368-0.127-0.583-0.127
		c-0.222,0-0.424,0.039-0.605,0.116c-0.182,0.078-0.337,0.185-0.466,0.322c-0.129,0.138-0.233,0.298-0.311,0.483
		c-0.078,0.185-0.121,0.385-0.127,0.599H-66.539z"/>
	<path fill="#FFFFFF" d="M-63.354,24.12c0.037,0.369,0.178,0.629,0.422,0.776c0.244,0.148,0.537,0.222,0.877,0.222
		c0.118,0,0.253-0.009,0.405-0.027s0.294-0.054,0.427-0.105c0.133-0.052,0.242-0.128,0.328-0.228c0.085-0.1,0.124-0.231,0.116-0.394
		c-0.007-0.163-0.066-0.296-0.177-0.4c-0.111-0.104-0.253-0.187-0.427-0.249c-0.174-0.063-0.372-0.117-0.594-0.161
		c-0.222-0.045-0.448-0.093-0.677-0.145c-0.237-0.052-0.464-0.114-0.683-0.188s-0.414-0.174-0.588-0.3
		c-0.174-0.126-0.313-0.286-0.416-0.482c-0.104-0.196-0.156-0.438-0.156-0.727c0-0.311,0.076-0.572,0.228-0.783
		c0.152-0.211,0.344-0.381,0.577-0.511s0.492-0.22,0.777-0.272s0.557-0.078,0.816-0.078c0.296,0,0.579,0.032,0.849,0.094
		c0.27,0.063,0.514,0.165,0.733,0.305c0.218,0.141,0.399,0.324,0.543,0.549c0.145,0.226,0.235,0.498,0.272,0.815h-1.321
		c-0.059-0.303-0.198-0.506-0.416-0.61s-0.468-0.155-0.749-0.155c-0.089,0-0.194,0.007-0.316,0.022
		c-0.122,0.015-0.237,0.042-0.344,0.083c-0.107,0.041-0.198,0.1-0.272,0.177c-0.074,0.078-0.111,0.18-0.111,0.305
		c0,0.156,0.054,0.281,0.162,0.378c0.107,0.097,0.249,0.176,0.423,0.238c0.174,0.063,0.373,0.117,0.596,0.161
		c0.223,0.045,0.453,0.093,0.69,0.145c0.23,0.052,0.457,0.114,0.679,0.188s0.421,0.174,0.595,0.3s0.315,0.285,0.423,0.478
		c0.107,0.192,0.161,0.429,0.161,0.71c0,0.34-0.078,0.629-0.233,0.865c-0.156,0.237-0.358,0.43-0.606,0.577
		c-0.248,0.148-0.524,0.256-0.829,0.322c-0.304,0.066-0.604,0.1-0.9,0.1c-0.364,0-0.699-0.041-1.007-0.122s-0.575-0.205-0.801-0.372
		c-0.226-0.166-0.404-0.373-0.534-0.621c-0.13-0.248-0.199-0.542-0.206-0.882H-63.354z"/>
</g>
</svg>
