<?xml version="1.0" encoding="utf-8"?>
<!-- Generator: Adobe Illustrator 17.0.0, SVG Export Plug-In . SVG Version: 6.00 Build 0)  -->
<!DOCTYPE svg PUBLIC "-//W3C//DTD SVG 1.1//EN" "http://www.w3.org/Graphics/SVG/1.1/DTD/svg11.dtd">
<svg version="1.1" id="Layer_1" xmlns="http://www.w3.org/2000/svg" xmlns:xlink="http://www.w3.org/1999/xlink" x="0px" y="0px"
	 width="60.109px" height="44px" viewBox="-136.208 53.5 60.109 44" enable-background="new -136.208 53.5 60.109 44"
	 xml:space="preserve">
<g>
	<path fill="#FFFFFF" d="M-126.963,71.047h5.612v1.329h-4.247v2.301h3.93v1.256h-3.93v2.571h4.323v1.329h-5.688V71.047z"/>
	<path fill="#FFFFFF" d="M-120.38,75.821h3.177v1.329h-3.177V75.821z"/>
	<path fill="#FFFFFF" d="M-114.943,76.904c0,0.337,0.051,0.623,0.153,0.861c0.102,0.238,0.244,0.433,0.426,0.585
		c0.182,0.151,0.391,0.263,0.627,0.332c0.237,0.069,0.493,0.104,0.77,0.104c0.298,0,0.553-0.039,0.764-0.117
		c0.211-0.078,0.382-0.178,0.513-0.302c0.131-0.123,0.226-0.264,0.284-0.424s0.087-0.322,0.087-0.486
		c0-0.336-0.067-0.585-0.202-0.744c-0.135-0.16-0.282-0.273-0.442-0.339c-0.277-0.114-0.599-0.224-0.966-0.326
		c-0.368-0.103-0.821-0.235-1.359-0.399c-0.335-0.099-0.613-0.228-0.835-0.388c-0.222-0.16-0.398-0.339-0.53-0.535
		c-0.131-0.197-0.224-0.406-0.278-0.628s-0.082-0.447-0.082-0.677c0-0.443,0.082-0.826,0.246-1.15
		c0.164-0.324,0.38-0.593,0.649-0.807c0.269-0.213,0.575-0.371,0.917-0.474s0.688-0.153,1.037-0.153c0.408,0,0.792,0.06,1.152,0.178
		c0.36,0.119,0.677,0.298,0.95,0.536c0.273,0.237,0.49,0.531,0.65,0.88c0.16,0.349,0.24,0.752,0.24,1.212h-1.365
		c-0.037-0.566-0.208-0.966-0.513-1.2c-0.306-0.233-0.695-0.351-1.168-0.351c-0.16,0-0.324,0.019-0.491,0.056
		s-0.32,0.099-0.458,0.185s-0.253,0.203-0.344,0.351c-0.091,0.147-0.137,0.332-0.137,0.554c0,0.312,0.085,0.556,0.257,0.732
		c0.171,0.176,0.395,0.31,0.671,0.399c0.029,0.009,0.144,0.043,0.344,0.104s0.424,0.13,0.671,0.203
		c0.248,0.074,0.49,0.146,0.726,0.216c0.236,0.069,0.406,0.121,0.508,0.153c0.254,0.091,0.477,0.214,0.666,0.369
		c0.189,0.156,0.347,0.335,0.475,0.535c0.127,0.201,0.222,0.417,0.284,0.646c0.062,0.229,0.093,0.46,0.093,0.689
		c0,0.492-0.089,0.912-0.268,1.261s-0.413,0.634-0.704,0.855c-0.292,0.222-0.623,0.384-0.994,0.486s-0.75,0.153-1.135,0.153
		c-0.444,0-0.863-0.062-1.255-0.185c-0.393-0.123-0.735-0.312-1.026-0.565c-0.292-0.255-0.524-0.581-0.699-0.979
		c-0.175-0.398-0.266-0.868-0.273-1.409H-114.943z"/>
	<path fill="#FFFFFF" d="M-107.967,77.015c0,0.246,0.031,0.484,0.093,0.714c0.062,0.23,0.154,0.431,0.278,0.604
		c0.124,0.172,0.28,0.31,0.469,0.412s0.415,0.153,0.677,0.153c0.364,0,0.657-0.088,0.879-0.265c0.222-0.176,0.388-0.44,0.497-0.793
		h1.179c-0.065,0.344-0.178,0.652-0.338,0.923s-0.353,0.498-0.579,0.683s-0.479,0.324-0.759,0.419
		c-0.28,0.094-0.573,0.141-0.879,0.141c-0.444,0-0.837-0.082-1.179-0.246c-0.342-0.164-0.632-0.394-0.868-0.688
		c-0.236-0.296-0.415-0.648-0.535-1.059c-0.12-0.41-0.18-0.861-0.18-1.354c0-0.451,0.063-0.88,0.191-1.286
		c0.127-0.406,0.309-0.763,0.546-1.07c0.236-0.308,0.522-0.552,0.857-0.732c0.334-0.181,0.713-0.271,1.135-0.271
		c0.444,0,0.842,0.104,1.196,0.313c0.353,0.209,0.646,0.486,0.879,0.831c0.232,0.345,0.402,0.74,0.507,1.188
		s0.133,0.908,0.082,1.384H-107.967z M-105.063,76.092c-0.015-0.221-0.057-0.435-0.125-0.64c-0.069-0.205-0.164-0.384-0.284-0.535
		c-0.12-0.151-0.266-0.274-0.437-0.369s-0.362-0.142-0.573-0.142c-0.218,0-0.417,0.043-0.595,0.129
		c-0.179,0.087-0.332,0.205-0.458,0.357c-0.127,0.151-0.229,0.33-0.306,0.535c-0.077,0.205-0.119,0.427-0.126,0.664H-105.063z"/>
	<path fill="#FFFFFF" d="M-102.868,73.471h1.168v1.23h0.022c0.036-0.172,0.107-0.34,0.213-0.504
		c0.105-0.164,0.233-0.314,0.382-0.449c0.149-0.136,0.315-0.244,0.497-0.326c0.182-0.082,0.367-0.123,0.557-0.123
		c0.146,0,0.246,0.004,0.3,0.013c0.055,0.008,0.111,0.016,0.169,0.024v1.354c-0.087-0.017-0.176-0.031-0.267-0.043
		c-0.091-0.013-0.18-0.019-0.268-0.019c-0.211,0-0.41,0.047-0.595,0.142c-0.186,0.094-0.348,0.233-0.486,0.418
		s-0.248,0.412-0.328,0.684c-0.08,0.271-0.12,0.582-0.12,0.935v3.027h-1.244V73.471z"/>
	<path fill="#FFFFFF" d="M-98.993,71.047h1.245v1.329h-1.245V71.047z M-98.993,73.471h1.245v6.362h-1.245V73.471z"/>
	<path fill="#FFFFFF" d="M-95.423,77.015c0,0.246,0.03,0.484,0.093,0.714c0.062,0.23,0.154,0.431,0.278,0.604
		c0.123,0.172,0.28,0.31,0.47,0.412c0.188,0.103,0.414,0.153,0.677,0.153c0.363,0,0.656-0.088,0.879-0.265
		c0.222-0.176,0.388-0.44,0.496-0.793h1.18c-0.065,0.344-0.179,0.652-0.339,0.923s-0.353,0.498-0.578,0.683
		s-0.479,0.324-0.759,0.419c-0.28,0.094-0.573,0.141-0.879,0.141c-0.444,0-0.837-0.082-1.18-0.246
		c-0.342-0.164-0.631-0.394-0.867-0.688c-0.237-0.296-0.415-0.648-0.535-1.059s-0.181-0.861-0.181-1.354
		c0-0.451,0.063-0.88,0.191-1.286c0.127-0.406,0.31-0.763,0.546-1.07s0.522-0.552,0.856-0.732c0.335-0.181,0.714-0.271,1.136-0.271
		c0.444,0,0.843,0.104,1.195,0.313c0.354,0.209,0.646,0.486,0.879,0.831c0.233,0.345,0.402,0.74,0.508,1.188
		s0.133,0.908,0.082,1.384H-95.423z M-92.52,76.092c-0.015-0.221-0.056-0.435-0.125-0.64s-0.164-0.384-0.284-0.535
		s-0.266-0.274-0.437-0.369s-0.362-0.142-0.573-0.142c-0.218,0-0.417,0.043-0.595,0.129c-0.179,0.087-0.331,0.205-0.459,0.357
		c-0.127,0.151-0.229,0.33-0.306,0.535c-0.076,0.205-0.118,0.427-0.125,0.664H-92.52z"/>
	<path fill="#FFFFFF" d="M-89.386,77.79c0.036,0.41,0.175,0.697,0.415,0.861s0.527,0.246,0.862,0.246c0.116,0,0.249-0.01,0.398-0.03
		s0.29-0.06,0.421-0.117s0.238-0.142,0.321-0.252c0.084-0.111,0.122-0.257,0.115-0.438c-0.008-0.18-0.065-0.327-0.175-0.442
		s-0.249-0.207-0.42-0.277c-0.172-0.069-0.366-0.129-0.585-0.178c-0.218-0.05-0.44-0.103-0.665-0.16
		c-0.233-0.058-0.457-0.127-0.672-0.209s-0.408-0.193-0.579-0.333c-0.171-0.139-0.307-0.317-0.409-0.535
		c-0.102-0.217-0.152-0.486-0.152-0.806c0-0.345,0.074-0.634,0.224-0.868c0.149-0.233,0.338-0.422,0.567-0.565
		s0.484-0.244,0.765-0.302s0.548-0.086,0.802-0.086c0.291,0,0.57,0.035,0.836,0.104c0.266,0.07,0.506,0.183,0.721,0.339
		c0.214,0.155,0.393,0.358,0.534,0.608c0.143,0.251,0.231,0.552,0.268,0.904h-1.299c-0.059-0.336-0.195-0.562-0.409-0.677
		c-0.215-0.114-0.461-0.172-0.737-0.172c-0.087,0-0.191,0.008-0.312,0.024s-0.232,0.048-0.338,0.093s-0.195,0.11-0.268,0.196
		c-0.073,0.087-0.109,0.199-0.109,0.339c0,0.172,0.053,0.312,0.159,0.418c0.105,0.107,0.244,0.195,0.416,0.265
		c0.172,0.07,0.366,0.13,0.586,0.179c0.219,0.049,0.445,0.103,0.679,0.16c0.227,0.058,0.449,0.127,0.668,0.209
		s0.414,0.192,0.586,0.332c0.171,0.14,0.31,0.316,0.416,0.529c0.105,0.214,0.158,0.476,0.158,0.787c0,0.378-0.076,0.698-0.229,0.96
		c-0.153,0.263-0.352,0.477-0.596,0.641c-0.245,0.164-0.517,0.282-0.815,0.356s-0.595,0.11-0.887,0.11
		c-0.357,0-0.688-0.045-0.99-0.135c-0.303-0.091-0.564-0.228-0.787-0.412s-0.397-0.414-0.525-0.689
		c-0.128-0.274-0.195-0.601-0.202-0.979H-89.386z"/>
</g>
</svg>
