<?xml version="1.0" encoding="utf-8"?>
<!-- Generator: Adobe Illustrator 17.0.0, SVG Export Plug-In . SVG Version: 6.00 Build 0)  -->
<!DOCTYPE svg PUBLIC "-//W3C//DTD SVG 1.1//EN" "http://www.w3.org/Graphics/SVG/1.1/DTD/svg11.dtd">
<svg version="1.1" id="Layer_1" xmlns="http://www.w3.org/2000/svg" xmlns:xlink="http://www.w3.org/1999/xlink" x="0px" y="0px"
	 width="44px" height="44px" viewBox="-200.708 0 44 44" enable-background="new -200.708 0 44 44" xml:space="preserve">
<path fill="none" d="M-200.708,0h44v44h-44V0z"/>
<g>
	<path fill="#FFFFFF" d="M-198.786,17.344h6.119v1.284h-4.631v2.224h4.286v1.213h-4.286v2.484h4.714v1.284h-6.202V17.344z"/>
	<path fill="#FFFFFF" d="M-191.441,17.344h1.357v8.489h-1.357V17.344z"/>
	<path fill="#FFFFFF" d="M-187.548,23.11c0,0.238,0.034,0.468,0.101,0.689c0.067,0.223,0.168,0.416,0.304,0.583
		c0.135,0.166,0.305,0.299,0.512,0.398c0.206,0.099,0.452,0.148,0.738,0.148c0.397,0,0.716-0.085,0.958-0.256
		c0.242-0.17,0.423-0.426,0.542-0.767h1.286c-0.071,0.333-0.194,0.63-0.369,0.892c-0.175,0.262-0.385,0.481-0.631,0.66
		c-0.246,0.178-0.521,0.313-0.827,0.404c-0.306,0.091-0.625,0.137-0.958,0.137c-0.484,0-0.913-0.08-1.286-0.238
		s-0.688-0.38-0.946-0.666c-0.258-0.285-0.452-0.626-0.583-1.022c-0.131-0.396-0.197-0.832-0.197-1.308
		c0-0.436,0.069-0.85,0.208-1.242c0.139-0.393,0.337-0.737,0.595-1.035s0.569-0.533,0.935-0.708
		c0.365-0.174,0.777-0.262,1.238-0.262c0.484,0,0.918,0.101,1.304,0.303c0.385,0.202,0.704,0.47,0.958,0.803
		c0.254,0.333,0.438,0.715,0.553,1.147s0.145,0.877,0.089,1.337H-187.548z M-184.381,22.219c-0.016-0.214-0.062-0.42-0.137-0.618
		c-0.075-0.198-0.178-0.371-0.31-0.517c-0.131-0.147-0.29-0.266-0.476-0.357c-0.187-0.091-0.395-0.137-0.625-0.137
		c-0.238,0-0.454,0.042-0.648,0.125c-0.195,0.083-0.361,0.198-0.5,0.345c-0.139,0.147-0.25,0.319-0.333,0.517
		c-0.083,0.198-0.129,0.413-0.137,0.642H-184.381z"/>
	<path fill="#FFFFFF" d="M-177.834,21.743c-0.055-0.38-0.208-0.667-0.458-0.862s-0.565-0.292-0.946-0.292
		c-0.175,0-0.361,0.03-0.56,0.089c-0.199,0.059-0.381,0.17-0.548,0.333c-0.167,0.162-0.306,0.388-0.417,0.678
		c-0.111,0.289-0.167,0.667-0.167,1.135c0,0.254,0.03,0.507,0.089,0.761c0.06,0.254,0.155,0.479,0.286,0.678
		c0.131,0.198,0.299,0.358,0.506,0.481c0.206,0.123,0.456,0.185,0.75,0.185c0.396,0,0.724-0.123,0.982-0.369
		c0.258-0.245,0.418-0.59,0.482-1.034h1.357c-0.127,0.801-0.431,1.413-0.911,1.837c-0.48,0.425-1.117,0.637-1.911,0.637
		c-0.484,0-0.911-0.082-1.28-0.244s-0.681-0.385-0.935-0.666s-0.446-0.616-0.577-1.005c-0.131-0.388-0.197-0.809-0.197-1.26
		c0-0.459,0.063-0.892,0.19-1.296s0.317-0.755,0.572-1.052c0.254-0.297,0.569-0.531,0.946-0.702s0.819-0.256,1.327-0.256
		c0.357,0,0.696,0.046,1.018,0.137c0.321,0.091,0.607,0.228,0.857,0.411c0.25,0.182,0.454,0.412,0.613,0.689
		c0.159,0.277,0.254,0.606,0.286,0.987H-177.834z"/>
	<path fill="#FFFFFF" d="M-175.989,19.686h1.024v-1.843h1.357v1.843h1.226v1.011h-1.226v3.282c0,0.143,0.006,0.266,0.018,0.368
		c0.012,0.104,0.04,0.19,0.083,0.262s0.109,0.125,0.197,0.161c0.087,0.035,0.206,0.053,0.357,0.053c0.095,0,0.19-0.002,0.286-0.006
		s0.19-0.018,0.286-0.041v1.046c-0.151,0.016-0.297,0.031-0.44,0.048c-0.143,0.016-0.29,0.023-0.44,0.023
		c-0.357,0-0.645-0.033-0.863-0.101c-0.219-0.067-0.389-0.167-0.512-0.298s-0.207-0.295-0.25-0.493s-0.069-0.424-0.077-0.678v-3.626
		h-1.024V19.686z"/>
	<path fill="#FFFFFF" d="M-171.406,19.686h1.273v1.189h0.024c0.04-0.166,0.117-0.329,0.232-0.487
		c0.115-0.158,0.254-0.303,0.417-0.434s0.343-0.236,0.542-0.315s0.401-0.119,0.607-0.119c0.159,0,0.268,0.004,0.327,0.012
		s0.121,0.016,0.185,0.023v1.308c-0.095-0.016-0.192-0.03-0.292-0.042c-0.1-0.012-0.197-0.018-0.292-0.018
		c-0.23,0-0.446,0.046-0.648,0.137c-0.203,0.091-0.379,0.226-0.53,0.404c-0.151,0.179-0.27,0.398-0.357,0.66
		s-0.131,0.563-0.131,0.903v2.925h-1.357V19.686z"/>
	<path fill="#FFFFFF" d="M-167.18,17.344h1.357v1.284h-1.357V17.344z M-167.18,19.686h1.357v6.147h-1.357V19.686z"/>
	<path fill="#FFFFFF" d="M-160.192,21.743c-0.055-0.38-0.208-0.667-0.458-0.862s-0.565-0.292-0.946-0.292
		c-0.175,0-0.361,0.03-0.56,0.089c-0.199,0.059-0.381,0.17-0.548,0.333c-0.167,0.162-0.306,0.388-0.417,0.678
		c-0.111,0.289-0.167,0.667-0.167,1.135c0,0.254,0.03,0.507,0.089,0.761c0.06,0.254,0.155,0.479,0.286,0.678
		c0.131,0.198,0.299,0.358,0.506,0.481c0.206,0.123,0.456,0.185,0.75,0.185c0.396,0,0.724-0.123,0.982-0.369
		c0.258-0.245,0.418-0.59,0.482-1.034h1.357c-0.127,0.801-0.431,1.413-0.911,1.837c-0.48,0.425-1.117,0.637-1.911,0.637
		c-0.484,0-0.911-0.082-1.28-0.244s-0.681-0.385-0.935-0.666s-0.446-0.616-0.577-1.005c-0.131-0.388-0.197-0.809-0.197-1.26
		c0-0.459,0.063-0.892,0.19-1.296s0.317-0.755,0.572-1.052c0.254-0.297,0.569-0.531,0.946-0.702s0.819-0.256,1.327-0.256
		c0.357,0,0.696,0.046,1.018,0.137c0.321,0.091,0.607,0.228,0.857,0.411c0.25,0.182,0.454,0.412,0.613,0.689
		c0.159,0.277,0.254,0.606,0.286,0.987H-160.192z"/>
</g>
</svg>
