<?xml version="1.0" encoding="utf-8"?>
<!-- Generator: Adobe Illustrator 17.0.0, SVG Export Plug-In . SVG Version: 6.00 Build 0)  -->
<!DOCTYPE svg PUBLIC "-//W3C//DTD SVG 1.1//EN" "http://www.w3.org/Graphics/SVG/1.1/DTD/svg11.dtd">
<svg version="1.1" id="Layer_1" xmlns="http://www.w3.org/2000/svg" xmlns:xlink="http://www.w3.org/1999/xlink" x="0px" y="0px"
	 width="60.109px" height="44px" viewBox="-8.055 53.5 60.109 44" enable-background="new -8.055 53.5 60.109 44"
	 xml:space="preserve">
<g>
	<path fill="#FFFFFF" d="M3.83,71.047h5.612v1.329H5.194v2.301h3.93v1.256h-3.93v2.571h4.323v1.329H3.83V71.047z"/>
	<path fill="#FFFFFF" d="M10.566,71.047h1.245v8.786h-1.245V71.047z"/>
	<path fill="#FFFFFF" d="M14.135,77.015c0,0.246,0.031,0.484,0.093,0.714c0.062,0.23,0.154,0.431,0.278,0.604
		c0.124,0.172,0.28,0.31,0.469,0.412s0.415,0.153,0.677,0.153c0.364,0,0.657-0.088,0.879-0.265c0.222-0.176,0.388-0.44,0.497-0.793
		h1.179c-0.065,0.344-0.178,0.652-0.338,0.923s-0.353,0.498-0.579,0.683s-0.479,0.324-0.759,0.419
		c-0.28,0.094-0.573,0.141-0.879,0.141c-0.444,0-0.837-0.082-1.179-0.246c-0.342-0.164-0.632-0.394-0.868-0.688
		c-0.236-0.296-0.415-0.648-0.535-1.059c-0.12-0.41-0.18-0.861-0.18-1.354c0-0.451,0.063-0.88,0.191-1.286
		c0.127-0.406,0.309-0.763,0.546-1.07c0.236-0.308,0.522-0.552,0.857-0.732c0.334-0.181,0.713-0.271,1.135-0.271
		c0.444,0,0.842,0.104,1.196,0.313c0.353,0.209,0.646,0.486,0.879,0.831c0.232,0.345,0.402,0.74,0.507,1.188
		s0.133,0.908,0.082,1.384H14.135z M17.04,76.092c-0.015-0.221-0.057-0.435-0.125-0.64c-0.069-0.205-0.164-0.384-0.284-0.535
		c-0.12-0.151-0.266-0.274-0.437-0.369s-0.362-0.142-0.573-0.142c-0.218,0-0.417,0.043-0.595,0.129
		c-0.179,0.087-0.332,0.205-0.458,0.357c-0.127,0.151-0.229,0.33-0.306,0.535c-0.077,0.205-0.119,0.427-0.126,0.664H17.04z"/>
	<path fill="#FFFFFF" d="M23.044,75.6c-0.051-0.394-0.19-0.69-0.42-0.892s-0.519-0.302-0.868-0.302c-0.16,0-0.331,0.031-0.513,0.093
		c-0.182,0.062-0.35,0.176-0.502,0.344c-0.153,0.169-0.28,0.402-0.382,0.702c-0.102,0.299-0.153,0.69-0.153,1.175
		c0,0.263,0.027,0.525,0.082,0.787c0.055,0.263,0.142,0.497,0.262,0.702s0.274,0.371,0.464,0.498c0.189,0.127,0.418,0.19,0.688,0.19
		c0.364,0,0.664-0.127,0.9-0.381c0.236-0.255,0.384-0.611,0.442-1.071h1.245c-0.117,0.829-0.396,1.463-0.836,1.901
		c-0.44,0.439-1.024,0.658-1.751,0.658c-0.444,0-0.835-0.084-1.174-0.252s-0.624-0.397-0.857-0.689
		c-0.233-0.291-0.41-0.638-0.53-1.039c-0.12-0.402-0.18-0.837-0.18-1.305c0-0.476,0.058-0.923,0.174-1.342
		c0.117-0.418,0.291-0.781,0.524-1.089c0.232-0.308,0.522-0.549,0.868-0.726s0.751-0.265,1.217-0.265
		c0.328,0,0.639,0.047,0.934,0.142c0.294,0.095,0.557,0.235,0.786,0.425c0.229,0.188,0.416,0.426,0.562,0.713
		c0.146,0.288,0.233,0.628,0.263,1.021H23.044z"/>
	<path fill="#FFFFFF" d="M24.736,73.471h0.939v-1.907h1.244v1.907h1.125v1.046H26.92v3.396c0,0.147,0.006,0.275,0.017,0.382
		s0.036,0.197,0.076,0.271c0.04,0.074,0.1,0.129,0.181,0.166c0.079,0.037,0.188,0.056,0.327,0.056c0.087,0,0.175-0.002,0.262-0.006
		c0.088-0.005,0.175-0.019,0.263-0.043v1.082c-0.139,0.017-0.273,0.033-0.404,0.05s-0.266,0.024-0.404,0.024
		c-0.327,0-0.591-0.035-0.791-0.104s-0.356-0.173-0.47-0.308c-0.113-0.136-0.189-0.306-0.229-0.511s-0.063-0.438-0.07-0.701v-3.754
		h-0.939V73.471z"/>
	<path fill="#FFFFFF" d="M28.939,73.471h1.168v1.23h0.022c0.036-0.172,0.106-0.34,0.213-0.504c0.105-0.164,0.232-0.314,0.382-0.449
		c0.149-0.136,0.314-0.244,0.497-0.326c0.182-0.082,0.367-0.123,0.557-0.123c0.146,0,0.245,0.004,0.3,0.013
		c0.055,0.008,0.111,0.016,0.17,0.024v1.354c-0.088-0.017-0.177-0.031-0.268-0.043c-0.092-0.013-0.181-0.019-0.268-0.019
		c-0.212,0-0.41,0.047-0.596,0.142c-0.186,0.094-0.348,0.233-0.485,0.418c-0.139,0.185-0.248,0.412-0.328,0.684
		c-0.08,0.271-0.12,0.582-0.12,0.935v3.027h-1.244V73.471z"/>
	<path fill="#FFFFFF" d="M32.815,71.047h1.245v1.329h-1.245V71.047z M32.815,73.471h1.245v6.362h-1.245V73.471z"/>
	<path fill="#FFFFFF" d="M39.224,75.6c-0.051-0.394-0.19-0.69-0.42-0.892s-0.519-0.302-0.868-0.302c-0.16,0-0.331,0.031-0.513,0.093
		c-0.183,0.062-0.35,0.176-0.502,0.344c-0.153,0.169-0.28,0.402-0.383,0.702c-0.102,0.299-0.152,0.69-0.152,1.175
		c0,0.263,0.027,0.525,0.082,0.787c0.054,0.263,0.142,0.497,0.262,0.702s0.274,0.371,0.464,0.498s0.419,0.19,0.688,0.19
		c0.364,0,0.664-0.127,0.901-0.381c0.236-0.255,0.384-0.611,0.441-1.071h1.245c-0.116,0.829-0.396,1.463-0.835,1.901
		c-0.44,0.439-1.024,0.658-1.753,0.658c-0.443,0-0.835-0.084-1.173-0.252c-0.339-0.168-0.625-0.397-0.857-0.689
		c-0.233-0.291-0.409-0.638-0.529-1.039c-0.12-0.402-0.181-0.837-0.181-1.305c0-0.476,0.059-0.923,0.175-1.342
		c0.116-0.418,0.291-0.781,0.524-1.089c0.232-0.308,0.521-0.549,0.868-0.726c0.345-0.177,0.751-0.265,1.217-0.265
		c0.327,0,0.639,0.047,0.934,0.142s0.557,0.235,0.786,0.425c0.229,0.188,0.416,0.426,0.563,0.713
		c0.146,0.288,0.232,0.628,0.262,1.021H39.224z"/>
</g>
</svg>
