<svg id="Layer_1" data-name="Layer 1" xmlns="http://www.w3.org/2000/svg" viewBox="0 0 41.78 9.01"><defs><style>.cls-1{fill:#fff;}</style></defs><title>es</title><path class="cls-1" d="M18.13,3.09a.74.74,0,0,0-.07-.31.55.55,0,0,0-.18-.22.84.84,0,0,0-.27-.13,1.12,1.12,0,0,0-.32,0l-.26,0a.85.85,0,0,0-.24.09.52.52,0,0,0-.19.17.53.53,0,0,0-.07.26.35.35,0,0,0,.07.23.81.81,0,0,0,.16.16l.22.1.22.06.52.12a1.78,1.78,0,0,1,.33.09,1.69,1.69,0,0,1,.3.17.86.86,0,0,1,.21.26.74.74,0,0,1,.07.37.74.74,0,0,1-.11.44,1,1,0,0,1-.3.31,1.94,1.94,0,0,1-.42.17,2.49,2.49,0,0,1-.46,0,1.49,1.49,0,0,1-.91-.28A1.16,1.16,0,0,1,16,4.33h.4a.77.77,0,0,0,.28.6,1,1,0,0,0,.67.2,1,1,0,0,0,.29,0,.77.77,0,0,0,.28-.1.82.82,0,0,0,.22-.19.46.46,0,0,0,.09-.29.6.6,0,0,0-.06-.23A.65.65,0,0,0,18,4.12L17.8,4l-.26-.07L17,3.82l-.36-.11a1.1,1.1,0,0,1-.28-.17.6.6,0,0,1-.19-.23A.73.73,0,0,1,16.14,3a.73.73,0,0,1,.11-.42.83.83,0,0,1,.28-.28,1.59,1.59,0,0,1,.4-.16,2,2,0,0,1,.42-.05,2.12,2.12,0,0,1,.45.07,1,1,0,0,1,.37.19.9.9,0,0,1,.25.33,1.24,1.24,0,0,1,.11.46Z"/><path class="cls-1" d="M19.44,3.87a1.43,1.43,0,0,0,.06.45,1.32,1.32,0,0,0,.18.4A1.06,1.06,0,0,0,20,5a1,1,0,0,0,.48.12.91.91,0,0,0,.68-.23,1.16,1.16,0,0,0,.34-.59h.39a1.59,1.59,0,0,1-.46.85,1.37,1.37,0,0,1-1,.3,1.45,1.45,0,0,1-.65-.14A1,1,0,0,1,19.39,5a1.48,1.48,0,0,1-.26-.55A2.27,2.27,0,0,1,19,3.76a2.16,2.16,0,0,1,.09-.62,1.69,1.69,0,0,1,.26-.54,1.3,1.3,0,0,1,.45-.39,1.34,1.34,0,0,1,.66-.15,1.41,1.41,0,0,1,.67.16,1.53,1.53,0,0,1,.44.4,1.93,1.93,0,0,1,.24.59,2.46,2.46,0,0,1,.06.66Zm2.08-.33a1.56,1.56,0,0,0-.08-.43,1.07,1.07,0,0,0-.2-.36,1,1,0,0,0-.32-.26.73.73,0,0,0-.42-.09.76.76,0,0,0-.43.09,1.31,1.31,0,0,0-.32.25,1.17,1.17,0,0,0-.21.38,1.85,1.85,0,0,0-.11.42Z"/><path class="cls-1" d="M24.47.93h.38v.63h-.39Zm0,1.23h.39V5.39h-.39Z"/><path class="cls-1" d="M22.47,2.16h.36v.75h0a1.24,1.24,0,0,1,.47-.6,1.17,1.17,0,0,1,.75-.19v.39a1.12,1.12,0,0,0-.49.07,1.36,1.36,0,0,0-.38.24A1.23,1.23,0,0,0,23,3.2a1.18,1.18,0,0,0-.09.46V5.39h-.39Z"/><path class="cls-1" d="M25.68,3.88a1.72,1.72,0,0,0,.06.44,1.4,1.4,0,0,0,.19.41,1,1,0,0,0,.32.3,1,1,0,0,0,.49.12.9.9,0,0,0,.67-.23,1.2,1.2,0,0,0,.34-.59h.39a1.5,1.5,0,0,1-.46.85,1.34,1.34,0,0,1-.94.3,1.46,1.46,0,0,1-.66-.14A1.26,1.26,0,0,1,25.63,5a1.47,1.47,0,0,1-.26-.55,2.27,2.27,0,0,1-.08-.65,2.57,2.57,0,0,1,.08-.62,1.64,1.64,0,0,1,.26-.55,1.38,1.38,0,0,1,.45-.38,1.37,1.37,0,0,1,.66-.15,1.24,1.24,0,0,1,.66.16,1.27,1.27,0,0,1,.45.41,1.77,1.77,0,0,1,.24.58,2.11,2.11,0,0,1,.06.66Zm2.08-.33a1.55,1.55,0,0,0-.07-.43,1.17,1.17,0,0,0-.21-.36,1.1,1.1,0,0,0-.31-.26A1,1,0,0,0,26,2.76a1.42,1.42,0,0,0-.21.36,2.07,2.07,0,0,0-.1.43Z"/><path class="cls-1" d="M30.61,3.11a.74.74,0,0,0-.07-.31.67.67,0,0,0-.19-.22.5.5,0,0,0-.26-.13,1.64,1.64,0,0,0-.32-.05l-.26,0a.77.77,0,0,0-.25.1.49.49,0,0,0-.18.17A.53.53,0,0,0,29,3a.39.39,0,0,0,.06.23.8.8,0,0,0,.17.15,1.51,1.51,0,0,0,.22.11l.22.06.52.12a1.59,1.59,0,0,1,.33.09,1,1,0,0,1,.3.17.82.82,0,0,1,.21.27A.85.85,0,0,1,31,5a.86.86,0,0,1-.3.3,1.68,1.68,0,0,1-.41.17,2.38,2.38,0,0,1-.46,0,1.45,1.45,0,0,1-.91-.27,1.17,1.17,0,0,1-.41-.87h.4a.79.79,0,0,0,.29.61,1,1,0,0,0,.66.2,1.06,1.06,0,0,0,.29,0,.85.85,0,0,0,.28-.1.82.82,0,0,0,.22-.19.52.52,0,0,0,.08-.29.41.41,0,0,0-.06-.23.5.5,0,0,0-.15-.17A1.23,1.23,0,0,0,30.28,4L30,4l-.5-.11a2.57,2.57,0,0,1-.36-.11,1.48,1.48,0,0,1-.28-.17.59.59,0,0,1-.19-.23A.75.75,0,0,1,28.62,3a.82.82,0,0,1,.11-.42A.83.83,0,0,1,29,2.28a1.68,1.68,0,0,1,.39-.16,2.15,2.15,0,0,1,.43,0,1.33,1.33,0,0,1,.45.06,1.18,1.18,0,0,1,.37.19,1.11,1.11,0,0,1,.25.32,1.35,1.35,0,0,1,.11.47Z"/><path class="cls-1" d="M12.5,8.42,10.07,2.27,13.77.81l.55,1.39-2,.79.38.94,1.84-.73.54,1.35-1.85.73.42,1.07,2.06-.82.55,1.4Z"/></svg>