<?xml version="1.0" encoding="utf-8"?>
<!-- Generator: Adobe Illustrator 14.0.0, SVG Export Plug-In . SVG Version: 6.00 Build 43363)  -->
<!DOCTYPE svg PUBLIC "-//W3C//DTD SVG 1.1//EN" "http://www.w3.org/Graphics/SVG/1.1/DTD/svg11.dtd">
<svg version="1.1" id="Layer_1" xmlns="http://www.w3.org/2000/svg" xmlns:xlink="http://www.w3.org/1999/xlink" x="0px" y="0px"
	 width="34.404px" height="40.946px" viewBox="0 0 34.404 40.946" enable-background="new 0 0 34.404 40.946" xml:space="preserve">
<g>
	<polygon fill="#E7E5E5" points="6.685,19.62 1.15,19.62 1.15,15.407 0,15.407 0,25.336 1.15,25.336 1.15,20.634 6.685,20.634 
		6.685,25.336 7.835,25.336 7.835,15.407 6.685,15.407 	"/>
	<path fill="#E7E5E5" d="M15.024,19.035c-0.29-0.346-0.652-0.626-1.077-0.831c-0.852-0.412-2.087-0.412-2.938,0
		c-0.425,0.205-0.787,0.485-1.077,0.831c-0.289,0.344-0.511,0.754-0.66,1.22c-0.148,0.462-0.223,0.954-0.223,1.462
		c0,0.518,0.075,1.012,0.223,1.469c0.149,0.461,0.371,0.869,0.66,1.213c0.29,0.346,0.652,0.625,1.077,0.832
		c0.426,0.205,0.92,0.309,1.469,0.309s1.043-0.104,1.469-0.309c0.425-0.207,0.787-0.486,1.077-0.832
		c0.289-0.344,0.51-0.752,0.66-1.213c0.148-0.459,0.223-0.953,0.223-1.469c0-0.507-0.075-0.999-0.223-1.462
		C15.535,19.79,15.313,19.379,15.024,19.035z M14.824,21.717c0,0.357-0.051,0.715-0.152,1.061s-0.25,0.656-0.445,0.924
		c-0.193,0.268-0.439,0.484-0.731,0.648c-0.579,0.322-1.458,0.322-2.037,0c-0.292-0.164-0.538-0.381-0.731-0.648
		c-0.195-0.27-0.345-0.58-0.445-0.922c-0.101-0.348-0.152-0.705-0.152-1.063c0-0.358,0.051-0.716,0.152-1.063
		c0.1-0.343,0.25-0.653,0.445-0.923c0.193-0.266,0.439-0.484,0.731-0.647c0.289-0.162,0.632-0.244,1.018-0.244
		s0.729,0.082,1.018,0.243c0.292,0.164,0.538,0.382,0.731,0.647c0.195,0.269,0.344,0.58,0.445,0.923
		C14.773,21.001,14.824,21.358,14.824,21.717z"/>
	<path fill="#E7E5E5" d="M24.435,17.894c-0.479,0-0.937,0.119-1.359,0.354c-0.353,0.196-0.637,0.479-0.849,0.843
		c-0.15-0.362-0.39-0.645-0.716-0.841c-0.867-0.523-2.069-0.438-2.778,0.036c-0.313,0.21-0.579,0.483-0.761,0.782v-0.971h-1.015
		v7.239h1.083v-4.027c0-0.351,0.04-0.685,0.119-0.991c0.078-0.302,0.198-0.566,0.356-0.784c0.156-0.216,0.359-0.387,0.604-0.508
		c0.425-0.211,1.127-0.258,1.545-0.061c0.172,0.082,0.311,0.196,0.412,0.338c0.104,0.145,0.18,0.319,0.227,0.516
		c0.047,0.206,0.071,0.423,0.071,0.647v4.87h1.083v-4.082c0-0.316,0.029-0.627,0.086-0.922c0.056-0.288,0.153-0.547,0.291-0.771
		c0.133-0.217,0.316-0.394,0.545-0.525c0.226-0.13,0.518-0.196,0.867-0.196c0.576,0,0.98,0.139,1.202,0.413
		c0.227,0.281,0.342,0.703,0.342,1.254v4.829h1.083v-4.87C26.873,18.759,26.052,17.894,24.435,17.894z"/>
	<path fill="#E7E5E5" d="M33.315,22.799l-0.022,0.086c-0.13,0.512-0.365,0.93-0.7,1.242c-0.33,0.309-0.798,0.465-1.391,0.465
		c-0.386,0-0.721-0.082-0.996-0.242c-0.277-0.162-0.505-0.369-0.677-0.619c-0.173-0.248-0.305-0.533-0.392-0.848
		c-0.077-0.275-0.12-0.551-0.13-0.822h5.389l0.004-0.109c0.018-0.498-0.029-0.996-0.14-1.476c-0.11-0.486-0.297-0.925-0.553-1.302
		c-0.257-0.379-0.597-0.69-1.01-0.925c-0.826-0.471-2.164-0.463-2.99-0.022c-0.412,0.22-0.754,0.515-1.017,0.875
		c-0.261,0.359-0.456,0.771-0.581,1.226c-0.124,0.453-0.188,0.919-0.188,1.389c0,0.504,0.063,0.992,0.188,1.449
		c0.126,0.461,0.321,0.871,0.582,1.221c0.264,0.354,0.606,0.637,1.019,0.842c0.412,0.207,0.914,0.311,1.491,0.311
		c0.912,0,1.63-0.23,2.135-0.688c0.5-0.453,0.848-1.098,1.033-1.914l0.032-0.139H33.315z M33.311,21.113h-4.29
		c0.038-0.261,0.105-0.522,0.201-0.777c0.108-0.292,0.256-0.55,0.438-0.77c0.179-0.217,0.399-0.395,0.656-0.528
		c0.501-0.258,1.242-0.267,1.758,0c0.256,0.132,0.478,0.31,0.657,0.528c0.181,0.219,0.322,0.475,0.422,0.76
		C33.241,20.578,33.294,20.842,33.311,21.113z"/>
</g>
</svg>
