<?xml version="1.0" encoding="utf-8"?>
<!-- Generator: Adobe Illustrator 17.0.0, SVG Export Plug-In . SVG Version: 6.00 Build 0)  -->
<!DOCTYPE svg PUBLIC "-//W3C//DTD SVG 1.1//EN" "http://www.w3.org/Graphics/SVG/1.1/DTD/svg11.dtd">
<svg version="1.1" id="Layer_1" xmlns="http://www.w3.org/2000/svg" xmlns:xlink="http://www.w3.org/1999/xlink" x="0px" y="0px"
	 width="60.109px" height="44px" viewBox="55.945 53.5 60.109 44" enable-background="new 55.945 53.5 60.109 44"
	 xml:space="preserve">
<g>
	<path fill="#FFFFFF" d="M57.717,71.046h1.365v7.457h3.963v1.329h-5.328V71.046z"/>
	<path fill="#FFFFFF" d="M63.983,71.046h5.612v1.329h-4.247v2.301h3.93v1.256h-3.93v2.571h4.323v1.329h-5.688V71.046z"/>
	<path fill="#FFFFFF" d="M70.861,71.046h3.232c0.597,0,1.113,0.115,1.55,0.345s0.793,0.543,1.07,0.941
		c0.276,0.397,0.481,0.863,0.616,1.396s0.202,1.104,0.202,1.71c0,0.607-0.067,1.178-0.202,1.711s-0.34,0.999-0.616,1.396
		c-0.277,0.398-0.634,0.712-1.07,0.941s-0.953,0.345-1.55,0.345h-3.232V71.046z M72.227,78.577h1.343c0.531,0,0.966-0.08,1.305-0.24
		c0.338-0.16,0.604-0.382,0.797-0.664c0.192-0.283,0.324-0.616,0.393-0.997c0.069-0.382,0.104-0.794,0.104-1.237
		c0-0.442-0.035-0.854-0.104-1.236c-0.068-0.382-0.2-0.714-0.393-0.997c-0.193-0.282-0.459-0.504-0.797-0.664
		c-0.339-0.16-0.773-0.24-1.305-0.24h-1.343V78.577z"/>
	<path fill="#FFFFFF" d="M82.674,76.903c0,0.337,0.051,0.623,0.153,0.861c0.102,0.238,0.243,0.433,0.426,0.585
		c0.182,0.151,0.391,0.263,0.627,0.332c0.237,0.069,0.493,0.104,0.771,0.104c0.298,0,0.553-0.039,0.764-0.117
		s0.382-0.178,0.514-0.302c0.131-0.123,0.226-0.264,0.284-0.424c0.058-0.16,0.087-0.322,0.087-0.486
		c0-0.336-0.067-0.585-0.202-0.744c-0.135-0.16-0.282-0.273-0.442-0.339c-0.276-0.114-0.599-0.224-0.966-0.326
		c-0.368-0.103-0.821-0.235-1.359-0.399c-0.335-0.099-0.613-0.228-0.835-0.388c-0.223-0.16-0.398-0.339-0.53-0.535
		c-0.131-0.197-0.224-0.406-0.278-0.628s-0.081-0.447-0.081-0.677c0-0.443,0.081-0.826,0.245-1.15s0.38-0.593,0.649-0.807
		c0.27-0.213,0.575-0.371,0.917-0.474c0.343-0.103,0.688-0.153,1.037-0.153c0.408,0,0.792,0.06,1.152,0.178
		c0.36,0.119,0.677,0.298,0.95,0.536c0.272,0.237,0.489,0.531,0.649,0.88s0.24,0.752,0.24,1.212h-1.364
		c-0.037-0.566-0.208-0.966-0.514-1.2c-0.306-0.233-0.695-0.351-1.169-0.351c-0.16,0-0.323,0.019-0.491,0.056
		c-0.167,0.037-0.32,0.099-0.458,0.185c-0.139,0.086-0.253,0.203-0.344,0.351c-0.092,0.147-0.137,0.332-0.137,0.554
		c0,0.312,0.085,0.556,0.257,0.732c0.171,0.176,0.395,0.31,0.671,0.399c0.029,0.009,0.144,0.043,0.344,0.104s0.424,0.13,0.672,0.203
		c0.247,0.074,0.489,0.146,0.726,0.216c0.236,0.069,0.406,0.121,0.508,0.153c0.255,0.091,0.477,0.214,0.666,0.369
		c0.189,0.156,0.348,0.335,0.476,0.535c0.127,0.201,0.222,0.417,0.283,0.646c0.063,0.229,0.093,0.46,0.093,0.689
		c0,0.492-0.089,0.912-0.268,1.261c-0.178,0.349-0.413,0.634-0.703,0.855c-0.292,0.222-0.623,0.384-0.994,0.486
		s-0.75,0.153-1.136,0.153c-0.444,0-0.862-0.062-1.255-0.185c-0.394-0.123-0.735-0.312-1.026-0.565
		c-0.292-0.255-0.524-0.581-0.699-0.979c-0.175-0.398-0.266-0.868-0.272-1.409H82.674z"/>
	<path fill="#FFFFFF" d="M92.488,75.599c-0.051-0.394-0.19-0.69-0.42-0.892s-0.519-0.302-0.868-0.302
		c-0.16,0-0.331,0.031-0.513,0.093c-0.183,0.062-0.35,0.176-0.502,0.344c-0.153,0.169-0.28,0.402-0.383,0.702
		c-0.102,0.299-0.152,0.69-0.152,1.175c0,0.263,0.027,0.525,0.082,0.787c0.054,0.263,0.142,0.497,0.262,0.702
		s0.274,0.371,0.464,0.498s0.419,0.19,0.688,0.19c0.364,0,0.664-0.127,0.901-0.381c0.236-0.255,0.384-0.611,0.441-1.071h1.245
		c-0.116,0.829-0.396,1.463-0.835,1.901c-0.44,0.439-1.024,0.658-1.753,0.658c-0.443,0-0.835-0.084-1.173-0.252
		c-0.339-0.168-0.625-0.397-0.857-0.689c-0.233-0.291-0.409-0.638-0.529-1.039c-0.12-0.402-0.181-0.837-0.181-1.305
		c0-0.476,0.059-0.923,0.175-1.342c0.116-0.418,0.291-0.781,0.524-1.089c0.232-0.308,0.521-0.549,0.868-0.726
		c0.345-0.177,0.751-0.265,1.217-0.265c0.327,0,0.639,0.047,0.934,0.142s0.557,0.235,0.786,0.425
		c0.229,0.188,0.416,0.426,0.563,0.713c0.146,0.288,0.232,0.628,0.262,1.021H92.488z"/>
	<path fill="#FFFFFF" d="M94.749,73.47h1.168v1.23h0.021c0.037-0.172,0.107-0.34,0.213-0.504s0.233-0.314,0.383-0.449
		c0.148-0.136,0.314-0.244,0.496-0.326s0.368-0.123,0.557-0.123c0.146,0,0.246,0.004,0.301,0.013
		c0.055,0.008,0.11,0.016,0.169,0.024v1.354c-0.087-0.017-0.177-0.031-0.268-0.043c-0.091-0.013-0.18-0.019-0.268-0.019
		c-0.211,0-0.409,0.047-0.595,0.142c-0.186,0.094-0.348,0.233-0.485,0.418c-0.139,0.185-0.248,0.412-0.328,0.684
		c-0.08,0.271-0.12,0.582-0.12,0.935v3.027h-1.244V73.47z"/>
	<path fill="#FFFFFF" d="M99.367,77.014c0,0.246,0.03,0.484,0.093,0.714c0.062,0.23,0.154,0.431,0.278,0.604
		c0.123,0.172,0.28,0.31,0.47,0.412c0.188,0.103,0.414,0.153,0.677,0.153c0.363,0,0.656-0.088,0.879-0.265
		c0.222-0.176,0.388-0.44,0.496-0.793h1.18c-0.065,0.344-0.179,0.652-0.339,0.923s-0.353,0.498-0.578,0.683
		s-0.479,0.324-0.759,0.419c-0.28,0.094-0.573,0.141-0.879,0.141c-0.444,0-0.837-0.082-1.18-0.246
		c-0.342-0.164-0.631-0.394-0.867-0.688c-0.237-0.296-0.415-0.648-0.535-1.059s-0.181-0.861-0.181-1.354
		c0-0.451,0.063-0.88,0.191-1.286c0.127-0.406,0.31-0.763,0.546-1.07s0.522-0.552,0.856-0.732c0.335-0.181,0.714-0.271,1.136-0.271
		c0.444,0,0.843,0.104,1.195,0.313c0.354,0.209,0.646,0.486,0.879,0.831c0.233,0.345,0.402,0.74,0.508,1.188
		s0.133,0.908,0.082,1.384H99.367z M102.271,76.091c-0.015-0.221-0.056-0.435-0.125-0.64s-0.164-0.384-0.284-0.535
		s-0.266-0.274-0.437-0.369s-0.362-0.142-0.573-0.142c-0.218,0-0.417,0.043-0.595,0.129c-0.179,0.087-0.331,0.205-0.459,0.357
		c-0.127,0.151-0.229,0.33-0.306,0.535c-0.076,0.205-0.118,0.427-0.125,0.664H102.271z"/>
	<path fill="#FFFFFF" d="M105.438,77.014c0,0.246,0.03,0.484,0.093,0.714c0.062,0.23,0.154,0.431,0.278,0.604
		c0.123,0.172,0.28,0.31,0.47,0.412c0.188,0.103,0.414,0.153,0.677,0.153c0.363,0,0.656-0.088,0.879-0.265
		c0.222-0.176,0.388-0.44,0.496-0.793h1.18c-0.065,0.344-0.179,0.652-0.339,0.923s-0.353,0.498-0.578,0.683
		s-0.479,0.324-0.759,0.419c-0.28,0.094-0.573,0.141-0.879,0.141c-0.444,0-0.837-0.082-1.18-0.246
		c-0.342-0.164-0.631-0.394-0.867-0.688c-0.237-0.296-0.415-0.648-0.535-1.059s-0.181-0.861-0.181-1.354
		c0-0.451,0.063-0.88,0.191-1.286c0.127-0.406,0.31-0.763,0.546-1.07s0.522-0.552,0.856-0.732c0.335-0.181,0.714-0.271,1.136-0.271
		c0.444,0,0.843,0.104,1.195,0.313c0.354,0.209,0.646,0.486,0.879,0.831c0.233,0.345,0.402,0.74,0.508,1.188
		s0.133,0.908,0.082,1.384H105.438z M108.341,76.091c-0.015-0.221-0.056-0.435-0.125-0.64s-0.164-0.384-0.284-0.535
		s-0.266-0.274-0.437-0.369s-0.362-0.142-0.573-0.142c-0.218,0-0.417,0.043-0.595,0.129c-0.179,0.087-0.331,0.205-0.459,0.357
		c-0.127,0.151-0.229,0.33-0.306,0.535c-0.076,0.205-0.118,0.427-0.125,0.664H108.341z"/>
	<path fill="#FFFFFF" d="M110.536,73.47h1.179v0.936l0.022,0.024c0.188-0.353,0.437-0.629,0.742-0.83s0.644-0.302,1.015-0.302
		c0.619,0,1.106,0.181,1.463,0.541c0.357,0.361,0.535,0.903,0.535,1.625v4.368h-1.244v-3.999c-0.015-0.501-0.109-0.863-0.284-1.089
		s-0.447-0.339-0.818-0.339c-0.212,0-0.4,0.043-0.568,0.129c-0.167,0.087-0.31,0.205-0.426,0.357
		c-0.116,0.151-0.207,0.33-0.272,0.535s-0.099,0.423-0.099,0.652v3.753h-1.244V73.47z"/>
</g>
</svg>
