<?xml version="1.0" encoding="utf-8"?>
<!-- Generator: Adobe Illustrator 14.0.0, SVG Export Plug-In . SVG Version: 6.00 Build 43363)  -->
<!DOCTYPE svg PUBLIC "-//W3C//DTD SVG 1.1//EN" "http://www.w3.org/Graphics/SVG/1.1/DTD/svg11.dtd">
<svg version="1.1" id="Layer_1" xmlns="http://www.w3.org/2000/svg" xmlns:xlink="http://www.w3.org/1999/xlink" x="0px" y="0px"
	 width="67.935px" height="40.946px" viewBox="0 0 67.935 40.946" enable-background="new 0 0 67.935 40.946" xml:space="preserve">
<g>
	<polygon fill="#E7E5E5" points="1.151,15.509 0,15.509 0,25.438 6.586,25.438 6.586,24.422 1.151,24.422 	"/>
	<polygon fill="#E7E5E5" points="8.447,20.817 13.855,20.817 13.855,19.803 8.447,19.803 8.447,16.523 14.222,16.523 14.222,15.509 
		7.297,15.509 7.297,25.438 14.29,25.438 14.29,24.422 8.447,24.422 	"/>
	<path fill="#E7E5E5" d="M18.824,15.509h-3.469v9.929h3.471h0.001c1.493-0.038,2.639-0.47,3.409-1.285
		c0.769-0.815,1.159-2.053,1.159-3.679s-0.39-2.863-1.159-3.679S20.319,15.546,18.824,15.509z M16.505,16.523h1.857
		c0.683,0,1.277,0.074,1.768,0.22c0.482,0.144,0.884,0.374,1.195,0.686c0.311,0.311,0.544,0.719,0.692,1.216
		c0.15,0.502,0.226,1.117,0.226,1.829c0,0.711-0.076,1.326-0.227,1.828c-0.147,0.495-0.379,0.903-0.691,1.216
		c-0.312,0.312-0.714,0.542-1.196,0.685c-0.487,0.146-1.082,0.22-1.768,0.22h-1.857V16.523z"/>
	<path fill="#E7E5E5" d="M34.978,20.937c-0.238-0.201-0.518-0.371-0.83-0.507c-0.308-0.133-0.64-0.247-0.989-0.339l-2.367-0.585
		c-0.192-0.043-0.374-0.102-0.544-0.177c-0.165-0.07-0.313-0.161-0.441-0.269c-0.125-0.104-0.219-0.228-0.289-0.381
		c-0.07-0.152-0.105-0.335-0.105-0.543c0-0.342,0.064-0.63,0.19-0.856c0.126-0.228,0.295-0.413,0.501-0.552
		c0.208-0.141,0.456-0.244,0.736-0.31c0.599-0.137,1.271-0.136,1.844,0.039c0.297,0.09,0.566,0.226,0.8,0.402
		c0.229,0.175,0.416,0.396,0.552,0.656c0.136,0.26,0.214,0.571,0.232,0.925l0.005,0.107h1.145v-0.113c0-0.513-0.1-0.972-0.297-1.363
		c-0.197-0.389-0.471-0.72-0.813-0.982c-0.339-0.261-0.738-0.459-1.186-0.59c-0.443-0.129-0.915-0.194-1.404-0.194
		c-0.692,0-1.27,0.102-1.718,0.302c-0.446,0.199-0.805,0.448-1.064,0.741s-0.439,0.609-0.534,0.941
		c-0.093,0.323-0.14,0.613-0.14,0.859c0,0.396,0.065,0.736,0.194,1.013s0.3,0.513,0.509,0.702c0.208,0.188,0.452,0.342,0.726,0.455
		c0.267,0.111,0.549,0.203,0.845,0.278l2.161,0.528c0.222,0.054,0.449,0.123,0.681,0.207c0.226,0.082,0.434,0.19,0.62,0.32
		c0.18,0.125,0.329,0.282,0.443,0.469c0.11,0.18,0.167,0.397,0.167,0.647c0,0.328-0.08,0.61-0.238,0.838
		c-0.164,0.237-0.364,0.428-0.611,0.581c-0.247,0.151-0.518,0.263-0.803,0.332c-0.817,0.197-1.438,0.11-2.027-0.02
		c-0.375-0.085-0.702-0.224-0.972-0.412c-0.273-0.19-0.481-0.438-0.636-0.758c-0.155-0.318-0.229-0.722-0.22-1.198l0.002-0.115
		h-1.148l-0.005,0.108c-0.028,0.603,0.055,1.134,0.247,1.579c0.193,0.446,0.471,0.817,0.828,1.102
		c0.354,0.285,0.789,0.498,1.292,0.633c0.499,0.134,1.044,0.201,1.619,0.201c0.575,0,1.078-0.054,1.495-0.159
		c0.415-0.105,0.771-0.25,1.058-0.428c0.284-0.178,0.514-0.378,0.683-0.599c0.168-0.223,0.293-0.434,0.381-0.644
		c0.09-0.213,0.146-0.418,0.17-0.605s0.035-0.337,0.035-0.45c0-0.412-0.07-0.771-0.207-1.067
		C35.415,21.396,35.223,21.144,34.978,20.937z"/>
	<path fill="#E7E5E5" d="M41.836,22.8c-0.025,0.276-0.096,0.533-0.207,0.763c-0.111,0.232-0.254,0.435-0.424,0.601
		c-0.172,0.165-0.371,0.297-0.59,0.391c-0.566,0.237-1.246,0.162-1.723-0.104c-0.291-0.163-0.537-0.381-0.732-0.647
		c-0.195-0.269-0.344-0.578-0.443-0.922c-0.102-0.348-0.152-0.705-0.152-1.063s0.051-0.715,0.152-1.063
		c0.1-0.342,0.248-0.652,0.443-0.923c0.195-0.266,0.441-0.484,0.734-0.647c0.287-0.161,0.629-0.243,1.016-0.243
		c0.531,0,0.951,0.141,1.248,0.418c0.303,0.282,0.514,0.678,0.627,1.178l0.02,0.089h1.074L42.864,20.5
		c-0.104-0.833-0.432-1.467-0.975-1.884c-0.539-0.411-1.205-0.62-1.979-0.62c-0.549,0-1.043,0.104-1.469,0.31
		c-0.424,0.205-0.785,0.484-1.076,0.831c-0.289,0.345-0.512,0.755-0.66,1.22c-0.148,0.463-0.223,0.954-0.223,1.462
		c0,0.516,0.074,1.01,0.223,1.469c0.148,0.46,0.371,0.868,0.66,1.214c0.291,0.346,0.654,0.625,1.076,0.83
		c0.426,0.205,0.92,0.31,1.469,0.31c0.814,0,1.496-0.253,2.027-0.751c0.529-0.496,0.859-1.19,0.98-2.063l0.018-0.129h-1.09
		L41.836,22.8z"/>
	<path fill="#E7E5E5" d="M47.579,18.109l-0.266-0.009c-0.59,0-1.109,0.149-1.547,0.444c-0.357,0.24-0.646,0.561-0.863,0.954v-1.3
		h-1.016v7.238h1.084v-3.85c0-0.348,0.063-0.677,0.182-0.978c0.121-0.301,0.293-0.562,0.512-0.776
		c0.219-0.216,0.482-0.383,0.783-0.498c0.26-0.101,0.551-0.152,0.867-0.152l0.264,0.01V18.109z"/>
	<path fill="#E7E5E5" d="M52.942,22.985c-0.131,0.512-0.367,0.93-0.701,1.242c-0.334,0.313-0.789,0.466-1.391,0.466
		c-0.385,0-0.721-0.082-0.996-0.242c-0.279-0.164-0.508-0.372-0.678-0.619c-0.172-0.248-0.303-0.533-0.391-0.849
		c-0.076-0.274-0.121-0.55-0.131-0.821h5.389l0.004-0.109c0.018-0.499-0.029-0.995-0.139-1.476
		c-0.109-0.483-0.295-0.922-0.553-1.303c-0.258-0.379-0.598-0.689-1.01-0.924c-0.828-0.472-2.166-0.464-2.99-0.022
		c-0.412,0.221-0.754,0.515-1.018,0.876c-0.26,0.359-0.455,0.771-0.58,1.226c-0.123,0.448-0.188,0.916-0.188,1.389
		c0,0.508,0.064,0.995,0.188,1.449c0.125,0.46,0.32,0.871,0.582,1.22c0.264,0.353,0.605,0.637,1.018,0.843s0.914,0.311,1.492,0.311
		c0.912,0,1.631-0.231,2.135-0.688c0.5-0.452,0.846-1.097,1.033-1.914l0.031-0.139h-1.086L52.942,22.985z M52.959,21.215h-4.291
		c0.039-0.26,0.107-0.521,0.203-0.777c0.109-0.293,0.256-0.552,0.436-0.77s0.4-0.396,0.658-0.527c0.5-0.259,1.242-0.267,1.758,0
		c0.254,0.132,0.477,0.31,0.656,0.527c0.18,0.22,0.322,0.476,0.422,0.761C52.889,20.68,52.942,20.943,52.959,21.215z"/>
	<path fill="#E7E5E5" d="M59.993,22.986c-0.129,0.509-0.365,0.926-0.703,1.242c-0.326,0.309-0.793,0.465-1.389,0.465
		c-0.385,0-0.719-0.082-0.996-0.242c-0.279-0.164-0.508-0.372-0.676-0.619c-0.174-0.251-0.307-0.537-0.393-0.849
		c-0.078-0.284-0.121-0.554-0.131-0.821h5.389l0.004-0.108c0.02-0.489-0.025-0.986-0.137-1.477c-0.113-0.49-0.299-0.928-0.555-1.303
		c-0.258-0.38-0.598-0.69-1.008-0.924c-0.832-0.471-2.164-0.465-2.99-0.022c-0.412,0.221-0.754,0.515-1.018,0.876
		c-0.26,0.357-0.455,0.771-0.582,1.226c-0.123,0.448-0.188,0.916-0.188,1.389c0,0.508,0.064,0.995,0.188,1.45
		c0.127,0.461,0.324,0.871,0.584,1.219c0.264,0.353,0.605,0.637,1.018,0.843s0.914,0.311,1.49,0.311
		c0.914,0,1.633-0.231,2.135-0.688c0.502-0.455,0.85-1.099,1.033-1.914L61.1,22.9h-1.086L59.993,22.986z M60.01,21.215h-4.289
		c0.039-0.265,0.107-0.525,0.201-0.777c0.107-0.288,0.254-0.547,0.436-0.769c0.182-0.219,0.402-0.396,0.658-0.528
		c0.5-0.259,1.242-0.267,1.758,0c0.258,0.134,0.479,0.312,0.656,0.527c0.184,0.224,0.324,0.479,0.422,0.761
		C59.94,20.68,59.993,20.943,60.01,21.215z"/>
	<path fill="#E7E5E5" d="M67.809,19.658c-0.086-0.35-0.236-0.651-0.445-0.897c-0.215-0.245-0.496-0.436-0.84-0.568
		c-0.521-0.198-1.305-0.298-2.023-0.091c-0.246,0.072-0.475,0.172-0.68,0.298s-0.391,0.284-0.551,0.472
		c-0.064,0.075-0.121,0.153-0.174,0.234v-0.906h-1.082v7.238h1.082v-4.2c0.01-0.33,0.063-0.642,0.158-0.925
		c0.096-0.278,0.232-0.521,0.41-0.722c0.182-0.201,0.4-0.361,0.65-0.476c0.502-0.229,1.256-0.223,1.686-0.021
		c0.211,0.1,0.381,0.238,0.506,0.411c0.125,0.178,0.215,0.39,0.266,0.631c0.053,0.249,0.08,0.522,0.08,0.813v4.488h1.082v-4.624
		C67.934,20.389,67.893,20.001,67.809,19.658z"/>
</g>
</svg>
