<?xml version="1.0" encoding="utf-8"?>
<!-- Generator: Adobe Illustrator 17.0.0, SVG Export Plug-In . SVG Version: 6.00 Build 0)  -->
<!DOCTYPE svg PUBLIC "-//W3C//DTD SVG 1.1//EN" "http://www.w3.org/Graphics/SVG/1.1/DTD/svg11.dtd">
<svg version="1.1" id="Layer_1" xmlns="http://www.w3.org/2000/svg" xmlns:xlink="http://www.w3.org/1999/xlink" x="0px" y="0px"
	 width="44px" height="44px" viewBox="-53.875 0 44 44" enable-background="new -53.875 0 44 44" xml:space="preserve">
<path fill="none" d="M-53.875,0h44v44h-44V0z"/>
<g>
	<path fill="#FFFFFF" d="M-53.064,18.323h3.359c0.541,0,0.981,0.078,1.323,0.234c0.341,0.157,0.604,0.352,0.789,0.587
		c0.185,0.234,0.311,0.49,0.378,0.768c0.068,0.277,0.102,0.533,0.102,0.768c0,0.234-0.034,0.489-0.102,0.763
		c-0.067,0.273-0.193,0.528-0.378,0.762c-0.185,0.235-0.448,0.428-0.789,0.582s-0.782,0.229-1.323,0.229h-2.026v2.922h-1.333V18.323
		z M-51.731,21.927h1.952c0.149,0,0.302-0.021,0.459-0.064c0.156-0.042,0.3-0.112,0.432-0.208c0.131-0.096,0.238-0.224,0.32-0.384
		c0.082-0.16,0.123-0.361,0.123-0.603c0-0.249-0.036-0.455-0.107-0.619c-0.071-0.164-0.167-0.293-0.288-0.389
		c-0.121-0.096-0.259-0.162-0.416-0.197c-0.157-0.036-0.324-0.053-0.501-0.053h-1.973V21.927z"/>
	<path fill="#FFFFFF" d="M-46.121,20.424h1.141v1.066h0.021c0.036-0.149,0.105-0.295,0.208-0.438
		c0.103-0.142,0.228-0.272,0.374-0.389c0.146-0.117,0.307-0.211,0.485-0.283c0.177-0.071,0.359-0.106,0.543-0.106
		c0.143,0,0.24,0.003,0.293,0.011c0.053,0.007,0.108,0.014,0.166,0.021v1.173c-0.085-0.014-0.173-0.027-0.261-0.037
		c-0.089-0.011-0.176-0.016-0.262-0.016c-0.206,0-0.4,0.041-0.581,0.123c-0.181,0.082-0.339,0.203-0.475,0.363
		c-0.135,0.16-0.242,0.357-0.32,0.592c-0.079,0.234-0.117,0.504-0.117,0.811v2.623h-1.216V20.424z"/>
	<path fill="#FFFFFF" d="M-41.61,23.495c0,0.214,0.03,0.42,0.091,0.618c0.061,0.199,0.151,0.374,0.272,0.523
		s0.274,0.269,0.458,0.356c0.185,0.09,0.405,0.134,0.662,0.134c0.355,0,0.641-0.076,0.858-0.229
		c0.217-0.152,0.378-0.382,0.485-0.688h1.152c-0.064,0.299-0.174,0.565-0.331,0.8c-0.156,0.234-0.345,0.432-0.565,0.592
		c-0.221,0.16-0.468,0.281-0.741,0.362c-0.274,0.082-0.56,0.123-0.858,0.123c-0.434,0-0.818-0.071-1.152-0.214
		c-0.334-0.142-0.617-0.341-0.848-0.597s-0.405-0.562-0.522-0.917s-0.176-0.747-0.176-1.174c0-0.391,0.063-0.762,0.187-1.114
		c0.124-0.352,0.302-0.661,0.533-0.928c0.231-0.267,0.51-0.478,0.837-0.635c0.327-0.156,0.697-0.234,1.109-0.234
		c0.434,0,0.823,0.09,1.168,0.272c0.345,0.181,0.631,0.421,0.858,0.72c0.228,0.299,0.393,0.642,0.496,1.029
		c0.103,0.388,0.129,0.788,0.08,1.2H-41.61z M-38.773,22.695c-0.014-0.191-0.055-0.377-0.123-0.555
		c-0.067-0.178-0.16-0.332-0.277-0.464c-0.117-0.131-0.259-0.238-0.426-0.32c-0.167-0.082-0.354-0.123-0.56-0.123
		c-0.213,0-0.407,0.037-0.581,0.112c-0.174,0.075-0.324,0.178-0.448,0.309c-0.125,0.132-0.224,0.287-0.298,0.464
		s-0.116,0.37-0.123,0.576H-38.773z"/>
	<path fill="#FFFFFF" d="M-36.629,20.424h1.151v0.768h0.032c0.092-0.135,0.192-0.259,0.299-0.373
		c0.106-0.114,0.226-0.21,0.357-0.288c0.132-0.078,0.283-0.14,0.454-0.187c0.17-0.046,0.366-0.069,0.586-0.069
		c0.334,0,0.645,0.075,0.933,0.224c0.288,0.149,0.492,0.38,0.613,0.693c0.206-0.284,0.444-0.508,0.714-0.672
		c0.271-0.164,0.608-0.245,1.013-0.245c0.583,0,1.037,0.142,1.36,0.427c0.324,0.284,0.485,0.761,0.485,1.429v3.808h-1.216v-3.221
		c0-0.221-0.007-0.421-0.021-0.603c-0.014-0.182-0.055-0.338-0.123-0.469c-0.067-0.132-0.169-0.233-0.304-0.304
		c-0.135-0.071-0.32-0.106-0.555-0.106c-0.413,0-0.711,0.128-0.896,0.384s-0.277,0.619-0.277,1.088v3.231h-1.216v-3.541
		c0-0.384-0.069-0.673-0.208-0.869c-0.139-0.195-0.393-0.293-0.762-0.293c-0.157,0-0.308,0.032-0.454,0.096
		c-0.146,0.064-0.273,0.157-0.384,0.277c-0.11,0.121-0.199,0.271-0.267,0.448c-0.068,0.178-0.101,0.381-0.101,0.608v3.274h-1.216
		V20.424z"/>
	<path fill="#FFFFFF" d="M-27.319,18.323h1.216v1.152h-1.216V18.323z M-27.319,20.424h1.216v5.514h-1.216V20.424z"/>
	<path fill="#FFFFFF" d="M-19.938,25.938h-1.194V25.17h-0.021c-0.149,0.277-0.372,0.499-0.667,0.666
		c-0.295,0.167-0.596,0.251-0.901,0.251c-0.725,0-1.25-0.18-1.573-0.539c-0.323-0.358-0.485-0.9-0.485-1.626v-3.498h1.216v3.381
		c0,0.483,0.092,0.824,0.277,1.023c0.185,0.199,0.444,0.299,0.779,0.299c0.256,0,0.469-0.039,0.64-0.117
		c0.171-0.078,0.31-0.183,0.416-0.314c0.107-0.132,0.183-0.29,0.229-0.475c0.046-0.186,0.069-0.385,0.069-0.598v-3.199h1.216V25.938
		z"/>
	<path fill="#FFFFFF" d="M-18.659,20.424h1.151v0.768h0.032c0.092-0.135,0.192-0.259,0.299-0.373
		c0.106-0.114,0.226-0.21,0.357-0.288c0.132-0.078,0.283-0.14,0.454-0.187c0.17-0.046,0.366-0.069,0.586-0.069
		c0.334,0,0.645,0.075,0.933,0.224c0.288,0.149,0.492,0.38,0.613,0.693c0.206-0.284,0.444-0.508,0.714-0.672
		c0.271-0.164,0.608-0.245,1.013-0.245c0.583,0,1.037,0.142,1.36,0.427c0.324,0.284,0.485,0.761,0.485,1.429v3.808h-1.216v-3.221
		c0-0.221-0.007-0.421-0.021-0.603c-0.014-0.182-0.055-0.338-0.123-0.469c-0.067-0.132-0.169-0.233-0.304-0.304
		c-0.135-0.071-0.32-0.106-0.555-0.106c-0.413,0-0.711,0.128-0.896,0.384s-0.277,0.619-0.277,1.088v3.231h-1.216v-3.541
		c0-0.384-0.069-0.673-0.208-0.869c-0.139-0.195-0.393-0.293-0.762-0.293c-0.157,0-0.308,0.032-0.454,0.096
		c-0.146,0.064-0.273,0.157-0.384,0.277c-0.11,0.121-0.199,0.271-0.267,0.448c-0.068,0.178-0.101,0.381-0.101,0.608v3.274h-1.216
		V20.424z"/>
</g>
</svg>
