<?xml version="1.0" encoding="utf-8"?>
<!-- Generator: Adobe Illustrator 17.0.0, SVG Export Plug-In . SVG Version: 6.00 Build 0)  -->
<!DOCTYPE svg PUBLIC "-//W3C//DTD SVG 1.1//EN" "http://www.w3.org/Graphics/SVG/1.1/DTD/svg11.dtd">
<svg version="1.1" id="Layer_1" xmlns="http://www.w3.org/2000/svg" xmlns:xlink="http://www.w3.org/1999/xlink" x="0px" y="0px"
	 width="60.109px" height="44px" viewBox="-200.708 53.5 60.109 44" enable-background="new -200.708 53.5 60.109 44"
	 xml:space="preserve">
<g>
	<path fill="#FFFFFF" d="M-192.087,71.047h3.439c0.553,0,1.004,0.091,1.354,0.271c0.349,0.181,0.619,0.406,0.808,0.677
		c0.189,0.271,0.318,0.566,0.388,0.886c0.069,0.32,0.104,0.616,0.104,0.887s-0.035,0.563-0.104,0.88
		c-0.069,0.315-0.198,0.608-0.388,0.88c-0.189,0.271-0.458,0.494-0.808,0.67c-0.35,0.177-0.801,0.265-1.354,0.265h-2.074v3.372
		h-1.365V71.047z M-190.722,75.206h1.998c0.153,0,0.309-0.024,0.469-0.074c0.16-0.049,0.308-0.129,0.442-0.239
		c0.134-0.111,0.244-0.259,0.328-0.443c0.083-0.185,0.125-0.416,0.125-0.695c0-0.287-0.037-0.524-0.109-0.714
		c-0.073-0.188-0.171-0.338-0.295-0.449c-0.124-0.11-0.266-0.187-0.426-0.228s-0.331-0.062-0.513-0.062h-2.02V75.206z"/>
	<path fill="#FFFFFF" d="M-184.979,73.471h1.168v1.23h0.022c0.036-0.172,0.107-0.34,0.213-0.504
		c0.105-0.164,0.233-0.314,0.382-0.449c0.149-0.136,0.315-0.244,0.497-0.326c0.182-0.082,0.367-0.123,0.557-0.123
		c0.146,0,0.246,0.004,0.3,0.013c0.055,0.008,0.111,0.016,0.169,0.024v1.354c-0.087-0.017-0.176-0.031-0.267-0.043
		c-0.091-0.013-0.18-0.019-0.268-0.019c-0.211,0-0.41,0.047-0.595,0.142c-0.186,0.094-0.348,0.233-0.486,0.418
		s-0.248,0.412-0.328,0.684c-0.08,0.271-0.12,0.582-0.12,0.935v3.027h-1.244V73.471z"/>
	<path fill="#FFFFFF" d="M-180.362,77.015c0,0.246,0.031,0.484,0.093,0.714c0.062,0.23,0.154,0.431,0.278,0.604
		c0.124,0.172,0.28,0.31,0.469,0.412s0.415,0.153,0.677,0.153c0.364,0,0.657-0.088,0.879-0.265c0.222-0.176,0.388-0.44,0.497-0.793
		h1.179c-0.065,0.344-0.178,0.652-0.338,0.923s-0.353,0.498-0.579,0.683s-0.479,0.324-0.759,0.419
		c-0.28,0.094-0.573,0.141-0.879,0.141c-0.444,0-0.837-0.082-1.179-0.246c-0.342-0.164-0.632-0.394-0.868-0.688
		c-0.236-0.296-0.415-0.648-0.535-1.059c-0.12-0.41-0.18-0.861-0.18-1.354c0-0.451,0.063-0.88,0.191-1.286
		c0.127-0.406,0.309-0.763,0.546-1.07c0.236-0.308,0.522-0.552,0.857-0.732c0.334-0.181,0.713-0.271,1.135-0.271
		c0.444,0,0.842,0.104,1.196,0.313c0.353,0.209,0.646,0.486,0.879,0.831c0.232,0.345,0.402,0.74,0.507,1.188
		s0.133,0.908,0.082,1.384H-180.362z M-177.458,76.092c-0.015-0.221-0.057-0.435-0.125-0.64c-0.069-0.205-0.164-0.384-0.284-0.535
		c-0.12-0.151-0.266-0.274-0.437-0.369s-0.362-0.142-0.573-0.142c-0.218,0-0.417,0.043-0.595,0.129
		c-0.179,0.087-0.332,0.205-0.458,0.357c-0.127,0.151-0.229,0.33-0.306,0.535c-0.077,0.205-0.119,0.427-0.126,0.664H-177.458z"/>
	<path fill="#FFFFFF" d="M-175.263,73.471h1.179v0.887h0.033c0.095-0.156,0.197-0.3,0.306-0.431
		c0.109-0.132,0.231-0.242,0.366-0.333c0.135-0.09,0.29-0.161,0.464-0.215c0.174-0.054,0.375-0.08,0.6-0.08
		c0.342,0,0.661,0.086,0.956,0.259c0.295,0.172,0.504,0.438,0.628,0.8c0.211-0.328,0.455-0.587,0.731-0.775
		c0.276-0.188,0.622-0.283,1.037-0.283c0.597,0,1.061,0.164,1.392,0.492c0.332,0.328,0.497,0.878,0.497,1.648v4.394h-1.245v-3.716
		c0-0.255-0.007-0.486-0.022-0.695c-0.015-0.21-0.056-0.39-0.125-0.542c-0.069-0.151-0.173-0.269-0.311-0.351
		c-0.139-0.082-0.328-0.123-0.568-0.123c-0.422,0-0.728,0.147-0.917,0.443c-0.189,0.295-0.284,0.713-0.284,1.255v3.729h-1.245
		v-4.085c0-0.443-0.071-0.777-0.213-1.003c-0.142-0.226-0.402-0.339-0.781-0.339c-0.16,0-0.315,0.037-0.464,0.11
		c-0.149,0.074-0.28,0.181-0.393,0.32s-0.204,0.312-0.273,0.517c-0.069,0.205-0.104,0.439-0.104,0.702v3.777h-1.244V73.471z"/>
	<path fill="#FFFFFF" d="M-165.732,71.047h1.245v1.329h-1.245V71.047z M-165.732,73.471h1.245v6.362h-1.245V73.471z"/>
	<path fill="#FFFFFF" d="M-158.177,79.833h-1.223v-0.886h-0.021c-0.153,0.319-0.381,0.576-0.683,0.769
		c-0.302,0.193-0.609,0.289-0.923,0.289c-0.742,0-1.279-0.207-1.61-0.621s-0.496-1.04-0.496-1.877v-4.036h1.244v3.901
		c0,0.558,0.095,0.951,0.284,1.182c0.189,0.229,0.455,0.344,0.797,0.344c0.262,0,0.48-0.045,0.655-0.135
		c0.175-0.091,0.316-0.211,0.426-0.363c0.109-0.151,0.188-0.334,0.234-0.548c0.048-0.213,0.071-0.442,0.071-0.688v-3.692h1.244
		V79.833z"/>
	<path fill="#FFFFFF" d="M-156.867,73.471h1.179v0.887h0.033c0.094-0.156,0.196-0.3,0.306-0.431c0.109-0.132,0.23-0.242,0.365-0.333
		c0.135-0.09,0.289-0.161,0.464-0.215s0.375-0.08,0.601-0.08c0.342,0,0.661,0.086,0.955,0.259c0.295,0.172,0.504,0.438,0.628,0.8
		c0.211-0.328,0.455-0.587,0.731-0.775s0.623-0.283,1.037-0.283c0.597,0,1.061,0.164,1.393,0.492
		c0.331,0.328,0.496,0.878,0.496,1.648v4.394h-1.244v-3.716c0-0.255-0.008-0.486-0.021-0.695c-0.015-0.21-0.057-0.39-0.126-0.542
		c-0.069-0.151-0.173-0.269-0.312-0.351c-0.138-0.082-0.327-0.123-0.567-0.123c-0.422,0-0.728,0.147-0.917,0.443
		c-0.189,0.295-0.284,0.713-0.284,1.255v3.729h-1.244v-4.085c0-0.443-0.071-0.777-0.213-1.003s-0.402-0.339-0.78-0.339
		c-0.161,0-0.315,0.037-0.465,0.11c-0.148,0.074-0.28,0.181-0.393,0.32c-0.113,0.14-0.204,0.312-0.273,0.517
		c-0.068,0.205-0.104,0.439-0.104,0.702v3.777h-1.244V73.471z"/>
</g>
</svg>
