<?xml version="1.0" encoding="utf-8"?>
<!-- Generator: Adobe Illustrator 14.0.0, SVG Export Plug-In . SVG Version: 6.00 Build 43363)  -->
<!DOCTYPE svg PUBLIC "-//W3C//DTD SVG 1.1//EN" "http://www.w3.org/Graphics/SVG/1.1/DTD/svg11.dtd">
<svg version="1.1" id="Layer_1" xmlns="http://www.w3.org/2000/svg" xmlns:xlink="http://www.w3.org/1999/xlink" x="0px" y="0px"
	 width="67.904px" height="40.946px" viewBox="0 0 67.904 40.946" enable-background="new 0 0 67.904 40.946" xml:space="preserve">
<g>
	<g>
		<g>
			<polygon fill="#E7E5E5" points="1.122,15.522 0.099,15.522 0,15.522 0,15.622 0,25.423 6.557,25.423 6.557,24.536 6.557,24.437 
				1.122,24.437 			"/>
			<polygon fill="#E7E5E5" points="8.418,20.804 13.826,20.804 13.826,19.915 13.826,19.815 8.418,19.815 8.418,16.509 
				14.193,16.509 14.193,15.622 14.193,15.522 7.296,15.522 7.296,15.622 7.296,25.423 14.261,25.423 14.261,24.536 14.261,24.437 
				8.418,24.437 			"/>
			<path fill="#E7E5E5" d="M18.812,15.522h-3.458v0.1v9.801h3.455c1.486-0.035,2.627-0.461,3.401-1.281
				c0.775-0.822,1.155-2.051,1.155-3.668c0-1.619-0.38-2.848-1.155-3.67C21.436,15.983,20.295,15.56,18.812,15.522z M22.242,20.474
				c0,0.717-0.076,1.328-0.227,1.832s-0.383,0.91-0.695,1.223c-0.313,0.313-0.712,0.541-1.201,0.688
				c-0.491,0.146-1.082,0.221-1.772,0.221h-1.871v-7.928h1.871c0.69,0,1.281,0.074,1.772,0.221c0.489,0.145,0.888,0.375,1.201,0.689
				c0.313,0.311,0.545,0.717,0.695,1.221S22.242,19.755,22.242,20.474z"/>
			<path fill="#E7E5E5" d="M34.954,20.946c-0.239-0.201-0.515-0.369-0.826-0.504c-0.309-0.133-0.638-0.246-0.985-0.338l-2.366-0.584
				c-0.196-0.045-0.378-0.104-0.548-0.178c-0.169-0.074-0.317-0.164-0.445-0.271c-0.125-0.104-0.222-0.23-0.292-0.385
				s-0.107-0.336-0.107-0.551c0-0.35,0.065-0.637,0.191-0.863c0.129-0.23,0.297-0.416,0.506-0.557
				c0.21-0.141,0.457-0.244,0.741-0.311c0.287-0.066,0.585-0.1,0.895-0.1c0.335,0,0.654,0.045,0.956,0.139
				c0.303,0.092,0.57,0.227,0.805,0.404c0.233,0.178,0.418,0.396,0.557,0.66c0.137,0.262,0.216,0.57,0.233,0.932l0.005,0.094h1.018
				h0.1v-0.1c0-0.51-0.098-0.965-0.296-1.355c-0.196-0.389-0.467-0.717-0.809-0.979s-0.736-0.457-1.182-0.588
				c-0.444-0.129-0.911-0.193-1.399-0.193c-0.689,0-1.26,0.098-1.712,0.301c-0.445,0.199-0.8,0.443-1.06,0.738
				c-0.258,0.289-0.437,0.602-0.531,0.936c-0.093,0.322-0.14,0.607-0.14,0.855c0,0.391,0.063,0.727,0.193,1.006
				c0.127,0.273,0.295,0.508,0.505,0.697c0.208,0.189,0.449,0.342,0.722,0.453c0.268,0.111,0.548,0.203,0.843,0.277l2.161,0.529
				c0.223,0.055,0.45,0.123,0.683,0.207c0.228,0.084,0.435,0.191,0.623,0.322c0.184,0.129,0.332,0.285,0.447,0.473
				c0.111,0.182,0.168,0.398,0.169,0.654c-0.001,0.338-0.082,0.617-0.24,0.848c-0.165,0.238-0.369,0.432-0.616,0.584
				c-0.249,0.152-0.518,0.264-0.807,0.334c-0.294,0.072-0.563,0.105-0.806,0.105c-0.438,0-0.848-0.041-1.229-0.125
				c-0.379-0.086-0.704-0.223-0.978-0.414c-0.271-0.189-0.483-0.441-0.64-0.764c-0.146-0.299-0.223-0.676-0.223-1.127l0.001-0.078
				l0.002-0.102h-0.101h-0.924h-0.095l-0.005,0.096l-0.005,0.227c0,0.508,0.082,0.957,0.251,1.346
				c0.191,0.443,0.466,0.813,0.824,1.098c0.355,0.287,0.785,0.496,1.286,0.631c0.498,0.133,1.037,0.201,1.615,0.201
				c0.577,0,1.073-0.055,1.492-0.16c0.415-0.107,0.767-0.248,1.054-0.428c0.284-0.176,0.511-0.375,0.679-0.594
				c0.162-0.213,0.289-0.426,0.379-0.641c0.088-0.209,0.146-0.41,0.17-0.602c0.023-0.186,0.035-0.332,0.035-0.449
				c0-0.408-0.068-0.764-0.207-1.061C35.386,21.401,35.194,21.151,34.954,20.946z"/>
			<path fill="#E7E5E5" d="M41.843,22.71l-0.008,0.092c-0.025,0.279-0.096,0.533-0.207,0.768c-0.113,0.234-0.256,0.436-0.428,0.604
				c-0.174,0.168-0.371,0.299-0.596,0.393c-0.223,0.096-0.459,0.143-0.709,0.143c-0.393,0-0.732-0.082-1.023-0.246
				c-0.297-0.164-0.541-0.381-0.736-0.65c-0.197-0.271-0.346-0.58-0.447-0.928s-0.152-0.703-0.152-1.066
				c0-0.361,0.051-0.717,0.152-1.066c0.102-0.346,0.25-0.654,0.447-0.926c0.195-0.27,0.439-0.486,0.736-0.652
				c0.291-0.162,0.631-0.244,1.023-0.244c0.545,0,0.959,0.143,1.258,0.42c0.305,0.283,0.516,0.676,0.629,1.186l0.018,0.078h0.08
				h0.855h0.113l-0.014-0.111c-0.102-0.824-0.424-1.457-0.969-1.873c-0.541-0.414-1.201-0.619-1.971-0.619
				c-0.547,0-1.035,0.104-1.463,0.311c-0.424,0.203-0.781,0.48-1.072,0.826c-0.289,0.346-0.508,0.752-0.656,1.215
				s-0.223,0.949-0.223,1.457c0,0.518,0.074,1.006,0.223,1.465s0.367,0.863,0.656,1.209c0.291,0.346,0.648,0.623,1.072,0.826
				c0.428,0.207,0.916,0.311,1.463,0.311c0.809,0,1.488-0.25,2.018-0.748c0.531-0.498,0.855-1.188,0.975-2.057l0.016-0.113h-0.969
				H41.843z"/>
			<path fill="#E7E5E5" d="M47.298,18.114c-0.586,0-1.102,0.146-1.539,0.441c-0.385,0.26-0.664,0.631-0.885,1.066v-1.41h-0.887h-0.1
				v0.1v7.111h0.955h0.1v-3.836c0-0.35,0.061-0.678,0.182-0.982c0.123-0.305,0.295-0.564,0.516-0.781s0.482-0.383,0.787-0.5
				c0.262-0.104,0.553-0.154,0.873-0.154l0.146,0.004l0.104,0.006v-0.961v-0.096l-0.094-0.004L47.298,18.114z"/>
			<path fill="#E7E5E5" d="M53.329,19.282c-0.258-0.379-0.594-0.686-1.006-0.92c-0.416-0.236-0.914-0.354-1.488-0.354
				s-1.072,0.109-1.488,0.332c-0.41,0.219-0.748,0.51-1.012,0.871c-0.26,0.359-0.453,0.766-0.578,1.221
				c-0.125,0.453-0.188,0.914-0.188,1.385c0,0.506,0.063,0.988,0.188,1.447s0.318,0.865,0.58,1.215
				c0.262,0.354,0.602,0.633,1.014,0.838c0.414,0.207,0.91,0.311,1.484,0.311c0.902,0,1.617-0.225,2.125-0.686
				c0.502-0.455,0.844-1.096,1.029-1.906l0.027-0.121h-0.98h-0.078l-0.018,0.074c-0.133,0.52-0.367,0.934-0.707,1.25
				c-0.33,0.309-0.791,0.469-1.398,0.469c-0.395,0-0.727-0.082-1.004-0.244c-0.283-0.166-0.508-0.373-0.682-0.623
				c-0.174-0.254-0.305-0.537-0.393-0.854c-0.08-0.283-0.117-0.563-0.127-0.838h5.385l0.004-0.098l0.004-0.211
				c0-0.426-0.049-0.846-0.143-1.262C53.769,20.095,53.585,19.661,53.329,19.282z M50.835,18.929c0.33,0,0.621,0.066,0.877,0.199
				c0.262,0.135,0.48,0.311,0.664,0.531c0.182,0.223,0.322,0.477,0.424,0.766c0.09,0.256,0.137,0.525,0.154,0.805h-4.305
				c0.039-0.27,0.096-0.537,0.191-0.797c0.111-0.293,0.258-0.551,0.439-0.773c0.182-0.221,0.402-0.396,0.662-0.531
				C50.198,18.995,50.495,18.929,50.835,18.929z"/>
			<path fill="#E7E5E5" d="M60.38,19.282c-0.258-0.379-0.594-0.686-1.004-0.92c-0.416-0.236-0.914-0.354-1.49-0.354
				c-0.572,0-1.07,0.109-1.486,0.332c-0.41,0.219-0.75,0.51-1.012,0.871c-0.262,0.359-0.455,0.766-0.58,1.221
				c-0.125,0.453-0.186,0.914-0.186,1.385c0,0.506,0.061,0.988,0.186,1.447s0.318,0.865,0.58,1.215
				c0.264,0.354,0.604,0.633,1.014,0.838c0.416,0.207,0.912,0.311,1.484,0.311c0.904,0,1.617-0.225,2.125-0.686
				c0.504-0.455,0.846-1.096,1.029-1.906l0.027-0.121h-0.98h-0.076l-0.02,0.074c-0.133,0.52-0.367,0.934-0.705,1.25
				c-0.332,0.309-0.791,0.469-1.4,0.469c-0.393,0-0.725-0.082-1.002-0.244c-0.283-0.166-0.51-0.373-0.682-0.623
				c-0.176-0.254-0.307-0.537-0.395-0.854c-0.078-0.283-0.117-0.563-0.125-0.838h5.385l0.002-0.098l0.004-0.211
				c0-0.426-0.047-0.846-0.141-1.262C60.821,20.095,60.638,19.661,60.38,19.282z M57.886,18.929c0.332,0,0.623,0.066,0.879,0.199
				c0.26,0.135,0.48,0.311,0.662,0.531c0.182,0.223,0.324,0.477,0.424,0.766c0.09,0.256,0.137,0.525,0.154,0.805h-4.303
				c0.039-0.27,0.094-0.537,0.191-0.797c0.109-0.293,0.256-0.551,0.439-0.773c0.182-0.221,0.4-0.396,0.662-0.531
				C57.251,18.995,57.546,18.929,57.886,18.929z"/>
			<path fill="#E7E5E5" d="M67.78,19.661c-0.086-0.348-0.232-0.646-0.443-0.891s-0.49-0.434-0.834-0.564
				c-0.346-0.133-0.768-0.197-1.266-0.197c-0.254,0-0.502,0.035-0.748,0.105c-0.242,0.072-0.469,0.17-0.676,0.297
				c-0.209,0.127-0.391,0.285-0.547,0.469c-0.086,0.1-0.135,0.221-0.199,0.332v-0.9v-0.1h-0.955h-0.1v0.1v7.111h0.955h0.1v-4.186
				c0.008-0.336,0.063-0.645,0.158-0.93c0.096-0.283,0.234-0.523,0.414-0.727c0.182-0.203,0.398-0.361,0.654-0.479
				c0.252-0.115,0.543-0.174,0.875-0.174c0.334,0,0.607,0.053,0.82,0.152c0.219,0.104,0.387,0.24,0.512,0.416
				c0.129,0.178,0.219,0.391,0.27,0.637c0.053,0.25,0.08,0.521,0.08,0.814v4.475h0.955h0.1v-4.609
				C67.905,20.39,67.864,20.005,67.78,19.661z"/>
		</g>
	</g>
</g>
</svg>
