<?xml version="1.0" encoding="utf-8"?>
<!-- Generator: Adobe Illustrator 17.0.0, SVG Export Plug-In . SVG Version: 6.00 Build 0)  -->
<!DOCTYPE svg PUBLIC "-//W3C//DTD SVG 1.1//EN" "http://www.w3.org/Graphics/SVG/1.1/DTD/svg11.dtd">
<svg version="1.1" id="Layer_1" xmlns="http://www.w3.org/2000/svg" xmlns:xlink="http://www.w3.org/1999/xlink" x="0px" y="0px"
	 width="60.109px" height="44px" viewBox="-71.984 53.5 60.109 44" enable-background="new -71.984 53.5 60.109 44"
	 xml:space="preserve">
<g>
	<path fill="#FFFFFF" d="M-55.217,76.904c0,0.337,0.051,0.623,0.153,0.861c0.102,0.238,0.244,0.433,0.426,0.585
		c0.182,0.151,0.391,0.263,0.627,0.332c0.237,0.069,0.493,0.104,0.77,0.104c0.298,0,0.553-0.039,0.764-0.117
		c0.211-0.078,0.382-0.178,0.513-0.302c0.131-0.123,0.226-0.264,0.284-0.424s0.087-0.322,0.087-0.486
		c0-0.336-0.067-0.585-0.202-0.744c-0.135-0.16-0.282-0.273-0.442-0.339c-0.277-0.114-0.599-0.224-0.966-0.326
		c-0.368-0.103-0.821-0.235-1.359-0.399c-0.335-0.099-0.613-0.228-0.835-0.388c-0.222-0.16-0.398-0.339-0.53-0.535
		c-0.131-0.197-0.224-0.406-0.278-0.628s-0.082-0.447-0.082-0.677c0-0.443,0.082-0.826,0.246-1.15
		c0.164-0.324,0.38-0.593,0.649-0.807c0.269-0.213,0.575-0.371,0.917-0.474s0.688-0.153,1.037-0.153c0.408,0,0.792,0.06,1.152,0.178
		c0.36,0.119,0.677,0.298,0.95,0.536c0.273,0.237,0.49,0.531,0.65,0.88c0.16,0.349,0.24,0.752,0.24,1.212h-1.365
		c-0.037-0.566-0.208-0.966-0.513-1.2c-0.306-0.233-0.695-0.351-1.168-0.351c-0.16,0-0.324,0.019-0.491,0.056
		s-0.32,0.099-0.458,0.185s-0.253,0.203-0.344,0.351c-0.091,0.147-0.137,0.332-0.137,0.554c0,0.312,0.085,0.556,0.257,0.732
		c0.171,0.176,0.395,0.31,0.671,0.399c0.029,0.009,0.144,0.043,0.344,0.104s0.424,0.13,0.671,0.203
		c0.248,0.074,0.49,0.146,0.726,0.216c0.236,0.069,0.406,0.121,0.508,0.153c0.254,0.091,0.477,0.214,0.666,0.369
		c0.189,0.156,0.347,0.335,0.475,0.535c0.127,0.201,0.222,0.417,0.284,0.646c0.062,0.229,0.093,0.46,0.093,0.689
		c0,0.492-0.089,0.912-0.268,1.261s-0.413,0.634-0.704,0.855c-0.292,0.222-0.623,0.384-0.994,0.486s-0.75,0.153-1.135,0.153
		c-0.444,0-0.863-0.062-1.255-0.185c-0.393-0.123-0.735-0.312-1.026-0.565c-0.292-0.255-0.524-0.581-0.699-0.979
		c-0.175-0.398-0.266-0.868-0.273-1.409H-55.217z"/>
	<path fill="#FFFFFF" d="M-49.212,73.471h1.179v0.887h0.033c0.095-0.156,0.197-0.3,0.306-0.431c0.109-0.132,0.231-0.242,0.366-0.333
		c0.135-0.09,0.29-0.161,0.464-0.215c0.174-0.054,0.375-0.08,0.6-0.08c0.342,0,0.661,0.086,0.956,0.259
		c0.295,0.172,0.504,0.438,0.628,0.8c0.211-0.328,0.455-0.587,0.731-0.775c0.276-0.188,0.622-0.283,1.037-0.283
		c0.597,0,1.061,0.164,1.392,0.492c0.332,0.328,0.497,0.878,0.497,1.648v4.394h-1.245v-3.716c0-0.255-0.007-0.486-0.022-0.695
		c-0.015-0.21-0.056-0.39-0.125-0.542c-0.069-0.151-0.173-0.269-0.311-0.351c-0.139-0.082-0.328-0.123-0.568-0.123
		c-0.422,0-0.728,0.147-0.917,0.443c-0.189,0.295-0.284,0.713-0.284,1.255v3.729h-1.245v-4.085c0-0.443-0.071-0.777-0.213-1.003
		c-0.142-0.226-0.402-0.339-0.781-0.339c-0.16,0-0.315,0.037-0.464,0.11c-0.149,0.074-0.28,0.181-0.393,0.32
		s-0.204,0.312-0.273,0.517c-0.069,0.205-0.104,0.439-0.104,0.702v3.777h-1.244V73.471z"/>
	<path fill="#FFFFFF" d="M-34.987,78.418c0,0.172,0.02,0.295,0.06,0.369s0.118,0.11,0.235,0.11c0.036,0,0.08,0,0.131,0
		s0.109-0.008,0.175-0.024v0.973c-0.044,0.016-0.1,0.034-0.169,0.055s-0.14,0.039-0.213,0.056s-0.146,0.028-0.218,0.037
		c-0.073,0.008-0.135,0.012-0.186,0.012c-0.255,0-0.466-0.057-0.633-0.172s-0.277-0.315-0.328-0.603
		c-0.248,0.271-0.551,0.467-0.912,0.59s-0.708,0.185-1.042,0.185c-0.255,0-0.499-0.039-0.731-0.116
		c-0.233-0.078-0.438-0.193-0.617-0.345c-0.179-0.151-0.32-0.345-0.426-0.578c-0.106-0.234-0.159-0.507-0.159-0.818
		c0-0.395,0.064-0.714,0.191-0.96c0.127-0.246,0.294-0.438,0.502-0.578s0.44-0.24,0.699-0.302s0.519-0.108,0.781-0.142
		c0.226-0.049,0.44-0.084,0.644-0.104s0.384-0.056,0.541-0.104c0.156-0.05,0.28-0.125,0.371-0.228s0.137-0.257,0.137-0.462
		c0-0.181-0.039-0.328-0.115-0.443c-0.077-0.114-0.171-0.202-0.284-0.264s-0.238-0.103-0.376-0.123s-0.27-0.031-0.393-0.031
		c-0.349,0-0.637,0.082-0.862,0.246s-0.353,0.418-0.382,0.763h-1.245c0.022-0.41,0.109-0.75,0.262-1.021
		c0.153-0.271,0.348-0.487,0.584-0.651s0.504-0.279,0.803-0.345c0.298-0.065,0.604-0.099,0.917-0.099
		c0.276,0,0.549,0.033,0.819,0.099c0.269,0.065,0.511,0.172,0.726,0.319c0.215,0.148,0.388,0.339,0.519,0.572
		c0.131,0.234,0.196,0.52,0.196,0.855V78.418z M-36.232,76.646c-0.189,0.14-0.422,0.224-0.699,0.253
		c-0.277,0.028-0.553,0.071-0.83,0.129c-0.131,0.024-0.258,0.06-0.382,0.104c-0.124,0.045-0.233,0.106-0.328,0.185
		c-0.094,0.078-0.169,0.181-0.224,0.308s-0.082,0.281-0.082,0.462c0,0.155,0.04,0.287,0.12,0.394s0.177,0.19,0.29,0.252
		s0.236,0.104,0.371,0.13c0.135,0.024,0.257,0.036,0.366,0.036c0.138,0,0.288-0.021,0.448-0.062s0.311-0.11,0.453-0.209
		c0.142-0.099,0.26-0.224,0.354-0.375c0.095-0.152,0.142-0.339,0.142-0.561V76.646z"/>
	<path fill="#FFFFFF" d="M-33.645,73.471h1.168v1.23h0.022c0.036-0.172,0.107-0.34,0.213-0.504c0.105-0.164,0.233-0.314,0.382-0.449
		c0.149-0.136,0.315-0.244,0.497-0.326c0.182-0.082,0.367-0.123,0.557-0.123c0.146,0,0.246,0.004,0.3,0.013
		c0.055,0.008,0.111,0.016,0.169,0.024v1.354c-0.087-0.017-0.176-0.031-0.267-0.043c-0.091-0.013-0.18-0.019-0.268-0.019
		c-0.211,0-0.41,0.047-0.595,0.142c-0.186,0.094-0.348,0.233-0.486,0.418S-32.2,75.6-32.28,75.871
		c-0.08,0.271-0.12,0.582-0.12,0.935v3.027h-1.244V73.471z"/>
	<path fill="#FFFFFF" d="M-30.37,73.471h0.939v-1.907h1.245v1.907h1.125v1.046h-1.125v3.396c0,0.147,0.005,0.275,0.016,0.382
		c0.011,0.106,0.037,0.197,0.077,0.271c0.04,0.074,0.1,0.129,0.18,0.166c0.08,0.037,0.189,0.056,0.327,0.056
		c0.087,0,0.175-0.002,0.263-0.006c0.087-0.005,0.174-0.019,0.262-0.043v1.082c-0.139,0.017-0.273,0.033-0.404,0.05
		s-0.266,0.024-0.404,0.024c-0.328,0-0.591-0.035-0.792-0.104s-0.356-0.173-0.469-0.308c-0.113-0.136-0.189-0.306-0.229-0.511
		s-0.064-0.438-0.071-0.701v-3.754h-0.939V73.471z"/>
</g>
</svg>
