<?xml version="1.0" encoding="utf-8"?>
<!-- Generator: Adobe Illustrator 17.0.0, SVG Export Plug-In . SVG Version: 6.00 Build 0)  -->
<!DOCTYPE svg PUBLIC "-//W3C//DTD SVG 1.1//EN" "http://www.w3.org/Graphics/SVG/1.1/DTD/svg11.dtd">
<svg version="1.1" id="Layer_1" xmlns="http://www.w3.org/2000/svg" xmlns:xlink="http://www.w3.org/1999/xlink" x="0px" y="0px"
	 width="44px" height="44px" viewBox="-152.208 0 44 44" enable-background="new -152.208 0 44 44" xml:space="preserve">
<path fill="none" d="M-152.208,0h44v44h-44V0z"/>
<g>
	<path fill="#FFFFFF" d="M-147.707,22.732c0,0.372,0.063,0.689,0.19,0.951c0.127,0.264,0.304,0.479,0.53,0.646
		c0.226,0.168,0.487,0.29,0.781,0.367c0.294,0.077,0.613,0.115,0.958,0.115c0.371,0,0.688-0.043,0.951-0.129
		c0.262-0.086,0.476-0.197,0.639-0.333c0.163-0.136,0.28-0.292,0.353-0.469c0.072-0.177,0.109-0.355,0.109-0.536
		c0-0.372-0.084-0.646-0.251-0.822c-0.168-0.176-0.351-0.3-0.55-0.374c-0.344-0.127-0.745-0.246-1.203-0.36
		c-0.458-0.112-1.021-0.26-1.692-0.441c-0.417-0.108-0.763-0.251-1.039-0.428c-0.276-0.177-0.496-0.374-0.659-0.591
		c-0.163-0.218-0.278-0.448-0.347-0.693c-0.068-0.244-0.102-0.493-0.102-0.747c0-0.489,0.102-0.913,0.306-1.271
		c0.204-0.357,0.473-0.654,0.809-0.89c0.335-0.236,0.715-0.41,1.141-0.523s0.856-0.17,1.291-0.17c0.507,0,0.985,0.065,1.434,0.197
		c0.448,0.131,0.842,0.328,1.182,0.591c0.339,0.263,0.609,0.587,0.808,0.972s0.299,0.831,0.299,1.338h-1.699
		c-0.045-0.625-0.258-1.066-0.639-1.324c-0.38-0.259-0.865-0.388-1.454-0.388c-0.2,0-0.403,0.021-0.612,0.062
		c-0.208,0.04-0.398,0.108-0.57,0.203c-0.172,0.096-0.315,0.225-0.428,0.388s-0.17,0.367-0.17,0.611
		c0,0.345,0.106,0.614,0.319,0.809c0.213,0.195,0.491,0.342,0.836,0.441c0.036,0.01,0.179,0.048,0.428,0.115
		c0.249,0.068,0.528,0.144,0.836,0.225c0.308,0.082,0.609,0.161,0.903,0.238c0.294,0.076,0.505,0.134,0.632,0.169
		c0.317,0.101,0.593,0.236,0.829,0.408c0.235,0.172,0.432,0.369,0.591,0.591c0.158,0.223,0.276,0.46,0.354,0.714
		c0.077,0.252,0.115,0.506,0.115,0.76c0,0.543-0.111,1.008-0.333,1.393c-0.222,0.385-0.514,0.7-0.876,0.944
		s-0.774,0.424-1.236,0.537c-0.462,0.112-0.933,0.17-1.413,0.17c-0.553,0-1.073-0.068-1.563-0.204s-0.915-0.345-1.277-0.625
		c-0.362-0.281-0.652-0.641-0.87-1.08s-0.331-0.958-0.34-1.557H-147.707z"/>
	<path fill="#FFFFFF" d="M-140.233,18.942h1.467v0.979h0.041c0.117-0.172,0.244-0.33,0.38-0.476
		c0.136-0.145,0.287-0.267,0.455-0.366c0.167-0.1,0.36-0.179,0.578-0.238c0.217-0.059,0.466-0.088,0.747-0.088
		c0.426,0,0.822,0.095,1.189,0.285c0.367,0.19,0.627,0.484,0.781,0.883c0.263-0.362,0.566-0.647,0.911-0.855
		c0.344-0.209,0.774-0.313,1.291-0.313c0.743,0,1.32,0.181,1.732,0.543s0.619,0.97,0.619,1.821v4.85h-1.549v-4.103
		c0-0.28-0.009-0.537-0.027-0.768c-0.019-0.231-0.07-0.431-0.156-0.598c-0.086-0.168-0.215-0.297-0.388-0.388
		c-0.172-0.091-0.407-0.136-0.707-0.136c-0.525,0-0.906,0.163-1.141,0.489c-0.236,0.326-0.354,0.788-0.354,1.386v4.117h-1.549v-4.51
		c0-0.489-0.088-0.858-0.265-1.107c-0.176-0.249-0.5-0.374-0.971-0.374c-0.2,0-0.392,0.041-0.578,0.122
		c-0.186,0.082-0.349,0.199-0.489,0.354s-0.253,0.345-0.34,0.57c-0.086,0.227-0.129,0.485-0.129,0.774v4.171h-1.549V18.942z"/>
	<path fill="#FFFFFF" d="M-122.529,24.404c0,0.19,0.025,0.326,0.075,0.407c0.05,0.082,0.147,0.123,0.292,0.123
		c0.045,0,0.099,0,0.163,0s0.136-0.01,0.218-0.027v1.073c-0.055,0.018-0.125,0.038-0.211,0.062
		c-0.086,0.022-0.174,0.042-0.265,0.061c-0.091,0.019-0.182,0.032-0.272,0.041c-0.091,0.009-0.167,0.014-0.231,0.014
		c-0.317,0-0.58-0.063-0.788-0.19s-0.344-0.349-0.408-0.666c-0.308,0.299-0.686,0.517-1.134,0.652
		c-0.449,0.136-0.881,0.204-1.298,0.204c-0.317,0-0.621-0.043-0.91-0.129c-0.29-0.086-0.546-0.213-0.768-0.381
		c-0.222-0.168-0.398-0.381-0.53-0.639s-0.197-0.56-0.197-0.903c0-0.435,0.08-0.788,0.238-1.06c0.159-0.272,0.367-0.485,0.625-0.638
		c0.258-0.154,0.548-0.266,0.87-0.333c0.321-0.068,0.645-0.12,0.971-0.156c0.281-0.055,0.548-0.093,0.802-0.116
		c0.253-0.022,0.478-0.061,0.673-0.115c0.194-0.055,0.349-0.138,0.462-0.251c0.113-0.113,0.17-0.283,0.17-0.51
		c0-0.199-0.048-0.362-0.143-0.489c-0.095-0.127-0.213-0.225-0.353-0.292c-0.141-0.068-0.297-0.113-0.469-0.136
		c-0.172-0.022-0.335-0.034-0.489-0.034c-0.435,0-0.793,0.091-1.073,0.271c-0.281,0.182-0.439,0.462-0.476,0.843h-1.549
		c0.027-0.453,0.136-0.829,0.326-1.128c0.19-0.299,0.433-0.539,0.727-0.72c0.294-0.182,0.627-0.309,0.999-0.381
		s0.752-0.108,1.142-0.108c0.344,0,0.684,0.036,1.019,0.108c0.335,0.072,0.636,0.19,0.903,0.354s0.482,0.373,0.646,0.632
		c0.163,0.258,0.245,0.573,0.245,0.944V24.404z M-124.078,22.448c-0.236,0.154-0.525,0.247-0.87,0.279
		c-0.344,0.031-0.688,0.079-1.033,0.143c-0.163,0.026-0.322,0.065-0.476,0.115c-0.154,0.05-0.29,0.118-0.408,0.204
		s-0.21,0.199-0.278,0.339c-0.068,0.141-0.102,0.311-0.102,0.51c0,0.173,0.05,0.317,0.149,0.435c0.1,0.118,0.22,0.211,0.36,0.279
		c0.141,0.067,0.294,0.115,0.462,0.143c0.167,0.027,0.319,0.041,0.455,0.041c0.172,0,0.357-0.023,0.557-0.068
		c0.199-0.045,0.387-0.122,0.564-0.231c0.176-0.108,0.324-0.246,0.441-0.414c0.118-0.167,0.177-0.374,0.177-0.618V22.448z"/>
	<path fill="#FFFFFF" d="M-120.857,18.942h1.454v1.359h0.027c0.045-0.19,0.133-0.376,0.265-0.558
		c0.131-0.181,0.29-0.346,0.476-0.495c0.186-0.15,0.392-0.27,0.618-0.36c0.226-0.091,0.457-0.136,0.693-0.136
		c0.181,0,0.306,0.004,0.374,0.014c0.068,0.009,0.138,0.018,0.211,0.026v1.495c-0.109-0.019-0.22-0.034-0.333-0.048
		c-0.113-0.014-0.224-0.021-0.333-0.021c-0.263,0-0.51,0.053-0.741,0.156c-0.231,0.104-0.433,0.259-0.604,0.462
		c-0.172,0.204-0.308,0.456-0.408,0.755s-0.149,0.643-0.149,1.032v3.343h-1.549V18.942z"/>
	<path fill="#FFFFFF" d="M-115.781,18.942h1.168v-2.105h1.549v2.105h1.399v1.155h-1.399v3.75c0,0.163,0.007,0.304,0.021,0.422
		c0.014,0.117,0.045,0.217,0.095,0.299c0.049,0.081,0.125,0.143,0.224,0.184c0.1,0.04,0.235,0.061,0.408,0.061
		c0.108,0,0.217-0.002,0.326-0.007c0.108-0.004,0.217-0.021,0.326-0.047v1.195c-0.172,0.019-0.339,0.036-0.502,0.055
		c-0.163,0.018-0.331,0.027-0.503,0.027c-0.408,0-0.736-0.039-0.985-0.116c-0.25-0.076-0.444-0.189-0.584-0.34
		c-0.141-0.149-0.236-0.337-0.285-0.563c-0.05-0.227-0.08-0.484-0.088-0.774v-4.144h-1.168V18.942z"/>
</g>
</svg>
