<svg id="Layer_1" data-name="Layer 1" xmlns="http://www.w3.org/2000/svg" viewBox="0 0 41.78 9.01"><defs><style>.cls-1{fill:#231f20;}.cls-2{fill:#98c93c;}</style></defs><title>e-e</title><path class="cls-1" d="M13.64,5.76h2v.51H14.24v.58h1.32v.47H14.24V8h1.47v.51H13.64Z"/><path class="cls-1" d="M16.07,5.76h.54V8.49h-.54Z"/><path class="cls-1" d="M17.49,7.63a.5.5,0,0,0,.14.38.51.51,0,0,0,.63,0,.34.34,0,0,0,.15-.17h.47a.92.92,0,0,1-.35.51,1.06,1.06,0,0,1-.57.16,1.31,1.31,0,0,1-.42-.08A.86.86,0,0,1,17,7.92,1.09,1.09,0,0,1,17,7.5,1.14,1.14,0,0,1,17,7.09a1,1,0,0,1,.21-.33.91.91,0,0,1,.32-.22A1.07,1.07,0,0,1,18,6.46a.92.92,0,0,1,.44.1,1,1,0,0,1,.31.26,1.4,1.4,0,0,1,.17.37,1.29,1.29,0,0,1,0,.44Zm.88-.34A.67.67,0,0,0,18.24,7a.49.49,0,0,0-.3-.11.59.59,0,0,0-.21,0,.4.4,0,0,0-.14.11.37.37,0,0,0-.07.14.35.35,0,0,0,0,.13Z"/><path class="cls-1" d="M20.58,7.21A.39.39,0,0,0,20,6.93a.54.54,0,0,0-.15.15.66.66,0,0,0-.08.21,1.64,1.64,0,0,0,0,.22,1.64,1.64,0,0,0,0,.22.7.7,0,0,0,.08.2.4.4,0,0,0,.14.15.65.65,0,0,0,.21.06.38.38,0,0,0,.3-.12.49.49,0,0,0,.13-.29h.53a.9.9,0,0,1-.31.6,1,1,0,0,1-.64.22,1.07,1.07,0,0,1-.41-.08,1,1,0,0,1-.32-.21,1.16,1.16,0,0,1-.2-.32,1.1,1.1,0,0,1-.07-.41,1.49,1.49,0,0,1,.06-.43,1.05,1.05,0,0,1,.2-.34.91.91,0,0,1,.32-.22,1.14,1.14,0,0,1,.43-.08,1.32,1.32,0,0,1,.34,0,.92.92,0,0,1,.28.14.61.61,0,0,1,.21.24.68.68,0,0,1,.1.33Z"/><path class="cls-1" d="M22.12,6.51h.4v.37h-.4v1a.26.26,0,0,0,.05.18.26.26,0,0,0,.18,0h.17v.42l-.15,0H22.2a1,1,0,0,1-.24,0,.4.4,0,0,1-.19-.07.27.27,0,0,1-.14-.14A.54.54,0,0,1,21.58,8V6.87h-.33V6.51h.33V5.92h.54Z"/><path class="cls-1" d="M22.78,6.51h.52v.37h0a.62.62,0,0,1,.11-.17.5.5,0,0,1,.15-.14l.18-.08a.64.64,0,0,1,.2,0,.25.25,0,0,1,.12,0V7h-.2a.62.62,0,0,0-.25,0,.47.47,0,0,0-.17.14.53.53,0,0,0-.09.2,1,1,0,0,0,0,.25v.89h-.54Z"/><path class="cls-1" d="M24.82,6.2h-.54V5.76h.55Zm-.54.31h.54v2h-.55Z"/><path class="cls-1" d="M26.6,7.2a.37.37,0,0,0-.4-.34.38.38,0,0,0-.22.07.41.41,0,0,0-.14.15.66.66,0,0,0-.08.21.82.82,0,0,0,0,.22.86.86,0,0,0,0,.22.84.84,0,0,0,.07.19.41.41,0,0,0,.14.15A.41.41,0,0,0,26.49,8a.49.49,0,0,0,.13-.29h.52a.85.85,0,0,1-.3.6,1,1,0,0,1-.65.21,1.3,1.3,0,0,1-.41-.07,1,1,0,0,1-.31-.21.83.83,0,0,1-.2-.32,1.11,1.11,0,0,1-.08-.41,1.49,1.49,0,0,1,.07-.43.9.9,0,0,1,.2-.34.77.77,0,0,1,.31-.22,1.43,1.43,0,0,1,.44-.09,1.88,1.88,0,0,1,.33,0,.87.87,0,0,1,.29.14.7.7,0,0,1,.21.24.8.8,0,0,1,.09.32Z"/><polygon class="cls-2" points="29.63 2.43 28.41 4.83 29.14 4.83 27.33 8.52 28.17 5.81 27.24 5.81 28.11 3.53 27.3 3.53 28.69 0.82 29.69 0.81 28.78 2.44 29.63 2.43"/></svg>