<svg id="Layer_1" data-name="Layer 1" xmlns="http://www.w3.org/2000/svg" viewBox="0 0 41.78 9.01"><defs><style>.cls-1{fill:#fff;}</style></defs><title>electric-w</title><path class="cls-1" d="M12.9,5.52h2V6H13.5V6.6h1.33v.47H13.5v.67H15v.5H12.9Z"/><path class="cls-1" d="M15.34,5.51h.54V8.24h-.54Z"/><path class="cls-1" d="M16.76,7.39a.57.57,0,0,0,.13.38.5.5,0,0,0,.35.12.48.48,0,0,0,.29-.09.28.28,0,0,0,.14-.17h.48a.94.94,0,0,1-.35.51,1.06,1.06,0,0,1-.57.16,1.31,1.31,0,0,1-.42-.08A.81.81,0,0,1,16.49,8a.79.79,0,0,1-.2-.33,1.29,1.29,0,0,1,0-.84,1,1,0,0,1,.21-.33,1.07,1.07,0,0,1,.32-.22,1,1,0,0,1,.4-.08,1,1,0,0,1,.44.1.79.79,0,0,1,.31.26,1.21,1.21,0,0,1,.18.38,1.5,1.5,0,0,1,0,.43ZM17.64,7a.59.59,0,0,0-.13-.31.41.41,0,0,0-.3-.11.67.67,0,0,0-.22,0,.75.75,0,0,0-.13.11.31.31,0,0,0-.07.14.39.39,0,0,0,0,.13Z"/><path class="cls-1" d="M19.85,7a.36.36,0,0,0-.4-.34.38.38,0,0,0-.22.06.67.67,0,0,0-.14.15A.49.49,0,0,0,19,7a1.64,1.64,0,0,0,0,.22,1.5,1.5,0,0,0,0,.22.68.68,0,0,0,.07.2.54.54,0,0,0,.15.15.37.37,0,0,0,.21.06.38.38,0,0,0,.3-.12.49.49,0,0,0,.13-.29h.53a.92.92,0,0,1-.31.61,1,1,0,0,1-.65.21A1.15,1.15,0,0,1,19,8.22.81.81,0,0,1,18.72,8a1,1,0,0,1-.2-.32,1.07,1.07,0,0,1-.08-.41,1.55,1.55,0,0,1,.07-.43,1,1,0,0,1,.2-.33A.87.87,0,0,1,19,6.29a1.23,1.23,0,0,1,.44-.08,2.09,2.09,0,0,1,.34,0,.94.94,0,0,1,.28.15.66.66,0,0,1,.21.23.6.6,0,0,1,.09.33Z"/><path class="cls-1" d="M21.39,6.27h.4v.36h-.4v1c0,.09,0,.15.05.18a.26.26,0,0,0,.18,0l.17,0v.42l-.16,0h-.16l-.24,0A.39.39,0,0,1,21,8.18.34.34,0,0,1,20.9,8a.64.64,0,0,1-.06-.23V6.63h-.32V6.27h.33V5.67h.55Z"/><path class="cls-1" d="M22.05,6.26h.51v.37h0a.62.62,0,0,1,.11-.17.86.86,0,0,1,.14-.13A.66.66,0,0,1,23,6.24a.63.63,0,0,1,.19,0,.23.23,0,0,1,.12,0v.5h-.19a.58.58,0,0,0-.25,0,.47.47,0,0,0-.17.14.52.52,0,0,0-.09.2,1,1,0,0,0,0,.25v.89h-.54Z"/><path class="cls-1" d="M24.09,6h-.54V5.51h.55Zm-.54.3h.54v2h-.55Z"/><path class="cls-1" d="M25.87,7a.36.36,0,0,0-.4-.34.38.38,0,0,0-.22.06.34.34,0,0,0-.14.15A.49.49,0,0,0,25,7a1.66,1.66,0,0,0,0,.22.89.89,0,0,0,0,.22.68.68,0,0,0,.07.2.5.5,0,0,0,.14.15.47.47,0,0,0,.21.06.38.38,0,0,0,.3-.12.44.44,0,0,0,.14-.29h.52a.87.87,0,0,1-.3.6.94.94,0,0,1-.65.21,1.07,1.07,0,0,1-.41-.07A.85.85,0,0,1,24.74,8a1,1,0,0,1-.21-.32,1.35,1.35,0,0,1-.07-.41,1.25,1.25,0,0,1,.07-.43,1,1,0,0,1,.19-.34A1,1,0,0,1,25,6.29a1.14,1.14,0,0,1,.43-.08,1.27,1.27,0,0,1,.34,0,1,1,0,0,1,.29.14,1.21,1.21,0,0,1,.21.24A.85.85,0,0,1,26.4,7Z"/><polygon class="cls-1" points="28.9 2.19 27.68 4.59 28.41 4.59 26.6 8.28 27.44 5.56 26.51 5.56 27.38 3.28 26.57 3.28 27.95 0.57 28.95 0.57 28.04 2.19 28.9 2.19"/></svg>