<svg id="Layer_1" data-name="Layer 1" xmlns="http://www.w3.org/2000/svg" viewBox="0 0 41.78 9.01"><defs><style>.cls-1,.cls-2{fill:#eb008b;}.cls-1{stroke:#e9078a;stroke-miterlimit:10;stroke-width:0.2px;}</style></defs><title>es</title><path class="cls-1" d="M18.54,3.16a.79.79,0,0,0-.07-.32.55.55,0,0,0-.18-.22A.84.84,0,0,0,18,2.49a1.65,1.65,0,0,0-.32,0,1.15,1.15,0,0,0-.26,0,1.06,1.06,0,0,0-.25.09.42.42,0,0,0-.18.17.54.54,0,0,0-.08.27.38.38,0,0,0,.07.22.65.65,0,0,0,.17.16.88.88,0,0,0,.22.1l.21.06.53.13a1.35,1.35,0,0,1,.33.09,1.11,1.11,0,0,1,.3.17A1.09,1.09,0,0,1,19,4.2a.74.74,0,0,1,.07.37.76.76,0,0,1-.11.44.86.86,0,0,1-.3.3,1.28,1.28,0,0,1-.42.17l-.46.06a1.55,1.55,0,0,1-.92-.28,1.16,1.16,0,0,1-.4-.87h.39a.79.79,0,0,0,.29.61,1,1,0,0,0,.67.2l.29,0a1.16,1.16,0,0,0,.28-.1.7.7,0,0,0,.22-.2.37.37,0,0,0,.08-.28.41.41,0,0,0-.06-.23.37.37,0,0,0-.16-.17.76.76,0,0,0-.22-.11L18,4l-.51-.11a1.6,1.6,0,0,1-.35-.12,1.15,1.15,0,0,1-.29-.16.75.75,0,0,1-.19-.24A.88.88,0,0,1,16.55,3a.76.76,0,0,1,.1-.41.81.81,0,0,1,.29-.29,1.68,1.68,0,0,1,.39-.16,1.65,1.65,0,0,1,.88,0,1.2,1.2,0,0,1,.37.2.8.8,0,0,1,.25.32,1.24,1.24,0,0,1,.11.46Z"/><path class="cls-1" d="M19.85,3.93a1.74,1.74,0,0,0,.06.45,1.11,1.11,0,0,0,.19.41,1,1,0,0,0,.32.3,1,1,0,0,0,.49.12A.94.94,0,0,0,21.59,5a1.1,1.1,0,0,0,.33-.59h.4a1.7,1.7,0,0,1-.46.86,1.39,1.39,0,0,1-.95.3,1.46,1.46,0,0,1-.66-.14A1,1,0,0,1,19.8,5a1.51,1.51,0,0,1-.26-.54,2.32,2.32,0,0,1,0-1.28,1.69,1.69,0,0,1,.26-.54,1.41,1.41,0,0,1,.45-.39,1.37,1.37,0,0,1,.66-.15,1.41,1.41,0,0,1,.67.16,1.24,1.24,0,0,1,.44.41,2,2,0,0,1,.25.58,3,3,0,0,1,.06.67Zm2.09-.33a2.31,2.31,0,0,0-.08-.43,1.31,1.31,0,0,0-.21-.36.84.84,0,0,0-.31-.25.71.71,0,0,0-.43-.1.76.76,0,0,0-.43.09,1.14,1.14,0,0,0-.32.26,1.32,1.32,0,0,0-.21.37,1.6,1.6,0,0,0-.1.42Z"/><path class="cls-1" d="M24.89,1h.38v.63h-.39Zm0,1.23h.39V5.45h-.39Z"/><path class="cls-1" d="M22.88,2.22h.37V3h0a1.24,1.24,0,0,1,.46-.61,1.22,1.22,0,0,1,.76-.19v.39a1.49,1.49,0,0,0-.49.07,1.36,1.36,0,0,0-.38.24,1.47,1.47,0,0,0-.25.38,1.23,1.23,0,0,0-.09.47V5.45h-.39Z"/><path class="cls-1" d="M26.1,4a1.72,1.72,0,0,0,.06.44,1.53,1.53,0,0,0,.19.41.85.85,0,0,0,.33.29.9.9,0,0,0,.48.13A1,1,0,0,0,27.84,5a1.26,1.26,0,0,0,.34-.6h.39a1.63,1.63,0,0,1-.46.86,1.37,1.37,0,0,1-.95.3,1.61,1.61,0,0,1-.66-.14A1.19,1.19,0,0,1,26.05,5a1.36,1.36,0,0,1-.26-.54,2.27,2.27,0,0,1-.08-.65,2.65,2.65,0,0,1,.08-.63,1.85,1.85,0,0,1,.26-.55,1.52,1.52,0,0,1,.45-.38,1.41,1.41,0,0,1,.67-.15,1.26,1.26,0,0,1,1.1.57,1.6,1.6,0,0,1,.25.58,2.5,2.5,0,0,1,.06.67Zm2.09-.34a1.63,1.63,0,0,0-.08-.43,1.58,1.58,0,0,0-.2-.36,1,1,0,0,0-.32-.26,1,1,0,0,0-.42-.09.89.89,0,0,0-.44.09,1,1,0,0,0-.31.26,1.51,1.51,0,0,0-.22.37,2,2,0,0,0-.1.42Z"/><path class="cls-1" d="M31,3.17A.74.74,0,0,0,31,2.86a.67.67,0,0,0-.19-.22.71.71,0,0,0-.26-.13,1.12,1.12,0,0,0-.32,0,1.15,1.15,0,0,0-.26,0,.92.92,0,0,0-.25.09.49.49,0,0,0-.18.17.47.47,0,0,0-.07.27.38.38,0,0,0,.06.22.52.52,0,0,0,.17.16,1.12,1.12,0,0,0,.22.1l.22.07.52.11a1.15,1.15,0,0,1,.33.1.87.87,0,0,1,.3.17.67.67,0,0,1,.21.26.84.84,0,0,1,.08.37.72.72,0,0,1-.13.44.86.86,0,0,1-.3.3,1.15,1.15,0,0,1-.41.17,1.8,1.8,0,0,1-.46,0,1.5,1.5,0,0,1-.92-.27,1.16,1.16,0,0,1-.4-.87h.39a.83.83,0,0,0,.29.61,1.1,1.1,0,0,0,.66.2l.3,0a.86.86,0,0,0,.28-.11.65.65,0,0,0,.22-.18.55.55,0,0,0,.08-.29.45.45,0,0,0-.06-.24.57.57,0,0,0-.15-.16.61.61,0,0,0-.23-.11L30.45,4l-.51-.11-.35-.12a.94.94,0,0,1-.28-.16.76.76,0,0,1-.2-.24A.91.91,0,0,1,29,3a.83.83,0,0,1,.4-.7,1.32,1.32,0,0,1,.39-.15,1.54,1.54,0,0,1,.43,0,1.63,1.63,0,0,1,.45.06,1.18,1.18,0,0,1,.37.19,1,1,0,0,1,.25.33,1.24,1.24,0,0,1,.11.46Z"/><path class="cls-2" d="M12.9,8.5,10.47,2.33,14.17.87l.55,1.39-2,.79.38,1L15,3.26l.53,1.35-1.85.73.42,1.08,2.06-.82L16.69,7Z"/></svg>