<?xml version="1.0" encoding="utf-8"?>
<!-- Generator: Adobe Illustrator 22.0.1, SVG Export Plug-In . SVG Version: 6.00 Build 0)  -->
<svg version="1.1" id="Layer_1" xmlns="http://www.w3.org/2000/svg" xmlns:xlink="http://www.w3.org/1999/xlink" x="0px" y="0px"
	 viewBox="0 0 41.8 9" style="enable-background:new 0 0 41.8 9;" xml:space="preserve">
<style type="text/css">
	.st0{fill:#FFFFFF;}
</style>
<path class="st0" d="M11.9,6.2C11.9,6.2,12,6.2,11.9,6.2l-0.4,2.1h0.8c0.1,0,0.1,0.1,0.1,0.1v0.1c0,0.1-0.1,0.1-0.1,0.1H11l0.6-2.3
	c0-0.1,0.1-0.1,0.1-0.1L11.9,6.2z"/>
<path class="st0" d="M14.4,6.2C14.5,6.2,14.5,6.3,14.4,6.2l0.1,0.2c0,0.1-0.1,0.1-0.1,0.1h-1l-0.2,0.7H14c0,0,0.1,0,0.1,0.1
	c0,0,0,0,0,0v0.1c0,0.1-0.1,0.1-0.1,0.1h-0.8L13,8.3h1c0.1,0,0.1,0.1,0.1,0.1v0.1c0,0.1-0.1,0.1-0.1,0.1h-1.5l0.6-2.4L14.4,6.2z"/>
<path class="st0" d="M15.5,6.2c0.6,0,0.7,0.3,0.6,0.8l-0.2,0.8c-0.1,0.5-0.5,0.8-1,0.8h-0.8l0.6-2.4L15.5,6.2z M14.6,8.3H15
	c0.3,0,0.5-0.2,0.5-0.5L15.8,7c0.1-0.3,0-0.4-0.3-0.4h-0.4L14.6,8.3z"/>
<path class="st0" d="M18.5,6.8c0,0.1-0.1,0.1-0.1,0.1h-0.1c-0.1,0-0.1,0-0.1-0.1S18,6.5,17.7,6.5s-0.4,0.2-0.5,0.3
	c0,0.1,0,0.2,0.1,0.3L18,7.4c0.2,0.1,0.3,0.3,0.2,0.6c-0.1,0.4-0.6,0.7-1,0.7c-0.3,0-0.8-0.2-0.6-0.7c0-0.1,0.1-0.1,0.1-0.1h0.1
	c0,0,0.1,0,0.1,0.1c-0.1,0.3,0.1,0.4,0.3,0.4c0.2,0,0.5-0.1,0.5-0.4c0-0.1,0-0.2-0.2-0.3l-0.5-0.3c-0.2-0.1-0.3-0.4-0.3-0.6
	c0,0,0,0,0,0c0.1-0.4,0.5-0.6,0.9-0.6C18.3,6.2,18.5,6.4,18.5,6.8z"/>
<path class="st0" d="M20.2,6.8c0,0.1,0,0.1-0.1,0.1h-0.1c-0.1,0-0.1,0-0.1-0.1s-0.1-0.3-0.3-0.3c-0.3,0-0.5,0.2-0.5,0.4l-0.2,0.9
	c-0.1,0.3,0,0.5,0.3,0.5c0.3,0,0.5-0.2,0.5-0.5c0-0.1,0.1-0.1,0.1-0.1h0.1c0,0,0.1,0,0.1,0.1c-0.1,0.5-0.5,0.8-1,0.8
	c-0.5,0-0.7-0.3-0.6-0.8L18.5,7c0.1-0.5,0.5-0.8,1-0.8C20.1,6.2,20.2,6.5,20.2,6.8z"/>
<path class="st0" d="M21.3,6.2c0.6,0,0.8,0.3,0.6,0.7c-0.1,0.3-0.3,0.6-0.6,0.7l0.1,0.5c0,0.1,0.1,0.2,0.2,0.2h0.1
	c0,0,0.1,0,0.1,0.1c0,0,0,0,0,0v0.1c0,0.1-0.1,0.1-0.1,0.1h-0.1c-0.2,0-0.3-0.1-0.4-0.4l-0.2-0.6h-0.3l-0.2,0.8
	c0,0.1-0.1,0.1-0.1,0.1h-0.2c0,0-0.1,0-0.1-0.1l0.6-2.3H21.3z M20.6,7.3H21c0.3,0,0.5-0.1,0.5-0.4c0.1-0.3-0.1-0.4-0.3-0.4h-0.3
	L20.6,7.3z"/>
<path class="st0" d="M23.8,6.2C23.9,6.2,23.9,6.3,23.8,6.2l0.1,0.2c0,0.1-0.1,0.1-0.1,0.1h-1l-0.2,0.7h0.8c0,0,0.1,0,0.1,0
	c0,0,0,0,0,0.1v0.1c0,0.1-0.1,0.1-0.1,0.1h-0.8l-0.2,0.7h1c0.1,0,0.1,0.1,0.1,0.1v0.1c0,0.1-0.1,0.1-0.1,0.1h-1.5l0.6-2.4L23.8,6.2z
	"/>
<path class="st0" d="M25.5,6.2C25.6,6.2,25.6,6.3,25.5,6.2l0.1,0.2c0,0.1-0.1,0.1-0.1,0.1h-1l-0.2,0.7H25c0,0,0.1,0,0.1,0.1
	c0,0,0,0,0,0v0.1c0,0.1-0.1,0.1-0.1,0.1h-0.8L24,8.3h1c0.1,0,0.1,0.1,0.1,0.1v0.1c0,0.1-0.1,0.1-0.1,0.1h-1.4l0.6-2.4L25.5,6.2z"/>
<path class="st0" d="M26.2,6.2c0,0,0.1,0,0.1,0.1L26.6,8l0.4-1.7c0-0.1,0.1-0.1,0.1-0.1h0.1c0,0,0.1,0,0.1,0.1l-0.6,2.2
	c0,0.1-0.1,0.1-0.1,0.1h-0.2c0,0-0.1,0-0.1-0.1L26,6.8l-0.4,1.7c0,0.1-0.1,0.1-0.1,0.1h-0.1c0,0-0.1,0-0.1-0.1l0.6-2.2
	c0-0.1,0.1-0.1,0.1-0.1H26.2z"/>
<path class="st0" d="M25.1,1.8c0,0.2-0.1,0.3-0.3,0.4c-0.2,0-0.3-0.1-0.4-0.3c0-0.2,0.1-0.3,0.3-0.4c0,0,0,0,0,0
	C24.9,1.5,25.1,1.6,25.1,1.8z"/>
<path class="st0" d="M26.6,1.6c0,0.2-0.1,0.3-0.3,0.3c0,0,0,0,0,0C26.2,2,26,1.8,26,1.7c0,0,0,0,0,0c0-0.2,0.1-0.3,0.3-0.3
	c0,0,0,0,0,0C26.5,1.3,26.6,1.4,26.6,1.6C26.6,1.6,26.6,1.6,26.6,1.6z"/>
<path class="st0" d="M27.6,1.5c0,0.2-0.1,0.3-0.3,0.4c-0.2,0-0.3-0.1-0.4-0.3c0-0.2,0.2-0.3,0.3-0.3C27.4,1.2,27.5,1.3,27.6,1.5z"/>
<path class="st0" d="M28.6,1.4c0,0.2-0.1,0.3-0.3,0.3c0,0,0,0,0,0c-0.2,0-0.3-0.1-0.3-0.3c0,0,0,0,0,0c0-0.2,0.1-0.3,0.3-0.3
	c0,0,0,0,0,0C28.4,1.1,28.5,1.2,28.6,1.4z"/>
<path class="st0" d="M30.9,1.1c0,0.2-0.1,0.3-0.3,0.4c-0.2,0-0.4-0.1-0.4-0.2c0-0.2,0.1-0.4,0.2-0.4c0,0,0.1,0,0.1,0
	C30.7,0.8,30.8,0.9,30.9,1.1z"/>
<path class="st0" d="M25.1,2.6c0,0.2-0.1,0.3-0.3,0.3c0,0,0,0,0,0c-0.2,0-0.3-0.1-0.3-0.3c0-0.2,0.1-0.3,0.3-0.3c0,0,0,0,0,0
	C24.9,2.3,25.1,2.4,25.1,2.6z"/>
<path class="st0" d="M25.8,2.5c0,0.2-0.2,0.3-0.4,0.3c-0.1,0-0.2-0.1-0.3-0.3c0-0.2,0.1-0.3,0.3-0.3C25.7,2.2,25.8,2.3,25.8,2.5
	C25.8,2.5,25.8,2.5,25.8,2.5z"/>
<path class="st0" d="M26.6,2.5c0,0.2-0.2,0.3-0.4,0.3c-0.1,0-0.2-0.1-0.3-0.3c0-0.2,0.1-0.3,0.3-0.3C26.5,2.1,26.6,2.2,26.6,2.5
	C26.6,2.4,26.6,2.4,26.6,2.5z"/>
<path class="st0" d="M27.6,2.4c0,0.2-0.1,0.3-0.3,0.3c0,0,0,0,0,0c-0.2,0-0.3-0.1-0.3-0.3c0-0.2,0.1-0.3,0.3-0.3c0,0,0,0,0,0
	C27.4,2.1,27.5,2.2,27.6,2.4z"/>
<path class="st0" d="M29.7,2.3c0,0.2-0.1,0.3-0.3,0.3c0,0,0,0,0,0c-0.2,0-0.3-0.1-0.3-0.3C29,2.1,29.2,2,29.3,2c0,0,0,0,0,0
	C29.5,2,29.7,2.1,29.7,2.3C29.7,2.3,29.7,2.3,29.7,2.3z"/>
<path class="st0" d="M25.1,3.3c0,0.2-0.1,0.3-0.3,0.3c-0.2,0-0.3-0.1-0.4-0.3s0.1-0.3,0.3-0.4c0,0,0.1,0,0.1,0
	C24.9,3,25.1,3.1,25.1,3.3C25.1,3.3,25.1,3.3,25.1,3.3z"/>
<path class="st0" d="M26.6,3.3c0,0.2-0.2,0.3-0.3,0.3c-0.2,0-0.3-0.2-0.3-0.3C26,3.1,26.2,3,26.3,3C26.5,3,26.6,3.1,26.6,3.3
	C26.6,3.3,26.6,3.3,26.6,3.3z"/>
<path class="st0" d="M28.6,3.3c0,0.2-0.2,0.3-0.3,0.3c-0.2,0-0.3-0.2-0.3-0.3c0-0.2,0.2-0.3,0.3-0.3C28.4,3,28.6,3.1,28.6,3.3
	C28.6,3.3,28.6,3.3,28.6,3.3z"/>
<path class="st0" d="M29.7,3.3c0,0.2-0.2,0.3-0.3,0.3c-0.2,0-0.3-0.2-0.3-0.3C29,3.1,29.2,3,29.4,3C29.5,3,29.7,3.1,29.7,3.3
	C29.7,3.3,29.7,3.3,29.7,3.3z"/>
<path class="st0" d="M30.9,3.3c0,0.2-0.1,0.3-0.3,0.3s-0.3-0.1-0.3-0.3c0-0.2,0.1-0.3,0.3-0.3l0,0C30.7,3,30.9,3.1,30.9,3.3z"/>
<path class="st0" d="M25.8,4.2c0,0.2-0.1,0.3-0.3,0.3c0,0,0,0,0,0c-0.2,0-0.3-0.2-0.3-0.3c0-0.2,0.1-0.3,0.3-0.4
	c0.2,0,0.3,0.1,0.4,0.3C25.8,4,25.8,4.1,25.8,4.2L25.8,4.2z"/>
<path class="st0" d="M26.6,4.2c0,0.2-0.1,0.3-0.3,0.3c0,0,0,0,0,0c-0.2,0-0.3-0.2-0.3-0.3c0-0.2,0.1-0.3,0.3-0.3c0,0,0,0,0,0
	C26.5,3.9,26.6,4,26.6,4.2C26.6,4.2,26.6,4.2,26.6,4.2z"/>
<path class="st0" d="M27.6,4.3c0,0.2-0.2,0.3-0.3,0.3c-0.2,0-0.3-0.2-0.3-0.3c0,0,0,0,0,0c0-0.2,0.2-0.3,0.3-0.3
	C27.4,3.9,27.6,4.1,27.6,4.3C27.6,4.3,27.6,4.3,27.6,4.3z"/>
<path class="st0" d="M28.6,4.3c0,0.2-0.1,0.3-0.3,0.3c0,0,0,0,0,0c-0.2,0-0.3-0.1-0.3-0.3c0,0,0,0,0,0C28,4.1,28.1,4,28.3,4
	C28.4,4,28.6,4.1,28.6,4.3C28.6,4.3,28.6,4.3,28.6,4.3z"/>
<path class="st0" d="M29.7,4.4c0,0.2-0.2,0.3-0.3,0.3S29,4.5,29,4.4C29,4.2,29.2,4,29.4,4c0,0,0,0,0,0C29.5,4.1,29.7,4.2,29.7,4.4
	C29.7,4.4,29.7,4.4,29.7,4.4z"/>
<path class="st0" d="M30.9,4.4c0,0.2-0.2,0.3-0.3,0.3c0,0,0,0,0,0c-0.2,0-0.3-0.2-0.3-0.4c0-0.1,0.1-0.2,0.3-0.3
	C30.7,4.1,30.9,4.2,30.9,4.4C30.9,4.4,30.9,4.4,30.9,4.4z"/>
<path class="st0" d="M25.1,4.9c0,0.2-0.2,0.3-0.4,0.3c-0.2,0-0.3-0.2-0.3-0.3c0-0.2,0.2-0.3,0.3-0.3c0,0,0,0,0,0
	C25,4.5,25.1,4.7,25.1,4.9C25.1,4.9,25.1,4.9,25.1,4.9z"/>
<path class="st0" d="M25.8,5c0,0.2-0.2,0.3-0.4,0.2c-0.1,0-0.2-0.2-0.2-0.3c0-0.2,0.2-0.3,0.4-0.2C25.7,4.7,25.8,4.9,25.8,5z"/>
<path class="st0" d="M27.6,5.2c0,0.2-0.1,0.3-0.3,0.3c-0.2,0-0.3-0.1-0.3-0.3c0,0,0-0.1,0-0.1c0-0.2,0.2-0.3,0.4-0.2
	C27.5,4.9,27.6,5.1,27.6,5.2z"/>
<path class="st0" d="M28.6,5.3c0,0.2-0.2,0.3-0.3,0.3c0,0,0,0,0,0c-0.2,0-0.3-0.2-0.3-0.3c0,0,0,0,0,0C28,5.1,28.1,5,28.3,5
	C28.4,5,28.6,5.1,28.6,5.3z"/>
<path class="st0" d="M30.9,5.6c0,0.2-0.2,0.3-0.4,0.3c-0.2,0-0.3-0.2-0.3-0.4c0-0.2,0.2-0.3,0.4-0.3C30.7,5.2,30.9,5.4,30.9,5.6z"/>
</svg>
