<svg id="Layer_1" data-name="Layer 1" xmlns="http://www.w3.org/2000/svg" viewBox="0 0 41.78 9.01"><defs><style>.cls-1{fill:#231f20;}.cls-2{fill:#ec1b34;}.cls-3{fill:#0db04b;}.cls-4{fill:#0066b2;}</style></defs><title>led screen</title><path class="cls-1" d="M11.91,6.22s.11,0,.09.1l-.51,1.95h.78c.12,0,.09.09.09.09l0,.13a.15.15,0,0,1-.15.1H11l.59-2.27a.15.15,0,0,1,.14-.1Z"/><path class="cls-1" d="M14.44,6.22c.11,0,.08.09.08.09l0,.14a.13.13,0,0,1-.13.09h-1l-.18.69h.75a.08.08,0,0,1,.09.1l0,.13a.13.13,0,0,1-.13.1h-.75l-.19.71h1c.11,0,.09.09.09.09l0,.13a.13.13,0,0,1-.13.1H12.43l.62-2.37Z"/><path class="cls-1" d="M15.54,6.22c.58,0,.72.34.61.76l-.22.84a1,1,0,0,1-1,.77h-.79l.62-2.37Zm-.95,2.05H15a.52.52,0,0,0,.54-.45L15.76,7c.09-.3,0-.44-.31-.44h-.4Z"/><path class="cls-1" d="M18.46,6.75a.16.16,0,0,1-.11.12l-.15,0c-.08,0-.14,0-.14-.08s-.1-.29-.33-.29-.44.15-.47.28a.21.21,0,0,0,.09.27l.6.31a.46.46,0,0,1,.23.55,1,1,0,0,1-1,.67c-.32,0-.76-.16-.62-.69,0-.1.14-.1.14-.1h.15s.11,0,.09.1c-.08.3.13.37.33.37a.52.52,0,0,0,.53-.35c0-.11,0-.22-.17-.3l-.5-.25a.45.45,0,0,1-.25-.59.92.92,0,0,1,.94-.61C18.29,6.19,18.48,6.43,18.46,6.75Z"/><path class="cls-1" d="M20.21,6.77a.13.13,0,0,1-.11.12l-.15,0c-.08,0-.14,0-.14-.08s-.07-.32-.33-.32a.51.51,0,0,0-.55.45l-.23.87c-.09.32,0,.45.32.45a.52.52,0,0,0,.54-.45.15.15,0,0,1,.14-.09h.15s.12,0,.09.09a1,1,0,0,1-1,.77c-.55,0-.74-.32-.62-.77L18.54,7a1,1,0,0,1,1-.78C20.08,6.19,20.24,6.46,20.21,6.77Z"/><path class="cls-1" d="M21.25,6.22c.59,0,.75.27.64.7a.86.86,0,0,1-.65.67l.15.52c0,.1.09.16.16.16h.06a.08.08,0,0,1,.09.1l0,.12a.15.15,0,0,1-.15.1h-.08c-.23,0-.34-.11-.44-.37l-.16-.57h-.27l-.22.84a.15.15,0,0,1-.14.1h-.16s-.11,0-.08-.1l.59-2.27Zm-.6,1.11H21a.5.5,0,0,0,.55-.41c.08-.31-.07-.38-.34-.38h-.31Z"/><path class="cls-1" d="M23.8,6.22c.11,0,.09.09.09.09l0,.14a.14.14,0,0,1-.14.09h-1l-.18.69h.75a.07.07,0,0,1,.08.1l0,.13a.15.15,0,0,1-.14.1h-.75l-.18.71h1c.12,0,.09.09.09.09l0,.13a.15.15,0,0,1-.14.1H21.79l.62-2.37Z"/><path class="cls-1" d="M25.5,6.22c.12,0,.09.09.09.09l0,.14a.14.14,0,0,1-.14.09h-1l-.18.69H25a.08.08,0,0,1,.09.1l0,.13a.13.13,0,0,1-.13.1h-.75L24,8.27h1c.11,0,.09.09.09.09l0,.13a.13.13,0,0,1-.13.1h-1.4l.63-2.37Z"/><path class="cls-1" d="M26.17,6.22a.11.11,0,0,1,.1.07L26.65,8l.42-1.68a.15.15,0,0,1,.14-.1h.15s.12,0,.09.1l-.57,2.17a.13.13,0,0,1-.14.1h-.23s-.09,0-.11-.07L26,6.81,25.6,8.49a.13.13,0,0,1-.14.1h-.15s-.11,0-.09-.1l.57-2.17a.15.15,0,0,1,.14-.1Z"/><path class="cls-2" d="M25.09,1.81a.32.32,0,1,1-.35-.28A.32.32,0,0,1,25.09,1.81Z"/><path class="cls-2" d="M26.65,1.58a.32.32,0,0,1-.29.35A.31.31,0,0,1,26,1.65a.31.31,0,0,1,.28-.35A.32.32,0,0,1,26.65,1.58Z"/><path class="cls-3" d="M27.56,1.47a.32.32,0,0,1-.28.35.33.33,0,0,1-.35-.29.32.32,0,0,1,.63-.06Z"/><path class="cls-2" d="M28.57,1.35a.32.32,0,0,1-.29.35.31.31,0,0,1-.34-.28.31.31,0,0,1,.28-.35A.32.32,0,0,1,28.57,1.35Z"/><path class="cls-2" d="M30.86,1.12a.34.34,0,0,1-.3.36A.33.33,0,1,1,30.5.83.33.33,0,0,1,30.86,1.12Z"/><path class="cls-3" d="M25.07,2.57a.32.32,0,0,1-.3.34.32.32,0,0,1-.33-.3.32.32,0,0,1,.3-.34A.33.33,0,0,1,25.07,2.57Z"/><path class="cls-2" d="M25.81,2.52a.32.32,0,0,1-.63,0,.32.32,0,0,1,.3-.33A.31.31,0,0,1,25.81,2.52Z"/><path class="cls-4" d="M26.64,2.46a.32.32,0,0,1-.63,0,.32.32,0,0,1,.3-.33A.31.31,0,0,1,26.64,2.46Z"/><path class="cls-2" d="M27.56,2.4a.32.32,0,0,1-.3.34.33.33,0,0,1-.33-.31.31.31,0,0,1,.3-.33A.32.32,0,0,1,27.56,2.4Z"/><path class="cls-4" d="M29.67,2.29a.31.31,0,0,1-.3.33.32.32,0,0,1-.33-.3.31.31,0,0,1,.3-.33A.31.31,0,0,1,29.67,2.29Z"/><path class="cls-2" d="M25.07,3.33a.32.32,0,0,1-.32.32.32.32,0,1,1,0-.63A.31.31,0,0,1,25.07,3.33Z"/><path class="cls-2" d="M26.64,3.33A.32.32,0,1,1,26.33,3,.31.31,0,0,1,26.64,3.33Z"/><path class="cls-2" d="M28.57,3.33A.32.32,0,1,1,28.26,3,.31.31,0,0,1,28.57,3.33Z"/><path class="cls-3" d="M29.67,3.33A.32.32,0,1,1,29.36,3,.31.31,0,0,1,29.67,3.33Z"/><path class="cls-2" d="M30.88,3.33A.33.33,0,1,1,30.55,3,.33.33,0,0,1,30.88,3.33Z"/><path class="cls-3" d="M25.81,4.15a.31.31,0,0,1-.33.3.32.32,0,0,1-.3-.33.32.32,0,1,1,.63,0Z"/><path class="cls-2" d="M26.64,4.21a.31.31,0,0,1-.33.3.32.32,0,0,1-.3-.33.31.31,0,0,1,.33-.3A.31.31,0,0,1,26.64,4.21Z"/><path class="cls-4" d="M27.56,4.27a.32.32,0,0,1-.33.3.32.32,0,0,1-.3-.34.32.32,0,0,1,.33-.3A.32.32,0,0,1,27.56,4.27Z"/><path class="cls-2" d="M28.57,4.32a.31.31,0,0,1-.33.3.3.3,0,0,1-.3-.33.32.32,0,0,1,.33-.3A.31.31,0,0,1,28.57,4.32Z"/><path class="cls-2" d="M29.67,4.38a.32.32,0,1,1-.3-.33A.31.31,0,0,1,29.67,4.38Z"/><path class="cls-2" d="M30.87,4.44a.32.32,0,0,1-.34.31.33.33,0,0,1,0-.65A.32.32,0,0,1,30.87,4.44Z"/><path class="cls-2" d="M25.09,4.86a.32.32,0,0,1-.35.28.33.33,0,0,1-.29-.35.31.31,0,0,1,.35-.28A.32.32,0,0,1,25.09,4.86Z"/><path class="cls-2" d="M25.82,5a.32.32,0,0,1-.63-.07.32.32,0,0,1,.63.07Z"/><path class="cls-2" d="M27.56,5.2a.32.32,0,1,1-.63-.07.32.32,0,0,1,.63.07Z"/><path class="cls-2" d="M28.57,5.31a.32.32,0,0,1-.35.29.31.31,0,0,1-.28-.35A.3.3,0,0,1,28.28,5,.31.31,0,0,1,28.57,5.31Z"/><path class="cls-4" d="M30.86,5.55a.33.33,0,1,1-.3-.36A.34.34,0,0,1,30.86,5.55Z"/></svg>