<svg id="Layer_1" data-name="Layer 1" xmlns="http://www.w3.org/2000/svg" viewBox="0 0 41.78 9.01"><defs><style>.cls-1{fill:#fff;}</style></defs><title>Premium-e-w</title><path class="cls-1" d="M7.82,1.27H8l.17.12a.55.55,0,0,1,.18.22,1,1,0,0,1,0,.24v.47a1,1,0,0,1,0,.25.67.67,0,0,1-.14.19.45.45,0,0,1-.17.11.37.37,0,0,1-.21,0H4V4H3.38V1.27ZM4,1.86v.47H7.57a.19.19,0,0,0,.15,0,.14.14,0,0,0,.06-.15V2.07A.14.14,0,0,0,7.72,2a.27.27,0,0,0-.15-.05Z"/><path class="cls-1" d="M13.38,1.26a.74.74,0,0,1,.21,0,.57.57,0,0,1,.18.12.47.47,0,0,1,.12.18.53.53,0,0,1,0,.25v.46a.54.54,0,0,1-.13.39.46.46,0,0,1-.3.19L13.93,4h-.55l-.53-1H9.55V4H8.94V1.26Zm-3.81.6v.46h3.56a.17.17,0,0,0,.14,0,.18.18,0,0,0,.11-.19V2.07a.23.23,0,0,0-.07-.17.28.28,0,0,0-.16,0Z"/><path class="cls-1" d="M15.07,3.37h4.38V4h-5V1.25h5v.6H15.07v.46h4.38V2.9H15.07Z"/><path class="cls-1" d="M23.09,4h-.6V1.83H20.82a.18.18,0,0,0-.16.07.25.25,0,0,0-.05.18V4H20V1.85a.53.53,0,0,1,0-.25.49.49,0,0,1,.13-.2.9.9,0,0,1,.24-.12.67.67,0,0,1,.2,0H25a.74.74,0,0,1,.21,0,.81.81,0,0,1,.18.12.72.72,0,0,1,.13.19.53.53,0,0,1,0,.25V4h-.6V2.08a.22.22,0,0,0-.06-.18.17.17,0,0,0-.15-.07H23.08Z"/><path class="cls-1" d="M26.74,4h-.61V1.24h.61Z"/><path class="cls-1" d="M31.45,3.34a.15.15,0,0,0,.15-.07.19.19,0,0,0,.06-.18V1.22h.6V3.34a.57.57,0,0,1,0,.26.57.57,0,0,1-.12.18.37.37,0,0,1-.19.11.34.34,0,0,1-.2,0H27.86a.37.37,0,0,1-.21,0,.5.5,0,0,1-.3-.3.58.58,0,0,1-.06-.26V1.24h.6V3.1a.17.17,0,0,0,.05.18.13.13,0,0,0,.14.07Z"/><path class="cls-1" d="M35.9,4h-.59V1.82H33.63c-.07,0-.14,0-.16.07a.31.31,0,0,0,0,.18V4h-.59V1.83a.57.57,0,0,1,0-.26A.72.72,0,0,1,33,1.38a.78.78,0,0,1,.18-.11.6.6,0,0,1,.24-.05h4.43a.65.65,0,0,1,.2.05.57.57,0,0,1,.18.12.85.85,0,0,1,.14.19,1,1,0,0,1,0,.25V4h-.6V2.06a.54.54,0,0,0,0-.18.24.24,0,0,0-.16-.07H35.9Z"/><path class="cls-1" d="M6.76,7.44h4.17a.19.19,0,0,0,.14-.05.21.21,0,0,0,.07-.17h0a.43.43,0,0,0,0-.16H7.32a.51.51,0,0,1-.39-.15.55.55,0,0,1-.17-.44V6a.55.55,0,0,1,.53-.59h4.44V6H7.57a.21.21,0,0,0-.19,0,.15.15,0,0,0,0,.16h0a.2.2,0,0,0,0,.21.19.19,0,0,0,.15,0h3.65a.64.64,0,0,1,.39.16.66.66,0,0,1,.17.44V7.4a.68.68,0,0,1-.16.44.62.62,0,0,1-.4.15H6.76Z"/><path class="cls-1" d="M12.9,7.44h4.37V8h-5V5.32h5v.59H12.89v.46h4.37V7H12.9Z"/><path class="cls-1" d="M22.24,5.3h.2a.76.76,0,0,1,.19.12.76.76,0,0,1,.12.19.53.53,0,0,1,.06.24v.51a.57.57,0,0,1-.13.38.47.47,0,0,1-.3.22L22.81,8h-.62L21.73,7h-3.3V8h-.6V5.31Zm-3.81.6v.46h3.72a.29.29,0,0,0,.05-.15v-.1A.27.27,0,0,0,22.15,6a.49.49,0,0,0-.16,0Z"/><path class="cls-1" d="M24,8h-.59V5.3H24Z"/><path class="cls-1" d="M25.13,7.41h4.38V8h-5V5.3h5v.59H25.13v.46h4.38V7H25.13Z"/><path class="cls-1" d="M30.06,7.41h4.16a.25.25,0,0,0,.16-.06.23.23,0,0,0,.06-.16V7.14A.3.3,0,0,0,34.38,7H30.61a.47.47,0,0,1-.38-.16.53.53,0,0,1-.17-.43V5.88a.57.57,0,0,1,.17-.44.58.58,0,0,1,.38-.15H35v.59H30.7a.22.22,0,0,0,0,.16h0a.18.18,0,0,0,.07.16.17.17,0,0,0,.14,0h3.56a.61.61,0,0,1,.39.17.53.53,0,0,1,.16.44v.46a.49.49,0,0,1-.17.44.51.51,0,0,1-.38.25H30.06Z"/></svg>