<svg id="Layer_1" data-name="Layer 1" xmlns="http://www.w3.org/2000/svg" viewBox="0 0 41.78 9.01"><defs><style>.cls-1{fill:#dbae27;}</style></defs><title>Premium</title><path class="cls-1" d="M7.45,1.31a.82.82,0,0,1,.21,0,.74.74,0,0,1,.17.12A.43.43,0,0,1,8,1.65a.64.64,0,0,1,0,.24v.47a.87.87,0,0,1,0,.25.7.7,0,0,1-.13.19.54.54,0,0,1-.18.11.39.39,0,0,1-.21,0H3.63V4H3V1.31ZM3.63,1.9v.47H7.2a.28.28,0,0,0,.15,0,.16.16,0,0,0,.06-.15V2.11A.18.18,0,0,0,7.35,2a.25.25,0,0,0-.16-.05Z"/><path class="cls-1" d="M13,1.3a.52.52,0,0,1,.21,0,.55.55,0,0,1,.19.12.63.63,0,0,1,.12.18.69.69,0,0,1,0,.25v.46a.61.61,0,0,1-.13.39.56.56,0,0,1-.3.19L13.55,4H13L12.47,3H9.17V4h-.6V1.3Zm-3.81.6v.46h3.56a.31.31,0,0,0,.15,0A.17.17,0,0,0,13,2.17V2.11a.22.22,0,0,0-.06-.17.25.25,0,0,0-.16-.05Z"/><path class="cls-1" d="M14.7,3.41h4.38V4h-5V1.29h5v.6H14.7v.46h4.38v.59H14.7Z"/><path class="cls-1" d="M22.72,4h-.6V1.87H20.44a.18.18,0,0,0-.16.07.3.3,0,0,0-.05.18V4h-.6V1.89a.66.66,0,0,1,0-.25.58.58,0,0,1,.13-.2A.81.81,0,0,1,20,1.32a.78.78,0,0,1,.21,0h4.43a.52.52,0,0,1,.21,0,.71.71,0,0,1,.18.12.91.91,0,0,1,.13.19.69.69,0,0,1,0,.25V4h-.6V2.12a.28.28,0,0,0-.06-.18.16.16,0,0,0-.15-.07H22.71Z"/><path class="cls-1" d="M26.36,4h-.61V1.28h.61Z"/><path class="cls-1" d="M31.08,3.38a.18.18,0,0,0,.15-.07.24.24,0,0,0,.06-.18V1.26h.6V3.38a.71.71,0,0,1,0,.26.83.83,0,0,1-.13.18.42.42,0,0,1-.18.11.54.54,0,0,1-.21,0H27.49a.53.53,0,0,1-.22,0,.55.55,0,0,1-.3-.3.71.71,0,0,1-.06-.26V1.28h.6V3.14a.22.22,0,0,0,.05.18.16.16,0,0,0,.14.07Z"/><path class="cls-1" d="M35.52,4h-.59V1.86H33.25c-.07,0-.13,0-.15.07a.24.24,0,0,0-.05.18V4h-.6V1.87a.75.75,0,0,1,0-.26.91.91,0,0,1,.13-.19.78.78,0,0,1,.18-.11A.54.54,0,0,1,33,1.26h4.43a.54.54,0,0,1,.21.05.57.57,0,0,1,.18.12.59.59,0,0,1,.13.19.7.7,0,0,1,0,.25V4h-.6V2.1a.48.48,0,0,0,0-.18.19.19,0,0,0-.16-.07H35.52Z"/><path class="cls-1" d="M6.38,7.48h4.17a.25.25,0,0,0,.15-.05.24.24,0,0,0,.06-.17v0a.23.23,0,0,0,0-.16.24.24,0,0,0-.15,0H6.94a.56.56,0,0,1-.39-.15.57.57,0,0,1-.17-.44V6a.57.57,0,0,1,.56-.6h4.41V6H7.19A.21.21,0,0,0,7,6,.18.18,0,0,0,7,6.16v0A.24.24,0,0,0,7,6.37a.3.3,0,0,0,.15,0H10.8a.57.57,0,0,1,.39.16.6.6,0,0,1,.17.44v.47a.64.64,0,0,1-.16.44.66.66,0,0,1-.4.15H6.38Z"/><path class="cls-1" d="M12.52,7.48H16.9v.59h-5V5.36h5v.59H12.51v.46h4.37V7H12.52Z"/><path class="cls-1" d="M21.86,5.34a.52.52,0,0,1,.21,0,.57.57,0,0,1,.18.12.41.41,0,0,1,.12.19.48.48,0,0,1,.06.24V6.4a.53.53,0,0,1-.13.38A.48.48,0,0,1,22,7l.43,1.08h-.61L21.35,7h-3.3V8.06h-.6V5.35Zm-3.81.6V6.4h3.56a.42.42,0,0,0,.16,0s.06-.07.06-.15V6.15A.22.22,0,0,0,21.77,6a.34.34,0,0,0-.16-.05Z"/><path class="cls-1" d="M23.59,8.05H23V5.34h.6Z"/><path class="cls-1" d="M24.75,7.45h4.38V8h-5V5.34h5v.59H24.75v.46h4.38V7H24.75Z"/><path class="cls-1" d="M29.68,7.45h4.17A.27.27,0,0,0,34,7.39a.2.2,0,0,0,.06-.16V7.18A.25.25,0,0,0,34,7a.24.24,0,0,0-.15,0H30.24a.53.53,0,0,1-.39-.16.56.56,0,0,1-.17-.43V5.92a.59.59,0,0,1,.17-.44.56.56,0,0,1,.39-.15h4.41v.59H30.49a.31.31,0,0,0-.16,0,.22.22,0,0,0,0,.16v0a.17.17,0,0,0,.07.16.19.19,0,0,0,.14,0H34.1a.54.54,0,0,1,.39.17.58.58,0,0,1,.16.44v.46a.54.54,0,0,1-.17.44A.56.56,0,0,1,34.1,8H29.68Z"/></svg>