<svg id="Layer_1" data-name="Layer 1" xmlns="http://www.w3.org/2000/svg" viewBox="0 0 41.78 9.01"><defs><style>.cls-1{fill:#00828b;}.cls-2{fill:#ec1a3b;}</style></defs><title>smart</title><path class="cls-1" d="M12.21,8V7.58a1.4,1.4,0,0,0,.34.18.89.89,0,0,0,.31.06.46.46,0,0,0,.23-.05.18.18,0,0,0,.09-.16c0-.08-.11-.18-.32-.29a.53.53,0,0,1-.15-.07A1.28,1.28,0,0,1,12.33,7a.47.47,0,0,1-.1-.32.49.49,0,0,1,.17-.39.78.78,0,0,1,.5-.15,1.17,1.17,0,0,1,.32,0,1.88,1.88,0,0,1,.3.12v.39a1.55,1.55,0,0,0-.33-.15,1.06,1.06,0,0,0-.29,0,.34.34,0,0,0-.19,0,.13.13,0,0,0-.07.12q0,.15.42.36h0a1.26,1.26,0,0,1,.42.29.47.47,0,0,1,.11.31.5.5,0,0,1-.2.42.79.79,0,0,1-.52.16,2,2,0,0,1-.36,0A1.56,1.56,0,0,1,12.21,8Z"/><path class="cls-1" d="M14,8.14v-2h.4V6.4a1,1,0,0,1,.29-.21A.71.71,0,0,1,15,6.12a.74.74,0,0,1,.36.08.57.57,0,0,1,.25.26A1.43,1.43,0,0,1,16,6.2a.81.81,0,0,1,.34-.08.71.71,0,0,1,.51.19.69.69,0,0,1,.19.52V8.14h-.4V6.92a.54.54,0,0,0-.1-.35.39.39,0,0,0-.32-.12.6.6,0,0,0-.27.06.8.8,0,0,0-.22.2V8.14H15.3V6.92a.56.56,0,0,0-.1-.35.41.41,0,0,0-.32-.12.6.6,0,0,0-.27.06.8.8,0,0,0-.22.2V8.14Z"/><path class="cls-1" d="M18.48,8a.94.94,0,0,1-.29.16.84.84,0,0,1-.29,0,.63.63,0,0,1-.41-.13.46.46,0,0,1-.15-.36.5.5,0,0,1,.16-.37A1.31,1.31,0,0,1,18,7.06l.47-.16s0,0,0,0v0a.33.33,0,0,0-.09-.26.44.44,0,0,0-.29-.08.86.86,0,0,0-.34.07,1.62,1.62,0,0,0-.35.21V6.37a.88.88,0,0,1,.34-.19,1.34,1.34,0,0,1,.4-.07.8.8,0,0,1,.56.17.74.74,0,0,1,.18.55v.84a.58.58,0,0,0,0,.15.05.05,0,0,0,.06,0,.12.12,0,0,0,.08,0,.5.5,0,0,0,.13-.09V8a.9.9,0,0,1-.22.14.54.54,0,0,1-.22,0,.25.25,0,0,1-.17,0A.24.24,0,0,1,18.48,8Zm0-.23V7.15a2.64,2.64,0,0,0-.55.23.3.3,0,0,0-.15.25.26.26,0,0,0,.08.19.34.34,0,0,0,.22.07.78.78,0,0,0,.21,0Z"/><path class="cls-1" d="M19.4,8.14v-2h.39v.44a1.22,1.22,0,0,1,.31-.37.42.42,0,0,1,.28-.1.93.93,0,0,1,.22,0l.23.15-.21.36a.92.92,0,0,0-.19-.13.52.52,0,0,0-.18,0,.35.35,0,0,0-.28.13.79.79,0,0,0-.18.38V8.14Z"/><path class="cls-1" d="M21.78,7.8a.25.25,0,0,1-.21-.07.53.53,0,0,1-.06-.32V6.5h.62V6.16h-.62V5.7h-.05l-.69.77v0h.34v.94a1,1,0,0,0,.13.59.61.61,0,0,0,.4.15h2.6V7.8Z"/><path class="cls-1" d="M28.56,8.18a.38.38,0,0,1-.39-.39V3.66L26.31,2.61,24.44,3.66V7.41h2.43V5l-.56-.36L25.75,5V6.52a.39.39,0,0,1-.78,0V4.75a.38.38,0,0,1,.18-.32l1-.61a.38.38,0,0,1,.41,0l.95.61a.38.38,0,0,1,.18.32v3a.38.38,0,0,1-.39.39H24.06a.38.38,0,0,1-.39-.39V3.59a.38.38,0,0,1,.18-.32L26.1,1.83a.38.38,0,0,1,.41,0l2.25,1.44a.38.38,0,0,1,.18.32v4.2a.38.38,0,0,1-.38.39Zm-3.4-1.69a.2.2,0,1,0,.4,0,.2.2,0,0,0-.4,0Zm3.19,1.3a.21.21,0,0,0,.21.21.2.2,0,0,0,.2-.21.2.2,0,0,0-.2-.2A.2.2,0,0,0,28.35,7.79Z"/><path class="cls-1" d="M28.91,2.42a.36.36,0,0,1-.71,0,.36.36,0,0,1,.71,0Zm0,0"/><path class="cls-1" d="M29.4,1.57s0,0,0,0h0a0,0,0,0,0,0,0,1.14,1.14,0,0,0-1.59,0l-.05.05-.07.07A.22.22,0,0,0,28,2l.12-.12a.71.71,0,0,1,1,0l.09.09a.23.23,0,0,0,.31,0,.24.24,0,0,0,0-.32Zm0,0"/><path class="cls-1" d="M30,1.13l-.07-.07h0L29.87,1l0,0a1.93,1.93,0,0,0-2.6.06h0l-.13.13a.21.21,0,0,0,0,.29.19.19,0,0,0,.28,0l.13-.13h0a1.52,1.52,0,0,1,2.09,0l.11.11a.19.19,0,0,0,.28,0,.21.21,0,0,0,0-.29Zm0,0"/><path class="cls-2" d="M29.43,4.49a.42.42,0,0,1-.21-.06L26.31,2.61,23.39,4.43a.38.38,0,0,1-.53-.12A.39.39,0,0,1,23,3.78L26.1,1.83a.38.38,0,0,1,.41,0l3.12,1.95a.38.38,0,0,1,.12.53.37.37,0,0,1-.32.18ZM23,4.1a.21.21,0,0,0,.21.21.2.2,0,0,0,.2-.21.2.2,0,0,0-.2-.2A.2.2,0,0,0,23,4.1Zm6.24,0a.21.21,0,0,0,.21.21.2.2,0,0,0,.2-.21.2.2,0,0,0-.2-.2A.21.21,0,0,0,29.22,4.1Z"/></svg>