<svg id="Layer_1" data-name="Layer 1" xmlns="http://www.w3.org/2000/svg" viewBox="0 0 41.78 9.01"><defs><style>.cls-1{fill:#fff;}</style></defs><title>smart-e-w</title><path class="cls-1" d="M11.77,8.32V7.88a1.35,1.35,0,0,0,.35.19,1,1,0,0,0,.32.06.44.44,0,0,0,.25-.06.18.18,0,0,0,.09-.16c0-.08-.11-.18-.34-.29l-.15-.08a1.09,1.09,0,0,1-.39-.29.52.52,0,0,1-.11-.33A.51.51,0,0,1,12,6.51a.81.81,0,0,1,.51-.15,1.27,1.27,0,0,1,.34,0,1.37,1.37,0,0,1,.31.13v.4a1.67,1.67,0,0,0-.35-.15.79.79,0,0,0-.3,0,.34.34,0,0,0-.19,0,.14.14,0,0,0-.07.13c0,.1.14.23.43.37h0a1.4,1.4,0,0,1,.44.3.5.5,0,0,1,.11.33.53.53,0,0,1-.21.43.81.81,0,0,1-.54.16,2.21,2.21,0,0,1-.37,0A1.63,1.63,0,0,1,11.77,8.32Z"/><path class="cls-1" d="M13.62,8.46V6.41H14v.25a1.15,1.15,0,0,1,.3-.22.72.72,0,0,1,.33-.07.74.74,0,0,1,.38.09.65.65,0,0,1,.26.26,1.32,1.32,0,0,1,.35-.27A.85.85,0,0,1,16,6.37a.69.69,0,0,1,.73.73V8.46h-.42V7.2a.56.56,0,0,0-.1-.37.44.44,0,0,0-.32-.11.65.65,0,0,0-.29.06,1,1,0,0,0-.23.2V8.46H15V7.2a.56.56,0,0,0-.11-.37.44.44,0,0,0-.32-.11.61.61,0,0,0-.28.06A.7.7,0,0,0,14,7V8.46Z"/><path class="cls-1" d="M18.26,8.29a1.21,1.21,0,0,1-.29.16,1,1,0,0,1-.3.05.66.66,0,0,1-.44-.14A.45.45,0,0,1,17.08,8a.48.48,0,0,1,.17-.38,1.22,1.22,0,0,1,.51-.28l.48-.16s0,0,0,0v0a.33.33,0,0,0-.09-.26.41.41,0,0,0-.3-.09.93.93,0,0,0-.35.08,1.28,1.28,0,0,0-.37.21V6.62a1.24,1.24,0,0,1,.36-.19,1.41,1.41,0,0,1,.41-.07.79.79,0,0,1,.58.18.75.75,0,0,1,.18.56V8a.49.49,0,0,0,0,.15.05.05,0,0,0,.06,0,.12.12,0,0,0,.08,0L19,8.06v.25a1,1,0,0,1-.23.14.59.59,0,0,1-.23.05.3.3,0,0,1-.18-.05A.24.24,0,0,1,18.26,8.29Zm0-.25v-.6a2,2,0,0,0-.57.24.3.3,0,0,0-.15.25.24.24,0,0,0,.08.2.37.37,0,0,0,.23.07.78.78,0,0,0,.21,0A.82.82,0,0,0,18.24,8Z"/><path class="cls-1" d="M19.21,8.46V6.41h.41v.44a2,2,0,0,1,.31-.38.54.54,0,0,1,.3-.1.59.59,0,0,1,.22,0,.79.79,0,0,1,.24.15l-.22.36a.67.67,0,0,0-.19-.12.41.41,0,0,0-.19,0,.38.38,0,0,0-.29.14.89.89,0,0,0-.18.39V8.46Z"/><path class="cls-1" d="M21.68,8.11A.3.3,0,0,1,21.46,8a.59.59,0,0,1-.06-.33V6.77H22V6.41H21.4V5.93h0l-.72.8v0H21v1a1,1,0,0,0,.14.6.54.54,0,0,0,.41.16h2.69V8.11Z"/><path class="cls-1" d="M28.69,8.5a.4.4,0,0,1-.4-.4V3.82L26.36,2.74,24.43,3.82V7.7H27V5.17l-.59-.37-.58.37V6.79a.4.4,0,0,1-.8,0V5a.41.41,0,0,1,.19-.34l1-.63a.42.42,0,0,1,.43,0l1,.63a.4.4,0,0,1,.18.34V8.1a.4.4,0,0,1-.4.4H24a.39.39,0,0,1-.4-.4V3.76a.4.4,0,0,1,.18-.34l2.33-1.49a.42.42,0,0,1,.43,0l2.33,1.49a.4.4,0,0,1,.18.34V8.1a.4.4,0,0,1-.4.4ZM25.17,6.76a.21.21,0,1,0,.42,0,.21.21,0,1,0-.42,0ZM28.48,8.1a.21.21,0,1,0,.21-.21A.21.21,0,0,0,28.48,8.1Z"/><path class="cls-1" d="M29.06,2.54a.37.37,0,0,1-.37.36.36.36,0,0,1-.36-.36.37.37,0,0,1,.36-.37.38.38,0,0,1,.37.37Zm0,0"/><path class="cls-1" d="M29.57,1.66l0,0h0a1.17,1.17,0,0,0-1.64,0l-.05.05-.08.07a.23.23,0,0,0,.33.33L28.2,2a.75.75,0,0,1,1,0l.09.09a.22.22,0,0,0,.32,0,.22.22,0,0,0,0-.32Zm0,0"/><path class="cls-1" d="M30.19,1.2l-.08-.07h0l-.06-.06,0,0a2,2,0,0,0-2.69.06h0l-.14.14a.21.21,0,1,0,.3.3l.13-.14h0a1.58,1.58,0,0,1,2.17,0l.1.11a.21.21,0,0,0,.3-.3Zm0,0"/><path class="cls-1" d="M29.59,4.69a.35.35,0,0,1-.21-.07l-3-1.88-3,1.88A.4.4,0,0,1,22.92,4l3.23-2a.4.4,0,0,1,.42,0L29.8,4a.39.39,0,0,1,.13.55.42.42,0,0,1-.34.19Zm-6.67-.41a.22.22,0,1,0,.21-.21A.22.22,0,0,0,22.92,4.28Zm6.46,0a.22.22,0,0,0,.21.22.21.21,0,0,0,.21-.22.21.21,0,0,0-.21-.21A.22.22,0,0,0,29.38,4.28Z"/></svg>