<?xml version="1.0" encoding="utf-8"?>
<!-- Generator: Adobe Illustrator 17.0.0, SVG Export Plug-In . SVG Version: 6.00 Build 0)  -->
<!DOCTYPE svg PUBLIC "-//W3C//DTD SVG 1.1//EN" "http://www.w3.org/Graphics/SVG/1.1/DTD/svg11.dtd">
<svg version="1.1" id="login_content" xmlns="http://www.w3.org/2000/svg" xmlns:xlink="http://www.w3.org/1999/xlink" x="0px"
	 y="0px" width="591.067px" height="569.522px" viewBox="0 0 591.067 569.522" enable-background="new 0 0 591.067 569.522"
	 xml:space="preserve">
<g id="logo_bg">
	<g id="logo_bg_2_">
		<g>
			<g id="big_logo_bg_3_">
				<path fill="none" stroke="#FFD400" stroke-width="0.5669" d="M464.806,224.477c4.4-15.398,6.908-31.574,6.908-48.398
					C471.714,78.83,392.973,0,295.575,0c-97.018,0-176.139,78.83-176.139,176.079c0,16.736,2.479,32.888,6.881,48.221
					c15.83-4.576,32.417-7.143,49.677-7.143c46.177,0,88.098,17.813,119.554,47.054c31.426-29.241,73.435-47.054,119.551-47.054
					c17.466,0,34.109,2.68,49.909,7.379c-16.675,57.955-61.453,103.605-119.728,120.369l0.176,0.086
					c4.341,15.361,6.733,31.689,6.733,48.478c0,51.047-21.837,97.051-56.528,129.296c31.371,28.977,73.175,46.813,119.206,46.813
					c97.397,0,176.199-78.852,176.199-176.109C591.067,313.68,537.803,246.075,464.806,224.477z"/>
				<path fill="none" stroke="#FFD400" stroke-width="0.5669" d="M238.873,393.469c0-16.789,2.391-33.117,6.852-48.537l0.146-0.059
					c-57.956-16.85-103.084-62.414-119.788-120.338C53.203,246.193,0,313.738,0,393.469c0,97.258,78.886,176.109,176.166,176.109
					c46.063,0,87.866-17.837,119.232-46.845C260.65,490.52,238.873,444.516,238.873,393.469z"/>
			</g>
			<g>
				<path fill="none" stroke="#FFD60C" stroke-width="0.5443" d="M458.485,226.729c4.235-14.822,6.65-30.395,6.65-46.59
					c0-93.618-75.801-169.504-169.562-169.504c-93.395,0-169.562,75.887-169.562,169.504c0,16.111,2.386,31.659,6.624,46.42
					c15.239-4.405,31.207-6.877,47.822-6.877c44.452,0,84.808,17.147,115.09,45.297c30.253-28.149,70.693-45.297,115.087-45.297
					c16.814,0,32.836,2.58,48.046,7.103c-16.052,55.791-59.158,99.737-115.257,115.875l0.169,0.083
					c4.179,14.788,6.482,30.506,6.482,46.668c0,49.141-21.021,93.426-54.417,124.467c30.199,27.895,70.443,45.065,114.754,45.065
					c93.76,0,169.619-75.907,169.619-169.533C580.031,312.601,528.756,247.521,458.485,226.729z"/>
				<path fill="none" stroke="#FFD60C" stroke-width="0.5443" d="M240.989,389.411c0-16.163,2.301-31.881,6.596-46.725l0.141-0.056
					c-55.792-16.22-99.235-60.083-115.315-115.844c-70.159,20.85-121.375,85.872-121.375,162.626
					c0,93.626,75.94,169.533,169.588,169.533c44.343,0,84.585-17.171,114.779-45.095
					C261.953,482.837,240.989,438.551,240.989,389.411z"/>
			</g>
			<g>
				<path fill="none" stroke="#FFD918" stroke-width="0.5216" d="M452.164,228.981c4.071-14.247,6.392-29.216,6.392-44.783
					c0-89.986-72.86-162.929-162.985-162.929c-89.772,0-162.984,72.943-162.984,162.929c0,15.486,2.294,30.431,6.367,44.62
					c14.648-4.234,29.996-6.61,45.967-6.61c42.728,0,81.518,16.482,110.625,43.54c29.079-27.057,67.95-43.54,110.623-43.54
					c16.161,0,31.562,2.48,46.182,6.827c-15.43,53.627-56.863,95.868-110.786,111.38l0.163,0.079
					c4.017,14.214,6.23,29.322,6.23,44.858c0,47.234-20.206,89.802-52.306,119.639c29.028,26.813,67.71,43.317,110.303,43.317
					c90.123,0,163.04-72.963,163.04-162.956C568.995,311.522,519.709,248.967,452.164,228.981z"/>
				<path fill="none" stroke="#FFD918" stroke-width="0.5216" d="M243.105,385.353c0-15.536,2.212-30.644,6.34-44.913l0.135-0.054
					c-53.628-15.591-95.385-57.752-110.842-111.351C71.301,249.076,22.072,311.576,22.072,385.353
					c0,89.994,72.995,162.956,163.01,162.956c42.623,0,81.304-16.505,110.327-43.346
					C263.255,475.155,243.105,432.587,243.105,385.353z"/>
			</g>
			<g>
				<path fill="none" stroke="#FFDB24" stroke-width="0.499" d="M445.843,231.233c3.907-13.672,6.134-28.038,6.134-42.975
					c0-86.355-69.92-156.354-156.407-156.354c-86.149,0-156.407,69.999-156.407,156.354c0,14.861,2.201,29.203,6.11,42.819
					c14.057-4.063,28.786-6.344,44.112-6.344c41.004,0,78.229,15.817,106.161,41.783c27.906-25.966,65.208-41.783,106.158-41.783
					c15.509,0,30.289,2.38,44.318,6.552c-14.807,51.463-54.569,92-106.315,106.886l0.156,0.076
					c3.854,13.64,5.979,28.139,5.979,43.048c0,45.328-19.39,86.178-50.195,114.811c27.856,25.731,64.978,41.569,105.851,41.569
					c86.486,0,156.46-70.018,156.46-156.38C557.959,310.444,510.662,250.413,445.843,231.233z"/>
				<path fill="none" stroke="#FFDB24" stroke-width="0.499" d="M245.221,381.295c0-14.909,2.123-29.408,6.084-43.1l0.13-0.052
					c-51.464-14.962-91.536-55.422-106.369-106.857c-64.716,19.233-111.958,79.21-111.958,150.01
					c0,86.361,70.049,156.38,156.431,156.38c40.902,0,78.023-15.838,105.875-41.596
					C264.558,467.472,245.221,426.623,245.221,381.295z"/>
			</g>
			<g>
				<path fill="none" stroke="#FFDE31" stroke-width="0.4763" d="M439.522,233.485c3.742-13.097,5.876-26.859,5.876-41.168
					c0-82.723-66.979-149.779-149.83-149.779c-82.527,0-149.83,67.056-149.83,149.779c0,14.236,2.109,27.975,5.853,41.018
					c13.466-3.893,27.575-6.077,42.257-6.077c39.279,0,74.939,15.152,101.696,40.026c26.732-24.874,62.466-40.026,101.694-40.026
					c14.857,0,29.015,2.28,42.455,6.276c-14.184,49.299-52.274,88.131-101.844,102.391l0.15,0.073
					c3.692,13.067,5.727,26.955,5.727,41.238c0,43.422-18.575,82.553-48.084,109.982c26.685,24.649,62.245,39.821,101.4,39.821
					c82.849,0,149.88-67.074,149.88-149.803C546.923,309.365,501.615,251.859,439.522,233.485z"/>
				<path fill="none" stroke="#FFDE31" stroke-width="0.4763" d="M247.337,377.237c0-14.283,2.034-28.171,5.828-41.288l0.124-0.05
					c-49.299-14.333-87.686-53.091-101.896-102.364c-61.994,18.425-107.25,75.879-107.25,143.702
					c0,82.729,67.103,149.803,149.853,149.803c39.182,0,74.741-15.172,101.422-39.847
					C265.86,459.79,247.337,420.659,247.337,377.237z"/>
			</g>
			<g>
				<path fill="none" stroke="#FFE03D" stroke-width="0.4537" d="M433.201,235.738c3.578-12.522,5.618-25.68,5.618-39.361
					c0-79.092-64.039-143.204-143.252-143.204c-78.904,0-143.252,64.112-143.252,143.204c0,13.611,2.016,26.746,5.596,39.218
					c12.875-3.722,26.365-5.81,40.402-5.81c37.555,0,71.649,14.487,97.232,38.269c25.559-23.782,59.723-38.269,97.229-38.269
					c14.205,0,27.742,2.18,40.591,6c-13.562,47.135-49.979,84.263-97.373,97.897l0.143,0.07c3.53,12.493,5.476,25.772,5.476,39.428
					c0,41.516-17.759,78.929-45.973,105.154c25.513,23.567,59.512,38.073,96.948,38.073c79.212,0,143.3-64.129,143.3-143.226
					C535.887,308.286,492.569,253.305,433.201,235.738z"/>
				<path fill="none" stroke="#FFE03D" stroke-width="0.4537" d="M249.452,373.179c0-13.656,1.944-26.935,5.572-39.476l0.119-0.048
					c-47.135-13.704-83.837-50.76-97.422-97.87C98.448,253.401,55.179,308.333,55.179,373.179
					c0,79.097,64.157,143.226,143.275,143.226c37.462,0,71.46-14.506,96.97-38.098C267.163,452.107,249.452,414.694,249.452,373.179
					z"/>
			</g>
			<g>
				<path fill="none" stroke="#FFE249" stroke-width="0.431" d="M426.88,237.99c3.414-11.947,5.36-24.501,5.36-37.553
					c0-75.461-61.098-136.629-136.674-136.629c-75.281,0-136.675,61.169-136.675,136.629c0,12.986,1.924,25.518,5.339,37.417
					c12.284-3.551,25.154-5.544,38.547-5.544c35.831,0,68.359,13.822,92.768,36.512c24.385-22.69,56.981-36.512,92.765-36.512
					c13.552,0,26.468,2.08,38.728,5.724c-12.939,44.971-47.684,80.394-92.903,93.402l0.137,0.066
					c3.368,11.919,5.224,24.588,5.224,37.618c0,39.609-16.944,75.304-43.862,100.325c24.342,22.485,56.78,36.324,92.497,36.324
					c75.575,0,136.721-61.185,136.721-136.65C524.85,307.208,483.522,254.751,426.88,237.99z"/>
				<path fill="none" stroke="#FFE249" stroke-width="0.431" d="M251.568,369.121c0-13.03,1.855-25.698,5.316-37.664l0.113-0.045
					c-44.971-13.074-79.987-48.429-92.949-93.377c-56.551,16.808-97.834,69.218-97.834,131.086
					c0,75.465,61.211,136.65,136.696,136.65c35.742,0,68.179-13.84,92.517-36.348C268.466,444.425,251.568,408.73,251.568,369.121z"
					/>
			</g>
			<g>
				<path fill="none" stroke="#FFE555" stroke-width="0.4083" d="M420.559,240.242c3.25-11.372,5.102-23.322,5.102-35.746
					c0-71.829-58.158-130.054-130.097-130.054c-71.658,0-130.098,58.225-130.098,130.054c0,12.361,1.831,24.29,5.082,35.617
					c11.693-3.38,23.944-5.277,36.692-5.277c34.106,0,65.07,13.156,88.303,34.755c23.211-21.598,54.239-34.755,88.301-34.755
					c12.9,0,25.194,1.98,36.864,5.449c-12.316,42.808-45.389,76.526-88.432,88.908l0.131,0.063
					c3.206,11.346,4.973,23.405,4.973,35.808c0,37.703-16.128,71.68-41.751,95.497c23.17,21.403,54.047,34.576,88.045,34.576
					c71.938,0,130.141-58.24,130.141-130.073C513.814,306.129,474.475,256.197,420.559,240.242z"/>
				<path fill="none" stroke="#FFE555" stroke-width="0.4083" d="M253.684,365.062c0-12.403,1.766-24.462,5.06-35.852l0.108-0.043
					c-42.807-12.445-76.138-46.098-88.476-88.883c-53.83,16-93.126,65.887-93.126,124.778c0,71.833,58.266,130.073,130.118,130.073
					c34.022,0,64.898-13.174,88.065-34.599C269.768,436.743,253.684,402.766,253.684,365.062z"/>
			</g>
			<g>
				<path fill="none" stroke="#FFE761" stroke-width="0.3857" d="M414.238,242.494c3.086-10.797,4.844-22.143,4.844-33.938
					c0-68.198-55.217-123.479-123.52-123.479c-68.035,0-123.52,55.282-123.52,123.479c0,11.736,1.739,23.061,4.826,33.816
					c11.102-3.209,22.734-5.01,34.837-5.01c32.382,0,61.78,12.491,83.839,32.998c22.038-20.506,51.496-32.998,83.836-32.998
					c12.248,0,23.921,1.88,35,5.173c-11.694,40.644-43.094,72.657-83.961,84.413l0.124,0.06c3.044,10.772,4.721,22.221,4.721,33.998
					c0,35.797-15.313,68.056-39.64,90.668c21.999,20.321,51.315,32.828,83.594,32.828c68.301,0,123.561-55.296,123.561-123.497
					C502.778,305.05,465.428,257.643,414.238,242.494z"/>
				<path fill="none" stroke="#FFE761" stroke-width="0.3857" d="M255.8,361.004c0-11.776,1.676-23.226,4.804-34.04l0.103-0.041
					c-40.643-11.816-72.288-43.768-84.003-84.39c-51.108,15.191-88.417,62.556-88.417,118.47c0,68.201,55.32,123.497,123.54,123.497
					c32.301,0,61.616-12.507,83.613-32.849C271.071,429.06,255.8,396.801,255.8,361.004z"/>
			</g>
			<g>
				<path fill="none" stroke="#FFE96D" stroke-width="0.363" d="M407.917,244.746c2.921-10.222,4.586-20.964,4.586-32.131
					c0-64.566-52.277-116.905-116.942-116.905c-64.412,0-116.943,52.338-116.943,116.905c0,11.111,1.646,21.833,4.569,32.015
					c10.511-3.038,21.523-4.744,32.982-4.744c30.658,0,58.49,11.826,79.374,31.241c20.864-19.414,48.754-31.241,79.372-31.241
					c11.596,0,22.647,1.78,33.137,4.897c-11.071,38.48-40.799,68.789-79.49,79.919l0.118,0.056
					c2.882,10.198,4.47,21.038,4.47,32.187c0,33.891-14.497,64.431-37.529,85.84c20.827,19.239,48.582,31.08,79.142,31.08
					c64.664,0,116.981-52.352,116.981-116.92C491.742,303.972,456.381,259.089,407.917,244.746z"/>
				<path fill="none" stroke="#FFE96D" stroke-width="0.363" d="M257.915,356.946c0-11.15,1.587-21.989,4.549-32.227l0.097-0.039
					c-38.478-11.187-68.439-41.437-79.53-79.896c-48.387,14.383-83.709,59.225-83.709,112.162
					c0,64.569,52.374,116.92,116.961,116.92c30.581,0,58.335-11.841,79.16-31.1C272.373,421.378,257.915,390.837,257.915,356.946z"
					/>
			</g>
			<g>
				<path fill="none" stroke="#FFEC79" stroke-width="0.3404" d="M401.596,246.999c2.757-9.647,4.328-19.785,4.328-30.324
					c0-60.935-49.336-110.33-110.364-110.33c-60.789,0-110.366,49.395-110.366,110.33c0,10.486,1.554,20.605,4.312,30.215
					c9.92-2.867,20.313-4.477,31.127-4.477c28.933,0,55.2,11.161,74.91,29.484c19.691-18.323,46.012-29.484,74.907-29.484
					c10.944,0,21.374,1.68,31.273,4.621c-10.449,36.316-38.505,64.92-75.019,75.424l0.111,0.053
					c2.72,9.625,4.218,19.854,4.218,30.377c0,31.984-13.682,60.807-35.418,81.012c19.656,18.157,45.85,29.332,74.691,29.332
					c61.027,0,110.401-49.407,110.401-110.343C480.706,302.893,447.334,260.535,401.596,246.999z"/>
				<path fill="none" stroke="#FFEC79" stroke-width="0.3404" d="M260.031,352.888c0-10.523,1.498-20.753,4.293-30.415l0.092-0.037
					c-36.314-10.557-64.589-39.106-75.057-75.403c-45.665,13.575-79.001,55.894-79.001,105.854
					c0,60.936,49.428,110.343,110.383,110.343c28.861,0,55.054-11.175,74.708-29.35
					C273.676,413.695,260.031,384.873,260.031,352.888z"/>
			</g>
			<g>
				<path fill="none" stroke="#FFEE85" stroke-width="0.3177" d="M395.275,249.251c2.593-9.072,4.07-18.606,4.07-28.516
					c0-57.304-46.396-103.755-103.787-103.755c-57.166,0-103.788,46.451-103.788,103.755c0,9.861,1.461,19.377,4.055,28.414
					c9.329-2.696,19.102-4.21,29.272-4.21c27.209,0,51.911,10.496,70.445,27.727c18.517-17.231,43.269-27.727,70.443-27.727
					c10.291,0,20.1,1.58,29.41,4.346c-9.826,34.152-36.21,61.052-70.549,70.93l0.105,0.05c2.558,9.051,3.967,18.671,3.967,28.567
					c0,30.078-12.867,57.182-33.307,76.183c18.484,17.075,43.117,27.584,70.239,27.584c57.389,0,103.822-46.463,103.822-103.767
					C469.67,301.814,438.287,261.981,395.275,249.251z"/>
				<path fill="none" stroke="#FFEE85" stroke-width="0.3177" d="M262.147,348.83c0-9.897,1.409-19.516,4.037-28.603l0.086-0.034
					c-34.15-9.928-60.74-36.775-70.584-70.909c-42.944,12.766-74.293,52.563-74.293,99.546c0,57.304,46.482,103.767,103.805,103.767
					c27.141,0,51.773-10.509,70.255-27.601C274.979,406.013,262.147,378.908,262.147,348.83z"/>
			</g>
			<g>
				<path fill="none" stroke="#FFF192" stroke-width="0.2951" d="M388.954,251.503c2.429-8.497,3.812-17.428,3.812-26.709
					c0-53.672-43.455-97.18-97.209-97.18c-53.543,0-97.211,43.508-97.211,97.18c0,9.236,1.369,18.148,3.798,26.614
					c8.738-2.525,17.892-3.944,27.417-3.944c25.485,0,48.621,9.831,65.981,25.969c17.344-16.139,40.527-25.969,65.979-25.969
					c9.639,0,18.827,1.48,27.546,4.07c-9.203,31.988-33.915,57.183-66.078,66.435l0.098,0.046
					c2.396,8.477,3.715,17.487,3.715,26.757c0,28.172-12.051,53.558-31.196,71.355c17.313,15.993,40.384,25.835,65.788,25.835
					c53.752,0,97.242-43.518,97.242-97.19C458.634,300.736,429.24,263.427,388.954,251.503z"/>
				<path fill="none" stroke="#FFF192" stroke-width="0.2951" d="M264.263,344.772c0-9.27,1.319-18.28,3.781-26.791l0.081-0.032
					c-31.986-9.299-56.891-34.444-66.11-66.416c-40.222,11.958-69.585,49.232-69.585,93.239c0,53.672,43.537,97.19,97.226,97.19
					c25.42,0,48.492-9.843,65.803-25.851C276.281,398.33,264.263,372.944,264.263,344.772z"/>
			</g>
			<g>
				<path fill="none" stroke="#FFF39E" stroke-width="0.2724" d="M382.633,253.755c2.264-7.922,3.553-16.249,3.553-24.902
					c0-50.041-40.515-90.605-90.632-90.605c-49.92,0-90.633,40.564-90.633,90.605c0,8.611,1.276,16.92,3.541,24.813
					c8.147-2.354,16.682-3.677,25.562-3.677c23.76,0,45.331,9.165,61.516,24.212c16.17-15.047,37.785-24.212,61.514-24.212
					c8.987,0,17.553,1.38,25.683,3.794c-8.581,29.824-31.62,53.315-61.607,61.941l0.092,0.043
					c2.233,7.904,3.464,16.303,3.464,24.947c0,26.266-11.236,49.934-29.085,66.526c16.141,14.911,37.652,24.087,61.336,24.087
					c50.115,0,90.662-40.574,90.662-90.614C447.598,299.657,420.193,264.873,382.633,253.755z"/>
				<path fill="none" stroke="#FFF39E" stroke-width="0.2724" d="M266.378,340.714c0-8.643,1.23-17.043,3.525-24.979l0.075-0.03
					c-29.822-8.67-53.041-32.113-61.637-61.922c-37.501,11.15-64.876,45.901-64.876,86.931c0,50.04,40.591,90.614,90.648,90.614
					c23.7,0,45.21-9.176,61.35-24.102C277.584,390.648,266.378,366.98,266.378,340.714z"/>
			</g>
			<g>
				<path fill="none" stroke="#FFF5AA" stroke-width="0.2498" d="M376.311,256.007c2.1-7.347,3.295-15.07,3.295-23.094
					c0-46.409-37.574-84.03-84.054-84.03c-46.298,0-84.056,37.62-84.056,84.03c0,7.986,1.184,15.692,3.284,23.012
					c7.556-2.184,15.471-3.41,23.707-3.41c22.036,0,42.041,8.5,57.052,22.455c14.996-13.955,35.042-22.455,57.05-22.455
					c8.335,0,16.28,1.28,23.819,3.518c-7.958,27.66-29.325,49.446-57.136,57.446l0.085,0.04c2.071,7.33,3.212,15.12,3.212,23.137
					c0,24.359-10.42,46.309-26.974,61.698c14.97,13.829,34.919,22.339,56.885,22.339c46.478,0,84.082-37.629,84.082-84.037
					C436.562,298.578,411.146,266.319,376.311,256.007z"/>
				<path fill="none" stroke="#FFF5AA" stroke-width="0.2498" d="M268.494,336.656c0-8.017,1.141-15.807,3.269-23.166l0.07-0.028
					c-27.657-8.041-49.192-29.783-57.164-57.428c-34.779,10.341-60.168,42.57-60.168,80.623c0,46.408,37.645,84.037,84.07,84.037
					c21.98,0,41.929-8.51,56.898-22.353C278.886,382.965,268.494,361.016,268.494,336.656z"/>
			</g>
			<g>
				<path fill="none" stroke="#FFF8B6" stroke-width="0.2271" d="M369.99,258.26c1.936-6.772,3.037-13.891,3.037-21.287
					c0-42.778-34.634-77.455-77.477-77.455c-42.675,0-77.479,34.677-77.479,77.455c0,7.361,1.091,14.464,3.027,21.212
					c6.965-2.013,14.261-3.144,21.852-3.144c20.312,0,38.752,7.835,52.588,20.698c13.823-12.863,32.3-20.698,52.585-20.698
					c7.683,0,15.006,1.18,21.955,3.243c-7.336,25.496-27.03,45.578-52.665,52.952l0.079,0.036
					c1.909,6.756,2.961,13.936,2.961,21.327c0,22.453-9.605,42.685-24.863,56.869c13.798,12.747,32.187,20.591,52.433,20.591
					c42.841,0,77.503-34.685,77.503-77.46C425.526,297.5,402.099,267.765,369.99,258.26z"/>
				<path fill="none" stroke="#FFF8B6" stroke-width="0.2271" d="M270.61,332.598c0-7.39,1.052-14.57,3.013-21.354l0.065-0.026
					c-25.493-7.411-45.342-27.452-52.691-52.935c-32.057,9.533-55.46,39.239-55.46,74.315c0,42.776,34.699,77.46,77.491,77.46
					c20.26,0,38.648-7.844,52.446-20.603C280.189,375.283,270.61,355.051,270.61,332.598z"/>
			</g>
			<g id="small_logo_bg_3_">
				<path fill="none" stroke="#FFFAC2" stroke-width="0.2044" d="M363.669,260.512c1.771-6.197,2.779-12.712,2.779-19.479
					c0-39.146-31.693-70.88-70.899-70.88c-39.052,0-70.901,31.733-70.901,70.88c0,6.736,0.999,13.235,2.77,19.411
					c6.374-1.842,13.05-2.877,19.997-2.877c18.587,0,35.462,7.17,48.123,18.941c12.649-11.771,29.558-18.941,48.121-18.941
					c7.03,0,13.732,1.08,20.092,2.967c-6.713,23.332-24.735,41.709-48.194,48.457l0.072,0.033
					c1.747,6.183,2.709,12.753,2.709,19.517c0,20.547-8.789,39.061-22.752,52.041c12.627,11.665,29.454,18.843,47.982,18.843
					c39.204,0,70.923-31.74,70.923-70.884C414.49,296.421,393.052,269.211,363.669,260.512z"/>
				<path fill="none" stroke="#FFFAC2" stroke-width="0.2044" d="M272.726,328.54c0-6.764,0.962-13.334,2.757-19.542l0.059-0.023
					c-23.329-6.782-41.493-25.121-48.218-48.441c-29.336,8.725-50.752,35.908-50.752,68.007c0,39.144,31.753,70.884,70.913,70.884
					c18.54,0,35.367-7.178,47.993-18.854C281.492,367.601,272.726,349.087,272.726,328.54z"/>
			</g>
		</g>
	</g>
</g>
</svg>
