<?xml version="1.0" encoding="utf-8"?>
<!-- Generator: Adobe Illustrator 17.0.0, SVG Export Plug-In . SVG Version: 6.00 Build 0)  -->
<!DOCTYPE svg PUBLIC "-//W3C//DTD SVG 1.1//EN" "http://www.w3.org/Graphics/SVG/1.1/DTD/svg11.dtd">
<svg version="1.1" id="Layer_1" xmlns="http://www.w3.org/2000/svg" xmlns:xlink="http://www.w3.org/1999/xlink" x="0px" y="0px"
	 width="60.109px" height="44px" viewBox="-136.208 102.5 60.109 44" enable-background="new -136.208 102.5 60.109 44"
	 xml:space="preserve">
<g>
	<path fill="#FFFFFF" d="M-126.556,118.646h5.016v1.188h-3.796v2.057h3.514v1.122h-3.514v2.299h3.865v1.188h-5.084V118.646z"/>
	<path fill="#FFFFFF" d="M-120.281,122.913h2.84v1.188h-2.84V122.913z"/>
	<path fill="#FFFFFF" d="M-115.031,123.881c0,0.301,0.045,0.558,0.137,0.771c0.091,0.213,0.218,0.387,0.38,0.522
		s0.35,0.234,0.561,0.297s0.441,0.094,0.688,0.094c0.267,0,0.494-0.035,0.683-0.104c0.188-0.07,0.341-0.16,0.458-0.27
		c0.117-0.11,0.202-0.237,0.254-0.38c0.052-0.143,0.078-0.288,0.078-0.435c0-0.301-0.061-0.522-0.181-0.665
		c-0.121-0.144-0.252-0.244-0.396-0.303c-0.247-0.103-0.535-0.2-0.864-0.292c-0.329-0.091-0.733-0.21-1.215-0.357
		c-0.299-0.088-0.548-0.203-0.747-0.347c-0.198-0.143-0.356-0.302-0.473-0.479c-0.117-0.176-0.2-0.362-0.249-0.561
		s-0.073-0.399-0.073-0.605c0-0.396,0.073-0.738,0.22-1.028c0.146-0.289,0.34-0.529,0.581-0.721c0.241-0.19,0.514-0.331,0.82-0.423
		s0.615-0.138,0.927-0.138c0.364,0,0.708,0.054,1.029,0.159c0.322,0.106,0.605,0.267,0.849,0.479
		c0.244,0.213,0.438,0.476,0.581,0.787s0.215,0.673,0.215,1.083h-1.22c-0.033-0.506-0.186-0.863-0.459-1.072
		c-0.273-0.209-0.621-0.313-1.044-0.313c-0.143,0-0.29,0.017-0.439,0.05c-0.149,0.032-0.286,0.088-0.41,0.165
		c-0.124,0.076-0.226,0.181-0.308,0.313c-0.081,0.132-0.122,0.297-0.122,0.494c0,0.279,0.076,0.497,0.229,0.655
		c0.153,0.157,0.353,0.276,0.6,0.357c0.026,0.007,0.128,0.038,0.308,0.094c0.179,0.055,0.379,0.115,0.6,0.181
		c0.221,0.066,0.438,0.131,0.649,0.193c0.211,0.062,0.363,0.107,0.454,0.137c0.228,0.081,0.426,0.191,0.595,0.33
		c0.169,0.14,0.311,0.299,0.424,0.479s0.199,0.372,0.254,0.578c0.055,0.205,0.083,0.41,0.083,0.615c0,0.44-0.08,0.816-0.239,1.128
		c-0.159,0.312-0.369,0.566-0.629,0.765s-0.556,0.343-0.888,0.435c-0.332,0.091-0.67,0.137-1.015,0.137
		c-0.397,0-0.771-0.055-1.123-0.164c-0.351-0.11-0.657-0.279-0.917-0.507c-0.26-0.227-0.468-0.519-0.625-0.874
		s-0.237-0.775-0.244-1.26H-115.031z"/>
	<path fill="#FFFFFF" d="M-108.404,123.98c0,0.22,0.028,0.433,0.083,0.638s0.138,0.385,0.249,0.539
		c0.11,0.153,0.25,0.276,0.419,0.368c0.169,0.092,0.371,0.138,0.605,0.138c0.325,0,0.587-0.079,0.786-0.236
		c0.198-0.158,0.347-0.395,0.444-0.71h1.054c-0.059,0.309-0.16,0.583-0.302,0.825c-0.144,0.242-0.316,0.445-0.518,0.61
		s-0.428,0.29-0.678,0.374s-0.512,0.127-0.786,0.127c-0.397,0-0.748-0.073-1.054-0.221c-0.306-0.146-0.564-0.352-0.776-0.615
		c-0.211-0.265-0.371-0.579-0.479-0.946c-0.107-0.366-0.161-0.771-0.161-1.21c0-0.403,0.057-0.786,0.17-1.149
		s0.276-0.683,0.488-0.957c0.211-0.275,0.467-0.493,0.766-0.654c0.299-0.161,0.637-0.242,1.015-0.242
		c0.397,0,0.753,0.094,1.069,0.28c0.315,0.188,0.577,0.435,0.786,0.742c0.208,0.309,0.359,0.662,0.454,1.062
		c0.094,0.4,0.119,0.813,0.073,1.238H-108.404z M-105.808,123.155c-0.013-0.198-0.051-0.389-0.112-0.572
		c-0.062-0.184-0.146-0.343-0.254-0.479s-0.238-0.245-0.39-0.33c-0.153-0.084-0.324-0.126-0.513-0.126
		c-0.195,0-0.373,0.038-0.532,0.115c-0.16,0.077-0.296,0.184-0.41,0.319c-0.114,0.136-0.205,0.295-0.273,0.478
		c-0.068,0.184-0.106,0.382-0.112,0.595H-105.808z"/>
	<path fill="#FFFFFF" d="M-103.457,120.813h1.044v1.1h0.02c0.032-0.154,0.096-0.305,0.19-0.451c0.094-0.146,0.208-0.28,0.341-0.401
		s0.281-0.218,0.444-0.292c0.163-0.073,0.329-0.109,0.498-0.109c0.13,0,0.219,0.004,0.268,0.011
		c0.049,0.008,0.099,0.015,0.151,0.022v1.21c-0.078-0.015-0.158-0.028-0.239-0.039c-0.082-0.011-0.161-0.017-0.239-0.017
		c-0.189,0-0.366,0.043-0.532,0.127c-0.166,0.084-0.311,0.209-0.435,0.374s-0.221,0.368-0.292,0.61
		c-0.072,0.242-0.107,0.521-0.107,0.836v2.706h-1.113V120.813z"/>
	<path fill="#FFFFFF" d="M-99.602,118.646h1.113v1.188h-1.113V118.646z M-99.602,120.813h1.113v5.687h-1.113V120.813z"/>
	<path fill="#FFFFFF" d="M-96.021,123.98c0,0.22,0.027,0.433,0.083,0.638c0.055,0.205,0.138,0.385,0.249,0.539
		c0.11,0.153,0.25,0.276,0.42,0.368c0.169,0.092,0.37,0.138,0.604,0.138c0.325,0,0.587-0.079,0.786-0.236
		c0.198-0.158,0.346-0.395,0.443-0.71h1.055c-0.059,0.309-0.16,0.583-0.303,0.825c-0.144,0.242-0.315,0.445-0.518,0.61
		c-0.201,0.165-0.428,0.29-0.678,0.374c-0.251,0.084-0.513,0.127-0.786,0.127c-0.396,0-0.748-0.073-1.054-0.221
		c-0.306-0.146-0.564-0.352-0.776-0.615c-0.211-0.265-0.37-0.579-0.478-0.946c-0.107-0.366-0.161-0.771-0.161-1.21
		c0-0.403,0.057-0.786,0.171-1.149c0.113-0.363,0.276-0.683,0.487-0.957c0.212-0.275,0.467-0.493,0.767-0.654
		c0.299-0.161,0.638-0.242,1.015-0.242c0.396,0,0.753,0.094,1.068,0.28c0.315,0.188,0.578,0.435,0.786,0.742
		c0.208,0.309,0.359,0.662,0.454,1.062c0.094,0.4,0.118,0.813,0.073,1.238H-96.021z M-93.425,123.155
		c-0.013-0.198-0.05-0.389-0.112-0.572c-0.062-0.184-0.146-0.343-0.253-0.479c-0.107-0.136-0.238-0.245-0.391-0.33
		c-0.153-0.084-0.324-0.126-0.513-0.126c-0.195,0-0.372,0.038-0.532,0.115c-0.159,0.077-0.296,0.184-0.409,0.319
		c-0.114,0.136-0.205,0.295-0.273,0.478c-0.068,0.184-0.105,0.382-0.112,0.595H-93.425z"/>
	<path fill="#FFFFFF" d="M-90.232,124.673c0.032,0.367,0.156,0.624,0.371,0.771s0.472,0.22,0.771,0.22
		c0.104,0,0.223-0.009,0.356-0.027c0.133-0.019,0.259-0.054,0.376-0.104c0.117-0.052,0.213-0.127,0.288-0.226
		c0.074-0.1,0.108-0.229,0.103-0.391c-0.007-0.161-0.059-0.293-0.156-0.396c-0.098-0.103-0.224-0.185-0.376-0.247
		c-0.153-0.063-0.327-0.115-0.522-0.159s-0.394-0.092-0.595-0.144c-0.209-0.051-0.409-0.113-0.601-0.187
		c-0.192-0.073-0.364-0.173-0.518-0.297c-0.152-0.125-0.274-0.284-0.365-0.479c-0.092-0.194-0.137-0.435-0.137-0.721
		c0-0.309,0.066-0.566,0.2-0.775c0.133-0.209,0.302-0.378,0.507-0.506c0.205-0.129,0.433-0.219,0.684-0.27
		c0.25-0.052,0.489-0.077,0.717-0.077c0.261,0,0.51,0.031,0.747,0.094c0.237,0.062,0.452,0.163,0.644,0.302
		c0.192,0.14,0.352,0.321,0.479,0.545s0.206,0.493,0.239,0.809h-1.161c-0.053-0.301-0.175-0.502-0.366-0.605
		c-0.192-0.103-0.412-0.153-0.659-0.153c-0.078,0-0.171,0.007-0.277,0.021c-0.107,0.015-0.209,0.042-0.303,0.083
		c-0.095,0.04-0.175,0.099-0.239,0.176c-0.065,0.077-0.098,0.178-0.098,0.303c0,0.153,0.047,0.278,0.142,0.374
		c0.095,0.095,0.219,0.174,0.372,0.236s0.328,0.115,0.523,0.159c0.196,0.044,0.398,0.092,0.607,0.143
		c0.202,0.052,0.401,0.114,0.597,0.188c0.196,0.073,0.37,0.172,0.523,0.297s0.277,0.282,0.372,0.473
		c0.095,0.191,0.143,0.426,0.143,0.704c0,0.338-0.068,0.624-0.206,0.858c-0.137,0.234-0.314,0.426-0.532,0.572
		c-0.219,0.146-0.462,0.253-0.729,0.318c-0.267,0.066-0.531,0.1-0.792,0.1c-0.319,0-0.614-0.041-0.885-0.121
		c-0.271-0.081-0.506-0.204-0.704-0.369c-0.199-0.165-0.355-0.37-0.47-0.615c-0.114-0.246-0.175-0.537-0.181-0.875H-90.232z"/>
</g>
</svg>
