<?xml version="1.0" encoding="utf-8"?>
<!-- Generator: Adobe Illustrator 17.0.0, SVG Export Plug-In . SVG Version: 6.00 Build 0)  -->
<!DOCTYPE svg PUBLIC "-//W3C//DTD SVG 1.1//EN" "http://www.w3.org/Graphics/SVG/1.1/DTD/svg11.dtd">
<svg version="1.1" id="Layer_1" xmlns="http://www.w3.org/2000/svg" xmlns:xlink="http://www.w3.org/1999/xlink" x="0px" y="0px"
	 width="60.109px" height="44px" viewBox="-8.055 102.5 60.109 44" enable-background="new -8.055 102.5 60.109 44"
	 xml:space="preserve">
<g>
	<path fill="#FFFFFF" d="M4.236,118.646h5.016v1.188H5.456v2.057H8.97v1.122H5.456v2.299h3.865v1.188H4.236V118.646z"/>
	<path fill="#FFFFFF" d="M10.648,118.646h1.113v7.854h-1.113V118.646z"/>
	<path fill="#FFFFFF" d="M14.229,123.981c0,0.22,0.028,0.433,0.083,0.638s0.138,0.385,0.249,0.539
		c0.11,0.153,0.25,0.276,0.419,0.368c0.169,0.092,0.371,0.138,0.605,0.138c0.325,0,0.587-0.079,0.786-0.236
		c0.198-0.158,0.347-0.395,0.444-0.71h1.054c-0.059,0.309-0.16,0.583-0.302,0.825c-0.144,0.242-0.316,0.445-0.518,0.61
		s-0.428,0.29-0.678,0.374s-0.512,0.127-0.786,0.127c-0.397,0-0.748-0.073-1.054-0.221c-0.306-0.146-0.564-0.352-0.776-0.615
		c-0.211-0.265-0.371-0.579-0.479-0.946c-0.107-0.366-0.161-0.771-0.161-1.21c0-0.403,0.057-0.786,0.17-1.149
		s0.276-0.683,0.488-0.957c0.211-0.275,0.467-0.493,0.766-0.654c0.299-0.161,0.637-0.242,1.015-0.242
		c0.397,0,0.753,0.094,1.069,0.28c0.315,0.188,0.577,0.435,0.786,0.742c0.208,0.309,0.359,0.662,0.454,1.062
		c0.094,0.4,0.119,0.813,0.073,1.238H14.229z M16.826,123.156c-0.013-0.198-0.051-0.389-0.112-0.572
		c-0.062-0.184-0.146-0.343-0.254-0.479s-0.238-0.245-0.39-0.33c-0.153-0.084-0.324-0.126-0.513-0.126
		c-0.195,0-0.373,0.038-0.532,0.115c-0.16,0.077-0.296,0.184-0.41,0.319c-0.114,0.136-0.205,0.295-0.273,0.478
		c-0.068,0.184-0.106,0.382-0.112,0.595H16.826z"/>
	<path fill="#FFFFFF" d="M22.584,122.716c-0.046-0.352-0.171-0.617-0.376-0.797s-0.463-0.27-0.776-0.27
		c-0.143,0-0.296,0.027-0.458,0.082s-0.313,0.158-0.449,0.308c-0.136,0.15-0.25,0.359-0.341,0.627
		c-0.091,0.269-0.137,0.618-0.137,1.051c0,0.235,0.024,0.47,0.073,0.704c0.049,0.235,0.127,0.444,0.234,0.627
		c0.107,0.184,0.245,0.332,0.415,0.445c0.169,0.114,0.374,0.171,0.615,0.171c0.325,0,0.594-0.113,0.805-0.341
		s0.343-0.547,0.396-0.957h1.112c-0.104,0.74-0.354,1.307-0.747,1.699s-0.916,0.589-1.566,0.589c-0.397,0-0.747-0.075-1.049-0.226
		c-0.303-0.15-0.558-0.355-0.766-0.616c-0.208-0.26-0.366-0.57-0.474-0.93s-0.161-0.748-0.161-1.166
		c0-0.425,0.052-0.825,0.156-1.199s0.26-0.698,0.469-0.973c0.208-0.275,0.467-0.491,0.776-0.649
		c0.309-0.157,0.671-0.236,1.088-0.236c0.293,0,0.571,0.042,0.834,0.126c0.264,0.085,0.498,0.211,0.703,0.38
		s0.373,0.382,0.503,0.638c0.13,0.257,0.208,0.562,0.234,0.913H22.584z"/>
	<path fill="#FFFFFF" d="M24.486,120.813h0.84v-1.705h1.112v1.705h1.005v0.935h-1.005v3.036c0,0.132,0.005,0.245,0.015,0.341
		s0.032,0.176,0.068,0.242c0.035,0.065,0.089,0.115,0.161,0.148c0.071,0.033,0.169,0.05,0.293,0.05c0.077,0,0.155-0.002,0.233-0.006
		s0.156-0.017,0.234-0.038v0.968c-0.123,0.015-0.244,0.029-0.361,0.044c-0.116,0.015-0.237,0.021-0.36,0.021
		c-0.293,0-0.529-0.031-0.708-0.093c-0.179-0.063-0.318-0.154-0.42-0.275c-0.101-0.121-0.169-0.273-0.204-0.456
		c-0.036-0.184-0.058-0.393-0.063-0.628v-3.354h-0.84V120.813z"/>
	<path fill="#FFFFFF" d="M28.634,120.813h1.045v1.1h0.02c0.032-0.154,0.096-0.305,0.19-0.451c0.094-0.146,0.208-0.28,0.341-0.401
		c0.134-0.121,0.281-0.218,0.444-0.292c0.162-0.073,0.328-0.109,0.498-0.109c0.13,0,0.219,0.004,0.268,0.011
		c0.049,0.008,0.1,0.015,0.151,0.022v1.21c-0.078-0.015-0.157-0.028-0.238-0.039c-0.082-0.011-0.161-0.017-0.239-0.017
		c-0.189,0-0.366,0.043-0.532,0.127s-0.311,0.209-0.435,0.374c-0.123,0.165-0.221,0.368-0.292,0.61
		c-0.072,0.242-0.107,0.521-0.107,0.836v2.706h-1.113V120.813z"/>
	<path fill="#FFFFFF" d="M32.489,118.646h1.113v1.188h-1.113V118.646z M32.489,120.813h1.113v5.687h-1.113V120.813z"/>
	<path fill="#FFFFFF" d="M38.608,122.716c-0.045-0.352-0.171-0.617-0.375-0.797c-0.205-0.18-0.464-0.27-0.776-0.27
		c-0.144,0-0.296,0.027-0.459,0.082c-0.162,0.055-0.312,0.158-0.448,0.308c-0.137,0.15-0.251,0.359-0.342,0.627
		c-0.091,0.269-0.137,0.618-0.137,1.051c0,0.235,0.024,0.47,0.073,0.704c0.049,0.235,0.127,0.444,0.234,0.627
		c0.107,0.184,0.245,0.332,0.415,0.445c0.169,0.114,0.374,0.171,0.614,0.171c0.325,0,0.594-0.113,0.806-0.341
		c0.211-0.228,0.343-0.547,0.395-0.957h1.113c-0.104,0.74-0.354,1.307-0.747,1.699s-0.916,0.589-1.566,0.589
		c-0.396,0-0.746-0.075-1.049-0.226s-0.559-0.355-0.767-0.616c-0.208-0.26-0.365-0.57-0.473-0.93s-0.161-0.748-0.161-1.166
		c0-0.425,0.052-0.825,0.156-1.199c0.104-0.374,0.26-0.698,0.468-0.973c0.208-0.275,0.467-0.491,0.776-0.649
		c0.309-0.157,0.672-0.236,1.088-0.236c0.293,0,0.571,0.042,0.835,0.126c0.263,0.085,0.497,0.211,0.702,0.38
		s0.372,0.382,0.503,0.638c0.13,0.257,0.208,0.562,0.234,0.913H38.608z"/>
</g>
</svg>
