<?xml version="1.0" encoding="utf-8"?>
<!-- Generator: Adobe Illustrator 17.0.0, SVG Export Plug-In . SVG Version: 6.00 Build 0)  -->
<!DOCTYPE svg PUBLIC "-//W3C//DTD SVG 1.1//EN" "http://www.w3.org/Graphics/SVG/1.1/DTD/svg11.dtd">
<svg version="1.1" id="Layer_1" xmlns="http://www.w3.org/2000/svg" xmlns:xlink="http://www.w3.org/1999/xlink" x="0px" y="0px"
	 width="60.109px" height="44px" viewBox="55.945 102.5 60.109 44" enable-background="new 55.945 102.5 60.109 44"
	 xml:space="preserve">
<g>
	<path fill="#FFFFFF" d="M58.124,118.646h1.22v6.665h3.543v1.188h-4.763V118.646z"/>
	<path fill="#FFFFFF" d="M64.116,118.646h5.017v1.188h-3.797v2.057h3.514v1.122h-3.514v2.299h3.865v1.188h-5.085V118.646z"/>
	<path fill="#FFFFFF" d="M70.655,118.646h2.889c0.533,0,0.995,0.103,1.386,0.308s0.709,0.485,0.956,0.842
		c0.247,0.355,0.431,0.771,0.552,1.248c0.12,0.477,0.181,0.986,0.181,1.529s-0.061,1.052-0.181,1.528
		c-0.121,0.478-0.305,0.894-0.552,1.249s-0.565,0.636-0.956,0.842c-0.391,0.205-0.853,0.308-1.386,0.308h-2.889V118.646z
		 M71.875,125.377h1.2c0.475,0,0.864-0.071,1.166-0.215c0.303-0.143,0.54-0.341,0.713-0.594c0.172-0.253,0.289-0.55,0.352-0.891
		c0.062-0.341,0.093-0.71,0.093-1.105c0-0.396-0.031-0.765-0.093-1.105c-0.063-0.341-0.18-0.639-0.352-0.892
		c-0.173-0.253-0.41-0.45-0.713-0.594c-0.302-0.143-0.691-0.215-1.166-0.215h-1.2V125.377z"/>
	<path fill="#FFFFFF" d="M81.995,123.881c0,0.301,0.045,0.558,0.137,0.771c0.091,0.213,0.218,0.387,0.38,0.522
		c0.163,0.136,0.35,0.234,0.562,0.297c0.211,0.063,0.44,0.094,0.688,0.094c0.267,0,0.494-0.035,0.683-0.104
		c0.188-0.07,0.342-0.16,0.459-0.27c0.117-0.11,0.201-0.237,0.254-0.38c0.052-0.143,0.078-0.288,0.078-0.435
		c0-0.301-0.061-0.522-0.181-0.665c-0.121-0.144-0.253-0.244-0.396-0.303c-0.247-0.103-0.535-0.2-0.864-0.292
		c-0.328-0.091-0.733-0.21-1.215-0.357c-0.299-0.088-0.548-0.203-0.746-0.347c-0.198-0.143-0.356-0.302-0.474-0.479
		c-0.117-0.176-0.2-0.362-0.249-0.561s-0.073-0.399-0.073-0.605c0-0.396,0.073-0.738,0.22-1.028c0.146-0.289,0.34-0.529,0.581-0.721
		c0.24-0.19,0.514-0.331,0.819-0.423s0.615-0.138,0.928-0.138c0.364,0,0.707,0.054,1.029,0.159c0.322,0.106,0.605,0.267,0.849,0.479
		c0.244,0.213,0.438,0.476,0.581,0.787c0.143,0.312,0.215,0.673,0.215,1.083h-1.22c-0.033-0.506-0.186-0.863-0.459-1.072
		s-0.621-0.313-1.044-0.313c-0.144,0-0.29,0.017-0.439,0.05c-0.149,0.032-0.286,0.088-0.41,0.165
		c-0.123,0.076-0.226,0.181-0.308,0.313c-0.081,0.132-0.121,0.297-0.121,0.494c0,0.279,0.076,0.497,0.229,0.655
		c0.153,0.157,0.354,0.276,0.601,0.357c0.026,0.007,0.128,0.038,0.308,0.094c0.179,0.055,0.379,0.115,0.6,0.181
		c0.222,0.066,0.438,0.131,0.649,0.193c0.211,0.062,0.362,0.107,0.454,0.137c0.228,0.081,0.426,0.191,0.595,0.33
		c0.169,0.14,0.311,0.299,0.425,0.479c0.113,0.18,0.198,0.372,0.254,0.578c0.055,0.205,0.083,0.41,0.083,0.615
		c0,0.44-0.08,0.816-0.239,1.128s-0.369,0.566-0.63,0.765c-0.26,0.198-0.556,0.343-0.888,0.435c-0.332,0.091-0.67,0.137-1.015,0.137
		c-0.397,0-0.771-0.055-1.123-0.164c-0.351-0.11-0.657-0.279-0.917-0.507c-0.261-0.227-0.469-0.519-0.625-0.874
		s-0.237-0.775-0.243-1.26H81.995z"/>
	<path fill="#FFFFFF" d="M91.158,122.715c-0.045-0.352-0.171-0.617-0.375-0.797c-0.205-0.18-0.464-0.27-0.776-0.27
		c-0.144,0-0.296,0.027-0.459,0.082c-0.162,0.055-0.312,0.158-0.448,0.308c-0.137,0.15-0.251,0.359-0.342,0.627
		c-0.091,0.269-0.137,0.618-0.137,1.051c0,0.235,0.024,0.47,0.073,0.704c0.049,0.235,0.127,0.444,0.234,0.627
		c0.107,0.184,0.245,0.332,0.415,0.445c0.169,0.114,0.374,0.171,0.614,0.171c0.325,0,0.594-0.113,0.806-0.341
		c0.211-0.228,0.343-0.547,0.395-0.957h1.113c-0.104,0.74-0.354,1.307-0.747,1.699s-0.916,0.589-1.566,0.589
		c-0.396,0-0.746-0.075-1.049-0.226s-0.559-0.355-0.767-0.616c-0.208-0.26-0.365-0.57-0.473-0.93s-0.161-0.748-0.161-1.166
		c0-0.425,0.052-0.825,0.156-1.199c0.104-0.374,0.26-0.698,0.468-0.973c0.208-0.275,0.467-0.491,0.776-0.649
		c0.309-0.157,0.672-0.236,1.088-0.236c0.293,0,0.571,0.042,0.835,0.126c0.263,0.085,0.497,0.211,0.702,0.38
		s0.372,0.382,0.503,0.638c0.13,0.257,0.208,0.562,0.234,0.913H91.158z"/>
	<path fill="#FFFFFF" d="M93.57,120.813h1.044v1.1h0.02c0.032-0.154,0.096-0.305,0.19-0.451c0.094-0.146,0.208-0.28,0.342-0.401
		c0.133-0.121,0.281-0.218,0.443-0.292c0.163-0.073,0.329-0.109,0.498-0.109c0.13,0,0.22,0.004,0.269,0.011
		c0.049,0.008,0.099,0.015,0.151,0.022v1.21c-0.078-0.015-0.158-0.028-0.239-0.039c-0.082-0.011-0.161-0.017-0.239-0.017
		c-0.188,0-0.366,0.043-0.532,0.127s-0.311,0.209-0.434,0.374c-0.124,0.165-0.222,0.368-0.293,0.61
		c-0.072,0.242-0.107,0.521-0.107,0.836v2.706H93.57V120.813z"/>
	<path fill="#FFFFFF" d="M98.088,123.98c0,0.22,0.027,0.433,0.083,0.638c0.055,0.205,0.138,0.385,0.249,0.539
		c0.11,0.153,0.25,0.276,0.42,0.368c0.169,0.092,0.37,0.138,0.604,0.138c0.325,0,0.587-0.079,0.786-0.236
		c0.198-0.158,0.346-0.395,0.443-0.71h1.055c-0.059,0.309-0.16,0.583-0.303,0.825c-0.144,0.242-0.315,0.445-0.518,0.61
		c-0.201,0.165-0.428,0.29-0.678,0.374c-0.251,0.084-0.513,0.127-0.786,0.127c-0.396,0-0.748-0.073-1.054-0.221
		c-0.306-0.146-0.564-0.352-0.776-0.615c-0.211-0.265-0.37-0.579-0.478-0.946c-0.107-0.366-0.161-0.771-0.161-1.21
		c0-0.403,0.057-0.786,0.171-1.149c0.113-0.363,0.276-0.683,0.487-0.957c0.212-0.275,0.467-0.493,0.767-0.654
		c0.299-0.161,0.638-0.242,1.015-0.242c0.396,0,0.753,0.094,1.068,0.28c0.315,0.188,0.578,0.435,0.786,0.742
		c0.208,0.309,0.359,0.662,0.454,1.062c0.094,0.4,0.118,0.813,0.073,1.238H98.088z M100.684,123.155
		c-0.013-0.198-0.05-0.389-0.112-0.572c-0.062-0.184-0.146-0.343-0.253-0.479c-0.107-0.136-0.238-0.245-0.391-0.33
		c-0.153-0.084-0.324-0.126-0.513-0.126c-0.195,0-0.372,0.038-0.532,0.115c-0.159,0.077-0.296,0.184-0.409,0.319
		c-0.114,0.136-0.205,0.295-0.273,0.478c-0.068,0.184-0.105,0.382-0.112,0.595H100.684z"/>
	<path fill="#FFFFFF" d="M103.904,123.98c0,0.22,0.027,0.433,0.083,0.638c0.055,0.205,0.138,0.385,0.249,0.539
		c0.11,0.153,0.25,0.276,0.42,0.368c0.169,0.092,0.37,0.138,0.604,0.138c0.325,0,0.587-0.079,0.786-0.236
		c0.198-0.158,0.346-0.395,0.443-0.71h1.055c-0.059,0.309-0.16,0.583-0.303,0.825c-0.144,0.242-0.315,0.445-0.518,0.61
		c-0.201,0.165-0.428,0.29-0.678,0.374c-0.251,0.084-0.513,0.127-0.786,0.127c-0.396,0-0.748-0.073-1.054-0.221
		c-0.306-0.146-0.564-0.352-0.776-0.615c-0.211-0.265-0.37-0.579-0.478-0.946c-0.107-0.366-0.161-0.771-0.161-1.21
		c0-0.403,0.057-0.786,0.171-1.149c0.113-0.363,0.276-0.683,0.487-0.957c0.212-0.275,0.467-0.493,0.767-0.654
		c0.299-0.161,0.638-0.242,1.015-0.242c0.396,0,0.753,0.094,1.068,0.28c0.315,0.188,0.578,0.435,0.786,0.742
		c0.208,0.309,0.359,0.662,0.454,1.062c0.094,0.4,0.118,0.813,0.073,1.238H103.904z M106.5,123.155
		c-0.013-0.198-0.05-0.389-0.112-0.572c-0.062-0.184-0.146-0.343-0.253-0.479c-0.107-0.136-0.238-0.245-0.391-0.33
		c-0.153-0.084-0.324-0.126-0.513-0.126c-0.195,0-0.372,0.038-0.532,0.115c-0.159,0.077-0.296,0.184-0.409,0.319
		c-0.114,0.136-0.205,0.295-0.273,0.478c-0.068,0.184-0.105,0.382-0.112,0.595H106.5z"/>
	<path fill="#FFFFFF" d="M108.853,120.813h1.054v0.836l0.02,0.021c0.169-0.315,0.391-0.563,0.663-0.742
		c0.273-0.18,0.576-0.27,0.908-0.27c0.553,0,0.988,0.161,1.308,0.483c0.318,0.323,0.479,0.808,0.479,1.452v3.905h-1.113v-3.575
		c-0.013-0.447-0.098-0.771-0.253-0.974c-0.156-0.201-0.4-0.302-0.732-0.302c-0.188,0-0.357,0.038-0.508,0.115
		c-0.149,0.077-0.276,0.184-0.38,0.319c-0.104,0.136-0.186,0.295-0.244,0.478c-0.059,0.184-0.088,0.378-0.088,0.583v3.355h-1.112
		V120.813z"/>
</g>
</svg>
