<?xml version="1.0" encoding="utf-8"?>
<!-- Generator: Adobe Illustrator 17.0.0, SVG Export Plug-In . SVG Version: 6.00 Build 0)  -->
<!DOCTYPE svg PUBLIC "-//W3C//DTD SVG 1.1//EN" "http://www.w3.org/Graphics/SVG/1.1/DTD/svg11.dtd">
<svg version="1.1" id="Layer_1" xmlns="http://www.w3.org/2000/svg" xmlns:xlink="http://www.w3.org/1999/xlink" x="0px" y="0px"
	 width="60.109px" height="44px" viewBox="-200.708 102.5 60.109 44" enable-background="new -200.708 102.5 60.109 44"
	 xml:space="preserve">
<g>
	<path fill="#FFFFFF" d="M-191.68,118.646h3.074c0.494,0,0.898,0.08,1.21,0.241c0.313,0.162,0.553,0.363,0.722,0.605
		c0.169,0.242,0.285,0.506,0.347,0.792c0.062,0.286,0.093,0.55,0.093,0.792s-0.031,0.504-0.093,0.786
		c-0.062,0.282-0.177,0.545-0.347,0.787c-0.169,0.241-0.41,0.441-0.722,0.599c-0.312,0.158-0.716,0.237-1.21,0.237h-1.854v3.014
		h-1.22V118.646z M-190.46,122.364h1.786c0.137,0,0.276-0.022,0.419-0.066s0.275-0.115,0.396-0.214
		c0.12-0.1,0.218-0.231,0.292-0.396s0.112-0.372,0.112-0.621c0-0.257-0.033-0.47-0.098-0.639c-0.065-0.168-0.153-0.302-0.263-0.401
		c-0.111-0.099-0.238-0.167-0.381-0.203c-0.143-0.037-0.296-0.056-0.458-0.056h-1.806V122.364z"/>
	<path fill="#FFFFFF" d="M-184.937,120.813h1.044v1.1h0.02c0.032-0.154,0.096-0.305,0.19-0.451c0.094-0.146,0.208-0.28,0.341-0.401
		s0.281-0.218,0.444-0.292c0.163-0.073,0.329-0.109,0.498-0.109c0.13,0,0.219,0.004,0.268,0.011
		c0.049,0.008,0.099,0.015,0.151,0.022v1.21c-0.078-0.015-0.158-0.028-0.239-0.039c-0.082-0.011-0.161-0.017-0.239-0.017
		c-0.189,0-0.366,0.043-0.532,0.127c-0.166,0.084-0.311,0.209-0.435,0.374s-0.221,0.368-0.292,0.61
		c-0.072,0.242-0.107,0.521-0.107,0.836v2.706h-1.113V120.813z"/>
	<path fill="#FFFFFF" d="M-180.418,123.981c0,0.22,0.028,0.433,0.083,0.638s0.138,0.385,0.249,0.539
		c0.11,0.153,0.25,0.276,0.419,0.368c0.169,0.092,0.371,0.138,0.605,0.138c0.325,0,0.587-0.079,0.786-0.236
		c0.198-0.158,0.347-0.395,0.444-0.71h1.054c-0.059,0.309-0.16,0.583-0.302,0.825c-0.144,0.242-0.316,0.445-0.518,0.61
		s-0.428,0.29-0.678,0.374s-0.512,0.127-0.786,0.127c-0.397,0-0.748-0.073-1.054-0.221c-0.306-0.146-0.564-0.352-0.776-0.615
		c-0.211-0.265-0.371-0.579-0.479-0.946c-0.107-0.366-0.161-0.771-0.161-1.21c0-0.403,0.057-0.786,0.17-1.149
		s0.276-0.683,0.488-0.957c0.211-0.275,0.467-0.493,0.766-0.654c0.299-0.161,0.637-0.242,1.015-0.242
		c0.397,0,0.753,0.094,1.069,0.28c0.315,0.188,0.577,0.435,0.786,0.742c0.208,0.309,0.359,0.662,0.454,1.062
		c0.094,0.4,0.119,0.813,0.073,1.238H-180.418z M-177.822,123.156c-0.013-0.198-0.051-0.389-0.112-0.572
		c-0.062-0.184-0.146-0.343-0.254-0.479s-0.238-0.245-0.39-0.33c-0.153-0.084-0.324-0.126-0.513-0.126
		c-0.195,0-0.373,0.038-0.532,0.115c-0.16,0.077-0.296,0.184-0.41,0.319c-0.114,0.136-0.205,0.295-0.273,0.478
		c-0.068,0.184-0.106,0.382-0.112,0.595H-177.822z"/>
	<path fill="#FFFFFF" d="M-175.47,120.813h1.054v0.792h0.029c0.084-0.14,0.176-0.269,0.273-0.386
		c0.098-0.117,0.207-0.216,0.327-0.297c0.12-0.08,0.259-0.145,0.415-0.192c0.156-0.048,0.335-0.071,0.537-0.071
		c0.306,0,0.59,0.077,0.854,0.23c0.264,0.154,0.451,0.393,0.562,0.716c0.188-0.294,0.406-0.524,0.654-0.693
		c0.247-0.169,0.556-0.253,0.927-0.253c0.533,0,0.948,0.146,1.244,0.439c0.296,0.294,0.444,0.785,0.444,1.475v3.927h-1.112v-3.322
		c0-0.227-0.007-0.435-0.02-0.621c-0.013-0.188-0.051-0.349-0.112-0.484c-0.062-0.136-0.155-0.24-0.278-0.313
		s-0.292-0.109-0.507-0.109c-0.377,0-0.65,0.132-0.82,0.396c-0.169,0.264-0.253,0.638-0.253,1.122v3.333h-1.113v-3.652
		c0-0.396-0.063-0.694-0.19-0.896c-0.127-0.201-0.359-0.302-0.698-0.302c-0.143,0-0.281,0.032-0.415,0.099s-0.25,0.161-0.352,0.286
		c-0.101,0.125-0.182,0.278-0.244,0.462c-0.062,0.184-0.093,0.393-0.093,0.627v3.377h-1.113V120.813z"/>
	<path fill="#FFFFFF" d="M-166.56,118.646h1.113v1.188h-1.113V118.646z M-166.56,120.813h1.113v5.687h-1.113V120.813z"/>
	<path fill="#FFFFFF" d="M-159.416,126.5h-1.094v-0.792h-0.02c-0.137,0.286-0.34,0.516-0.609,0.688
		c-0.271,0.172-0.545,0.259-0.825,0.259c-0.663,0-1.144-0.186-1.439-0.556c-0.296-0.37-0.444-0.93-0.444-1.678v-3.607h1.113v3.486
		c0,0.499,0.084,0.851,0.254,1.057c0.169,0.205,0.406,0.308,0.712,0.308c0.234,0,0.43-0.04,0.586-0.121s0.283-0.188,0.381-0.324
		c0.097-0.136,0.167-0.299,0.209-0.49c0.043-0.19,0.063-0.396,0.063-0.615v-3.3h1.113V126.5z"/>
	<path fill="#FFFFFF" d="M-157.854,120.813h1.054v0.792h0.029c0.084-0.14,0.176-0.269,0.273-0.386s0.206-0.216,0.326-0.297
		c0.121-0.08,0.259-0.145,0.415-0.192s0.335-0.071,0.537-0.071c0.306,0,0.59,0.077,0.854,0.23c0.264,0.154,0.451,0.393,0.562,0.716
		c0.188-0.294,0.406-0.524,0.653-0.693c0.248-0.169,0.557-0.253,0.928-0.253c0.533,0,0.948,0.146,1.244,0.439
		c0.296,0.294,0.444,0.785,0.444,1.475v3.927h-1.113v-3.322c0-0.227-0.006-0.435-0.02-0.621c-0.013-0.188-0.05-0.349-0.112-0.484
		c-0.062-0.136-0.154-0.24-0.277-0.313c-0.124-0.073-0.293-0.109-0.508-0.109c-0.377,0-0.65,0.132-0.819,0.396
		c-0.17,0.264-0.254,0.638-0.254,1.122v3.333h-1.112v-3.652c0-0.396-0.063-0.694-0.19-0.896c-0.127-0.201-0.36-0.302-0.698-0.302
		c-0.144,0-0.281,0.032-0.415,0.099c-0.133,0.066-0.25,0.161-0.351,0.286c-0.102,0.125-0.183,0.278-0.244,0.462
		c-0.063,0.184-0.093,0.393-0.093,0.627v3.377h-1.112V120.813z"/>
</g>
</svg>
