<?xml version="1.0" encoding="utf-8"?>
<!-- Generator: Adobe Illustrator 17.0.0, SVG Export Plug-In . SVG Version: 6.00 Build 0)  -->
<!DOCTYPE svg PUBLIC "-//W3C//DTD SVG 1.1//EN" "http://www.w3.org/Graphics/SVG/1.1/DTD/svg11.dtd">
<svg version="1.1" id="Layer_1" xmlns="http://www.w3.org/2000/svg" xmlns:xlink="http://www.w3.org/1999/xlink" x="0px" y="0px"
	 width="60.109px" height="44px" viewBox="-71.984 102.5 60.109 44" enable-background="new -71.984 102.5 60.109 44"
	 xml:space="preserve">
<g>
	<path fill="#FFFFFF" d="M-54.906,123.881c0,0.301,0.045,0.558,0.137,0.771c0.091,0.213,0.218,0.387,0.38,0.522
		s0.35,0.234,0.561,0.297s0.441,0.094,0.688,0.094c0.267,0,0.494-0.035,0.683-0.104c0.188-0.07,0.341-0.16,0.458-0.27
		c0.117-0.11,0.202-0.237,0.254-0.38c0.052-0.143,0.078-0.288,0.078-0.435c0-0.301-0.061-0.522-0.181-0.665
		c-0.121-0.144-0.252-0.244-0.396-0.303c-0.247-0.103-0.535-0.2-0.864-0.292c-0.329-0.091-0.733-0.21-1.215-0.357
		c-0.299-0.088-0.548-0.203-0.747-0.347c-0.198-0.143-0.356-0.302-0.473-0.479c-0.117-0.176-0.2-0.362-0.249-0.561
		s-0.073-0.399-0.073-0.605c0-0.396,0.073-0.738,0.22-1.028c0.146-0.289,0.34-0.529,0.581-0.721c0.241-0.19,0.514-0.331,0.82-0.423
		s0.615-0.138,0.927-0.138c0.364,0,0.708,0.054,1.029,0.159c0.322,0.106,0.605,0.267,0.849,0.479
		c0.244,0.213,0.438,0.476,0.581,0.787s0.215,0.673,0.215,1.083h-1.22c-0.033-0.506-0.186-0.863-0.459-1.072
		c-0.273-0.209-0.621-0.313-1.044-0.313c-0.143,0-0.29,0.017-0.439,0.05c-0.149,0.032-0.286,0.088-0.41,0.165
		c-0.124,0.076-0.226,0.181-0.308,0.313c-0.081,0.132-0.122,0.297-0.122,0.494c0,0.279,0.076,0.497,0.229,0.655
		c0.153,0.157,0.353,0.276,0.6,0.357c0.026,0.007,0.128,0.038,0.308,0.094c0.179,0.055,0.379,0.115,0.6,0.181
		c0.221,0.066,0.438,0.131,0.649,0.193c0.211,0.062,0.363,0.107,0.454,0.137c0.228,0.081,0.426,0.191,0.595,0.33
		c0.169,0.14,0.311,0.299,0.424,0.479s0.199,0.372,0.254,0.578c0.055,0.205,0.083,0.41,0.083,0.615c0,0.44-0.08,0.816-0.239,1.128
		c-0.159,0.312-0.369,0.566-0.629,0.765s-0.556,0.343-0.888,0.435c-0.332,0.091-0.67,0.137-1.015,0.137
		c-0.397,0-0.771-0.055-1.123-0.164c-0.351-0.11-0.657-0.279-0.917-0.507c-0.26-0.227-0.468-0.519-0.625-0.874
		s-0.237-0.775-0.244-1.26H-54.906z"/>
	<path fill="#FFFFFF" d="M-49.148,120.813h1.054v0.792h0.029c0.084-0.14,0.176-0.269,0.273-0.386
		c0.098-0.117,0.207-0.216,0.327-0.297c0.12-0.08,0.259-0.145,0.415-0.192c0.156-0.048,0.335-0.071,0.537-0.071
		c0.306,0,0.59,0.077,0.854,0.23c0.264,0.154,0.451,0.393,0.562,0.716c0.188-0.294,0.406-0.524,0.654-0.693
		c0.247-0.169,0.556-0.253,0.927-0.253c0.533,0,0.948,0.146,1.244,0.439c0.296,0.294,0.444,0.785,0.444,1.475v3.927h-1.112v-3.322
		c0-0.227-0.007-0.435-0.02-0.621c-0.013-0.188-0.051-0.349-0.112-0.484c-0.062-0.136-0.155-0.24-0.278-0.313
		s-0.292-0.109-0.507-0.109c-0.377,0-0.65,0.132-0.82,0.396c-0.169,0.264-0.253,0.638-0.253,1.122v3.333h-1.113v-3.652
		c0-0.396-0.063-0.694-0.19-0.896c-0.127-0.201-0.359-0.302-0.698-0.302c-0.143,0-0.281,0.032-0.415,0.099s-0.25,0.161-0.352,0.286
		c-0.101,0.125-0.182,0.278-0.244,0.462c-0.062,0.184-0.093,0.393-0.093,0.627v3.377h-1.113V120.813z"/>
	<path fill="#FFFFFF" d="M-36.042,125.234c0,0.153,0.018,0.264,0.054,0.33c0.036,0.065,0.106,0.099,0.21,0.099
		c0.033,0,0.072,0,0.117,0s0.098-0.007,0.156-0.022v0.869c-0.039,0.015-0.09,0.031-0.151,0.05c-0.062,0.019-0.125,0.035-0.19,0.05
		s-0.13,0.025-0.195,0.032c-0.065,0.008-0.12,0.012-0.166,0.012c-0.228,0-0.417-0.052-0.566-0.154
		c-0.149-0.103-0.247-0.282-0.292-0.539c-0.221,0.242-0.493,0.418-0.815,0.528c-0.322,0.109-0.633,0.165-0.932,0.165
		c-0.228,0-0.446-0.035-0.654-0.104c-0.208-0.07-0.392-0.173-0.551-0.309c-0.16-0.136-0.287-0.308-0.381-0.517
		s-0.141-0.453-0.141-0.731c0-0.353,0.057-0.638,0.17-0.858c0.114-0.22,0.264-0.392,0.449-0.517c0.185-0.125,0.394-0.215,0.625-0.27
		s0.463-0.098,0.698-0.127c0.202-0.044,0.394-0.075,0.576-0.093c0.182-0.019,0.343-0.05,0.483-0.094
		c0.14-0.044,0.25-0.112,0.332-0.204c0.082-0.091,0.122-0.229,0.122-0.412c0-0.161-0.034-0.293-0.103-0.396
		c-0.068-0.104-0.153-0.182-0.254-0.237c-0.101-0.055-0.213-0.091-0.336-0.109s-0.241-0.027-0.352-0.027
		c-0.312,0-0.569,0.073-0.771,0.22s-0.315,0.374-0.341,0.682h-1.113c0.02-0.366,0.098-0.671,0.234-0.913
		c0.137-0.241,0.311-0.436,0.522-0.583c0.211-0.146,0.451-0.249,0.717-0.308c0.267-0.059,0.54-0.088,0.82-0.088
		c0.247,0,0.491,0.029,0.732,0.088s0.457,0.154,0.649,0.286s0.347,0.303,0.464,0.512s0.175,0.464,0.175,0.764V125.234z
		 M-37.154,123.65c-0.169,0.124-0.377,0.199-0.625,0.226c-0.248,0.025-0.495,0.063-0.742,0.115
		c-0.117,0.021-0.231,0.053-0.342,0.094c-0.11,0.04-0.208,0.095-0.292,0.165c-0.085,0.069-0.151,0.161-0.2,0.274
		c-0.049,0.114-0.073,0.251-0.073,0.413c0,0.139,0.036,0.256,0.107,0.352c0.071,0.096,0.158,0.171,0.259,0.226
		c0.101,0.055,0.211,0.094,0.332,0.115c0.121,0.022,0.229,0.033,0.327,0.033c0.124,0,0.257-0.019,0.4-0.055
		c0.143-0.037,0.278-0.1,0.405-0.188c0.126-0.088,0.232-0.199,0.317-0.335s0.127-0.303,0.127-0.501V123.65z"/>
	<path fill="#FFFFFF" d="M-34.451,120.813h1.044v1.1h0.02c0.032-0.154,0.096-0.305,0.19-0.451c0.094-0.146,0.208-0.28,0.341-0.401
		s0.281-0.218,0.444-0.292c0.163-0.073,0.329-0.109,0.498-0.109c0.13,0,0.219,0.004,0.268,0.011
		c0.049,0.008,0.099,0.015,0.151,0.022v1.21c-0.078-0.015-0.158-0.028-0.239-0.039c-0.082-0.011-0.161-0.017-0.239-0.017
		c-0.189,0-0.366,0.043-0.532,0.127c-0.166,0.084-0.311,0.209-0.435,0.374s-0.221,0.368-0.292,0.61
		c-0.072,0.242-0.107,0.521-0.107,0.836v2.706h-1.113V120.813z"/>
	<path fill="#FFFFFF" d="M-31.133,120.813h0.839v-1.705h1.112v1.705h1.005v0.935h-1.005v3.036c0,0.132,0.005,0.245,0.015,0.341
		s0.033,0.176,0.068,0.242c0.036,0.065,0.089,0.115,0.161,0.148c0.071,0.033,0.169,0.05,0.293,0.05c0.078,0,0.156-0.002,0.234-0.006
		s0.156-0.017,0.234-0.038v0.968c-0.124,0.015-0.244,0.029-0.361,0.044c-0.117,0.015-0.237,0.021-0.361,0.021
		c-0.293,0-0.529-0.031-0.708-0.093c-0.179-0.063-0.319-0.154-0.42-0.275c-0.101-0.121-0.169-0.273-0.205-0.456
		c-0.036-0.184-0.057-0.393-0.063-0.628v-3.354h-0.839V120.813z"/>
</g>
</svg>
