<?xml version="1.0" encoding="utf-8"?>
<!-- Generator: Adobe Illustrator 22.0.1, SVG Export Plug-In . SVG Version: 6.00 Build 0)  -->
<svg version="1.1" id="Layer_1" xmlns="http://www.w3.org/2000/svg" xmlns:xlink="http://www.w3.org/1999/xlink" x="0px" y="0px"
	 viewBox="0 0 313.4 129.3" style="enable-background:new 0 0 313.4 129.3;" xml:space="preserve">
<style type="text/css">
	.Arched_x0020_Green{fill:url(#SVGID_1_);stroke:#FFFFFF;stroke-width:0.25;stroke-miterlimit:1;}
	.st0{fill:#F2F2F2;}
	.st1{fill:#333333;}
	.st2{fill:#FFFFFF;}
	.st3{fill:none;stroke:#FFFFFF;stroke-width:0.9921;stroke-linecap:round;}
	.st4{fill:none;stroke:#FFFFFF;stroke-width:0.7823;stroke-linecap:round;}
	.st5{fill:#EC1A3B;}
	.st6{fill:none;stroke:#C9CBCB;stroke-width:1.4173;}
	.st7{opacity:0.65;fill:#FFFFFF;}
	.st8{opacity:6.000000e-02;fill:#FFFFFF;}
	.st9{fill:#EC1B34;}
	.st10{opacity:0.65;fill:#ED1D35;}
	.st11{fill:#E6E7E8;}
	.st12{fill:#8D8989;}
	.st13{opacity:0.6;}
	.st14{opacity:0.3;fill:url(#SVGID_2_);}
	.st15{opacity:0.5;fill:url(#SVGID_3_);}
	.st16{opacity:0.5;fill:url(#SVGID_4_);}
	.st17{fill:none;stroke:#4D4D4F;stroke-width:0.9075;}
	.st18{fill:#4D4D4F;}
	.st19{fill:url(#SVGID_5_);}
	.st20{fill:url(#SVGID_6_);}
	.st21{fill:url(#SVGID_7_);}
	.st22{fill:url(#SVGID_8_);}
	.st23{fill:url(#SVGID_9_);}
	.st24{fill:url(#SVGID_10_);}
	.st25{fill:url(#SVGID_11_);}
	.st26{fill:url(#SVGID_12_);}
	.st27{fill:url(#SVGID_13_);}
	.st28{fill:url(#SVGID_14_);}
	.st29{fill:url(#SVGID_15_);}
	.st30{fill:url(#SVGID_16_);}
	.st31{fill:url(#SVGID_17_);}
	.st32{fill:url(#SVGID_18_);}
	.st33{fill:url(#SVGID_19_);}
	.st34{fill:url(#SVGID_20_);}
	.st35{fill:url(#SVGID_21_);}
	.st36{fill:url(#SVGID_22_);}
	.st37{fill:url(#SVGID_23_);}
	.st38{fill:url(#SVGID_24_);}
	.st39{fill:url(#SVGID_25_);}
	.st40{fill:url(#SVGID_26_);}
	.st41{fill:url(#SVGID_27_);}
	.st42{fill:url(#SVGID_28_);}
	.st43{fill:url(#SVGID_29_);}
	.st44{fill:url(#SVGID_30_);}
	.st45{fill:url(#SVGID_31_);}
	.st46{fill:url(#SVGID_32_);}
	.st47{fill:url(#SVGID_33_);}
	.st48{fill:url(#SVGID_34_);}
	.st49{fill:url(#SVGID_35_);}
	.st50{fill:url(#SVGID_36_);}
	.st51{opacity:0.3;fill:url(#SVGID_37_);}
	.st52{opacity:0.5;fill:url(#SVGID_38_);}
	.st53{opacity:0.5;fill:url(#SVGID_39_);}
	.st54{filter:url(#Adobe_OpacityMaskFilter);}
	.st55{opacity:0.35;mask:url(#SVGID_40_);fill:url(#SVGID_41_);}
	.st56{filter:url(#Adobe_OpacityMaskFilter_1_);}
	.st57{opacity:0.15;mask:url(#SVGID_42_);fill:url(#SVGID_43_);}
	.st58{fill:#FFF100;}
	.st59{fill:none;stroke:#4D4D4F;stroke-width:1.6834;}
	.st60{fill:url(#SVGID_44_);}
	.st61{fill:url(#SVGID_45_);}
	.st62{fill:url(#SVGID_46_);}
	.st63{fill:url(#SVGID_47_);}
	.st64{fill:url(#SVGID_48_);}
	.st65{fill:url(#SVGID_49_);}
	.st66{fill:url(#SVGID_50_);}
	.st67{fill:url(#SVGID_51_);}
	.st68{fill:url(#SVGID_52_);}
	.st69{fill:url(#SVGID_53_);}
	.st70{fill:url(#SVGID_54_);}
	.st71{fill:url(#SVGID_55_);}
	.st72{fill:url(#SVGID_56_);}
	.st73{fill:url(#SVGID_57_);}
	.st74{fill:url(#SVGID_58_);}
	.st75{fill:url(#SVGID_59_);}
	.st76{fill:url(#SVGID_60_);}
	.st77{fill:url(#SVGID_61_);}
	.st78{fill:url(#SVGID_62_);}
	.st79{fill:url(#SVGID_63_);}
	.st80{fill:url(#SVGID_64_);}
	.st81{fill:url(#SVGID_65_);}
	.st82{fill:url(#SVGID_66_);}
	.st83{fill:url(#SVGID_67_);}
	.st84{fill:url(#SVGID_68_);}
	.st85{fill:url(#SVGID_69_);}
	.st86{fill:url(#SVGID_70_);}
	.st87{fill:url(#SVGID_71_);}
	.st88{fill:url(#SVGID_72_);}
	.st89{fill:url(#SVGID_73_);}
	.st90{fill:url(#SVGID_74_);}
	.st91{fill:url(#SVGID_75_);}
	.st92{opacity:0.3;fill:url(#SVGID_76_);}
	.st93{opacity:0.5;fill:url(#SVGID_77_);}
	.st94{opacity:0.5;fill:url(#SVGID_78_);}
	.st95{filter:url(#Adobe_OpacityMaskFilter_2_);}
	.st96{opacity:0.35;mask:url(#SVGID_79_);fill:url(#SVGID_80_);}
	.st97{filter:url(#Adobe_OpacityMaskFilter_3_);}
	.st98{opacity:0.15;mask:url(#SVGID_81_);fill:url(#SVGID_82_);}
	.st99{fill:url(#SVGID_83_);}
	.st100{filter:url(#Adobe_OpacityMaskFilter_4_);}
	.st101{fill:url(#SVGID_85_);}
	.st102{fill:url(#SVGID_86_);}
	.st103{mask:url(#SVGID_84_);fill:#008C42;}
	.st104{fill:url(#SVGID_87_);}
	.st105{filter:url(#Adobe_OpacityMaskFilter_5_);}
	.st106{fill:url(#SVGID_89_);}
	.st107{fill:url(#SVGID_90_);}
	.st108{mask:url(#SVGID_88_);fill:#0066B2;}
	.st109{fill:url(#SVGID_91_);}
	.st110{filter:url(#Adobe_OpacityMaskFilter_6_);}
	.st111{fill:url(#SVGID_93_);}
	.st112{fill:url(#SVGID_94_);}
	.st113{mask:url(#SVGID_92_);fill:#EC1C24;}
	.st114{filter:url(#Adobe_OpacityMaskFilter_7_);}
	.st115{fill:url(#SVGID_96_);}
	.st116{opacity:0.9;mask:url(#SVGID_95_);}
	.st117{filter:url(#Adobe_OpacityMaskFilter_8_);}
	.st118{fill:url(#SVGID_98_);}
	.st119{mask:url(#SVGID_97_);}
	.st120{fill:url(#SVGID_99_);}
	.st121{fill:url(#SVGID_100_);}
	.st122{fill:url(#SVGID_101_);}
	.st123{fill:#231F20;}
	.st124{fill:#C61D23;}
	.st125{fill:#008C42;}
	.st126{fill:#0066B2;}
	.st127{fill:url(#SVGID_102_);}
	.st128{filter:url(#Adobe_OpacityMaskFilter_9_);}
	.st129{fill:url(#SVGID_104_);}
	.st130{fill:url(#SVGID_105_);}
	.st131{mask:url(#SVGID_103_);fill:#008C42;}
	.st132{fill:url(#SVGID_106_);}
	.st133{filter:url(#Adobe_OpacityMaskFilter_10_);}
	.st134{fill:url(#SVGID_108_);}
	.st135{fill:url(#SVGID_109_);}
	.st136{mask:url(#SVGID_107_);fill:#0066B2;}
	.st137{fill:url(#SVGID_110_);}
	.st138{filter:url(#Adobe_OpacityMaskFilter_11_);}
	.st139{fill:url(#SVGID_112_);}
	.st140{fill:url(#SVGID_113_);}
	.st141{mask:url(#SVGID_111_);fill:#EC1C24;}
	.st142{filter:url(#Adobe_OpacityMaskFilter_12_);}
	.st143{fill:url(#SVGID_115_);}
	.st144{opacity:0.9;mask:url(#SVGID_114_);}
	.st145{filter:url(#Adobe_OpacityMaskFilter_13_);}
	.st146{fill:url(#SVGID_117_);}
	.st147{mask:url(#SVGID_116_);}
	.st148{fill:url(#SVGID_118_);}
	.st149{fill:url(#SVGID_119_);}
	.st150{fill:url(#SVGID_120_);}
	.st151{fill:none;stroke:#4D4D4F;stroke-width:0.9701;}
	.st152{filter:url(#Adobe_OpacityMaskFilter_14_);}
	.st153{fill:url(#SVGID_122_);}
	.st154{mask:url(#SVGID_121_);}
	.st155{fill:none;stroke:#474748;stroke-width:0.3933;}
	.st156{fill:none;stroke:#4D4D4E;stroke-width:0.3728;}
	.st157{fill:none;stroke:#535354;stroke-width:0.3523;}
	.st158{fill:none;stroke:#59595B;stroke-width:0.3319;}
	.st159{fill:none;stroke:#5F5F61;stroke-width:0.3114;}
	.st160{fill:none;stroke:#656567;stroke-width:0.2909;}
	.st161{fill:none;stroke:#6B6B6D;stroke-width:0.2704;}
	.st162{fill:none;stroke:#717173;stroke-width:0.2499;}
	.st163{fill:none;stroke:#77787A;stroke-width:0.2294;}
	.st164{fill:none;stroke:#7C7E80;stroke-width:0.2089;}
	.st165{fill:none;stroke:#828486;stroke-width:0.1885;}
	.st166{fill:none;stroke:#888A8C;stroke-width:0.168;}
	.st167{fill:none;stroke:#8E9092;stroke-width:0.1475;}
	.st168{fill:none;stroke:#949698;stroke-width:0.127;}
	.st169{fill:none;stroke:#9A9C9F;stroke-width:0.1065;}
	.st170{fill:none;stroke:#A0A2A5;stroke-width:8.603600e-02;}
	.st171{fill:none;stroke:#A6A8AB;stroke-width:6.555100e-02;}
	.st172{filter:url(#Adobe_OpacityMaskFilter_15_);}
	.st173{fill:url(#SVGID_124_);}
	.st174{mask:url(#SVGID_123_);}
	.st175{fill:none;stroke:#333333;stroke-width:0.7767;}
	.st176{fill:url(#SVGID_125_);}
	.st177{filter:url(#Adobe_OpacityMaskFilter_16_);}
	.st178{fill:url(#SVGID_127_);}
	.st179{fill:url(#SVGID_128_);}
	.st180{mask:url(#SVGID_126_);fill:#008C42;}
	.st181{fill:url(#SVGID_129_);}
	.st182{filter:url(#Adobe_OpacityMaskFilter_17_);}
	.st183{fill:url(#SVGID_131_);}
	.st184{fill:url(#SVGID_132_);}
	.st185{mask:url(#SVGID_130_);fill:#0066B2;}
	.st186{fill:url(#SVGID_133_);}
	.st187{filter:url(#Adobe_OpacityMaskFilter_18_);}
	.st188{fill:url(#SVGID_135_);}
	.st189{fill:url(#SVGID_136_);}
	.st190{mask:url(#SVGID_134_);fill:#EC1C24;}
	.st191{filter:url(#Adobe_OpacityMaskFilter_19_);}
	.st192{fill:url(#SVGID_138_);}
	.st193{opacity:0.9;mask:url(#SVGID_137_);}
	.st194{filter:url(#Adobe_OpacityMaskFilter_20_);}
	.st195{fill:url(#SVGID_140_);}
	.st196{mask:url(#SVGID_139_);}
	.st197{fill:url(#SVGID_141_);}
	.st198{fill:url(#SVGID_142_);}
	.st199{fill:url(#SVGID_143_);}
	.st200{fill:#00828B;}
	.st201{fill:#EB008B;}
	.st202{fill:#98C93C;}
	.st203{fill:#DBAE27;}
	.st204{fill:#0DB04B;}
	.st205{fill:url(#SVGID_144_);}
	.st206{fill:url(#SVGID_145_);}
	.st207{fill:url(#SVGID_146_);}
	.st208{fill:url(#SVGID_147_);}
	.st209{fill:url(#SVGID_148_);}
	.st210{fill:url(#SVGID_149_);}
	.st211{fill:url(#SVGID_150_);}
	.st212{fill:#F9A51A;}
	.st213{opacity:0.5;fill:#C3132A;}
	.st214{opacity:0.1;fill:#C3132A;}
	.st215{fill:#474748;}
	.st216{fill:#8A8A8B;}
	.st217{fill:none;}
</style>
<linearGradient id="SVGID_1_" gradientUnits="userSpaceOnUse" x1="-1050.3334" y1="-1938.1104" x2="-1049.6262" y2="-1938.8175">
	<stop  offset="0" style="stop-color:#1EAB4B"/>
	<stop  offset="0.9831" style="stop-color:#19361A"/>
</linearGradient>
<g>
	<g>
		<g>
			<path class="st216" d="M147.6,54.1l-13.1-19.5h3.8l10.9,16.8l10.9-16.8h3.8l-13.1,19.5v13.7h-3.2V54.1z"/>
			<path class="st216" d="M162.7,56.6c0,1.1,0.2,2.2,0.5,3.3c0.3,1.1,0.8,2.1,1.4,3c0.6,0.9,1.4,1.6,2.4,2.2c1,0.6,2.2,0.9,3.6,0.9
				c2.1,0,3.8-0.6,5-1.7s2-2.6,2.5-4.4h2.9c-0.6,2.7-1.8,4.8-3.4,6.3c-1.7,1.5-4,2.3-7,2.3c-1.9,0-3.6-0.3-4.9-1
				c-1.4-0.7-2.5-1.6-3.3-2.8c-0.9-1.2-1.5-2.5-1.9-4c-0.4-1.5-0.6-3.2-0.6-4.9c0-1.6,0.2-3.1,0.6-4.6c0.4-1.5,1.1-2.9,1.9-4.1
				s2-2.2,3.3-2.9c1.4-0.7,3-1.1,4.9-1.1c1.9,0,3.6,0.4,4.9,1.2c1.4,0.8,2.5,1.8,3.3,3c0.9,1.3,1.5,2.7,1.8,4.3
				c0.4,1.6,0.5,3.3,0.5,5H162.7z M178.2,54.1c0-1.1-0.2-2.2-0.6-3.2c-0.4-1-0.9-1.9-1.5-2.7c-0.7-0.8-1.4-1.4-2.4-1.9
				c-0.9-0.5-2-0.7-3.2-0.7c-1.2,0-2.3,0.2-3.2,0.7c-0.9,0.5-1.7,1.1-2.4,1.9c-0.7,0.8-1.2,1.7-1.6,2.7c-0.4,1-0.6,2.1-0.8,3.2
				H178.2z"/>
			<path class="st216" d="M183.9,51.2c0.2-2.8,1.1-4.9,2.9-6.1c1.8-1.3,4.1-1.9,6.8-1.9c1.1,0,2.1,0.1,3.2,0.3
				c1.1,0.2,2,0.6,2.8,1.1c0.8,0.6,1.5,1.3,2,2.3c0.5,1,0.8,2.3,0.8,3.9v12.7c0,1.2,0.6,1.8,1.7,1.8c0.3,0,0.6-0.1,0.9-0.2v2.5
				c-0.3,0.1-0.6,0.1-0.9,0.1c-0.3,0-0.6,0-1,0c-0.7,0-1.3-0.1-1.8-0.3c-0.4-0.2-0.8-0.5-1-0.9s-0.4-0.8-0.5-1.3
				c-0.1-0.5-0.1-1.1-0.1-1.7h-0.1c-0.5,0.8-1.1,1.5-1.6,2.1c-0.5,0.6-1.1,1.1-1.8,1.5c-0.7,0.4-1.4,0.7-2.3,1
				c-0.9,0.2-1.9,0.3-3,0.3c-1.1,0-2.2-0.1-3.1-0.4c-1-0.3-1.8-0.7-2.6-1.3c-0.7-0.6-1.3-1.3-1.7-2.2c-0.4-0.9-0.6-1.9-0.6-3.1
				c0-1.7,0.4-3,1.1-3.9c0.7-0.9,1.7-1.7,3-2.2c1.2-0.5,2.6-0.8,4.1-1c1.5-0.2,3.1-0.4,4.7-0.6c0.6-0.1,1.1-0.1,1.6-0.3
				c0.5-0.1,0.9-0.3,1.2-0.5c0.3-0.2,0.5-0.5,0.7-0.9c0.2-0.4,0.3-0.9,0.3-1.6c0-1-0.2-1.8-0.5-2.4s-0.8-1.1-1.3-1.5
				c-0.6-0.4-1.2-0.6-2-0.8c-0.8-0.1-1.6-0.2-2.4-0.2c-1.8,0-3.3,0.4-4.5,1.3c-1.2,0.9-1.8,2.3-1.9,4.3H183.9z M199.5,54.7
				L199.5,54.7c-0.3,0.3-0.6,0.6-1.2,0.7c-0.5,0.2-1,0.3-1.4,0.3c-1.2,0.2-2.5,0.4-3.8,0.6c-1.3,0.2-2.5,0.4-3.6,0.8
				c-1.1,0.3-2,0.8-2.7,1.5c-0.7,0.6-1,1.5-1,2.7c0,0.7,0.1,1.4,0.4,2c0.3,0.6,0.7,1.1,1.2,1.5c0.5,0.4,1.1,0.7,1.7,1
				c0.7,0.2,1.3,0.3,2,0.3c1.1,0,2.2-0.2,3.2-0.5c1-0.3,1.9-0.8,2.7-1.5c0.8-0.7,1.4-1.4,1.8-2.4c0.4-0.9,0.7-2,0.7-3.2V54.7z"/>
			<path class="st216" d="M207.4,43.8h2.7v5.6h0.1c0.7-2,1.9-3.5,3.5-4.5c1.6-1.1,3.4-1.5,5.6-1.4v2.9c-1.3-0.1-2.5,0.1-3.6,0.5
				c-1.1,0.4-2,1-2.8,1.8c-0.8,0.8-1.4,1.7-1.8,2.8c-0.4,1.1-0.7,2.2-0.7,3.5v12.8h-2.9V43.8z"/>
			<path class="st216" d="M235.5,50.8c0-0.9-0.2-1.7-0.6-2.3c-0.3-0.7-0.8-1.2-1.4-1.7c-0.6-0.4-1.2-0.8-2-1
				c-0.7-0.2-1.5-0.3-2.4-0.3c-0.7,0-1.3,0.1-2,0.2c-0.7,0.1-1.3,0.4-1.8,0.7c-0.6,0.3-1,0.8-1.3,1.3s-0.5,1.2-0.5,2
				c0,0.7,0.2,1.2,0.5,1.7c0.3,0.5,0.7,0.8,1.2,1.1s1,0.6,1.6,0.8c0.6,0.2,1.1,0.4,1.6,0.5l3.9,0.9c0.8,0.1,1.7,0.3,2.5,0.7
				s1.5,0.8,2.2,1.3c0.6,0.5,1.2,1.2,1.6,1.9s0.6,1.7,0.6,2.7c0,1.3-0.3,2.4-0.9,3.3c-0.6,0.9-1.3,1.7-2.3,2.2
				c-0.9,0.6-1.9,1-3.1,1.3c-1.1,0.3-2.3,0.4-3.4,0.4c-2.8,0-5.1-0.7-6.9-2c-1.8-1.3-2.8-3.5-3-6.4h2.9c0.1,2,0.8,3.5,2.2,4.5
				c1.3,1,3,1.5,4.9,1.5c0.7,0,1.4-0.1,2.2-0.2c0.8-0.2,1.5-0.4,2.1-0.8c0.7-0.4,1.2-0.8,1.6-1.4c0.4-0.6,0.6-1.3,0.6-2.1
				c0-0.7-0.1-1.3-0.4-1.8c-0.3-0.5-0.7-0.9-1.2-1.2c-0.5-0.3-1.1-0.6-1.7-0.8c-0.6-0.2-1.3-0.4-1.9-0.6l-3.8-0.8
				c-1-0.2-1.8-0.5-2.7-0.9c-0.8-0.3-1.5-0.7-2.1-1.2s-1.1-1.1-1.4-1.8c-0.3-0.7-0.5-1.6-0.5-2.6c0-1.2,0.3-2.2,0.8-3.1
				c0.5-0.9,1.2-1.6,2.1-2.1c0.9-0.5,1.8-0.9,2.9-1.2c1.1-0.2,2.1-0.4,3.2-0.4c1.2,0,2.3,0.2,3.4,0.5c1,0.3,2,0.8,2.7,1.4
				c0.8,0.7,1.4,1.5,1.9,2.4s0.7,2.1,0.8,3.4H235.5z"/>
			<path class="st216" d="M135,69.6h3.4l7.5,29.1h0.1l8.1-29.1h4l8.1,29.1h0.1l7.6-29.1h3.2l-9.2,33.2h-3.3l-8.4-29.7H156l-8.4,29.7
				h-3.4L135,69.6z"/>
			<path class="st216" d="M177,86.2c0.2-2.8,1.1-4.9,2.9-6.1c1.8-1.3,4.1-1.9,6.8-1.9c1.1,0,2.1,0.1,3.2,0.3c1.1,0.2,2,0.6,2.8,1.1
				c0.8,0.6,1.5,1.3,2,2.3c0.5,1,0.8,2.3,0.8,3.9v12.7c0,1.2,0.6,1.8,1.7,1.8c0.3,0,0.6-0.1,0.9-0.2v2.5c-0.3,0.1-0.6,0.1-0.9,0.1
				c-0.3,0-0.6,0-1,0c-0.7,0-1.3-0.1-1.8-0.3c-0.4-0.2-0.8-0.5-1-0.9s-0.4-0.8-0.5-1.3c-0.1-0.5-0.1-1.1-0.1-1.7h-0.1
				c-0.5,0.8-1.1,1.5-1.6,2.1c-0.5,0.6-1.1,1.1-1.8,1.5c-0.7,0.4-1.4,0.7-2.3,1c-0.9,0.2-1.9,0.3-3,0.3c-1.1,0-2.2-0.1-3.1-0.4
				c-1-0.3-1.8-0.7-2.6-1.3c-0.7-0.6-1.3-1.3-1.7-2.2c-0.4-0.9-0.6-1.9-0.6-3.1c0-1.7,0.4-3,1.1-3.9c0.7-0.9,1.7-1.7,3-2.2
				c1.2-0.5,2.6-0.8,4.1-1c1.5-0.2,3.1-0.4,4.7-0.6c0.6-0.1,1.1-0.1,1.6-0.3c0.5-0.1,0.9-0.3,1.2-0.5c0.3-0.2,0.5-0.5,0.7-0.9
				c0.2-0.4,0.3-0.9,0.3-1.6c0-1-0.2-1.8-0.5-2.4s-0.8-1.1-1.3-1.5c-0.6-0.4-1.2-0.6-2-0.8c-0.8-0.1-1.6-0.2-2.4-0.2
				c-1.8,0-3.3,0.4-4.5,1.3c-1.2,0.9-1.8,2.3-1.9,4.3H177z M192.7,89.7L192.7,89.7c-0.3,0.3-0.6,0.6-1.2,0.7c-0.5,0.2-1,0.3-1.4,0.3
				c-1.2,0.2-2.5,0.4-3.8,0.6c-1.3,0.2-2.5,0.4-3.6,0.8c-1.1,0.3-2,0.8-2.7,1.5c-0.7,0.6-1,1.5-1,2.7c0,0.7,0.1,1.4,0.4,2
				c0.3,0.6,0.7,1.1,1.2,1.5c0.5,0.4,1.1,0.7,1.7,1c0.7,0.2,1.3,0.3,2,0.3c1.1,0,2.2-0.2,3.2-0.5c1-0.3,1.9-0.8,2.7-1.5
				c0.8-0.7,1.4-1.4,1.8-2.4c0.4-0.9,0.7-2,0.7-3.2V89.7z"/>
			<path class="st216" d="M200.5,78.8h2.7v5.6h0.1c0.7-2,1.9-3.5,3.5-4.5c1.6-1.1,3.4-1.5,5.6-1.4v2.9c-1.3-0.1-2.5,0.1-3.6,0.5
				c-1.1,0.4-2,1-2.8,1.8c-0.8,0.8-1.4,1.7-1.8,2.8c-0.4,1.1-0.7,2.2-0.7,3.5v12.8h-2.9V78.8z"/>
			<path class="st216" d="M214.2,78.8h2.7v5.6h0.1c0.7-2,1.9-3.5,3.5-4.5s3.4-1.5,5.6-1.4v2.9c-1.3-0.1-2.5,0.1-3.6,0.5
				c-1.1,0.4-2,1-2.8,1.8c-0.8,0.8-1.4,1.7-1.8,2.8c-0.4,1.1-0.7,2.2-0.7,3.5v12.8h-2.9V78.8z"/>
			<path class="st216" d="M227.7,86.2c0.2-2.8,1.1-4.9,2.9-6.1c1.8-1.3,4.1-1.9,6.8-1.9c1.1,0,2.1,0.1,3.2,0.3
				c1.1,0.2,2,0.6,2.8,1.1c0.8,0.6,1.5,1.3,2,2.3c0.5,1,0.8,2.3,0.8,3.9v12.7c0,1.2,0.6,1.8,1.7,1.8c0.3,0,0.6-0.1,0.9-0.2v2.5
				c-0.3,0.1-0.6,0.1-0.9,0.1c-0.3,0-0.6,0-1,0c-0.7,0-1.3-0.1-1.8-0.3c-0.4-0.2-0.8-0.5-1-0.9s-0.4-0.8-0.5-1.3
				c-0.1-0.5-0.1-1.1-0.1-1.7h-0.1c-0.5,0.8-1.1,1.5-1.6,2.1c-0.5,0.6-1.1,1.1-1.8,1.5c-0.7,0.4-1.4,0.7-2.3,1
				c-0.9,0.2-1.9,0.3-3,0.3c-1.1,0-2.2-0.1-3.1-0.4c-1-0.3-1.8-0.7-2.6-1.3c-0.7-0.6-1.3-1.3-1.7-2.2c-0.4-0.9-0.6-1.9-0.6-3.1
				c0-1.7,0.4-3,1.1-3.9c0.7-0.9,1.7-1.7,3-2.2c1.2-0.5,2.6-0.8,4.1-1c1.5-0.2,3.1-0.4,4.7-0.6c0.6-0.1,1.1-0.1,1.6-0.3
				c0.5-0.1,0.9-0.3,1.2-0.5c0.3-0.2,0.5-0.5,0.7-0.9c0.2-0.4,0.3-0.9,0.3-1.6c0-1-0.2-1.8-0.5-2.4s-0.8-1.1-1.3-1.5
				c-0.6-0.4-1.2-0.6-2-0.8c-0.8-0.1-1.6-0.2-2.4-0.2c-1.8,0-3.3,0.4-4.5,1.3c-1.2,0.9-1.8,2.3-1.9,4.3H227.7z M243.3,89.7
				L243.3,89.7c-0.3,0.3-0.6,0.6-1.2,0.7c-0.5,0.2-1,0.3-1.4,0.3c-1.2,0.2-2.5,0.4-3.8,0.6c-1.3,0.2-2.5,0.4-3.6,0.8
				c-1.1,0.3-2,0.8-2.7,1.5c-0.7,0.6-1,1.5-1,2.7c0,0.7,0.1,1.4,0.4,2c0.3,0.6,0.7,1.1,1.2,1.5c0.5,0.4,1.1,0.7,1.7,1
				c0.7,0.2,1.3,0.3,2,0.3c1.1,0,2.2-0.2,3.2-0.5c1-0.3,1.9-0.8,2.7-1.5c0.8-0.7,1.4-1.4,1.8-2.4c0.4-0.9,0.7-2,0.7-3.2V89.7z"/>
			<path class="st216" d="M251.1,78.8h2.9V83h0.1c0.3-0.7,0.7-1.4,1.2-2s1.1-1.1,1.8-1.5c0.7-0.4,1.4-0.7,2.2-1
				c0.8-0.2,1.6-0.3,2.5-0.3c1.7,0,3.1,0.2,4.2,0.7c1.1,0.4,2,1,2.7,1.8c0.7,0.8,1.2,1.8,1.4,2.9c0.3,1.1,0.4,2.4,0.4,3.9v15.4h-2.9
				v-15c0-1-0.1-2-0.3-2.9c-0.2-0.9-0.5-1.7-1-2.3c-0.5-0.7-1.1-1.2-1.9-1.5c-0.8-0.4-1.8-0.6-3-0.6s-2.2,0.2-3.1,0.6
				s-1.7,1-2.3,1.7c-0.7,0.7-1.1,1.6-1.5,2.6c-0.3,1-0.5,2.1-0.6,3.3v14h-2.9V78.8z"/>
			<path class="st216" d="M279.8,78.8h4.9v2.5h-4.9v16.2c0,1,0.1,1.7,0.4,2.3c0.3,0.5,0.9,0.8,2,0.9c0.8,0,1.7,0,2.5-0.1v2.5
				c-0.4,0-0.9,0-1.3,0c-0.4,0-0.9,0-1.3,0c-2,0-3.3-0.4-4.1-1.2c-0.8-0.8-1.1-2.2-1.1-4.2V81.3h-4.2v-2.5h4.2v-7.2h2.9V78.8z"/>
			<path class="st216" d="M285.3,78.8h3.1l7.9,20.5l7.4-20.5h2.9l-10.4,27.7c-0.4,1-0.8,1.9-1.2,2.5c-0.4,0.7-0.8,1.2-1.2,1.6
				s-1,0.7-1.6,0.8c-0.6,0.2-1.4,0.3-2.3,0.3c-0.6,0-1-0.1-1.4-0.1c-0.3,0-0.6-0.1-0.9-0.2V109c0.3,0.1,0.7,0.1,1,0.2
				c0.3,0,0.7,0.1,1,0.1c0.7,0,1.2-0.1,1.6-0.3c0.4-0.2,0.8-0.4,1.1-0.8c0.3-0.3,0.6-0.7,0.8-1.2s0.4-1,0.7-1.5l1-2.7L285.3,78.8z"
				/>
		</g>
	</g>
	<path class="st215" d="M128.8,65c0,34.6-28.1,62.7-62.7,62.7C31.5,127.7,3.5,99.7,3.5,65c0-34.6,28.1-62.7,62.7-62.7
		C100.8,2.4,128.8,30.4,128.8,65z"/>
	<path class="st216" d="M128.8,65c0,34.6-28.1,62.7-62.7,62.7C31.5,127.7,3.5,99.7,3.5,65c0-34.6,28.1-62.7,62.7-62.7
		C100.8,2.4,128.8,30.4,128.8,65z"/>
	<g>
		<path class="st2" d="M119.4,30.5H75.6l-4.2,24.1l0.3,0.3c2.9-2.9,6.1-5,9.4-6.3c3.3-1.3,7.1-1.9,11.4-1.9c5.3,0,9.9,1,13.9,2.9
			c4,1.9,7.5,4.5,10.2,7.7c2.8,3.2,4.9,7,6.4,11.4c1.5,4.4,2.2,9.1,2.2,14c0,5.5-1.1,10.5-3.2,15.2s-5,8.8-8.6,12.2
			c-3.6,3.4-7.8,6.1-12.5,8c-4.8,1.9-9.8,2.8-15.2,2.7c-5.2,0-10.1-0.7-14.8-2.1c-4.7-1.4-8.9-3.5-12.5-6.4
			c-3.6-2.8-6.5-6.3-8.7-10.5c-2.2-4.2-3.3-9.1-3.4-14.6h21.5c0.5,4.8,2.3,8.6,5.5,11.5c3.2,2.9,7.1,4.4,11.9,4.4
			c2.8,0,5.4-0.6,7.6-1.7c2.2-1.1,4.1-2.6,5.8-4.5c1.6-1.9,2.9-4.1,3.7-6.6c0.9-2.5,1.3-5,1.3-7.7c0-2.7-0.4-5.3-1.2-7.7
			c-0.8-2.4-2-4.5-3.6-6.4c-1.6-1.8-3.6-3.2-5.8-4.2c-2.3-1-4.8-1.5-7.7-1.5c-3.8,0-7,0.7-9.4,2c-2.4,1.4-4.7,3.5-6.8,6.4H49.7
			l10.5-58.7h59.3V30.5z"/>
	</g>
</g>
</svg>
