<?xml version="1.0" encoding="utf-8"?>
<!-- Generator: Adobe Illustrator 17.0.0, SVG Export Plug-In . SVG Version: 6.00 Build 0)  -->
<!DOCTYPE svg PUBLIC "-//W3C//DTD SVG 1.1//EN" "http://www.w3.org/Graphics/SVG/1.1/DTD/svg11.dtd">
<svg version="1.1" id="Layer_1" xmlns="http://www.w3.org/2000/svg" xmlns:xlink="http://www.w3.org/1999/xlink" x="0px" y="0px"
	 width="80px" height="38.095px" viewBox="0 0 80 38.095" enable-background="new 0 0 80 38.095" xml:space="preserve">
<g>
	<polygon fill="#FFFFFF" points="14.091,22.193 21.257,22.193 21.266,23.956 16.2,23.956 16.2,26.018 20.845,26.018 20.845,27.646 
		16.2,27.646 16.203,30.005 21.384,29.995 21.379,31.78 14.091,31.78 	"/>
	<rect x="22.659" y="22.173" fill="#FFFFFF" width="1.899" height="9.608"/>
	<path fill="#FFFFFF" d="M27.627,28.768c0.037,0.602,0.189,1.058,0.482,1.332c0.292,0.293,0.702,0.429,1.23,0.429
		c0.393,0,0.724-0.09,1.008-0.298c0.27-0.183,0.441-0.397,0.506-0.616h1.667c-0.263,0.84-0.67,1.426-1.229,1.801
		c-0.55,0.365-1.228,0.554-2.007,0.554c-0.549-0.016-1.037-0.086-1.484-0.278c-0.432-0.175-0.814-0.419-1.109-0.74
		c-0.31-0.324-0.552-0.712-0.716-1.166c-0.161-0.436-0.246-0.936-0.246-1.471c0-0.524,0.085-1.008,0.25-1.455
		c0.169-0.443,0.418-0.84,0.74-1.17c0.311-0.32,0.678-0.578,1.117-0.777c0.424-0.181,0.912-0.271,1.438-0.271
		c0.584,0,1.103,0.118,1.54,0.343c0.447,0.227,0.805,0.537,1.09,0.924c0.275,0.381,0.487,0.825,0.609,1.311
		c0.13,0.48,0.172,1.007,0.143,1.54L27.627,28.768z M30.741,27.558c-0.091-0.496-0.25-0.851-0.473-1.109
		c-0.238-0.241-0.574-0.372-1.048-0.386c-0.302,0.014-0.556,0.068-0.763,0.156c-0.197,0.122-0.361,0.244-0.471,0.391
		c-0.12,0.152-0.209,0.312-0.256,0.478c-0.053,0.178-0.1,0.338-0.1,0.469H30.741z"/>
	<path fill="#FFFFFF" d="M38.501,27.269c-0.122-0.795-0.593-1.205-1.395-1.205c-0.316,0-0.582,0.082-0.771,0.222
		c-0.208,0.13-0.376,0.318-0.502,0.537c-0.141,0.207-0.236,0.462-0.295,0.725c-0.04,0.264-0.065,0.527-0.06,0.787
		c-0.004,0.251,0.02,0.507,0.074,0.767c0.049,0.254,0.14,0.498,0.253,0.705c0.127,0.199,0.298,0.38,0.507,0.511
		c0.203,0.138,0.457,0.203,0.747,0.212c0.451,0,0.794-0.13,1.057-0.405c0.231-0.239,0.39-0.577,0.462-1.018h1.846
		c-0.125,0.925-0.491,1.637-1.073,2.117c-0.601,0.491-1.357,0.747-2.281,0.747c-0.517,0-1.005-0.087-1.435-0.274
		c-0.425-0.158-0.802-0.416-1.108-0.739c-0.303-0.322-0.534-0.693-0.71-1.125c-0.175-0.435-0.263-0.911-0.263-1.44
		c0-0.525,0.083-1.034,0.235-1.497c0.173-0.45,0.391-0.863,0.702-1.191c0.304-0.336,0.664-0.604,1.106-0.795
		c0.451-0.18,0.955-0.27,1.517-0.262c0.398-0.008,0.799,0.04,1.194,0.143c0.37,0.104,0.705,0.288,0.999,0.496
		c0.312,0.217,0.547,0.491,0.733,0.818c0.205,0.345,0.307,0.723,0.335,1.165H38.501z"/>
	<path fill="#FFFFFF" d="M43.902,24.83h1.405v1.273l-1.405-0.012l0.014,3.455c0,0.327,0.044,0.527,0.162,0.64
		c0.105,0.104,0.324,0.162,0.643,0.162c0.209-0.01,0.407-0.01,0.587-0.058v1.49c-0.165,0.033-0.336,0.058-0.537,0.062
		c-0.201,0-0.389,0.007-0.575,0.016c-0.298-0.009-0.574-0.02-0.841-0.078c-0.257-0.029-0.5-0.107-0.688-0.235
		c-0.193-0.115-0.37-0.281-0.492-0.506c-0.104-0.213-0.175-0.487-0.18-0.835v-4.113l-1.154,0.012V24.83l1.159-0.011l-0.005-2.085
		l1.908,0.018V24.83z"/>
	<path fill="#FFFFFF" d="M46.228,24.818h1.808v1.286h0.024c0.098-0.209,0.216-0.417,0.375-0.586c0.146-0.194,0.32-0.34,0.514-0.474
		c0.209-0.134,0.423-0.234,0.642-0.314c0.226-0.055,0.457-0.091,0.691-0.097c0.15-0.012,0.281,0.015,0.422,0.055v1.786
		c-0.089-0.025-0.205-0.034-0.322-0.049c-0.138-0.009-0.24-0.033-0.373-0.033c-0.346,0-0.636,0.072-0.877,0.19
		c-0.246,0.124-0.436,0.272-0.595,0.48c-0.152,0.197-0.244,0.437-0.312,0.708c-0.061,0.266-0.098,0.564-0.098,0.869v3.123
		l-1.897,0.018V24.818z"/>
	<path fill="#FFFFFF" d="M53.403,23.74h-1.897l-0.004-1.568l1.918-0.004L53.403,23.74z M51.502,24.818h1.901l0.017,6.944h-1.914
		L51.502,24.818z"/>
	<path fill="#FFFFFF" d="M59.648,27.258c-0.138-0.794-0.607-1.195-1.416-1.199c-0.299,0.004-0.561,0.087-0.773,0.218
		c-0.19,0.138-0.363,0.304-0.484,0.545c-0.136,0.215-0.231,0.447-0.288,0.724c-0.051,0.265-0.074,0.527-0.08,0.787
		c0,0.245,0.029,0.491,0.08,0.76c0.058,0.26,0.139,0.491,0.266,0.69c0.126,0.222,0.291,0.398,0.488,0.529
		c0.214,0.128,0.456,0.206,0.747,0.215c0.451-0.009,0.809-0.149,1.055-0.405c0.253-0.244,0.406-0.578,0.48-1.022l1.832-0.007
		c-0.118,0.936-0.484,1.648-1.074,2.114c-0.594,0.506-1.341,0.739-2.273,0.739c-0.527,0.006-1.011-0.089-1.434-0.252
		c-0.422-0.172-0.8-0.423-1.103-0.738c-0.305-0.322-0.55-0.698-0.713-1.132c-0.171-0.44-0.251-0.904-0.256-1.438
		c0-0.529,0.08-1.029,0.235-1.5c0.15-0.463,0.39-0.854,0.691-1.193c0.306-0.335,0.674-0.595,1.108-0.784
		c0.437-0.18,0.944-0.271,1.522-0.29c0.399,0.012,0.798,0.062,1.175,0.17c0.385,0.104,0.722,0.265,1.015,0.489
		c0.305,0.218,0.543,0.498,0.74,0.825c0.186,0.339,0.3,0.718,0.334,1.154H59.648z"/>
	<polygon fill="#FFFFFF" points="70.287,10.491 66.02,18.928 68.576,18.928 62.202,31.894 65.168,22.347 61.907,22.351 
		64.942,14.34 62.112,14.349 66.971,4.82 70.494,4.806 67.292,10.5 	"/>
</g>
</svg>
