<?xml version="1.0" encoding="utf-8"?>
<!-- Generator: Adobe Illustrator 17.0.0, SVG Export Plug-In . SVG Version: 6.00 Build 0)  -->
<!DOCTYPE svg PUBLIC "-//W3C//DTD SVG 1.1//EN" "http://www.w3.org/Graphics/SVG/1.1/DTD/svg11.dtd">
<svg version="1.1" id="Layer_1" xmlns="http://www.w3.org/2000/svg" xmlns:xlink="http://www.w3.org/1999/xlink" x="0px" y="0px"
	 width="80px" height="38.095px" viewBox="0 0 80 38.095" enable-background="new 0 0 80 38.095" xml:space="preserve">
<g>
	<path fill="#EC008C" d="M33.477,18.182c-0.011-0.321-0.079-0.597-0.195-0.832c-0.112-0.246-0.272-0.432-0.48-0.594
		c-0.205-0.155-0.438-0.267-0.711-0.337c-0.265-0.069-0.546-0.107-0.843-0.101c-0.217-0.006-0.465,0.017-0.7,0.063
		c-0.23,0.056-0.438,0.134-0.646,0.259c-0.2,0.104-0.367,0.263-0.485,0.44c-0.127,0.185-0.176,0.428-0.193,0.703
		c0,0.242,0.066,0.432,0.18,0.59c0.113,0.162,0.264,0.312,0.436,0.425c0.182,0.1,0.378,0.206,0.586,0.271
		c0.196,0.064,0.397,0.12,0.571,0.158l1.394,0.332c0.297,0.049,0.585,0.111,0.872,0.234c0.297,0.12,0.552,0.274,0.789,0.45
		c0.225,0.193,0.411,0.42,0.553,0.689c0.143,0.294,0.207,0.606,0.198,0.986c0,0.461-0.084,0.865-0.307,1.167
		c-0.209,0.339-0.472,0.605-0.792,0.798c-0.336,0.203-0.707,0.353-1.107,0.453c-0.417,0.078-0.814,0.13-1.216,0.141
		c-1-0.016-1.808-0.256-2.427-0.742c-0.619-0.466-0.977-1.239-1.068-2.283h1.04c0.046,0.711,0.3,1.234,0.765,1.599
		c0.467,0.366,1.056,0.537,1.762,0.537c0.236,0,0.497-0.019,0.766-0.081c0.287-0.057,0.532-0.15,0.759-0.28
		c0.233-0.131,0.421-0.302,0.569-0.505c0.158-0.206,0.237-0.457,0.232-0.757c0-0.23-0.058-0.443-0.16-0.615
		c-0.1-0.185-0.25-0.328-0.427-0.447c-0.172-0.124-0.372-0.211-0.593-0.291c-0.233-0.072-0.445-0.142-0.687-0.203l-1.342-0.299
		c-0.337-0.083-0.657-0.188-0.941-0.305c-0.293-0.114-0.535-0.263-0.753-0.432c-0.208-0.165-0.378-0.386-0.496-0.628
		c-0.13-0.237-0.182-0.551-0.18-0.923c0-0.43,0.086-0.797,0.287-1.102c0.197-0.324,0.439-0.558,0.75-0.75
		c0.311-0.187,0.652-0.322,1.046-0.416c0.37-0.083,0.75-0.132,1.119-0.132c0.431,0.015,0.83,0.063,1.202,0.176
		c0.364,0.115,0.691,0.275,0.975,0.513c0.281,0.227,0.501,0.527,0.668,0.861c0.162,0.347,0.252,0.74,0.281,1.212L33.477,18.182z"/>
	<path fill="#EC008C" d="M36.935,20.233c-0.01,0.394,0.05,0.78,0.157,1.189c0.12,0.408,0.269,0.757,0.495,1.074
		c0.225,0.311,0.503,0.579,0.858,0.797c0.367,0.208,0.798,0.313,1.287,0.313c0.773,0,1.365-0.198,1.796-0.617
		c0.425-0.382,0.73-0.907,0.886-1.568l1.05,0.006c-0.228,0.964-0.63,1.715-1.219,2.263c-0.587,0.525-1.427,0.8-2.514,0.786
		c-0.681,0.008-1.266-0.119-1.742-0.363c-0.49-0.232-0.888-0.567-1.196-0.994c-0.305-0.402-0.528-0.88-0.677-1.44
		c-0.154-0.543-0.233-1.116-0.226-1.723c-0.006-0.562,0.072-1.116,0.231-1.652c0.148-0.542,0.367-1.022,0.685-1.448
		c0.304-0.427,0.703-0.767,1.188-1.031c0.477-0.25,1.072-0.384,1.756-0.39c0.682,0.012,1.259,0.157,1.765,0.432
		c0.468,0.259,0.857,0.624,1.168,1.062c0.297,0.467,0.502,0.978,0.649,1.553c0.12,0.584,0.178,1.171,0.157,1.759L36.935,20.233z
		 M42.461,19.363c-0.024-0.385-0.096-0.756-0.215-1.142c-0.118-0.349-0.301-0.665-0.533-0.955c-0.228-0.292-0.511-0.509-0.839-0.677
		c-0.339-0.191-0.707-0.27-1.121-0.257c-0.442-0.013-0.821,0.066-1.144,0.245c-0.326,0.18-0.612,0.397-0.85,0.674
		c-0.23,0.288-0.409,0.616-0.546,0.989c-0.149,0.368-0.244,0.739-0.287,1.124H42.461z"/>
	<path fill="#EC008C" d="M50.259,12.439l1.028,0.006l-0.012,1.665l-1.035-0.011L50.259,12.439z M50.24,15.704h1.035v8.549h-1.04
		L50.24,15.704z"/>
	<path fill="#EC008C" d="M44.965,15.693l0.968,0.011v2.002h0.029c0.255-0.691,0.666-1.234,1.227-1.6
		c0.557-0.37,1.229-0.55,1.988-0.512v1.046c-0.481-0.021-0.902,0.028-1.282,0.179c-0.382,0.155-0.727,0.36-1.011,0.64
		c-0.274,0.278-0.481,0.607-0.654,1.001c-0.154,0.383-0.235,0.791-0.235,1.232v4.562l-1.029-0.017V15.693z"/>
	<path fill="#EC008C" d="M53.471,20.274c0,0.372,0.056,0.766,0.17,1.165c0.106,0.391,0.276,0.75,0.486,1.079
		c0.218,0.317,0.513,0.583,0.869,0.781c0.357,0.219,0.79,0.325,1.277,0.325c0.768,0.015,1.354-0.192,1.798-0.597
		c0.425-0.401,0.725-0.928,0.897-1.574l1.038-0.011c-0.223,0.983-0.628,1.725-1.228,2.261c-0.585,0.532-1.413,0.795-2.498,0.794
		c-0.687,0-1.271-0.137-1.753-0.36c-0.478-0.244-0.885-0.576-1.192-0.99c-0.31-0.417-0.539-0.889-0.678-1.453
		c-0.155-0.528-0.223-1.113-0.223-1.717c0-0.572,0.074-1.111,0.229-1.66c0.142-0.537,0.366-1.013,0.687-1.441
		c0.298-0.419,0.7-0.76,1.188-1.021c0.491-0.258,1.064-0.384,1.758-0.399c0.683,0.015,1.266,0.144,1.75,0.428
		c0.484,0.271,0.87,0.638,1.174,1.081c0.303,0.458,0.514,0.964,0.648,1.546c0.143,0.581,0.181,1.159,0.163,1.76H53.471z
		 M58.998,19.387c-0.013-0.383-0.08-0.776-0.201-1.134c-0.128-0.359-0.316-0.685-0.547-0.965c-0.229-0.291-0.503-0.507-0.834-0.687
		c-0.325-0.169-0.712-0.25-1.119-0.25c-0.441-0.011-0.809,0.08-1.149,0.246c-0.328,0.179-0.615,0.392-0.839,0.688
		c-0.231,0.283-0.424,0.609-0.568,0.978c-0.128,0.361-0.225,0.742-0.27,1.124H58.998z"/>
	<path fill="#EC008C" d="M66.544,18.219c-0.005-0.309-0.073-0.586-0.191-0.821c-0.131-0.234-0.287-0.43-0.491-0.592
		c-0.193-0.161-0.42-0.269-0.708-0.334c-0.252-0.083-0.537-0.11-0.833-0.123c-0.229,0.013-0.462,0.032-0.696,0.081
		c-0.247,0.052-0.449,0.133-0.661,0.247c-0.196,0.123-0.367,0.271-0.478,0.46c-0.115,0.189-0.179,0.419-0.187,0.698
		c0,0.243,0.062,0.436,0.172,0.586c0.112,0.164,0.271,0.313,0.444,0.421c0.172,0.101,0.367,0.197,0.583,0.27
		c0.205,0.057,0.394,0.13,0.581,0.175l1.382,0.315c0.303,0.043,0.595,0.12,0.878,0.24c0.297,0.115,0.563,0.268,0.788,0.454
		c0.222,0.174,0.414,0.421,0.555,0.706c0.134,0.257,0.208,0.589,0.208,0.955c0.011,0.467-0.114,0.872-0.333,1.189
		c-0.2,0.313-0.466,0.576-0.797,0.787c-0.312,0.204-0.681,0.358-1.094,0.45c-0.408,0.093-0.797,0.115-1.217,0.115
		c-0.975,0-1.795-0.223-2.423-0.705c-0.623-0.484-0.975-1.252-1.072-2.305H62c0.056,0.717,0.298,1.24,0.77,1.61
		c0.465,0.36,1.043,0.538,1.747,0.538c0.237,0,0.491-0.021,0.777-0.076c0.265-0.066,0.526-0.154,0.758-0.287
		c0.232-0.114,0.42-0.298,0.564-0.492c0.143-0.196,0.222-0.466,0.222-0.766c0.005-0.235-0.05-0.457-0.152-0.619
		c-0.104-0.172-0.247-0.332-0.415-0.445c-0.179-0.113-0.376-0.215-0.6-0.288c-0.227-0.081-0.46-0.157-0.692-0.205l-1.335-0.298
		c-0.349-0.095-0.657-0.193-0.938-0.294c-0.295-0.124-0.545-0.282-0.754-0.446c-0.221-0.169-0.383-0.392-0.502-0.617
		c-0.13-0.269-0.188-0.566-0.194-0.934c0.013-0.427,0.109-0.798,0.3-1.111c0.19-0.301,0.445-0.555,0.751-0.738
		c0.31-0.182,0.657-0.328,1.036-0.411c0.378-0.097,0.752-0.125,1.127-0.125c0.432,0,0.838,0.047,1.199,0.159
		c0.37,0.109,0.699,0.288,0.975,0.519c0.274,0.226,0.505,0.515,0.671,0.851c0.169,0.359,0.24,0.756,0.281,1.223L66.544,18.219z"/>
	<polygon fill="#EC008C" points="18.542,32.306 12.112,15.988 21.916,12.118 23.376,15.804 18.128,17.894 19.123,20.41 
		24.017,18.449 25.44,22.028 20.536,23.96 21.656,26.801 27.102,24.642 28.573,28.344 	"/>
</g>
</svg>
