<?xml version="1.0" encoding="utf-8"?>
<!-- Generator: Adobe Illustrator 17.0.0, SVG Export Plug-In . SVG Version: 6.00 Build 0)  -->
<!DOCTYPE svg PUBLIC "-//W3C//DTD SVG 1.1//EN" "http://www.w3.org/Graphics/SVG/1.1/DTD/svg11.dtd">
<svg version="1.1" id="Layer_1" xmlns="http://www.w3.org/2000/svg" xmlns:xlink="http://www.w3.org/1999/xlink" x="0px" y="0px"
	 width="80px" height="38.095px" viewBox="0 0 80 38.095" enable-background="new 0 0 80 38.095" xml:space="preserve">
<g>
	<g>
		<path fill="#FFFFFF" d="M6.961,25.37c0,0,0.416,0,0.322,0.36l-1.867,7.133h2.86c0.43,0,0.34,0.346,0.34,0.346L8.492,33.68
			c0,0-0.094,0.359-0.525,0.359H3.714l2.175-8.309c0.094-0.36,0.496-0.36,0.496-0.36H6.961z"/>
		<path fill="#FFFFFF" d="M16.2,25.37c0.417,0,0.326,0.347,0.326,0.347L16.4,26.2c0,0-0.091,0.347-0.494,0.347h-3.693l-0.664,2.539
			h2.73c0.416,0,0.325,0.346,0.325,0.346l-0.126,0.483c0,0-0.091,0.348-0.493,0.348h-2.745l-0.68,2.601h3.678
			c0.417,0,0.326,0.346,0.326,0.346l-0.126,0.483c0,0-0.091,0.347-0.494,0.347H8.859l2.269-8.669H16.2z"/>
		<path fill="#FFFFFF" d="M20.224,25.37c2.14,0,2.636,1.238,2.227,2.799l-0.804,3.071c-0.408,1.56-1.552,2.798-3.692,2.798h-2.874
			l2.269-8.669H20.224z M16.78,32.875h1.481c0.976,0,1.699-0.507,1.993-1.635l0.804-3.071c0.295-1.127-0.162-1.635-1.138-1.635
			h-1.481L16.78,32.875z"/>
		<path fill="#FFFFFF" d="M30.894,27.314c-0.01,0.149-0.105,0.346-0.398,0.421l-0.531,0.111c-0.29,0.062-0.515-0.013-0.518-0.273
			c-0.012-0.781-0.364-1.078-1.212-1.078c-1.093,0-1.601,0.57-1.724,1.04c-0.107,0.408-0.06,0.78,0.344,0.991l2.179,1.115
			c0.773,0.396,1.065,1.202,0.852,2.019c-0.367,1.399-1.737,2.464-3.648,2.464c-1.179,0-2.794-0.582-2.282-2.538
			c0.094-0.359,0.511-0.359,0.511-0.359h0.574c0,0,0.402,0,0.308,0.359c-0.292,1.114,0.492,1.362,1.196,1.362
			c1.164,0,1.794-0.706,1.947-1.288c0.103-0.397,0.006-0.792-0.617-1.102l-1.829-0.916c-1.169-0.582-1.088-1.499-0.92-2.143
			c0.373-1.424,1.888-2.217,3.425-2.217C30.291,25.283,30.999,26.151,30.894,27.314z"/>
		<path fill="#FFFFFF" d="M37.298,27.389c-0.01,0.149-0.105,0.347-0.397,0.421l-0.532,0.111c-0.29,0.062-0.53-0.062-0.518-0.273
			c0.105-0.731-0.278-1.188-1.198-1.188c-1.106,0-1.739,0.495-2.041,1.646l-0.839,3.208c-0.302,1.151,0.075,1.635,1.181,1.635
			c0.977,0,1.682-0.495,1.981-1.635c0.094-0.36,0.496-0.36,0.496-0.36h0.574c0,0,0.417,0,0.323,0.36
			c-0.412,1.573-1.541,2.811-3.682,2.811c-1.983,0-2.695-1.176-2.267-2.811l0.839-3.208c0.428-1.635,1.759-2.824,3.742-2.824
			C36.829,25.283,37.398,26.237,37.298,27.389z"/>
		<path fill="#FFFFFF" d="M41.117,25.37c2.141,0,2.744,0.991,2.329,2.576c-0.36,1.375-1.141,2.057-2.38,2.452l0.541,1.882
			c0.16,0.384,0.337,0.583,0.596,0.583h0.215c0.417,0,0.319,0.371,0.319,0.371l-0.113,0.433c0,0-0.097,0.371-0.514,0.371h-0.302
			c-0.862,0-1.236-0.383-1.619-1.338l-0.57-2.105h-1.005l-0.807,3.084c-0.094,0.359-0.496,0.359-0.496,0.359h-0.574
			c0,0-0.417,0-0.323-0.359l2.175-8.31H41.117z M38.922,29.419h1.135c1.149,0,1.74-0.495,2.002-1.498
			c0.295-1.127-0.269-1.386-1.247-1.386h-1.135L38.922,29.419z"/>
		<path fill="#FFFFFF" d="M50.429,25.37c0.417,0,0.326,0.347,0.326,0.347L50.628,26.2c0,0-0.091,0.347-0.494,0.347h-3.693
			l-0.664,2.539h2.73c0.416,0,0.326,0.346,0.326,0.346l-0.126,0.483c0,0-0.091,0.348-0.493,0.348H45.47l-0.68,2.601h3.678
			c0.417,0,0.326,0.346,0.326,0.346l-0.126,0.483c0,0-0.091,0.347-0.494,0.347h-5.086l2.269-8.669H50.429z"/>
		<path fill="#FFFFFF" d="M56.651,25.37c0.417,0,0.326,0.347,0.326,0.347L56.851,26.2c0,0-0.091,0.347-0.494,0.347h-3.693L52,29.086
			h2.73c0.416,0,0.326,0.346,0.326,0.346l-0.126,0.483c0,0-0.091,0.348-0.493,0.348h-2.745l-0.68,2.601h3.678
			c0.417,0,0.326,0.346,0.326,0.346l-0.126,0.483c0,0-0.091,0.347-0.494,0.347H49.31l2.269-8.669H56.651z"/>
		<path fill="#FFFFFF" d="M59.08,25.37c0,0,0.287,0,0.374,0.273l1.398,6.241l1.525-6.155c0,0,0.094-0.36,0.51-0.36h0.561
			c0,0,0.416,0,0.322,0.36l-2.081,7.95c0,0-0.094,0.359-0.51,0.359h-0.863c0,0-0.316,0-0.377-0.26l-1.381-6.254L57.02,33.68
			c0,0-0.094,0.359-0.51,0.359h-0.561c0,0-0.416,0-0.322-0.359l2.081-7.95c0,0,0.094-0.36,0.51-0.36H59.08z"/>
	</g>
	<g>
		<g>
			<circle fill="#ED1B34" cx="53.971" cy="9.388" r="1.159"/>
			<circle fill="#ED1B34" cx="59.679" cy="8.548" r="1.159"/>
			<circle fill="#0DB14B" cx="63.024" cy="8.127" r="1.16"/>
			<circle fill="#ED1B34" cx="66.696" cy="7.707" r="1.159"/>
			<circle fill="#ED1B34" cx="75.021" cy="6.866" r="1.198"/>
		</g>
		<g>
			<circle fill="#0DB14B" cx="53.922" cy="12.113" r="1.159"/>
			<circle fill="#ED1B34" cx="56.628" cy="11.903" r="1.159"/>
			<circle fill="#0066B3" cx="59.662" cy="11.692" r="1.159"/>
			<circle fill="#ED1B34" cx="63.024" cy="11.482" r="1.159"/>
			<circle fill="#0066B3" cx="70.728" cy="11.061" r="1.159"/>
		</g>
		<g>
			<circle fill="#ED1B34" cx="53.905" cy="14.83" r="1.159"/>
			<circle fill="#ED1B34" cx="59.656" cy="14.83" r="1.159"/>
			<circle fill="#ED1B34" cx="66.717" cy="14.83" r="1.159"/>
			<circle fill="#0DB14B" cx="70.739" cy="14.83" r="1.159"/>
			<circle fill="#ED1B34" cx="75.087" cy="14.83" r="1.198"/>
		</g>
		<g>
			<circle fill="#0DB14B" cx="56.629" cy="17.758" r="1.159"/>
			<circle fill="#ED1B34" cx="59.662" cy="17.968" r="1.159"/>
			<circle fill="#0066B3" cx="63.024" cy="18.178" r="1.159"/>
			<circle fill="#ED1B34" cx="66.712" cy="18.389" r="1.159"/>
			<circle fill="#ED1B34" cx="70.728" cy="18.599" r="1.159"/>
			<circle fill="#ED1B34" cx="75.071" cy="18.81" r="1.198"/>
		</g>
		<g>
			<circle fill="#ED1B34" cx="53.971" cy="20.267" r="1.159"/>
			<circle fill="#ED1B34" cx="56.662" cy="20.687" r="1.159"/>
			<circle fill="#ED1B34" cx="63.024" cy="21.528" r="1.159"/>
			<circle fill="#ED1B34" cx="66.696" cy="21.948" r="1.159"/>
			<circle fill="#0066B3" cx="75.022" cy="22.789" r="1.198"/>
		</g>
	</g>
</g>
</svg>
