<?xml version="1.0" encoding="utf-8"?>
<!-- Generator: Adobe Illustrator 17.0.0, SVG Export Plug-In . SVG Version: 6.00 Build 0)  -->
<!DOCTYPE svg PUBLIC "-//W3C//DTD SVG 1.1//EN" "http://www.w3.org/Graphics/SVG/1.1/DTD/svg11.dtd">
<svg version="1.1" id="Layer_1" xmlns="http://www.w3.org/2000/svg" xmlns:xlink="http://www.w3.org/1999/xlink" x="0px" y="0px"
	 width="80px" height="38.095px" viewBox="0 0 80 38.095" enable-background="new 0 0 80 38.095" xml:space="preserve">
<g>
	<path fill="#FFFFFF" d="M6.96,25.369c0,0,0.417,0,0.321,0.36l-1.866,7.133h2.859c0.433,0,0.34,0.346,0.34,0.346l-0.122,0.47
		c0,0-0.094,0.359-0.524,0.359H3.714L5.89,25.73c0.094-0.36,0.495-0.36,0.495-0.36H6.96z"/>
	<path fill="#FFFFFF" d="M16.199,25.369c0.418,0,0.326,0.348,0.326,0.348l-0.127,0.482c0,0-0.089,0.347-0.493,0.347h-3.692
		l-0.666,2.539h2.732c0.415,0,0.323,0.346,0.323,0.346l-0.124,0.482c0,0-0.091,0.348-0.493,0.348h-2.746l-0.68,2.601h3.68
		c0.416,0,0.325,0.346,0.325,0.346l-0.124,0.482c0,0-0.091,0.347-0.494,0.347H8.859l2.269-8.669H16.199z"/>
	<path fill="#FFFFFF" d="M20.223,25.369c2.141,0,2.637,1.239,2.227,2.8l-0.804,3.071c-0.406,1.561-1.55,2.798-3.692,2.798H15.08
		l2.269-8.669H20.223z M16.78,32.874h1.479c0.976,0,1.7-0.507,1.995-1.634l0.802-3.071c0.295-1.128-0.16-1.635-1.139-1.635h-1.48
		L16.78,32.874z"/>
	<path fill="#FFFFFF" d="M30.895,27.314c-0.012,0.148-0.107,0.347-0.4,0.421l-0.528,0.111c-0.29,0.062-0.518-0.013-0.52-0.272
		c-0.009-0.78-0.363-1.077-1.211-1.077c-1.092,0-1.602,0.572-1.724,1.041c-0.107,0.408-0.059,0.779,0.345,0.99l2.179,1.115
		c0.771,0.396,1.064,1.201,0.85,2.018c-0.364,1.4-1.735,2.465-3.648,2.465c-1.178,0-2.791-0.583-2.28-2.539
		c0.095-0.359,0.509-0.359,0.509-0.359h0.576c0,0,0.4,0,0.307,0.359c-0.291,1.114,0.492,1.361,1.197,1.361
		c1.165,0,1.795-0.705,1.948-1.288c0.103-0.396,0.006-0.792-0.618-1.102l-1.829-0.916c-1.168-0.582-1.088-1.499-0.918-2.142
		c0.372-1.424,1.889-2.217,3.424-2.217C30.289,25.283,30.999,26.15,30.895,27.314"/>
	<path fill="#FFFFFF" d="M37.298,27.388c-0.012,0.148-0.107,0.348-0.399,0.421l-0.53,0.112c-0.29,0.062-0.53-0.062-0.52-0.272
		c0.105-0.731-0.277-1.188-1.196-1.188c-1.107,0-1.739,0.495-2.041,1.646l-0.839,3.207c-0.303,1.151,0.073,1.635,1.181,1.635
		c0.975,0,1.681-0.495,1.98-1.635c0.095-0.359,0.496-0.359,0.496-0.359h0.573c0,0,0.418,0,0.325,0.359
		c-0.414,1.573-1.541,2.811-3.685,2.811c-1.982,0-2.693-1.176-2.267-2.811l0.84-3.207c0.428-1.634,1.761-2.824,3.742-2.824
		C36.829,25.282,37.398,26.236,37.298,27.388"/>
	<path fill="#FFFFFF" d="M41.118,25.37c2.139,0,2.743,0.991,2.327,2.575c-0.359,1.376-1.141,2.057-2.378,2.452l0.54,1.883
		c0.158,0.383,0.336,0.582,0.596,0.582h0.213c0.418,0,0.321,0.372,0.321,0.372l-0.114,0.433c0,0-0.097,0.371-0.515,0.371h-0.3
		c-0.863,0-1.236-0.383-1.621-1.337l-0.569-2.104h-1.006l-0.806,3.083c-0.096,0.358-0.496,0.358-0.496,0.358h-0.576
		c0,0-0.416,0-0.321-0.358l2.174-8.309H41.118z M38.922,29.418h1.136c1.149,0,1.739-0.494,2-1.497
		c0.295-1.128-0.268-1.387-1.245-1.387h-1.135L38.922,29.418z"/>
	<path fill="#FFFFFF" d="M50.428,25.369c0.418,0,0.325,0.348,0.325,0.348l-0.124,0.482c0,0-0.091,0.347-0.494,0.347h-3.692
		l-0.666,2.539h2.731c0.415,0,0.325,0.346,0.325,0.346l-0.126,0.482c0,0-0.09,0.348-0.493,0.348h-2.746l-0.68,2.601h3.681
		c0.415,0,0.325,0.346,0.325,0.346l-0.126,0.482c0,0-0.09,0.347-0.493,0.347h-5.086l2.269-8.669H50.428z"/>
	<path fill="#FFFFFF" d="M56.651,25.369c0.417,0,0.325,0.348,0.325,0.348l-0.124,0.482c0,0-0.091,0.347-0.494,0.347h-3.692
		l-0.667,2.539h2.732c0.415,0,0.323,0.346,0.323,0.346l-0.124,0.482c0,0-0.09,0.348-0.493,0.348H51.69l-0.68,2.601h3.68
		c0.416,0,0.326,0.346,0.326,0.346l-0.126,0.482c0,0-0.091,0.347-0.494,0.347H49.31l2.269-8.669H56.651z"/>
	<path fill="#FFFFFF" d="M59.08,25.369c0,0,0.286,0,0.372,0.273l1.399,6.241l1.525-6.154c0,0,0.094-0.36,0.512-0.36h0.562
		c0,0,0.415,0,0.32,0.36l-2.081,7.949c0,0-0.094,0.359-0.511,0.359h-0.863c0,0-0.316,0-0.376-0.26l-1.38-6.255l-1.539,6.155
		c0,0-0.094,0.359-0.512,0.359h-0.562c0,0-0.415,0-0.322-0.359l2.083-7.949c0,0,0.094-0.36,0.508-0.36H59.08z"/>
	<path fill="#FFFFFF" d="M55.124,9.267c0.069,0.638-0.395,1.206-1.032,1.274c-0.635,0.067-1.207-0.395-1.272-1.031
		c-0.069-0.636,0.394-1.206,1.031-1.273C54.488,8.169,55.056,8.631,55.124,9.267"/>
	<path fill="#FFFFFF" d="M60.832,8.427c0.067,0.636-0.393,1.206-1.031,1.273c-0.637,0.068-1.21-0.393-1.274-1.031
		c-0.068-0.636,0.394-1.206,1.032-1.275C60.195,7.328,60.764,7.79,60.832,8.427"/>
	<path fill="#FFFFFF" d="M64.178,8.006c0.066,0.638-0.396,1.207-1.032,1.274c-0.636,0.068-1.209-0.395-1.275-1.031
		c-0.068-0.637,0.396-1.207,1.033-1.275C63.54,6.908,64.108,7.37,64.178,8.006"/>
	<path fill="#FFFFFF" d="M67.848,7.586c0.069,0.638-0.393,1.207-1.03,1.274c-0.639,0.067-1.21-0.395-1.275-1.031
		c-0.069-0.637,0.394-1.207,1.031-1.275C67.212,6.488,67.781,6.949,67.848,7.586"/>
	<path fill="#FFFFFF" d="M76.213,6.741c0.071,0.659-0.409,1.249-1.065,1.318c-0.66,0.069-1.249-0.409-1.32-1.067
		c-0.066-0.659,0.411-1.248,1.07-1.318C75.553,5.605,76.144,6.083,76.213,6.741"/>
	<path fill="#FFFFFF" d="M55.08,12.053c0.032,0.64-0.46,1.184-1.1,1.217c-0.639,0.034-1.184-0.456-1.216-1.096
		c-0.034-0.638,0.457-1.185,1.096-1.218C54.501,10.922,55.047,11.413,55.08,12.053"/>
	<path fill="#FFFFFF" d="M57.786,11.841c0.032,0.64-0.46,1.185-1.098,1.218c-0.64,0.033-1.185-0.458-1.217-1.096
		c-0.034-0.639,0.457-1.185,1.097-1.219C57.208,10.71,57.753,11.202,57.786,11.841"/>
	<path fill="#FFFFFF" d="M60.82,11.631c0.032,0.64-0.459,1.185-1.098,1.217c-0.64,0.034-1.185-0.456-1.217-1.096
		c-0.032-0.638,0.457-1.185,1.097-1.219C60.242,10.502,60.787,10.992,60.82,11.631"/>
	<path fill="#FFFFFF" d="M64.18,11.421c0.034,0.639-0.457,1.184-1.096,1.217c-0.641,0.034-1.186-0.456-1.218-1.096
		c-0.033-0.64,0.457-1.185,1.098-1.219C63.603,10.29,64.148,10.782,64.18,11.421"/>
	<path fill="#FFFFFF" d="M71.886,11c0.032,0.64-0.459,1.185-1.1,1.217c-0.64,0.034-1.185-0.456-1.216-1.096
		c-0.033-0.638,0.456-1.185,1.096-1.218C71.307,9.869,71.852,10.361,71.886,11"/>
	<path fill="#FFFFFF" d="M55.064,14.83c0,0.641-0.518,1.16-1.16,1.16c-0.641,0-1.158-0.519-1.158-1.16
		c0-0.639,0.517-1.158,1.158-1.158C54.546,13.671,55.064,14.19,55.064,14.83"/>
	<path fill="#FFFFFF" d="M60.815,14.83c0,0.641-0.518,1.159-1.16,1.159c-0.641,0-1.158-0.518-1.158-1.159
		c0-0.639,0.517-1.158,1.158-1.158C60.298,13.671,60.815,14.19,60.815,14.83"/>
	<path fill="#FFFFFF" d="M67.877,14.83c0,0.641-0.518,1.16-1.16,1.16c-0.642,0-1.159-0.519-1.159-1.16
		c0-0.64,0.517-1.158,1.159-1.158C67.359,13.671,67.877,14.189,67.877,14.83"/>
	<path fill="#FFFFFF" d="M71.898,14.83c0,0.641-0.518,1.16-1.16,1.16c-0.641,0-1.158-0.519-1.158-1.16
		c0-0.64,0.517-1.158,1.158-1.158C71.38,13.671,71.898,14.189,71.898,14.83"/>
	<path fill="#FFFFFF" d="M76.285,14.83c0,0.662-0.536,1.199-1.2,1.199c-0.66,0-1.196-0.537-1.196-1.199
		c0-0.662,0.536-1.199,1.196-1.199C75.75,13.631,76.285,14.168,76.285,14.83"/>
	<path fill="#FFFFFF" d="M57.786,17.818c-0.033,0.64-0.578,1.13-1.218,1.096c-0.64-0.033-1.132-0.579-1.096-1.217
		c0.031-0.64,0.576-1.13,1.214-1.097C57.327,16.633,57.818,17.179,57.786,17.818"/>
	<path fill="#FFFFFF" d="M60.82,18.028c-0.033,0.64-0.578,1.13-1.218,1.097c-0.64-0.034-1.129-0.58-1.097-1.218
		c0.032-0.64,0.577-1.132,1.217-1.097C60.362,16.843,60.852,17.389,60.82,18.028"/>
	<path fill="#FFFFFF" d="M64.18,18.238c-0.032,0.641-0.577,1.132-1.216,1.097c-0.641-0.033-1.132-0.58-1.098-1.218
		c0.032-0.639,0.577-1.13,1.218-1.097C63.723,17.055,64.215,17.6,64.18,18.238"/>
	<path fill="#FFFFFF" d="M67.87,18.449c-0.033,0.64-0.579,1.13-1.218,1.096c-0.64-0.033-1.13-0.579-1.097-1.218
		c0.032-0.639,0.577-1.129,1.218-1.095C67.41,17.265,67.902,17.81,67.87,18.449"/>
	<path fill="#FFFFFF" d="M71.886,18.659c-0.034,0.641-0.579,1.132-1.218,1.097c-0.641-0.033-1.13-0.58-1.097-1.218
		c0.031-0.64,0.576-1.13,1.216-1.097C71.427,17.475,71.918,18.021,71.886,18.659"/>
	<path fill="#FFFFFF" d="M76.268,18.873c-0.034,0.661-0.6,1.169-1.26,1.134c-0.661-0.034-1.171-0.598-1.135-1.259
		c0.034-0.662,0.597-1.169,1.261-1.134C75.795,17.647,76.301,18.211,76.268,18.873"/>
	<path fill="#FFFFFF" d="M55.125,20.387c-0.069,0.638-0.637,1.097-1.275,1.031c-0.636-0.067-1.1-0.636-1.031-1.272
		c0.065-0.638,0.637-1.1,1.274-1.033C54.729,19.181,55.193,19.751,55.125,20.387"/>
	<path fill="#FFFFFF" d="M57.815,20.807c-0.069,0.638-0.637,1.097-1.274,1.031c-0.636-0.067-1.101-0.636-1.032-1.272
		c0.065-0.638,0.637-1.1,1.274-1.032C57.418,19.601,57.883,20.172,57.815,20.807"/>
	<path fill="#FFFFFF" d="M64.178,21.648c-0.07,0.636-0.637,1.099-1.274,1.032c-0.637-0.067-1.101-0.638-1.032-1.273
		c0.065-0.638,0.637-1.1,1.274-1.032C63.782,20.441,64.244,21.012,64.178,21.648"/>
	<path fill="#FFFFFF" d="M67.848,22.069c-0.068,0.636-0.636,1.099-1.271,1.031c-0.637-0.066-1.102-0.636-1.032-1.272
		c0.064-0.639,0.636-1.1,1.274-1.033C67.455,20.862,67.917,21.432,67.848,22.069"/>
	<path fill="#FFFFFF" d="M76.214,22.913c-0.07,0.658-0.66,1.135-1.316,1.067c-0.66-0.069-1.136-0.659-1.069-1.317
		c0.071-0.66,0.66-1.136,1.32-1.067C75.804,21.665,76.284,22.255,76.214,22.913"/>
</g>
</svg>
