<?xml version="1.0" encoding="utf-8"?>
<!-- Generator: Adobe Illustrator 17.0.0, SVG Export Plug-In . SVG Version: 6.00 Build 0)  -->
<!DOCTYPE svg PUBLIC "-//W3C//DTD SVG 1.1//EN" "http://www.w3.org/Graphics/SVG/1.1/DTD/svg11.dtd">
<svg version="1.1" id="Layer_1" xmlns="http://www.w3.org/2000/svg" xmlns:xlink="http://www.w3.org/1999/xlink" x="0px" y="0px"
	 width="80px" height="38.095px" viewBox="0 0 80 38.095" enable-background="new 0 0 80 38.095" xml:space="preserve">
<g>
	<path fill="#FFFFFF" d="M15.388,14.742c0.129,0,0.265,0.026,0.396,0.072c0.124,0.059,0.245,0.129,0.334,0.222
		c0.107,0.097,0.178,0.212,0.237,0.349c0.065,0.146,0.093,0.293,0.093,0.46v0.881c0,0.179-0.029,0.346-0.083,0.472
		c-0.06,0.141-0.139,0.261-0.239,0.348c-0.097,0.105-0.207,0.167-0.343,0.217c-0.119,0.053-0.262,0.083-0.39,0.081l-7.184,0.002
		l0.008,1.999H7.088l-0.006-5.092L15.388,14.742z M8.209,15.865v0.873l6.709-0.01c0.103,0,0.196-0.027,0.281-0.079
		c0.091-0.045,0.127-0.145,0.127-0.282v-0.114c0-0.145-0.036-0.25-0.12-0.308c-0.075-0.056-0.171-0.093-0.293-0.086L8.209,15.865z"
		/>
	<path fill="#FFFFFF" d="M25.804,14.729c0.13,0,0.261,0.025,0.395,0.073c0.129,0.051,0.245,0.129,0.35,0.224
		c0.091,0.086,0.171,0.205,0.226,0.343c0.065,0.148,0.089,0.301,0.089,0.468l0.007,0.874c0,0.303-0.08,0.546-0.232,0.725
		c-0.146,0.183-0.339,0.302-0.563,0.36l0.808,2.03h-1.144l-0.898-1.99l-6.209,0.005v1.994l-1.131,0.007l-0.003-5.104L25.804,14.729z
		 M18.626,15.852l0.004,0.875l6.713-0.017c0.114,0,0.195-0.013,0.276-0.066c0.076-0.041,0.122-0.144,0.122-0.282v-0.111
		c0.005-0.153-0.036-0.248-0.114-0.317c-0.07-0.063-0.169-0.089-0.291-0.098L18.626,15.852z"/>
	<polygon fill="#FFFFFF" points="29.051,18.708 37.286,18.688 37.286,19.806 27.926,19.818 27.919,14.719 37.286,14.702 
		37.286,15.815 29.039,15.836 29.047,16.705 37.286,16.689 37.286,17.802 29.047,17.818 	"/>
	<path fill="#FFFFFF" d="M44.134,19.796h-1.131v-3.99l-3.148,0.009c-0.142,0-0.242,0.045-0.303,0.131
		c-0.059,0.091-0.091,0.205-0.091,0.348l0.005,3.512h-1.12l-0.01-3.96c0-0.181,0.026-0.344,0.084-0.482
		c0.059-0.152,0.143-0.267,0.24-0.364c0.093-0.091,0.211-0.167,0.338-0.224c0.127-0.048,0.258-0.08,0.397-0.074l8.334-0.017
		c0.137,0,0.275,0.034,0.395,0.083c0.127,0.05,0.242,0.129,0.347,0.227c0.091,0.102,0.171,0.221,0.233,0.364
		c0.058,0.143,0.089,0.293,0.089,0.462l0.01,3.97l-1.131,0.004V16.28c0-0.141-0.03-0.255-0.098-0.345
		c-0.065-0.089-0.162-0.129-0.291-0.129h-3.154L44.134,19.796z"/>
	<polygon fill="#FFFFFF" points="50.99,19.785 49.851,19.785 49.839,14.685 50.983,14.678 	"/>
	<path fill="#FFFFFF" d="M59.884,18.655c0.1,0,0.196-0.048,0.274-0.133c0.078-0.083,0.123-0.203,0.123-0.342l-0.005-3.517H61.4
		l0.005,3.991c0,0.181-0.029,0.338-0.087,0.471c-0.061,0.144-0.14,0.257-0.232,0.353c-0.104,0.09-0.213,0.169-0.342,0.209
		c-0.143,0.057-0.269,0.084-0.4,0.084l-7.227,0.01c-0.145,0.002-0.286-0.027-0.412-0.067c-0.125-0.051-0.241-0.127-0.339-0.217
		c-0.095-0.096-0.175-0.215-0.234-0.348c-0.059-0.137-0.097-0.301-0.097-0.479l-0.005-3.985l1.125-0.007l0.013,3.512
		c-0.008,0.15,0.033,0.257,0.104,0.347c0.074,0.086,0.151,0.127,0.26,0.127L59.884,18.655z"/>
	<path fill="#FFFFFF" d="M68.241,19.756l-1.117,0.008l-0.006-3.987h-3.153c-0.135,0-0.24,0.038-0.293,0.136
		c-0.064,0.081-0.091,0.196-0.091,0.339l0.004,3.512l-1.126,0.009L62.454,15.8c0-0.174,0.029-0.331,0.086-0.482
		c0.058-0.143,0.143-0.262,0.24-0.358c0.095-0.088,0.207-0.162,0.329-0.219c0.13-0.057,0.265-0.078,0.405-0.078l8.33-0.02
		c0.143,0,0.269,0.027,0.408,0.084c0.121,0.054,0.232,0.129,0.334,0.229c0.104,0.105,0.175,0.234,0.235,0.362
		c0.056,0.15,0.093,0.301,0.093,0.468l0.003,3.962l-1.131-0.002v-3.512c-0.005-0.136-0.036-0.249-0.098-0.339
		c-0.071-0.09-0.163-0.131-0.296-0.127H68.24L68.241,19.756z"/>
	<path fill="#FFFFFF" d="M13.386,26.365l7.847-0.009c0.105,0,0.196-0.028,0.271-0.091c0.089-0.071,0.127-0.176,0.127-0.313
		l-0.005-0.089c0-0.145-0.029-0.255-0.093-0.308c-0.073-0.05-0.164-0.083-0.293-0.075l-6.8,0.007c-0.284,0-0.53-0.1-0.736-0.284
		c-0.203-0.2-0.317-0.476-0.317-0.831v-0.868c0-0.362,0.1-0.636,0.312-0.829c0.212-0.196,0.458-0.296,0.742-0.296l8.304-0.014
		l0.011,1.123l-7.848,0.016c-0.123,0-0.226,0.014-0.29,0.074c-0.074,0.052-0.098,0.149-0.098,0.293l-0.006,0.096
		c0.006,0.143,0.047,0.243,0.116,0.309c0.087,0.063,0.178,0.091,0.278,0.1l6.796-0.019c0.275,0,0.52,0.103,0.74,0.303
		c0.202,0.2,0.312,0.485,0.312,0.827v0.87c0,0.355-0.11,0.629-0.308,0.83c-0.217,0.193-0.458,0.277-0.739,0.286l-8.322,0.017V26.365
		z"/>
	<polygon fill="#FFFFFF" points="24.931,26.356 33.178,26.343 33.178,27.458 23.811,27.472 23.805,22.366 33.166,22.355 
		33.166,23.466 24.926,23.476 24.931,24.357 33.166,24.338 33.166,25.458 24.931,25.472 	"/>
	<path fill="#FFFFFF" d="M42.522,22.339c0.126-0.01,0.259,0.019,0.39,0.074c0.133,0.056,0.248,0.128,0.34,0.226
		c0.098,0.094,0.188,0.205,0.236,0.352c0.072,0.131,0.098,0.286,0.098,0.458v0.874c0,0.302-0.077,0.535-0.234,0.724
		c-0.142,0.19-0.328,0.302-0.554,0.358l0.805,2.028l-1.14,0.009l-0.9-1.997l-6.217,0.012v1.989l-1.117,0.008l-0.008-5.102
		L42.522,22.339z M35.346,23.458v0.87h6.712c0.11,0,0.206-0.026,0.288-0.076c0.077-0.041,0.117-0.132,0.117-0.276v-0.11
		c0-0.149-0.04-0.257-0.117-0.322c-0.066-0.069-0.163-0.088-0.297-0.094L35.346,23.458z"/>
	<polygon fill="#FFFFFF" points="45.785,27.433 44.641,27.433 44.64,22.329 45.773,22.329 	"/>
	<polygon fill="#FFFFFF" points="47.956,26.315 56.199,26.297 56.199,27.415 46.839,27.427 46.816,22.329 56.192,22.308 
		56.192,23.43 47.952,23.448 47.952,24.317 56.199,24.303 56.192,25.416 47.956,25.43 	"/>
	<path fill="#FFFFFF" d="M57.247,26.306l7.842-0.017c0.105,0,0.19-0.031,0.278-0.096c0.074-0.061,0.12-0.164,0.12-0.302v-0.088
		c0-0.153-0.034-0.26-0.101-0.318c-0.071-0.057-0.162-0.08-0.286-0.08l-6.805,0.009c-0.284,0-0.52-0.095-0.739-0.286
		c-0.205-0.199-0.31-0.471-0.31-0.818l-0.001-0.881c0-0.358,0.098-0.632,0.311-0.825c0.207-0.2,0.455-0.298,0.736-0.298l8.309-0.009
		v1.11l-7.841,0.022c-0.134,0-0.232,0.026-0.294,0.074c-0.067,0.052-0.097,0.157-0.097,0.303v0.092c0,0.146,0.038,0.241,0.126,0.301
		c0.074,0.069,0.169,0.103,0.276,0.098l6.782-0.014c0.284,0,0.537,0.102,0.744,0.314c0.207,0.2,0.307,0.472,0.307,0.818l0.01,0.874
		c0,0.352-0.097,0.631-0.315,0.831c-0.207,0.181-0.459,0.284-0.738,0.284l-8.314,0.01V26.306z"/>
</g>
</svg>
