<?xml version="1.0" encoding="utf-8"?>
<!-- Generator: Adobe Illustrator 17.0.0, SVG Export Plug-In . SVG Version: 6.00 Build 0)  -->
<!DOCTYPE svg PUBLIC "-//W3C//DTD SVG 1.1//EN" "http://www.w3.org/Graphics/SVG/1.1/DTD/svg11.dtd">
<svg version="1.1" id="Layer_1" xmlns="http://www.w3.org/2000/svg" xmlns:xlink="http://www.w3.org/1999/xlink" x="0px" y="0px"
	 width="80px" height="38.095px" viewBox="0 0 80 38.095" enable-background="new 0 0 80 38.095" xml:space="preserve">
<g>
	<path fill="#DCAF27" d="M13.518,14.262c0.139,0,0.285,0.028,0.426,0.077c0.133,0.064,0.264,0.139,0.36,0.239
		c0.115,0.105,0.191,0.228,0.255,0.376c0.069,0.157,0.1,0.315,0.1,0.495v0.948c0,0.192-0.031,0.372-0.089,0.508
		c-0.065,0.151-0.149,0.281-0.257,0.375c-0.105,0.113-0.223,0.18-0.369,0.233c-0.128,0.057-0.282,0.09-0.42,0.087l-7.73,0.002
		l0.009,2.151H4.589l-0.007-5.479L13.518,14.262z M5.795,15.47v0.94l7.218-0.011c0.11,0,0.211-0.029,0.303-0.085
		c0.098-0.049,0.137-0.156,0.137-0.303v-0.123c0-0.156-0.039-0.269-0.129-0.331c-0.081-0.06-0.184-0.1-0.315-0.092L5.795,15.47z"/>
	<path fill="#DCAF27" d="M24.725,14.248c0.14,0,0.281,0.027,0.425,0.078c0.139,0.054,0.264,0.139,0.377,0.241
		c0.098,0.092,0.184,0.221,0.244,0.369c0.069,0.159,0.096,0.324,0.096,0.503l0.008,0.94c0,0.326-0.087,0.588-0.249,0.78
		c-0.157,0.197-0.364,0.325-0.606,0.387l0.87,2.184h-1.231l-0.967-2.141l-6.681,0.005v2.146l-1.217,0.008l-0.003-5.492
		L24.725,14.248z M17.003,15.456l0.005,0.942l7.223-0.018c0.123,0,0.209-0.014,0.297-0.071c0.082-0.044,0.131-0.155,0.131-0.304
		v-0.12c0.006-0.165-0.039-0.267-0.123-0.341c-0.075-0.067-0.182-0.096-0.313-0.106L17.003,15.456z"/>
	<polygon fill="#DCAF27" points="28.219,18.529 37.079,18.508 37.079,19.711 27.009,19.724 27.001,14.237 37.079,14.219 
		37.079,15.416 28.207,15.439 28.215,16.374 37.079,16.357 37.079,17.554 28.215,17.572 	"/>
	<path fill="#DCAF27" d="M44.447,19.7H43.23v-4.293l-3.387,0.009c-0.153,0-0.261,0.049-0.326,0.141
		c-0.064,0.098-0.098,0.221-0.098,0.375l0.006,3.779h-1.205l-0.01-4.261c0-0.195,0.028-0.37,0.09-0.518
		c0.064-0.163,0.154-0.287,0.258-0.391c0.1-0.098,0.227-0.18,0.363-0.241c0.137-0.051,0.278-0.086,0.427-0.08l8.967-0.018
		c0.147,0,0.296,0.036,0.425,0.09c0.137,0.054,0.261,0.139,0.373,0.244c0.098,0.11,0.184,0.238,0.25,0.391
		c0.063,0.154,0.096,0.316,0.096,0.498l0.01,4.272L48.254,19.7v-3.783c0-0.151-0.032-0.275-0.106-0.371
		c-0.069-0.096-0.174-0.139-0.313-0.139h-3.394L44.447,19.7z"/>
	<polygon fill="#DCAF27" points="51.824,19.687 50.599,19.687 50.587,14.201 51.817,14.193 	"/>
	<path fill="#DCAF27" d="M61.394,18.472c0.108,0,0.211-0.051,0.295-0.143c0.084-0.09,0.132-0.218,0.132-0.367l-0.006-3.784h1.209
		l0.006,4.295c0,0.195-0.031,0.364-0.093,0.507c-0.066,0.155-0.15,0.277-0.249,0.38c-0.112,0.097-0.229,0.182-0.368,0.225
		c-0.154,0.062-0.289,0.09-0.43,0.09l-7.776,0.011c-0.156,0.002-0.307-0.029-0.443-0.072c-0.134-0.055-0.26-0.137-0.364-0.233
		c-0.102-0.103-0.188-0.231-0.252-0.375c-0.064-0.148-0.105-0.324-0.105-0.516l-0.006-4.288l1.21-0.008l0.014,3.779
		c-0.009,0.162,0.035,0.277,0.112,0.374c0.08,0.092,0.163,0.137,0.28,0.137L61.394,18.472z"/>
	<path fill="#DCAF27" d="M70.386,19.656l-1.202,0.008l-0.007-4.29h-3.393c-0.146,0-0.258,0.041-0.315,0.147
		c-0.068,0.087-0.098,0.211-0.098,0.365l0.005,3.779l-1.211,0.01l-0.005-4.274c0-0.187,0.031-0.356,0.092-0.518
		c0.063-0.153,0.154-0.282,0.258-0.385c0.102-0.095,0.223-0.174,0.354-0.236c0.14-0.062,0.285-0.084,0.436-0.084l8.963-0.022
		c0.154,0,0.289,0.029,0.439,0.091c0.13,0.058,0.249,0.139,0.36,0.246c0.112,0.113,0.188,0.251,0.253,0.389
		c0.06,0.162,0.1,0.324,0.1,0.503l0.003,4.263l-1.217-0.002v-3.779c-0.006-0.147-0.039-0.268-0.106-0.365
		c-0.076-0.097-0.175-0.141-0.319-0.136h-3.392L70.386,19.656z"/>
	<path fill="#DCAF27" d="M11.364,26.768l8.443-0.01c0.113,0,0.211-0.031,0.291-0.098c0.096-0.076,0.137-0.189,0.137-0.337
		l-0.006-0.096c0-0.156-0.031-0.275-0.1-0.331c-0.079-0.054-0.176-0.089-0.315-0.081l-7.316,0.007c-0.305,0-0.57-0.107-0.792-0.305
		c-0.219-0.215-0.342-0.513-0.342-0.894V23.69c0-0.39,0.108-0.684,0.336-0.892c0.228-0.211,0.493-0.319,0.798-0.319l8.934-0.015
		l0.011,1.208L13,23.69c-0.132,0-0.244,0.016-0.312,0.079c-0.08,0.056-0.106,0.161-0.106,0.315l-0.007,0.103
		c0.007,0.153,0.05,0.262,0.125,0.332c0.093,0.067,0.191,0.098,0.299,0.108l7.312-0.021c0.296,0,0.559,0.111,0.796,0.326
		c0.217,0.215,0.336,0.521,0.336,0.889v0.936c0,0.382-0.118,0.677-0.331,0.893c-0.233,0.208-0.493,0.298-0.795,0.307l-8.954,0.018
		V26.768z"/>
	<polygon fill="#DCAF27" points="23.786,26.758 32.66,26.743 32.66,27.943 22.582,27.958 22.575,22.464 32.648,22.453 
		32.648,23.648 23.782,23.659 23.786,24.607 32.648,24.587 32.648,25.792 23.786,25.807 	"/>
	<path fill="#DCAF27" d="M42.713,22.436c0.136-0.011,0.279,0.021,0.42,0.079c0.143,0.061,0.266,0.138,0.365,0.243
		c0.106,0.101,0.203,0.22,0.254,0.379c0.077,0.141,0.106,0.307,0.106,0.493v0.941c0,0.325-0.083,0.576-0.252,0.779
		c-0.153,0.205-0.353,0.325-0.597,0.385l0.866,2.181l-1.226,0.01l-0.969-2.148l-6.689,0.013v2.14l-1.202,0.008l-0.009-5.489
		L42.713,22.436z M34.993,23.64v0.936h7.222c0.118,0,0.222-0.028,0.31-0.082c0.083-0.044,0.126-0.142,0.126-0.297v-0.118
		c0-0.161-0.043-0.277-0.126-0.346c-0.071-0.074-0.175-0.095-0.32-0.101L34.993,23.64z"/>
	<polygon fill="#DCAF27" points="46.224,27.916 44.993,27.916 44.992,22.425 46.212,22.425 	"/>
	<polygon fill="#DCAF27" points="48.56,26.714 57.43,26.694 57.43,27.897 47.358,27.91 47.334,22.425 57.422,22.403 57.422,23.61 
		48.556,23.628 48.556,24.563 57.43,24.548 57.422,25.747 48.56,25.761 	"/>
	<path fill="#DCAF27" d="M58.557,26.704l8.438-0.018c0.113,0,0.205-0.033,0.299-0.103c0.08-0.066,0.129-0.176,0.129-0.325v-0.095
		c0-0.165-0.036-0.28-0.108-0.342c-0.076-0.061-0.174-0.086-0.307-0.086l-7.322,0.01c-0.305,0-0.559-0.102-0.795-0.307
		c-0.221-0.214-0.334-0.506-0.334-0.88l-0.001-0.948c0-0.385,0.106-0.68,0.335-0.888c0.223-0.215,0.49-0.32,0.792-0.32l8.94-0.01
		v1.194l-8.437,0.024c-0.145,0-0.249,0.028-0.317,0.079c-0.072,0.056-0.105,0.168-0.105,0.326v0.099c0,0.157,0.041,0.26,0.136,0.324
		c0.08,0.074,0.182,0.111,0.297,0.106l7.297-0.016c0.305,0,0.577,0.11,0.8,0.338c0.223,0.215,0.33,0.508,0.33,0.88l0.01,0.941
		c0,0.379-0.105,0.679-0.339,0.894c-0.223,0.195-0.494,0.305-0.794,0.305l-8.946,0.011V26.704z"/>
</g>
</svg>
