<?xml version="1.0" encoding="utf-8"?>
<!-- Generator: Adobe Illustrator 17.0.0, SVG Export Plug-In . SVG Version: 6.00 Build 0)  -->
<!DOCTYPE svg PUBLIC "-//W3C//DTD SVG 1.1//EN" "http://www.w3.org/Graphics/SVG/1.1/DTD/svg11.dtd">
<svg version="1.1" id="Layer_1" xmlns="http://www.w3.org/2000/svg" xmlns:xlink="http://www.w3.org/1999/xlink" x="0px" y="0px"
	 width="80px" height="38.095px" viewBox="0 0 80 38.095" enable-background="new 0 0 80 38.095" xml:space="preserve">
<g>
	<path fill="#FFFFFF" d="M62.556,30.724c-0.645,0-1.174-0.521-1.174-1.175V16.984l-5.66-3.176l-5.675,3.176v11.401h7.386v-7.441
		l-1.711-1.085l-1.705,1.085v4.741c0,0.638-0.525,1.166-1.173,1.166c-0.643,0-1.179-0.528-1.179-1.166v-5.373
		c0-0.405,0.216-0.773,0.547-0.987l2.873-1.848c0.389-0.237,0.874-0.237,1.267,0l2.882,1.848c0.327,0.214,0.529,0.582,0.529,0.987
		v9.237c0,0.654-0.519,1.175-1.166,1.175h-9.715c-0.648,0-1.171-0.521-1.171-1.175V16.789c0-0.396,0.204-0.769,0.54-0.985
		l6.835-4.374c0.389-0.245,0.874-0.245,1.267,0l6.836,4.374c0.331,0.216,0.532,0.589,0.532,0.985v12.759
		C63.721,30.203,63.205,30.724,62.556,30.724 M52.22,25.6c0,0.348,0.274,0.614,0.625,0.614c0.344,0,0.617-0.266,0.617-0.614
		c0-0.343-0.273-0.621-0.617-0.621C52.495,24.979,52.22,25.257,52.22,25.6 M61.939,29.549c0,0.35,0.27,0.628,0.617,0.628
		c0.344,0,0.623-0.278,0.623-0.628c0-0.346-0.28-0.61-0.623-0.61C62.209,28.939,61.939,29.203,61.939,29.549"/>
	<g>
		<path fill="#FFFFFF" d="M12.863,30.194v-1.288c0.353,0.246,0.704,0.42,1.041,0.549c0.343,0.118,0.645,0.187,0.926,0.187
			c0.313,0,0.551-0.057,0.722-0.172c0.184-0.12,0.264-0.268,0.264-0.469c0-0.256-0.323-0.545-0.984-0.875
			c-0.192-0.083-0.341-0.173-0.437-0.231c-0.568-0.288-0.954-0.563-1.159-0.831c-0.209-0.264-0.31-0.594-0.31-0.978
			c0-0.509,0.175-0.914,0.536-1.206c0.365-0.295,0.856-0.44,1.495-0.44c0.337,0,0.657,0.034,0.98,0.118
			c0.314,0.076,0.612,0.205,0.916,0.366v1.182c-0.372-0.203-0.709-0.353-1.017-0.45c-0.31-0.095-0.592-0.141-0.874-0.141
			c-0.248,0-0.444,0.035-0.587,0.124c-0.129,0.09-0.2,0.218-0.2,0.383c0,0.302,0.42,0.664,1.268,1.075l0.099,0.053
			c0.662,0.329,1.09,0.617,1.291,0.874c0.2,0.25,0.307,0.562,0.307,0.955c0,0.522-0.199,0.953-0.605,1.27
			c-0.392,0.323-0.923,0.476-1.579,0.476c-0.386,0-0.742-0.049-1.084-0.127C13.531,30.51,13.195,30.378,12.863,30.194"/>
		<path fill="#FFFFFF" d="M18.291,30.603v-6.035h1.202v0.741c0.298-0.285,0.597-0.495,0.897-0.63
			c0.29-0.141,0.611-0.205,0.963-0.205c0.44,0,0.809,0.083,1.106,0.246c0.305,0.166,0.555,0.424,0.758,0.772
			c0.37-0.368,0.716-0.62,1.043-0.789c0.331-0.153,0.67-0.23,1.033-0.23c0.658,0,1.181,0.19,1.564,0.569
			c0.377,0.379,0.569,0.904,0.569,1.565v3.994h-1.224v-3.696c0-0.486-0.098-0.859-0.301-1.08c-0.202-0.229-0.516-0.348-0.953-0.348
			c-0.316,0-0.592,0.058-0.823,0.185c-0.234,0.118-0.469,0.316-0.691,0.591v4.347h-1.169v-3.696c0-0.486-0.112-0.847-0.319-1.08
			c-0.204-0.229-0.529-0.348-0.96-0.348c-0.308,0-0.584,0.058-0.816,0.185c-0.229,0.118-0.461,0.316-0.677,0.591v4.347H18.291z"/>
		<path fill="#FFFFFF" d="M31.916,30.101c-0.294,0.222-0.589,0.372-0.854,0.47c-0.272,0.096-0.565,0.144-0.881,0.144
			c-0.548,0-0.963-0.131-1.274-0.393c-0.291-0.253-0.459-0.619-0.459-1.072c0-0.424,0.169-0.8,0.5-1.124
			c0.332-0.325,0.836-0.594,1.499-0.811l1.429-0.478l0.013-0.108v-0.142c0-0.372-0.087-0.625-0.265-0.779
			c-0.175-0.168-0.468-0.246-0.87-0.246c-0.335,0-0.686,0.074-1.044,0.215c-0.354,0.142-0.709,0.347-1.067,0.621v-1.184
			c0.305-0.25,0.654-0.446,1.036-0.575c0.386-0.118,0.794-0.192,1.225-0.192c0.772,0,1.339,0.181,1.697,0.517
			c0.352,0.342,0.53,0.893,0.53,1.654v2.563c0,0.214,0.016,0.356,0.052,0.451l0.182,0.133l0.231-0.061
			c0.088-0.037,0.216-0.131,0.404-0.274v0.73c-0.22,0.187-0.445,0.324-0.666,0.412c-0.218,0.096-0.448,0.144-0.688,0.144
			c-0.24,0-0.404-0.048-0.515-0.144C32.008,30.473,31.945,30.307,31.916,30.101 M31.876,29.383V27.6
			c-0.803,0.257-1.368,0.491-1.678,0.7c-0.306,0.217-0.456,0.459-0.456,0.751c0,0.244,0.078,0.437,0.234,0.571
			c0.168,0.135,0.386,0.214,0.671,0.214c0.216,0,0.426-0.048,0.633-0.122C31.48,29.641,31.684,29.525,31.876,29.383"/>
		<path fill="#FFFFFF" d="M34.715,30.603v-6.035h1.211v1.315c0.333-0.535,0.629-0.903,0.912-1.111
			c0.254-0.203,0.547-0.311,0.868-0.311c0.216,0,0.439,0.054,0.656,0.141c0.231,0.094,0.461,0.249,0.708,0.449l-0.647,1.073
			c-0.193-0.166-0.377-0.295-0.564-0.37c-0.169-0.075-0.357-0.113-0.559-0.113c-0.318,0-0.609,0.136-0.852,0.409
			c-0.251,0.275-0.419,0.659-0.521,1.145v3.41H34.715z"/>
		<path fill="#FFFFFF" d="M41.958,29.573c-0.311,0-0.525-0.072-0.638-0.203c-0.129-0.143-0.19-0.466-0.19-0.974v-2.761h1.89v-1.049
			h-1.89v-1.405h-0.134l-2.111,2.334v0.12h1.026v2.853c0,0.854,0.135,1.443,0.407,1.769c0.248,0.279,0.653,0.422,1.202,0.467h7.915
			v-1.152H41.958z"/>
		<path fill="#FFFFFF" d="M63.638,13.213c0,0.595-0.484,1.072-1.074,1.072c-0.589,0-1.075-0.477-1.075-1.072
			c0-0.593,0.486-1.072,1.075-1.072C63.154,12.14,63.638,12.62,63.638,13.213"/>
		<path fill="#FFFFFF" d="M65.131,10.626l-0.058-0.044l-0.046-0.041l-0.026-0.02c-1.39-1.272-3.513-1.225-4.84,0.105l-0.146,0.154
			l-0.22,0.219c-0.263,0.261-0.263,0.692,0,0.945c0.265,0.272,0.687,0.272,0.956,0l0.372-0.366c0.84-0.839,2.214-0.839,3.05,0
			l0.27,0.262c0.257,0.255,0.681,0.255,0.944,0c0.125-0.131,0.196-0.286,0.196-0.475c0-0.179-0.064-0.349-0.196-0.478L65.131,10.626
			z"/>
		<path fill="#FFFFFF" d="M66.955,9.295L66.738,9.08h-0.011l-0.174-0.185l-0.101-0.074c-2.262-1.992-5.701-1.929-7.892,0.177
			l-0.034,0.029l-0.408,0.405c-0.222,0.231-0.222,0.623,0.004,0.868c0.241,0.243,0.63,0.243,0.865,0l0.403-0.4l0.014-0.016
			c1.77-1.708,4.579-1.716,6.372-0.031l0.313,0.32c0.235,0.238,0.628,0.238,0.866,0C67.195,9.926,67.199,9.53,66.955,9.295"/>
		<path fill="#FFFFFF" d="M65.199,19.521c-0.209,0-0.424-0.059-0.618-0.185l-8.858-5.539l-8.868,5.539
			c-0.54,0.346-1.265,0.178-1.606-0.368c-0.338-0.552-0.178-1.271,0.366-1.611l9.484-5.935c0.384-0.236,0.859-0.236,1.234,0
			l9.493,5.935c0.538,0.34,0.711,1.058,0.366,1.611C65.974,19.324,65.588,19.521,65.199,19.521 M45.615,18.339
			c0,0.346,0.28,0.628,0.622,0.628c0.343,0,0.618-0.282,0.618-0.628c0-0.343-0.275-0.619-0.618-0.619
			C45.895,17.72,45.615,17.996,45.615,18.339 M64.582,18.339c0,0.346,0.283,0.628,0.622,0.628c0.338,0,0.617-0.282,0.617-0.628
			c0-0.343-0.278-0.619-0.617-0.619C64.864,17.72,64.582,17.996,64.582,18.339"/>
	</g>
</g>
</svg>
