<?xml version="1.0" encoding="utf-8"?>
<!-- Generator: Adobe Illustrator 22.0.1, SVG Export Plug-In . SVG Version: 6.00 Build 0)  -->
<svg version="1.1" id="Layer_1" xmlns="http://www.w3.org/2000/svg" xmlns:xlink="http://www.w3.org/1999/xlink" x="0px" y="0px"
	 viewBox="0 0 374 184.3" style="enable-background:new 0 0 374 184.3;" xml:space="preserve">
<style type="text/css">
	.Arched_x0020_Green{fill:url(#SVGID_1_);stroke:#FFFFFF;stroke-width:0.25;stroke-miterlimit:1;}
	.st0{fill:#F2F2F2;}
	.st1{fill:#333333;}
	.st2{fill:#FFFFFF;}
	.st3{fill:none;stroke:#FFFFFF;stroke-width:0.9921;stroke-linecap:round;}
	.st4{fill:none;stroke:#FFFFFF;stroke-width:0.7823;stroke-linecap:round;}
	.st5{fill:#EC1A3B;}
	.st6{fill:none;stroke:#C9CBCB;stroke-width:1.4173;}
	.st7{opacity:0.65;fill:#FFFFFF;}
	.st8{opacity:6.000000e-02;fill:#FFFFFF;}
	.st9{fill:#EC1B34;}
	.st10{opacity:0.65;fill:#ED1D35;}
	.st11{fill:#E6E7E8;}
	.st12{fill:#8D8989;}
	.st13{opacity:0.6;}
	.st14{opacity:0.3;fill:url(#SVGID_2_);}
	.st15{opacity:0.5;fill:url(#SVGID_3_);}
	.st16{opacity:0.5;fill:url(#SVGID_4_);}
	.st17{fill:none;stroke:#4D4D4F;stroke-width:0.9075;}
	.st18{fill:#4D4D4F;}
	.st19{fill:url(#SVGID_5_);}
	.st20{fill:url(#SVGID_6_);}
	.st21{fill:url(#SVGID_7_);}
	.st22{fill:url(#SVGID_8_);}
	.st23{fill:url(#SVGID_9_);}
	.st24{fill:url(#SVGID_10_);}
	.st25{fill:url(#SVGID_11_);}
	.st26{fill:url(#SVGID_12_);}
	.st27{fill:url(#SVGID_13_);}
	.st28{fill:url(#SVGID_14_);}
	.st29{fill:url(#SVGID_15_);}
	.st30{fill:url(#SVGID_16_);}
	.st31{fill:url(#SVGID_17_);}
	.st32{fill:url(#SVGID_18_);}
	.st33{fill:url(#SVGID_19_);}
	.st34{fill:url(#SVGID_20_);}
	.st35{fill:url(#SVGID_21_);}
	.st36{fill:url(#SVGID_22_);}
	.st37{fill:url(#SVGID_23_);}
	.st38{fill:url(#SVGID_24_);}
	.st39{fill:url(#SVGID_25_);}
	.st40{fill:url(#SVGID_26_);}
	.st41{fill:url(#SVGID_27_);}
	.st42{fill:url(#SVGID_28_);}
	.st43{fill:url(#SVGID_29_);}
	.st44{fill:url(#SVGID_30_);}
	.st45{fill:url(#SVGID_31_);}
	.st46{fill:url(#SVGID_32_);}
	.st47{fill:url(#SVGID_33_);}
	.st48{fill:url(#SVGID_34_);}
	.st49{fill:url(#SVGID_35_);}
	.st50{fill:url(#SVGID_36_);}
	.st51{opacity:0.3;fill:url(#SVGID_37_);}
	.st52{opacity:0.5;fill:url(#SVGID_38_);}
	.st53{opacity:0.5;fill:url(#SVGID_39_);}
	.st54{filter:url(#Adobe_OpacityMaskFilter);}
	.st55{opacity:0.35;mask:url(#SVGID_40_);fill:url(#SVGID_41_);}
	.st56{filter:url(#Adobe_OpacityMaskFilter_1_);}
	.st57{opacity:0.15;mask:url(#SVGID_42_);fill:url(#SVGID_43_);}
	.st58{fill:#FFF100;}
	.st59{fill:none;stroke:#4D4D4F;stroke-width:1.6834;}
	.st60{fill:url(#SVGID_44_);}
	.st61{fill:url(#SVGID_45_);}
	.st62{fill:url(#SVGID_46_);}
	.st63{fill:url(#SVGID_47_);}
	.st64{fill:url(#SVGID_48_);}
	.st65{fill:url(#SVGID_49_);}
	.st66{fill:url(#SVGID_50_);}
	.st67{fill:url(#SVGID_51_);}
	.st68{fill:url(#SVGID_52_);}
	.st69{fill:url(#SVGID_53_);}
	.st70{fill:url(#SVGID_54_);}
	.st71{fill:url(#SVGID_55_);}
	.st72{fill:url(#SVGID_56_);}
	.st73{fill:url(#SVGID_57_);}
	.st74{fill:url(#SVGID_58_);}
	.st75{fill:url(#SVGID_59_);}
	.st76{fill:url(#SVGID_60_);}
	.st77{fill:url(#SVGID_61_);}
	.st78{fill:url(#SVGID_62_);}
	.st79{fill:url(#SVGID_63_);}
	.st80{fill:url(#SVGID_64_);}
	.st81{fill:url(#SVGID_65_);}
	.st82{fill:url(#SVGID_66_);}
	.st83{fill:url(#SVGID_67_);}
	.st84{fill:url(#SVGID_68_);}
	.st85{fill:url(#SVGID_69_);}
	.st86{fill:url(#SVGID_70_);}
	.st87{fill:url(#SVGID_71_);}
	.st88{fill:url(#SVGID_72_);}
	.st89{fill:url(#SVGID_73_);}
	.st90{fill:url(#SVGID_74_);}
	.st91{fill:url(#SVGID_75_);}
	.st92{opacity:0.3;fill:url(#SVGID_76_);}
	.st93{opacity:0.5;fill:url(#SVGID_77_);}
	.st94{opacity:0.5;fill:url(#SVGID_78_);}
	.st95{filter:url(#Adobe_OpacityMaskFilter_2_);}
	.st96{opacity:0.35;mask:url(#SVGID_79_);fill:url(#SVGID_80_);}
	.st97{filter:url(#Adobe_OpacityMaskFilter_3_);}
	.st98{opacity:0.15;mask:url(#SVGID_81_);fill:url(#SVGID_82_);}
	.st99{fill:url(#SVGID_83_);}
	.st100{filter:url(#Adobe_OpacityMaskFilter_4_);}
	.st101{fill:url(#SVGID_85_);}
	.st102{fill:url(#SVGID_86_);}
	.st103{mask:url(#SVGID_84_);fill:#008C42;}
	.st104{fill:url(#SVGID_87_);}
	.st105{filter:url(#Adobe_OpacityMaskFilter_5_);}
	.st106{fill:url(#SVGID_89_);}
	.st107{fill:url(#SVGID_90_);}
	.st108{mask:url(#SVGID_88_);fill:#0066B2;}
	.st109{fill:url(#SVGID_91_);}
	.st110{filter:url(#Adobe_OpacityMaskFilter_6_);}
	.st111{fill:url(#SVGID_93_);}
	.st112{fill:url(#SVGID_94_);}
	.st113{mask:url(#SVGID_92_);fill:#EC1C24;}
	.st114{filter:url(#Adobe_OpacityMaskFilter_7_);}
	.st115{fill:url(#SVGID_96_);}
	.st116{opacity:0.9;mask:url(#SVGID_95_);}
	.st117{filter:url(#Adobe_OpacityMaskFilter_8_);}
	.st118{fill:url(#SVGID_98_);}
	.st119{mask:url(#SVGID_97_);}
	.st120{fill:url(#SVGID_99_);}
	.st121{fill:url(#SVGID_100_);}
	.st122{fill:url(#SVGID_101_);}
	.st123{fill:#231F20;}
	.st124{fill:#C61D23;}
	.st125{fill:#008C42;}
	.st126{fill:#0066B2;}
	.st127{fill:url(#SVGID_102_);}
	.st128{filter:url(#Adobe_OpacityMaskFilter_9_);}
	.st129{fill:url(#SVGID_104_);}
	.st130{fill:url(#SVGID_105_);}
	.st131{mask:url(#SVGID_103_);fill:#008C42;}
	.st132{fill:url(#SVGID_106_);}
	.st133{filter:url(#Adobe_OpacityMaskFilter_10_);}
	.st134{fill:url(#SVGID_108_);}
	.st135{fill:url(#SVGID_109_);}
	.st136{mask:url(#SVGID_107_);fill:#0066B2;}
	.st137{fill:url(#SVGID_110_);}
	.st138{filter:url(#Adobe_OpacityMaskFilter_11_);}
	.st139{fill:url(#SVGID_112_);}
	.st140{fill:url(#SVGID_113_);}
	.st141{mask:url(#SVGID_111_);fill:#EC1C24;}
	.st142{filter:url(#Adobe_OpacityMaskFilter_12_);}
	.st143{fill:url(#SVGID_115_);}
	.st144{opacity:0.9;mask:url(#SVGID_114_);}
	.st145{filter:url(#Adobe_OpacityMaskFilter_13_);}
	.st146{fill:url(#SVGID_117_);}
	.st147{mask:url(#SVGID_116_);}
	.st148{fill:url(#SVGID_118_);}
	.st149{fill:url(#SVGID_119_);}
	.st150{fill:url(#SVGID_120_);}
	.st151{fill:none;stroke:#4D4D4F;stroke-width:0.9701;}
	.st152{filter:url(#Adobe_OpacityMaskFilter_14_);}
	.st153{fill:url(#SVGID_122_);}
	.st154{mask:url(#SVGID_121_);}
	.st155{fill:none;stroke:#474748;stroke-width:0.3933;}
	.st156{fill:none;stroke:#4D4D4E;stroke-width:0.3728;}
	.st157{fill:none;stroke:#535354;stroke-width:0.3523;}
	.st158{fill:none;stroke:#59595B;stroke-width:0.3319;}
	.st159{fill:none;stroke:#5F5F61;stroke-width:0.3114;}
	.st160{fill:none;stroke:#656567;stroke-width:0.2909;}
	.st161{fill:none;stroke:#6B6B6D;stroke-width:0.2704;}
	.st162{fill:none;stroke:#717173;stroke-width:0.2499;}
	.st163{fill:none;stroke:#77787A;stroke-width:0.2294;}
	.st164{fill:none;stroke:#7C7E80;stroke-width:0.2089;}
	.st165{fill:none;stroke:#828486;stroke-width:0.1885;}
	.st166{fill:none;stroke:#888A8C;stroke-width:0.168;}
	.st167{fill:none;stroke:#8E9092;stroke-width:0.1475;}
	.st168{fill:none;stroke:#949698;stroke-width:0.127;}
	.st169{fill:none;stroke:#9A9C9F;stroke-width:0.1065;}
	.st170{fill:none;stroke:#A0A2A5;stroke-width:8.603600e-02;}
	.st171{fill:none;stroke:#A6A8AB;stroke-width:6.555100e-02;}
	.st172{filter:url(#Adobe_OpacityMaskFilter_15_);}
	.st173{fill:url(#SVGID_124_);}
	.st174{mask:url(#SVGID_123_);}
	.st175{fill:#474748;}
	.st176{fill:none;stroke:#333333;stroke-width:0.7767;}
	.st177{fill:url(#SVGID_125_);}
	.st178{filter:url(#Adobe_OpacityMaskFilter_16_);}
	.st179{fill:url(#SVGID_127_);}
	.st180{fill:url(#SVGID_128_);}
	.st181{mask:url(#SVGID_126_);fill:#008C42;}
	.st182{fill:url(#SVGID_129_);}
	.st183{filter:url(#Adobe_OpacityMaskFilter_17_);}
	.st184{fill:url(#SVGID_131_);}
	.st185{fill:url(#SVGID_132_);}
	.st186{mask:url(#SVGID_130_);fill:#0066B2;}
	.st187{fill:url(#SVGID_133_);}
	.st188{filter:url(#Adobe_OpacityMaskFilter_18_);}
	.st189{fill:url(#SVGID_135_);}
	.st190{fill:url(#SVGID_136_);}
	.st191{mask:url(#SVGID_134_);fill:#EC1C24;}
	.st192{filter:url(#Adobe_OpacityMaskFilter_19_);}
	.st193{fill:url(#SVGID_138_);}
	.st194{opacity:0.9;mask:url(#SVGID_137_);}
	.st195{filter:url(#Adobe_OpacityMaskFilter_20_);}
	.st196{fill:url(#SVGID_140_);}
	.st197{mask:url(#SVGID_139_);}
	.st198{fill:url(#SVGID_141_);}
	.st199{fill:url(#SVGID_142_);}
	.st200{fill:url(#SVGID_143_);}
	.st201{fill:#00828B;}
	.st202{fill:#EB008B;}
	.st203{fill:#98C93C;}
	.st204{fill:#DBAE27;}
	.st205{fill:#0DB04B;}
	.st206{fill:url(#SVGID_144_);}
	.st207{fill:url(#SVGID_145_);}
	.st208{fill:url(#SVGID_146_);}
	.st209{fill:url(#SVGID_147_);}
	.st210{fill:url(#SVGID_148_);}
	.st211{fill:url(#SVGID_149_);}
	.st212{fill:url(#SVGID_150_);}
	.st213{fill:#F9A51A;}
	.st214{opacity:0.5;fill:#C3132A;}
	.st215{opacity:0.1;fill:#C3132A;}
	.st216{fill:#8A8A8B;}
	.st217{fill:none;}
	.st218{fill:#ED1D35;}
</style>
<linearGradient id="SVGID_1_" gradientUnits="userSpaceOnUse" x1="-1176.6666" y1="-214.4437" x2="-1175.9596" y2="-215.1508">
	<stop  offset="0" style="stop-color:#1EAB4B"/>
	<stop  offset="0.9831" style="stop-color:#19361A"/>
</linearGradient>
<g>
	<g>
		<defs>
			<filter id="Adobe_OpacityMaskFilter" filterUnits="userSpaceOnUse" x="0.9" y="0.5" width="189.9" height="183">
				
					<feColorMatrix  type="matrix" values="-1 0 0 0 1  0 -1 0 0 1  0 0 -1 0 1  0 0 0 1 0" color-interpolation-filters="sRGB" result="source"/>
				<feFlood  style="flood-color:white;flood-opacity:1" result="back"/>
				<feBlend  in="source" in2="back" mode="normal"/>
			</filter>
		</defs>
		<mask maskUnits="userSpaceOnUse" x="0.9" y="0.5" width="189.9" height="183" id="SVGID_2_">
			<g class="st54">
				<linearGradient id="SVGID_3_" gradientUnits="userSpaceOnUse" x1="104.6868" y1="103.8758" x2="220.094" y2="103.8758">
					<stop  offset="0" style="stop-color:#FFFFFF;stop-opacity:0"/>
					<stop  offset="0.6121" style="stop-color:#FFFFFF"/>
				</linearGradient>
				<rect x="104.7" y="-8.6" style="fill:url(#SVGID_3_);" width="115.4" height="224.9"/>
			</g>
		</mask>
		<g style="mask:url(#SVGID_2_);">
			<g>
				<path class="st155" d="M150.1,72.7c1.4-4.9,2.2-10.1,2.2-15.5c0-31.2-25.2-56.5-56.5-56.5C64.7,0.7,39.4,26,39.4,57.2
					c0,5.4,0.8,10.5,2.2,15.5c5.1-1.5,10.4-2.3,15.9-2.3c14.8,0,28.2,5.7,38.3,15.1c10.1-9.4,23.5-15.1,38.3-15.1
					C139.8,70.4,145.1,71.2,150.1,72.7c-5.3,18.6-19.6,33.2-38.3,38.6l0.1,0c1.4,4.9,2.2,10.2,2.2,15.5c0,16.4-7,31.1-18.1,41.5
					c10.1,9.3,23.5,15,38.2,15c31.2,0,56.5-25.3,56.5-56.5C190.6,101.3,173.5,79.6,150.1,72.7z"/>
				<path class="st155" d="M77.7,126.9c0-5.4,0.8-10.6,2.2-15.6l0,0c-18.6-5.4-33.1-20-38.4-38.6c-23.4,6.9-40.4,28.6-40.4,54.2
					c0,31.2,25.3,56.5,56.5,56.5c14.8,0,28.2-5.7,38.2-15C84.6,158,77.7,143.3,77.7,126.9z"/>
			</g>
			<g>
				<path class="st156" d="M148.1,73.4c1.4-4.8,2.1-9.7,2.1-14.9c0-30-24.3-54.3-54.4-54.3c-29.9,0-54.4,24.3-54.4,54.3
					c0,5.2,0.8,10.2,2.1,14.9c4.9-1.4,10-2.2,15.3-2.2c14.3,0,27.2,5.5,36.9,14.5c9.7-9,22.7-14.5,36.9-14.5
					C138.1,71.2,143.3,72,148.1,73.4c-5.1,17.9-18.9,32-36.9,37.2l0.1,0c1.3,4.7,2.1,9.8,2.1,15c0,15.8-6.7,30-17.4,39.9
					c9.7,8.9,22.6,14.5,36.8,14.5c30.1,0,54.4-24.3,54.4-54.4C187,101,170.6,80.1,148.1,73.4z"/>
				<path class="st156" d="M78.3,125.6c0-5.2,0.7-10.2,2.1-15l0,0c-17.9-5.2-31.8-19.3-37-37.1C21,80.1,4.6,101,4.6,125.6
					C4.6,155.6,29,180,59,180c14.2,0,27.1-5.5,36.8-14.5C85.1,155.6,78.3,141.4,78.3,125.6z"/>
			</g>
			<g>
				<path class="st157" d="M146,74.2c1.3-4.6,2.1-9.4,2.1-14.4c0-28.9-23.4-52.2-52.3-52.2c-28.8,0-52.3,23.4-52.3,52.2
					c0,5,0.7,9.8,2,14.3c4.7-1.4,9.6-2.1,14.7-2.1c13.7,0,26.1,5.3,35.5,14c9.3-8.7,21.8-14,35.5-14C136.5,72,141.4,72.8,146,74.2
					c-4.9,17.2-18.2,30.8-35.5,35.7l0.1,0c1.3,4.6,2,9.4,2,14.4c0,15.1-6.5,28.8-16.8,38.4c9.3,8.6,21.7,13.9,35.4,13.9
					c28.9,0,52.3-23.4,52.3-52.3C183.5,100.6,167.7,80.6,146,74.2z"/>
				<path class="st157" d="M79,124.3c0-5,0.7-9.8,2-14.4l0,0c-17.2-5-30.6-18.5-35.5-35.7c-21.6,6.4-37.4,26.5-37.4,50.1
					c0,28.9,23.4,52.3,52.3,52.3c13.7,0,26.1-5.3,35.4-13.9C85.5,153.1,79,139.4,79,124.3z"/>
			</g>
			<g>
				<path class="st158" d="M144,74.9c1.3-4.4,2-9,2-13.8C146,33.4,123.6,11,95.8,11c-27.6,0-50.1,22.4-50.1,50.1
					c0,4.8,0.7,9.4,2,13.7c4.5-1.3,9.2-2,14.1-2c13.1,0,25.1,5.1,34,13.4c8.9-8.3,20.9-13.4,34-13.4C134.8,72.8,139.6,73.6,144,74.9
					c-4.7,16.5-17.4,29.5-34,34.3l0.1,0c1.2,4.4,1.9,9,1.9,13.8c0,14.5-6.2,27.6-16.1,36.8c8.9,8.3,20.8,13.3,33.9,13.3
					c27.7,0,50.2-22.5,50.2-50.1C180,100.3,164.8,81,144,74.9z"/>
				<path class="st158" d="M79.7,123c0-4.8,0.7-9.4,2-13.8l0,0c-16.5-4.8-29.3-17.8-34.1-34.3c-20.7,6.2-35.9,25.4-35.9,48.1
					c0,27.7,22.5,50.1,50.2,50.1c13.1,0,25-5.1,33.9-13.3C85.9,150.6,79.7,137.5,79.7,123z"/>
			</g>
			<g>
				<path class="st159" d="M142,75.6c1.2-4.2,1.9-8.6,1.9-13.2c0-26.5-21.5-48-48-48c-26.5,0-48,21.5-48,48c0,4.6,0.7,9,1.9,13.2
					c4.3-1.3,8.8-1.9,13.5-1.9c12.6,0,24,4.9,32.6,12.8c8.6-8,20-12.8,32.6-12.8C133.2,73.6,137.7,74.3,142,75.6
					c-4.5,15.8-16.7,28.3-32.6,32.8l0,0c1.2,4.2,1.8,8.6,1.8,13.2c0,13.9-6,26.5-15.4,35.3c8.6,7.9,20,12.8,32.5,12.8
					c26.6,0,48.1-21.5,48.1-48C176.4,99.9,161.9,81.5,142,75.6z"/>
				<path class="st159" d="M80.4,121.7c0-4.6,0.7-9,1.9-13.2l0,0c-15.8-4.6-28.1-17-32.7-32.8c-19.9,5.9-34.4,24.3-34.4,46.1
					c0,26.5,21.5,48,48,48c12.6,0,24-4.9,32.5-12.8C86.3,148.2,80.4,135.6,80.4,121.7z"/>
			</g>
			<g>
				<path class="st160" d="M140,76.3c1.1-4,1.8-8.2,1.8-12.6c0-25.4-20.5-45.9-45.9-45.9c-25.3,0-45.9,20.6-45.9,45.9
					c0,4.4,0.6,8.6,1.8,12.6c4.1-1.2,8.5-1.9,13-1.9c12,0,23,4.6,31.2,12.3C104,79.1,115,74.4,127,74.4
					C131.6,74.4,135.9,75.1,140,76.3c-4.3,15.1-16,27-31.2,31.4l0,0c1.1,4,1.8,8.3,1.8,12.6c0,13.3-5.7,25.3-14.7,33.7
					c8.2,7.6,19.1,12.2,31.1,12.2c25.4,0,45.9-20.6,45.9-45.9C172.9,99.6,159,82,140,76.3z"/>
				<path class="st160" d="M81,120.4c0-4.4,0.6-8.6,1.8-12.7l0,0C67.8,103.3,56,91.4,51.6,76.3c-19,5.6-32.9,23.3-32.9,44.1
					c0,25.4,20.6,45.9,45.9,45.9c12,0,22.9-4.7,31.1-12.2C86.7,145.7,81,133.7,81,120.4z"/>
			</g>
			<g>
				<path class="st161" d="M137.9,77c1.1-3.8,1.7-7.9,1.7-12c0-24.2-19.6-43.8-43.8-43.8C71.7,21.2,52,40.8,52,65
					c0,4.2,0.6,8.2,1.7,12c3.9-1.1,8.1-1.8,12.4-1.8c11.5,0,21.9,4.4,29.7,11.7c7.8-7.3,18.3-11.7,29.7-11.7
					C129.9,75.2,134.1,75.9,137.9,77c-4.1,14.4-15.2,25.8-29.7,30l0,0c1.1,3.8,1.7,7.9,1.7,12.1c0,12.7-5.4,24.1-14.1,32.2
					c7.8,7.2,18.2,11.6,29.7,11.6c24.2,0,43.8-19.6,43.8-43.8C169.4,99.2,156.1,82.4,137.9,77z"/>
				<path class="st161" d="M81.7,119.1c0-4.2,0.6-8.2,1.7-12.1l0,0c-14.4-4.2-25.6-15.5-29.8-29.9c-18.1,5.4-31.4,22.2-31.4,42
					c0,24.2,19.6,43.8,43.8,43.8c11.5,0,21.9-4.4,29.7-11.7C87.1,143.2,81.7,131.8,81.7,119.1z"/>
			</g>
			<g>
				<path class="st162" d="M135.9,77.8c1-3.6,1.6-7.5,1.6-11.5c0-23-18.6-41.7-41.7-41.7c-23,0-41.7,18.7-41.7,41.7
					c0,4,0.6,7.8,1.6,11.4c3.7-1.1,7.7-1.7,11.8-1.7c10.9,0,20.9,4.2,28.3,11.1c7.4-6.9,17.4-11.1,28.3-11.1
					C128.3,76,132.2,76.7,135.9,77.8c-3.9,13.7-14.5,24.5-28.3,28.5l0,0c1,3.6,1.6,7.5,1.6,11.5c0,12.1-5.2,23-13.4,30.6
					c7.4,6.9,17.3,11.1,28.2,11.1c23.1,0,41.7-18.7,41.7-41.7C165.8,98.9,153.2,82.9,135.9,77.8z"/>
				<path class="st162" d="M82.4,117.8c0-4,0.6-7.8,1.6-11.5l0,0c-13.7-4-24.4-14.8-28.4-28.5c-17.3,5.1-29.9,21.1-29.9,40
					c0,23,18.7,41.7,41.7,41.7c10.9,0,20.8-4.2,28.2-11.1C87.6,140.8,82.4,129.9,82.4,117.8z"/>
			</g>
			<g>
				<path class="st163" d="M133.9,78.5c1-3.5,1.6-7.1,1.6-10.9c0-21.9-17.7-39.6-39.6-39.6C74,28,56.2,45.7,56.2,67.6
					c0,3.8,0.6,7.4,1.5,10.8c3.6-1,7.3-1.6,11.2-1.6c10.4,0,19.8,4,26.9,10.6c7.1-6.6,16.5-10.6,26.9-10.6
					C126.6,76.8,130.4,77.4,133.9,78.5c-3.7,13-13.8,23.3-26.9,27.1l0,0c1,3.5,1.5,7.1,1.5,10.9c0,11.5-4.9,21.8-12.7,29.1
					c7.1,6.5,16.5,10.5,26.8,10.5c21.9,0,39.6-17.7,39.6-39.6C162.3,98.6,150.3,83.3,133.9,78.5z"/>
				<path class="st163" d="M83.1,116.5c0-3.8,0.5-7.4,1.5-10.9l0,0c-13-3.8-23.2-14-26.9-27.1c-16.4,4.9-28.3,20.1-28.3,38
					c0,21.9,17.7,39.6,39.6,39.6c10.4,0,19.8-4,26.8-10.5C88,138.3,83.1,128,83.1,116.5z"/>
			</g>
			<g>
				<path class="st164" d="M131.9,79.2c0.9-3.3,1.5-6.7,1.5-10.3c0-20.7-16.8-37.5-37.5-37.5c-20.7,0-37.5,16.8-37.5,37.5
					c0,3.6,0.5,7,1.5,10.3c3.4-1,6.9-1.5,10.6-1.5c9.8,0,18.8,3.8,25.4,10c6.7-6.2,15.6-10,25.5-10C125,77.7,128.5,78.2,131.9,79.2
					c-3.5,12.3-13,22.1-25.4,25.6l0,0c0.9,3.3,1.4,6.7,1.4,10.3c0,10.9-4.6,20.7-12,27.5c6.7,6.2,15.6,10,25.4,10
					c20.7,0,37.5-16.8,37.5-37.5C158.7,98.2,147.4,83.8,131.9,79.2z"/>
				<path class="st164" d="M83.8,115.2c0-3.6,0.5-7.1,1.5-10.3l0,0c-12.3-3.6-21.9-13.3-25.5-25.6c-15.5,4.6-26.8,19-26.8,36
					c0,20.7,16.8,37.5,37.5,37.5c9.8,0,18.7-3.8,25.4-10C88.4,135.8,83.8,126.1,83.8,115.2z"/>
			</g>
			<g>
				<path class="st165" d="M129.8,79.9c0.9-3.1,1.4-6.3,1.4-9.7c0-19.5-15.8-35.4-35.4-35.4c-19.5,0-35.4,15.8-35.4,35.4
					c0,3.4,0.5,6.6,1.4,9.7c3.2-0.9,6.5-1.4,10-1.4c9.3,0,17.7,3.6,24,9.5c6.3-5.9,14.8-9.5,24-9.5C123.4,78.5,126.7,79,129.8,79.9
					c-3.3,11.7-12.3,20.8-24,24.2l0,0c0.9,3.1,1.4,6.4,1.4,9.7c0,10.3-4.4,19.5-11.4,26c6.3,5.8,14.7,9.4,23.9,9.4
					c19.6,0,35.4-15.8,35.4-35.4C155.2,97.9,144.5,84.3,129.8,79.9z"/>
				<path class="st165" d="M84.4,113.9c0-3.4,0.5-6.7,1.4-9.8l0,0c-11.6-3.4-20.7-12.5-24.1-24.2c-14.6,4.4-25.3,17.9-25.3,33.9
					c0,19.5,15.8,35.4,35.4,35.4c9.3,0,17.7-3.6,24-9.4C88.8,133.4,84.4,124.1,84.4,113.9z"/>
			</g>
			<g>
				<path class="st166" d="M127.8,80.7c0.8-2.9,1.3-6,1.3-9.1c0-18.4-14.9-33.3-33.3-33.3c-18.3,0-33.3,14.9-33.3,33.3
					c0,3.2,0.5,6.2,1.3,9.1c3-0.9,6.1-1.3,9.4-1.3c8.7,0,16.6,3.4,22.6,8.9c5.9-5.5,13.9-8.9,22.6-8.9
					C121.7,79.3,124.9,79.8,127.8,80.7c-3.1,11-11.6,19.6-22.6,22.8l0,0c0.8,2.9,1.3,6,1.3,9.2c0,9.6-4.1,18.3-10.7,24.4
					c5.9,5.5,13.8,8.8,22.5,8.8c18.4,0,33.3-14.9,33.3-33.3C151.7,97.5,141.6,84.7,127.8,80.7z"/>
				<path class="st166" d="M85.1,112.6c0-3.2,0.5-6.3,1.3-9.2l0,0C75.5,100.2,67,91.6,63.8,80.7C50,84.8,40,97.5,40,112.6
					c0,18.4,14.9,33.3,33.3,33.3c8.7,0,16.6-3.4,22.5-8.9C89.2,130.9,85.1,122.2,85.1,112.6z"/>
			</g>
			<g>
				<path class="st167" d="M125.8,81.4c0.8-2.7,1.2-5.6,1.2-8.6c0-17.2-13.9-31.2-31.2-31.2c-17.2,0-31.2,14-31.2,31.2
					c0,3,0.4,5.8,1.2,8.5c2.8-0.8,5.7-1.3,8.8-1.3c8.2,0,15.6,3.2,21.2,8.3c5.6-5.2,13-8.3,21.2-8.3C120.1,80.1,123,80.6,125.8,81.4
					c-2.9,10.3-10.8,18.3-21.2,21.3l0,0c0.8,2.7,1.2,5.6,1.2,8.6c0,9-3.9,17.2-10,22.9c5.5,5.1,12.9,8.3,21.1,8.3
					c17.2,0,31.2-14,31.2-31.2C148.1,97.2,138.7,85.2,125.8,81.4z"/>
				<path class="st167" d="M85.8,111.3c0-3,0.4-5.9,1.2-8.6l0,0c-10.3-3-18.2-11-21.2-21.3c-12.9,3.8-22.3,15.8-22.3,29.9
					c0,17.2,14,31.2,31.2,31.2c8.2,0,15.5-3.2,21.1-8.3C89.7,128.5,85.8,120.3,85.8,111.3z"/>
			</g>
			<g>
				<path class="st168" d="M123.8,82.1c0.7-2.5,1.1-5.2,1.1-8c0-16-13-29.1-29.1-29.1c-16,0-29.1,13-29.1,29.1c0,2.8,0.4,5.4,1.1,8
					c2.6-0.8,5.3-1.2,8.2-1.2c7.6,0,14.5,2.9,19.7,7.8c5.2-4.8,12.1-7.8,19.7-7.8C118.4,80.9,121.2,81.3,123.8,82.1
					C121,91.7,113.6,99.2,104,102l0,0c0.7,2.5,1.1,5.2,1.1,8c0,8.4-3.6,16-9.3,21.3c5.2,4.8,12.1,7.7,19.7,7.7
					c16.1,0,29.1-13,29.1-29.1C144.6,96.8,135.8,85.7,123.8,82.1z"/>
				<path class="st168" d="M86.5,110c0-2.8,0.4-5.5,1.1-8l0,0c-9.6-2.8-17-10.3-19.8-19.9c-12,3.6-20.8,14.7-20.8,27.9
					c0,16,13,29.1,29.1,29.1c7.6,0,14.5-2.9,19.7-7.7C90.1,126,86.5,118.4,86.5,110z"/>
			</g>
			<g>
				<path class="st169" d="M121.7,82.8c0.7-2.4,1.1-4.8,1.1-7.4c0-14.9-12-26.9-27-26.9c-14.8,0-27,12.1-27,26.9
					c0,2.6,0.4,5,1.1,7.4c2.4-0.7,5-1.1,7.6-1.1c7.1,0,13.5,2.7,18.3,7.2c4.8-4.5,11.2-7.2,18.3-7.2
					C116.8,81.7,119.3,82.1,121.7,82.8c-2.5,8.9-9.4,15.9-18.3,18.4l0,0c0.7,2.3,1,4.8,1,7.4c0,7.8-3.3,14.8-8.6,19.8
					c4.8,4.4,11.2,7.2,18.2,7.2c14.9,0,27-12.1,27-26.9C141,96.5,132.9,86.1,121.7,82.8z"/>
				<path class="st169" d="M87.2,108.7c0-2.6,0.4-5.1,1-7.4l0,0c-8.9-2.6-15.8-9.5-18.3-18.4c-11.1,3.3-19.3,13.6-19.3,25.9
					c0,14.9,12.1,26.9,27,26.9c7,0,13.4-2.7,18.2-7.2C90.5,123.5,87.2,116.5,87.2,108.7z"/>
			</g>
			<g>
				<path class="st170" d="M119.7,83.5c0.6-2.2,1-4.5,1-6.8c0-13.7-11.1-24.8-24.8-24.8C82.1,51.9,71,63,71,76.7
					c0,2.4,0.3,4.6,1,6.8c2.2-0.6,4.6-1,7-1c6.5,0,12.4,2.5,16.9,6.6c4.4-4.1,10.4-6.6,16.9-6.6C115.2,82.5,117.5,82.9,119.7,83.5
					c-2.3,8.2-8.6,14.6-16.9,17l0,0c0.6,2.2,1,4.5,1,6.8c0,7.2-3.1,13.7-8,18.2c4.4,4.1,10.3,6.6,16.8,6.6
					c13.7,0,24.9-11.1,24.9-24.8C137.5,96.1,130,86.6,119.7,83.5z"/>
				<path class="st170" d="M87.8,107.4c0-2.4,0.3-4.7,1-6.8l0,0c-8.2-2.4-14.5-8.8-16.9-17c-10.3,3.1-17.8,12.6-17.8,23.8
					c0,13.7,11.1,24.8,24.8,24.8c6.5,0,12.4-2.5,16.8-6.6C90.9,121.1,87.8,114.6,87.8,107.4z"/>
			</g>
			<g>
				<path class="st171" d="M117.7,84.3c0.6-2,0.9-4.1,0.9-6.2c0-12.6-10.2-22.7-22.7-22.7c-12.5,0-22.7,10.2-22.7,22.7
					c0,2.2,0.3,4.2,0.9,6.2c2-0.6,4.2-0.9,6.4-0.9c6,0,11.4,2.3,15.4,6.1c4.1-3.8,9.5-6.1,15.4-6.1
					C113.5,83.3,115.7,83.7,117.7,84.3c-2.1,7.5-7.9,13.4-15.4,15.5l0,0c0.6,2,0.9,4.1,0.9,6.3c0,6.6-2.8,12.5-7.3,16.7
					c4,3.7,9.4,6,15.4,6c12.6,0,22.7-10.2,22.7-22.7C134,95.8,127.1,87.1,117.7,84.3z"/>
				<path class="st171" d="M88.5,106.1c0-2.2,0.3-4.3,0.9-6.3l0,0c-7.5-2.2-13.3-8.1-15.5-15.5c-9.4,2.8-16.3,11.5-16.3,21.8
					c0,12.5,10.2,22.7,22.7,22.7c5.9,0,11.3-2.3,15.4-6C91.3,118.6,88.5,112.7,88.5,106.1z"/>
			</g>
		</g>
		<g>
			<g>
				<path class="st175" d="M145.5,32.5h3.1l6.9,26.5h0.1l7.4-26.5h3.6L174,59h0.1l6.9-26.5h2.9l-8.4,30.3h-3.1l-7.7-27.1h-0.1
					l-7.6,27.1h-3.1L145.5,32.5z"/>
				<path class="st175" d="M187.3,52.6c0,1,0.1,2,0.4,3s0.7,1.9,1.3,2.8c0.6,0.8,1.3,1.5,2.2,2c0.9,0.5,2,0.8,3.3,0.8
					c2,0,3.5-0.5,4.6-1.5c1.1-1,1.9-2.4,2.3-4h2.7c-0.6,2.5-1.6,4.4-3.1,5.8c-1.5,1.4-3.7,2.1-6.4,2.1c-1.8,0-3.3-0.3-4.5-0.9
					S187.8,61,187,60c-0.8-1.1-1.4-2.3-1.8-3.7c-0.4-1.4-0.6-2.9-0.6-4.4c0-1.4,0.2-2.9,0.6-4.2c0.4-1.4,1-2.6,1.8-3.7
					c0.8-1.1,1.8-2,3.1-2.6s2.7-1,4.5-1s3.2,0.4,4.5,1.1c1.2,0.7,2.3,1.6,3,2.8s1.3,2.5,1.7,3.9s0.5,3,0.4,4.5H187.3z M201.5,50.3
					c0-1-0.2-2-0.5-2.9c-0.3-0.9-0.8-1.8-1.4-2.5c-0.6-0.7-1.3-1.3-2.2-1.7c-0.8-0.4-1.8-0.7-2.9-0.7c-1.1,0-2.1,0.2-2.9,0.7
					c-0.8,0.4-1.6,1-2.2,1.7c-0.6,0.7-1.1,1.6-1.4,2.5c-0.4,0.9-0.6,1.9-0.7,2.9H201.5z"/>
				<path class="st175" d="M207.8,32.5h2.7v30.3h-2.7V32.5z"/>
				<path class="st175" d="M231,47.8c-0.4-1.6-1.1-2.9-2.1-3.9c-1-0.9-2.4-1.4-4.1-1.4c-1.3,0-2.4,0.3-3.3,0.8
					c-1,0.5-1.8,1.2-2.4,2.1c-0.6,0.9-1.1,1.9-1.4,3c-0.3,1.1-0.5,2.3-0.5,3.4c0,1.2,0.2,2.3,0.5,3.4s0.8,2.1,1.4,3s1.4,1.6,2.4,2.1
					c1,0.5,2.1,0.8,3.3,0.8c0.8,0,1.6-0.2,2.3-0.5c0.7-0.3,1.4-0.7,1.9-1.3c0.6-0.6,1-1.2,1.4-2c0.4-0.8,0.6-1.6,0.7-2.5h2.7
					c-0.4,2.7-1.3,4.7-2.9,6.2s-3.6,2.2-6.1,2.2c-1.7,0-3.1-0.3-4.4-0.9c-1.3-0.6-2.4-1.5-3.2-2.5c-0.9-1-1.5-2.3-2-3.7
					c-0.5-1.4-0.7-2.9-0.7-4.5c0-1.6,0.2-3,0.7-4.5s1.1-2.6,2-3.7c0.9-1,2-1.9,3.2-2.5c1.3-0.6,2.8-0.9,4.4-0.9c2.3,0,4.3,0.6,6,1.9
					s2.6,3.1,2.9,5.6H231z"/>
				<path class="st175" d="M246.8,40.3c1.7,0,3.1,0.3,4.4,0.9c1.3,0.6,2.4,1.5,3.2,2.5c0.9,1,1.5,2.3,2,3.7c0.5,1.4,0.7,2.9,0.7,4.5
					c0,1.6-0.2,3.1-0.7,4.5c-0.5,1.4-1.1,2.6-2,3.7c-0.9,1-2,1.9-3.2,2.5s-2.8,0.9-4.4,0.9c-1.7,0-3.1-0.3-4.4-0.9
					c-1.3-0.6-2.4-1.5-3.2-2.5c-0.9-1-1.5-2.3-2-3.7c-0.5-1.4-0.7-2.9-0.7-4.5c0-1.6,0.2-3,0.7-4.5s1.1-2.6,2-3.7
					c0.9-1,2-1.9,3.2-2.5C243.7,40.6,245.2,40.3,246.8,40.3z M246.8,42.5c-1.3,0-2.4,0.3-3.3,0.8c-1,0.5-1.8,1.2-2.4,2.1
					c-0.6,0.9-1.1,1.9-1.4,3c-0.3,1.1-0.5,2.3-0.5,3.4c0,1.2,0.2,2.3,0.5,3.4s0.8,2.1,1.4,3s1.4,1.6,2.4,2.1c1,0.5,2.1,0.8,3.3,0.8
					c1.3,0,2.4-0.3,3.3-0.8c1-0.5,1.8-1.2,2.4-2.1s1.1-1.9,1.4-3c0.3-1.1,0.5-2.3,0.5-3.4c0-1.2-0.2-2.3-0.5-3.4
					c-0.3-1.1-0.8-2.1-1.4-3c-0.6-0.9-1.4-1.6-2.4-2.1C249.2,42.8,248.1,42.5,246.8,42.5z"/>
				<path class="st175" d="M261.2,40.9h2.5v3.7h0.1c0.7-1.3,1.6-2.4,2.8-3.2c1.2-0.8,2.6-1.2,4.4-1.2c1.4,0,2.7,0.4,3.9,1.1
					c1.2,0.7,2,1.8,2.4,3.2c0.7-1.4,1.6-2.5,2.9-3.2c1.3-0.7,2.6-1.1,4.1-1.1c4.8,0,7.2,2.6,7.2,7.7v14.8h-2.7V48.1
					c0-1.8-0.4-3.2-1.1-4.1c-0.8-0.9-2.1-1.4-4-1.4c-1.2,0-2.1,0.2-2.9,0.7c-0.8,0.4-1.4,1-1.8,1.8c-0.5,0.7-0.8,1.6-1,2.5
					c-0.2,0.9-0.3,1.9-0.3,2.9v12.4h-2.7V48c0-0.7-0.1-1.4-0.2-2.1s-0.4-1.2-0.8-1.7c-0.4-0.5-0.8-0.9-1.4-1.2
					c-0.6-0.3-1.3-0.4-2.2-0.4c-1.2,0-2.1,0.2-3,0.6c-0.8,0.4-1.5,1-2,1.7c-0.5,0.7-0.9,1.6-1.2,2.6c-0.3,1-0.4,2-0.4,3.2v12.2h-2.7
					V40.9z"/>
				<path class="st175" d="M298,52.6c0,1,0.1,2,0.4,3s0.7,1.9,1.3,2.8c0.6,0.8,1.3,1.5,2.2,2c0.9,0.5,2,0.8,3.3,0.8
					c2,0,3.5-0.5,4.6-1.5c1.1-1,1.9-2.4,2.3-4h2.7c-0.6,2.5-1.6,4.4-3.1,5.8c-1.5,1.4-3.7,2.1-6.4,2.1c-1.8,0-3.3-0.3-4.5-0.9
					s-2.3-1.5-3.1-2.5c-0.8-1.1-1.4-2.3-1.8-3.7c-0.4-1.4-0.6-2.9-0.6-4.4c0-1.4,0.2-2.9,0.6-4.2c0.4-1.4,1-2.6,1.8-3.7
					c0.8-1.1,1.8-2,3.1-2.6s2.7-1,4.5-1s3.2,0.4,4.5,1.1c1.2,0.7,2.3,1.6,3,2.8s1.3,2.5,1.7,3.9s0.5,3,0.4,4.5H298z M312.2,50.3
					c0-1-0.2-2-0.5-2.9c-0.3-0.9-0.8-1.8-1.4-2.5c-0.6-0.7-1.3-1.3-2.2-1.7c-0.8-0.4-1.8-0.7-2.9-0.7c-1.1,0-2.1,0.2-2.9,0.7
					c-0.8,0.4-1.6,1-2.2,1.7c-0.6,0.7-1.1,1.6-1.4,2.5c-0.4,0.9-0.6,1.9-0.7,2.9H312.2z"/>
				<path class="st175" d="M334.5,40.9h4.5v2.2h-4.5v14.8c0,0.9,0.1,1.6,0.4,2.1c0.2,0.5,0.8,0.8,1.8,0.8c0.8,0,1.5,0,2.3-0.1V63
					c-0.4,0-0.8,0-1.2,0c-0.4,0-0.8,0-1.2,0c-1.8,0-3-0.4-3.7-1.1c-0.7-0.7-1-2-1-3.9v-15H328v-2.2h3.8v-6.6h2.7V40.9z"/>
				<path class="st175" d="M352.1,40.3c1.7,0,3.1,0.3,4.4,0.9c1.3,0.6,2.4,1.5,3.2,2.5c0.9,1,1.5,2.3,2,3.7c0.5,1.4,0.7,2.9,0.7,4.5
					c0,1.6-0.2,3.1-0.7,4.5c-0.5,1.4-1.1,2.6-2,3.7c-0.9,1-2,1.9-3.2,2.5s-2.8,0.9-4.4,0.9c-1.7,0-3.1-0.3-4.4-0.9
					c-1.3-0.6-2.4-1.5-3.2-2.5c-0.9-1-1.5-2.3-2-3.7c-0.5-1.4-0.7-2.9-0.7-4.5c0-1.6,0.2-3,0.7-4.5s1.1-2.6,2-3.7
					c0.9-1,2-1.9,3.2-2.5C348.9,40.6,350.4,40.3,352.1,40.3z M352.1,42.5c-1.3,0-2.4,0.3-3.3,0.8c-1,0.5-1.8,1.2-2.4,2.1
					c-0.6,0.9-1.1,1.9-1.4,3c-0.3,1.1-0.5,2.3-0.5,3.4c0,1.2,0.2,2.3,0.5,3.4s0.8,2.1,1.4,3s1.4,1.6,2.4,2.1c1,0.5,2.1,0.8,3.3,0.8
					c1.3,0,2.4-0.3,3.3-0.8c1-0.5,1.8-1.2,2.4-2.1s1.1-1.9,1.4-3c0.3-1.1,0.5-2.3,0.5-3.4c0-1.2-0.2-2.3-0.5-3.4
					c-0.3-1.1-0.8-2.1-1.4-3c-0.6-0.9-1.4-1.6-2.4-2.1C354.4,42.8,353.3,42.5,352.1,42.5z"/>
				<path class="st175" d="M145.9,148.5h2.8l5.6,18.7h0.1l5.3-18.7h3l5.3,18.7h0.1l5.6-18.7h2.8l-7,21.9h-2.9l-5.4-18.4h-0.1
					l-5.3,18.4h-2.9L145.9,148.5z"/>
				<path class="st175" d="M188.7,147.8c1.7,0,3.1,0.3,4.4,0.9c1.3,0.6,2.4,1.5,3.2,2.5c0.9,1,1.5,2.3,2,3.7
					c0.5,1.4,0.7,2.9,0.7,4.5c0,1.6-0.2,3.1-0.7,4.5c-0.5,1.4-1.1,2.6-2,3.7c-0.9,1-2,1.9-3.2,2.5s-2.8,0.9-4.4,0.9
					c-1.7,0-3.1-0.3-4.4-0.9c-1.3-0.6-2.4-1.5-3.2-2.5c-0.9-1-1.5-2.3-2-3.7c-0.5-1.4-0.7-2.9-0.7-4.5c0-1.6,0.2-3,0.7-4.5
					s1.1-2.6,2-3.7c0.9-1,2-1.9,3.2-2.5C185.6,148.1,187.1,147.8,188.7,147.8z M188.7,150.1c-1.3,0-2.4,0.3-3.3,0.8
					c-1,0.5-1.8,1.2-2.4,2.1c-0.6,0.9-1.1,1.9-1.4,3c-0.3,1.1-0.5,2.3-0.5,3.4c0,1.2,0.2,2.3,0.5,3.4s0.8,2.1,1.4,3s1.4,1.6,2.4,2.1
					c1,0.5,2.1,0.8,3.3,0.8c1.3,0,2.4-0.3,3.3-0.8c1-0.5,1.8-1.2,2.4-2.1s1.1-1.9,1.4-3c0.3-1.1,0.5-2.3,0.5-3.4
					c0-1.2-0.2-2.3-0.5-3.4c-0.3-1.1-0.8-2.1-1.4-3c-0.6-0.9-1.4-1.6-2.4-2.1C191.1,150.3,190,150.1,188.7,150.1z"/>
				<path class="st175" d="M203.1,148.5h2.5v5.1h0.1c0.7-1.8,1.7-3.2,3.2-4.1s3.1-1.4,5.1-1.3v2.7c-1.2-0.1-2.3,0.1-3.3,0.5
					s-1.8,0.9-2.6,1.6c-0.7,0.7-1.3,1.6-1.7,2.5c-0.4,1-0.6,2-0.6,3.2v11.7h-2.7V148.5z"/>
				<path class="st175" d="M216.5,140.1h2.7v30.3h-2.7V140.1z"/>
				<path class="st175" d="M243.5,170.3H241v-4.2H241c-0.3,0.7-0.7,1.4-1.3,2c-0.6,0.6-1.2,1.1-1.9,1.5c-0.7,0.4-1.5,0.7-2.3,1
					c-0.8,0.2-1.6,0.3-2.4,0.3c-1.7,0-3.1-0.3-4.3-0.9c-1.2-0.6-2.3-1.5-3.1-2.5c-0.8-1.1-1.4-2.3-1.8-3.7c-0.4-1.4-0.6-2.9-0.6-4.4
					c0-1.6,0.2-3,0.6-4.4c0.4-1.4,1-2.6,1.8-3.7c0.8-1.1,1.8-1.9,3.1-2.5c1.2-0.6,2.7-0.9,4.3-0.9c0.8,0,1.6,0.1,2.4,0.3
					c0.8,0.2,1.5,0.5,2.2,0.9c0.7,0.4,1.3,0.9,1.8,1.5c0.5,0.6,0.9,1.3,1.2,2.1h0.1v-12.5h2.7V170.3z M226,159.4
					c0,1.1,0.1,2.3,0.4,3.4c0.3,1.1,0.7,2.1,1.3,3c0.6,0.9,1.3,1.6,2.2,2.1s2,0.8,3.3,0.8c1.4,0,2.6-0.3,3.6-0.8s1.8-1.3,2.4-2.1
					c0.6-0.9,1-1.9,1.3-3c0.3-1.1,0.4-2.2,0.4-3.4s-0.1-2.3-0.4-3.4s-0.7-2.1-1.3-3c-0.6-0.9-1.4-1.6-2.4-2.1s-2.2-0.8-3.6-0.8
					c-1.3,0-2.4,0.3-3.3,0.8s-1.6,1.3-2.2,2.1s-1,1.9-1.3,3S226,158.3,226,159.4z"/>
				<path class="st175" d="M250.1,170.3v-4.5h3.6v4.5H250.1z"/>
				<path class="st175" d="M261.9,170.3v-4.5h3.6v4.5H261.9z"/>
				<path class="st175" d="M273.7,170.3v-4.5h3.6v4.5H273.7z"/>
			</g>
		</g>
	</g>
	<g>
		<g>
			<g>
				<g>
					<g>
						<path class="st123" d="M166.6,76.9c0.9,0,1.6,0.3,2.3,0.8c0.6,0.6,0.9,1.2,0.9,2c0,0.9-0.4,1.6-1.3,2.1
							c-0.9,0.5-1.7,0.7-2.3,0.7c-3,0.1-5.7,1.1-7.9,3c-2.4,2.1-3.6,4.5-3.6,7.3v34.8c0,1.6-0.6,3-1.8,4.2c-1.2,1.2-2.7,2-4.6,2.3
							V92.8c0-4.4,1.8-8.1,5.3-11.1C157.2,78.5,161.6,76.9,166.6,76.9z"/>
						<path class="st123" d="M194.2,77c5.1,0,9.4,1.6,12.9,4.7c3.5,3,5.3,6.7,5.3,11v25.8c0,4.3-1.8,8-5.3,11
							c-3.5,3.1-7.8,4.7-12.9,4.7c-4.8,0-9.1-1.5-12.9-4.7c-3.6-3.1-5.4-6.8-5.4-11c0-4.2,1.8-7.9,5.4-11c3.8-3.1,8.1-4.7,12.9-4.7
							h11.7V92.7c0-2.8-1.1-5.2-3.3-7.1c-2.3-2-5.1-3-8.4-3c-1.8,0-3.6,0.4-5.3,1.1c-1.8,0.7-3.2,1.7-4.4,2.9
							c-0.6,0.6-1,1.2-1.3,1.9c-0.3,0.6-0.5,1.2-0.7,1.7v0.1c-0.1,0.2-0.2,0.4-0.2,0.6c-0.1,0.2-0.1,0.4-0.1,0.4
							c-0.8,0.8-1.8,1.2-3.1,1c-0.9-0.1-1.6-0.5-2.1-1.1c-0.5-0.6-0.8-1.3-0.7-2.1c0.7-2.8,2.4-5.3,5-7.6
							C185.1,78.6,189.4,77,194.2,77z M205.9,108.3h-11.7c-3.3,0-6.1,1-8.3,3c-2.3,2-3.4,4.4-3.4,7.2c0,2.7,1.2,5.1,3.6,7.2
							c2.2,1.9,5,2.9,8.2,2.9c3.1,0,5.9-1,8.4-3c2.2-1.9,3.3-4.3,3.3-7.1V108.3z"/>
						<path class="st123" d="M238.3,76.8c1,0,1.8,0.3,2.4,0.8c0.6,0.5,0.9,1.2,0.9,2.1c0,0.9-0.5,1.6-1.4,2.1
							c-0.9,0.5-1.7,0.7-2.4,0.8c-3,0.1-5.6,1.1-7.8,3c-2.4,2.1-3.6,4.5-3.6,7.3v9.9h7.9c0.9,0,1.7,0.3,2.3,0.8c0.7,0.5,1,1.2,1,2
							c0,0.8-0.3,1.5-1,2c-0.6,0.5-1.4,0.8-2.3,0.8h-7.9v19.3c0,1.6-0.6,3-1.8,4.2c-1.2,1.2-2.8,2-4.7,2.3V92.8
							c0-4.4,1.8-8.1,5.4-11.2C228.9,78.4,233.2,76.8,238.3,76.8z"/>
						<path class="st123" d="M266.1,77.4c2.5,0,4.9,0.4,7.2,1.3c2.3,0.8,4.2,2,5.8,3.4c1.6,1.4,3,3.1,3.9,5c1,1.9,1.5,4,1.5,6.2v2.1
							c0,2.2-0.5,4.2-1.5,6.2c-1,1.9-2.3,3.6-3.9,5c-1.6,1.4-3.6,2.5-5.8,3.4c-2.2,0.8-4.6,1.3-7.2,1.3h-12v7.1
							c0,2.9,1.2,5.3,3.5,7.3c2.3,2,5.2,3,8.5,3c2.6,0,5-0.7,7.1-2c2.1-1.3,3.5-3,4.4-5.2c0.3-0.8,0.8-1.4,1.6-1.7
							c0.8-0.3,1.6-0.4,2.5-0.2c0.8,0.2,1.4,0.7,1.8,1.4c0.4,0.7,0.5,1.4,0.2,2.1c-1.1,3.4-3.3,6.1-6.6,8.2c-3.2,2-6.9,3.1-11,3.1
							c-2.5,0-4.9-0.4-7.2-1.3c-2.3-0.8-4.2-2-5.8-3.4c-1.6-1.4-2.9-3.1-3.9-5c-1-1.9-1.5-4-1.5-6.1V93.2c0-2.2,0.5-4.2,1.5-6.2
							c1-1.9,2.3-3.6,3.9-5c1.6-1.4,3.6-2.5,5.8-3.4C261.2,77.8,263.6,77.4,266.1,77.4z M278.1,93.2c0-2.9-1.1-5.3-3.4-7.3
							c-2.3-2-5.1-3-8.5-3c-3.3,0-6.2,1-8.5,3c-2.3,2-3.5,4.4-3.5,7.3v12.5h12c3.4,0,6.2-1,8.5-3c2.3-2,3.4-4.5,3.4-7.4V93.2z"/>
						<path class="st123" d="M310.3,77.4c2.5,0,4.9,0.4,7.2,1.3c2.2,0.8,4.2,2,5.8,3.4c1.6,1.4,2.9,3.1,3.9,5c1,1.9,1.5,4,1.5,6.2
							v2.1c0,2.2-0.5,4.2-1.5,6.2c-1,1.9-2.3,3.6-3.9,5c-1.6,1.4-3.6,2.5-5.8,3.4c-2.3,0.8-4.6,1.3-7.2,1.3h-12v7.1
							c0,2.9,1.2,5.3,3.5,7.3c2.3,2,5.2,3,8.5,3c2.6,0,5-0.7,7.1-2c2.1-1.3,3.6-3,4.4-5.2c0.2-0.8,0.8-1.4,1.6-1.7
							c0.8-0.3,1.6-0.4,2.5-0.2c0.8,0.2,1.4,0.7,1.8,1.4c0.4,0.7,0.5,1.4,0.2,2.1c-1.2,3.4-3.3,6.1-6.6,8.2c-3.2,2-6.9,3.1-11,3.1
							c-2.5,0-4.9-0.4-7.2-1.3c-2.2-0.8-4.2-2-5.8-3.4c-1.6-1.4-3-3.1-3.9-5c-1-1.9-1.5-4-1.5-6.1V93.2c0-2.2,0.5-4.2,1.5-6.2
							c1-1.9,2.3-3.6,3.9-5c1.6-1.4,3.6-2.5,5.8-3.4C305.4,77.8,307.8,77.4,310.3,77.4z M322.3,93.2c0-2.9-1.2-5.3-3.4-7.3
							c-2.3-2-5.1-3-8.5-3c-3.3,0-6.2,1-8.5,3c-2.3,2-3.5,4.4-3.5,7.3v12.5h12c3.4,0,6.2-1,8.5-3c2.3-2,3.4-4.5,3.4-7.4V93.2z"/>
						<path class="st123" d="M369.3,76.9c0.9,0,1.7,0.3,2.3,0.8c0.6,0.5,1,1.2,1,2v36.5c0,3.7-0.5,6.4-1.5,8.3c-1,1.9-2.3,3.6-3.9,5
							c-3.5,3.1-7.8,4.7-12.8,4.7c-4.8,0-9.1-1.5-12.9-4.7c-3.6-3-5.4-6.7-5.4-11v-6.8c0-4.2,1.8-7.8,5.4-10.8
							c3.6-3.1,7.9-4.7,12.9-4.7h11.7V79.7c0-0.8,0.3-1.4,0.9-2C367.6,77.2,368.4,76.9,369.3,76.9z M366.1,101.6h-11.7
							c-3.1,0-5.9,1-8.3,3c-2.3,2-3.4,4.3-3.4,7.1v-0.1v7c0,2.8,1.1,5.2,3.4,7.2c2.4,1.9,5.2,2.9,8.3,2.9c3.3,0,6-1,8.2-3
							c2.3-1.9,3.4-4.3,3.4-7.1V101.6z"/>
					</g>
				</g>
			</g>
		</g>
	</g>
</g>
</svg>
