<?xml version="1.0" encoding="utf-8"?>
<!-- Generator: Adobe Illustrator 14.0.0, SVG Export Plug-In . SVG Version: 6.00 Build 43363)  -->
<!DOCTYPE svg PUBLIC "-//W3C//DTD SVG 1.1//EN" "http://www.w3.org/Graphics/SVG/1.1/DTD/svg11.dtd">
<svg version="1.1" id="Layer_1" xmlns="http://www.w3.org/2000/svg" xmlns:xlink="http://www.w3.org/1999/xlink" x="0px" y="0px"
	 width="104.882px" height="56.693px" viewBox="0 0 104.882 56.693" enable-background="new 0 0 104.882 56.693"
	 xml:space="preserve">
<g>
	<g>
		<path fill="#231F20" d="M9.432,29.293h11.438l0.014,2.814h-8.085v3.291h7.414v2.6h-7.414l0.004,3.766l8.269-0.018l-0.008,2.85
			H9.432V29.293z"/>
		<path fill="#231F20" d="M23.098,29.262h3.031l0.021,15.333h-3.038L23.098,29.262z"/>
		<path fill="#231F20" d="M31.037,39.787c0.06,0.961,0.301,1.689,0.771,2.127c0.465,0.469,1.12,0.684,1.963,0.684
			c0.626,0,1.157-0.145,1.609-0.477c0.431-0.293,0.703-0.635,0.808-0.98h2.662c-0.419,1.34-1.069,2.273-1.964,2.873
			c-0.876,0.582-1.958,0.883-3.203,0.883c-0.876-0.023-1.654-0.137-2.367-0.443c-0.691-0.279-1.298-0.668-1.771-1.182
			c-0.494-0.518-0.882-1.137-1.145-1.861c-0.255-0.695-0.39-1.494-0.39-2.35c0-0.834,0.135-1.609,0.397-2.322
			c0.27-0.705,0.667-1.34,1.183-1.867c0.497-0.51,1.082-0.922,1.783-1.242c0.676-0.287,1.454-0.432,2.295-0.432
			c0.933,0,1.761,0.189,2.458,0.547c0.714,0.361,1.285,0.855,1.739,1.475c0.439,0.607,0.776,1.316,0.971,2.092
			c0.208,0.766,0.275,1.607,0.229,2.459L31.037,39.787z M36.009,37.857c-0.145-0.793-0.4-1.359-0.757-1.771
			c-0.378-0.385-0.915-0.592-1.671-0.613c-0.481,0.021-0.886,0.105-1.216,0.25c-0.316,0.193-0.578,0.389-0.752,0.623
			c-0.192,0.24-0.335,0.496-0.409,0.762c-0.085,0.285-0.159,0.541-0.159,0.75H36.009z"/>
		<path fill="#231F20" d="M48.394,37.396c-0.194-1.271-0.947-1.924-2.228-1.924c-0.503,0-0.927,0.131-1.228,0.354
			c-0.333,0.207-0.6,0.508-0.802,0.855c-0.227,0.33-0.378,0.738-0.472,1.158c-0.063,0.42-0.104,0.84-0.097,1.256
			c-0.008,0.4,0.034,0.809,0.118,1.227c0.077,0.402,0.223,0.793,0.404,1.123c0.202,0.318,0.475,0.605,0.809,0.814
			c0.323,0.221,0.73,0.324,1.192,0.338c0.721,0,1.268-0.209,1.687-0.645c0.369-0.385,0.623-0.924,0.736-1.627h2.947
			c-0.197,1.477-0.783,2.613-1.712,3.379c-0.96,0.785-2.167,1.191-3.64,1.191c-0.827,0-1.604-0.137-2.291-0.436
			c-0.679-0.252-1.28-0.664-1.769-1.178c-0.482-0.516-0.852-1.107-1.131-1.797c-0.282-0.693-0.419-1.453-0.419-2.299
			c0-0.836,0.131-1.65,0.377-2.387c0.274-0.723,0.623-1.379,1.116-1.904c0.487-0.535,1.063-0.963,1.766-1.268
			c0.72-0.287,1.524-0.432,2.423-0.416c0.636-0.016,1.275,0.063,1.905,0.225c0.59,0.168,1.125,0.459,1.594,0.791
			c0.499,0.346,0.873,0.785,1.171,1.307c0.325,0.551,0.489,1.154,0.535,1.861H48.394z"/>
		<path fill="#231F20" d="M57.014,33.503h2.242v2.031l-2.242-0.02l0.021,5.514c0,0.521,0.07,0.842,0.258,1.021
			c0.168,0.168,0.52,0.26,1.027,0.26c0.334-0.018,0.65-0.018,0.936-0.092v2.377c-0.262,0.053-0.535,0.094-0.857,0.1
			c-0.318,0-0.621,0.012-0.916,0.025c-0.477-0.014-0.916-0.031-1.342-0.125c-0.41-0.047-0.799-0.17-1.1-0.375
			c-0.307-0.186-0.59-0.447-0.785-0.807c-0.166-0.34-0.279-0.777-0.287-1.336v-6.563l-1.843,0.02v-2.031l1.851-0.02l-0.008-3.328
			l3.045,0.029V33.503z"/>
		<path fill="#231F20" d="M60.727,33.484h2.885v2.051h0.039c0.156-0.332,0.344-0.664,0.598-0.936
			c0.232-0.309,0.512-0.543,0.82-0.756c0.336-0.215,0.674-0.375,1.023-0.502c0.361-0.088,0.73-0.145,1.104-0.154
			c0.24-0.02,0.449,0.025,0.674,0.088v2.85c-0.141-0.039-0.326-0.053-0.514-0.078c-0.221-0.014-0.385-0.053-0.596-0.053
			c-0.555,0-1.018,0.117-1.4,0.307c-0.391,0.193-0.695,0.43-0.951,0.764c-0.24,0.313-0.389,0.695-0.498,1.131
			c-0.096,0.424-0.156,0.9-0.156,1.387v4.984l-3.027,0.029V33.484z"/>
		<path fill="#231F20" d="M72.18,31.763H69.15l-0.006-2.501l3.061-0.008L72.18,31.763z M69.145,33.484h3.035l0.025,11.082H69.15
			L69.145,33.484z"/>
		<path fill="#231F20" d="M82.146,37.376c-0.221-1.266-0.969-1.904-2.26-1.912c-0.477,0.008-0.896,0.139-1.234,0.348
			c-0.303,0.221-0.58,0.488-0.771,0.869c-0.217,0.346-0.369,0.715-0.461,1.158c-0.082,0.42-0.117,0.84-0.127,1.256
			c0,0.391,0.045,0.785,0.127,1.213c0.092,0.416,0.221,0.785,0.424,1.102c0.201,0.354,0.465,0.635,0.779,0.844
			c0.34,0.205,0.727,0.33,1.191,0.344c0.721-0.014,1.291-0.236,1.684-0.645c0.404-0.391,0.648-0.924,0.766-1.631l2.924-0.014
			c-0.188,1.494-0.773,2.631-1.715,3.375c-0.945,0.807-2.139,1.178-3.627,1.178c-0.844,0.012-1.615-0.141-2.289-0.4
			c-0.674-0.275-1.277-0.676-1.76-1.178c-0.49-0.516-0.879-1.113-1.139-1.807c-0.273-0.701-0.4-1.443-0.408-2.297
			c0-0.844,0.129-1.643,0.375-2.395c0.238-0.738,0.621-1.363,1.104-1.902c0.488-0.537,1.078-0.949,1.77-1.254
			c0.695-0.287,1.504-0.432,2.428-0.461c0.639,0.02,1.273,0.102,1.875,0.27c0.615,0.168,1.152,0.424,1.619,0.781
			c0.488,0.348,0.867,0.795,1.182,1.316c0.297,0.543,0.48,1.146,0.533,1.842H82.146z"/>
	</g>
	<polygon fill="#98C93E" points="99.127,10.618 92.316,24.083 96.395,24.083 86.223,44.777 90.957,29.539 85.752,29.544 
		90.596,16.76 86.078,16.774 93.834,1.564 99.457,1.542 94.348,10.632 	"/>
</g>
</svg>
