<?xml version="1.0" encoding="utf-8"?>
<!-- Generator: Adobe Illustrator 14.0.0, SVG Export Plug-In . SVG Version: 6.00 Build 43363)  -->
<!DOCTYPE svg PUBLIC "-//W3C//DTD SVG 1.1//EN" "http://www.w3.org/Graphics/SVG/1.1/DTD/svg11.dtd">
<svg version="1.1" id="Layer_1" xmlns="http://www.w3.org/2000/svg" xmlns:xlink="http://www.w3.org/1999/xlink" x="0px" y="0px"
	 width="104.882px" height="56.693px" viewBox="0 0 104.882 56.693" enable-background="new 0 0 104.882 56.693"
	 xml:space="preserve">
<g>
	<g>
		<path fill="#E90E8B" d="M43.482,32.625c-0.015-0.443-0.11-0.824-0.266-1.143c-0.158-0.342-0.376-0.592-0.663-0.818
			c-0.279-0.211-0.6-0.365-0.974-0.463c-0.365-0.094-0.752-0.145-1.159-0.139c-0.296-0.006-0.636,0.025-0.959,0.09
			c-0.318,0.074-0.6,0.182-0.887,0.355c-0.277,0.143-0.504,0.359-0.666,0.604c-0.177,0.252-0.245,0.586-0.264,0.963
			c0,0.332,0.087,0.594,0.246,0.811c0.154,0.223,0.362,0.432,0.597,0.586c0.25,0.135,0.52,0.283,0.806,0.371
			c0.268,0.09,0.545,0.164,0.783,0.219l1.917,0.455c0.409,0.066,0.802,0.154,1.196,0.32c0.408,0.166,0.757,0.377,1.083,0.619
			c0.309,0.264,0.564,0.578,0.761,0.945c0.196,0.406,0.284,0.832,0.271,1.354c0,0.635-0.116,1.188-0.422,1.604
			c-0.286,0.465-0.648,0.83-1.087,1.094c-0.462,0.281-0.97,0.488-1.519,0.623c-0.575,0.109-1.12,0.18-1.672,0.195
			c-1.376-0.021-2.483-0.352-3.333-1.016c-0.849-0.641-1.341-1.707-1.466-3.137h1.428c0.061,0.977,0.414,1.693,1.049,2.193
			c0.642,0.504,1.45,0.738,2.419,0.738c0.325,0,0.683-0.025,1.052-0.109c0.394-0.08,0.731-0.207,1.042-0.385
			c0.318-0.18,0.578-0.418,0.782-0.695c0.217-0.283,0.323-0.625,0.316-1.037c0-0.318-0.078-0.609-0.22-0.846
			c-0.136-0.252-0.342-0.451-0.585-0.615c-0.239-0.168-0.514-0.289-0.813-0.396c-0.321-0.1-0.613-0.197-0.946-0.279l-1.844-0.412
			c-0.461-0.113-0.901-0.256-1.289-0.418c-0.404-0.158-0.737-0.359-1.036-0.594c-0.284-0.227-0.519-0.531-0.679-0.863
			c-0.18-0.326-0.25-0.756-0.248-1.268c0-0.59,0.119-1.094,0.394-1.514c0.271-0.443,0.604-0.766,1.032-1.031
			c0.425-0.253,0.894-0.44,1.433-0.57c0.511-0.112,1.033-0.181,1.536-0.181c0.595,0.02,1.141,0.086,1.652,0.242
			c0.5,0.159,0.953,0.377,1.339,0.706c0.386,0.311,0.687,0.725,0.915,1.182c0.227,0.475,0.348,1.016,0.386,1.664L43.482,32.625z"/>
		<path fill="#E90E8B" d="M48.231,35.441c-0.015,0.541,0.067,1.07,0.213,1.633c0.167,0.557,0.372,1.037,0.679,1.473
			c0.309,0.428,0.691,0.797,1.179,1.098c0.505,0.283,1.098,0.428,1.769,0.428c1.061,0,1.875-0.271,2.465-0.848
			c0.584-0.521,1.002-1.246,1.217-2.15l1.443,0.008c-0.316,1.324-0.867,2.354-1.674,3.105c-0.809,0.719-1.96,1.1-3.452,1.082
			c-0.935,0.01-1.74-0.166-2.393-0.498c-0.673-0.32-1.219-0.779-1.642-1.363c-0.418-0.555-0.727-1.211-0.931-1.98
			c-0.211-0.744-0.319-1.531-0.308-2.365c-0.008-0.77,0.096-1.531,0.316-2.268c0.204-0.746,0.504-1.404,0.942-1.988
			c0.417-0.588,0.964-1.053,1.629-1.416c0.656-0.345,1.476-0.528,2.413-0.536c0.935,0.015,1.73,0.215,2.423,0.592
			c0.643,0.357,1.18,0.859,1.605,1.461c0.408,0.639,0.689,1.342,0.893,2.131c0.164,0.803,0.244,1.607,0.217,2.416L48.231,35.441z
			 M55.818,34.246c-0.031-0.529-0.133-1.041-0.295-1.57c-0.162-0.479-0.412-0.914-0.734-1.313c-0.313-0.398-0.699-0.699-1.151-0.928
			c-0.466-0.262-0.969-0.373-1.54-0.355c-0.604-0.018-1.127,0.094-1.57,0.336c-0.448,0.248-0.843,0.549-1.167,0.926
			c-0.318,0.396-0.562,0.848-0.749,1.359c-0.206,0.504-0.335,1.016-0.396,1.545H55.818z"/>
		<path fill="#E90E8B" d="M66.529,24.736l1.408,0.007l-0.014,2.287l-1.422-0.014L66.529,24.736z M66.502,29.221h1.422v11.74h-1.428
			L66.502,29.221z"/>
		<path fill="#E90E8B" d="M59.258,29.207l1.328,0.014v2.748h0.039c0.352-0.947,0.916-1.691,1.688-2.195
			c0.766-0.509,1.688-0.757,2.729-0.703v1.437c-0.66-0.031-1.238,0.037-1.76,0.244c-0.525,0.213-0.998,0.494-1.389,0.877
			c-0.375,0.385-0.662,0.836-0.898,1.375c-0.211,0.527-0.322,1.088-0.322,1.693v6.264l-1.414-0.021V29.207z"/>
		<path fill="#E90E8B" d="M70.941,35.496c0,0.512,0.076,1.051,0.232,1.6c0.146,0.535,0.379,1.029,0.668,1.48
			c0.299,0.438,0.701,0.803,1.193,1.074c0.49,0.301,1.084,0.449,1.754,0.449c1.057,0.018,1.859-0.268,2.471-0.82
			c0.582-0.553,0.992-1.275,1.229-2.162l1.426-0.014c-0.303,1.348-0.861,2.367-1.684,3.105c-0.803,0.73-1.943,1.094-3.432,1.088
			c-0.945,0-1.746-0.186-2.408-0.494c-0.654-0.336-1.215-0.791-1.635-1.359c-0.428-0.572-0.74-1.221-0.932-1.994
			c-0.215-0.725-0.307-1.529-0.307-2.357c0-0.785,0.102-1.525,0.313-2.279c0.195-0.738,0.506-1.395,0.943-1.982
			c0.41-0.576,0.963-1.041,1.633-1.396c0.674-0.356,1.463-0.53,2.414-0.548c0.938,0.019,1.74,0.196,2.402,0.587
			c0.666,0.371,1.195,0.875,1.613,1.484c0.416,0.629,0.707,1.324,0.891,2.123c0.195,0.799,0.25,1.592,0.225,2.416H70.941z
			 M78.529,34.279c-0.02-0.525-0.111-1.066-0.277-1.559c-0.174-0.494-0.432-0.941-0.75-1.326c-0.314-0.396-0.691-0.695-1.146-0.941
			c-0.447-0.234-0.977-0.346-1.535-0.346c-0.605-0.014-1.113,0.111-1.576,0.338c-0.453,0.246-0.846,0.541-1.154,0.945
			c-0.316,0.389-0.58,0.836-0.779,1.342c-0.176,0.498-0.309,1.021-0.369,1.547H78.529z"/>
		<path fill="#E90E8B" d="M88.893,32.675c-0.01-0.426-0.102-0.805-0.264-1.129c-0.178-0.322-0.393-0.59-0.674-0.813
			c-0.264-0.221-0.578-0.369-0.971-0.457c-0.348-0.115-0.738-0.148-1.146-0.17c-0.314,0.021-0.635,0.045-0.955,0.111
			c-0.34,0.074-0.617,0.184-0.908,0.34c-0.271,0.17-0.504,0.375-0.656,0.631c-0.158,0.262-0.248,0.576-0.258,0.959
			c0,0.334,0.086,0.598,0.236,0.805c0.156,0.229,0.373,0.432,0.609,0.578c0.234,0.139,0.502,0.271,0.803,0.371
			c0.281,0.078,0.539,0.176,0.795,0.24l1.898,0.434c0.414,0.061,0.818,0.164,1.207,0.328c0.408,0.158,0.771,0.369,1.08,0.623
			c0.307,0.24,0.568,0.58,0.762,0.971c0.184,0.354,0.287,0.811,0.287,1.313c0.014,0.641-0.158,1.195-0.457,1.633
			c-0.277,0.43-0.643,0.791-1.096,1.082c-0.428,0.277-0.936,0.488-1.502,0.617c-0.561,0.127-1.094,0.16-1.67,0.16
			c-1.344,0-2.467-0.311-3.33-0.971c-0.854-0.664-1.338-1.719-1.469-3.166h1.438c0.074,0.986,0.408,1.705,1.057,2.213
			c0.637,0.494,1.432,0.738,2.398,0.738c0.326,0,0.676-0.029,1.066-0.105c0.363-0.09,0.721-0.211,1.043-0.395
			c0.318-0.154,0.574-0.406,0.771-0.676c0.197-0.268,0.307-0.639,0.307-1.051c0.004-0.322-0.07-0.627-0.209-0.852
			c-0.145-0.232-0.342-0.455-0.572-0.609c-0.244-0.158-0.514-0.297-0.822-0.396c-0.314-0.113-0.631-0.217-0.951-0.283l-1.834-0.408
			c-0.477-0.129-0.9-0.264-1.287-0.404c-0.404-0.17-0.748-0.387-1.033-0.613c-0.307-0.232-0.529-0.537-0.691-0.848
			c-0.176-0.369-0.258-0.775-0.264-1.279c0.016-0.584,0.146-1.098,0.408-1.527c0.264-0.416,0.613-0.76,1.031-1.012
			c0.428-0.252,0.904-0.451,1.426-0.566c0.518-0.132,1.029-0.171,1.545-0.171c0.596,0,1.154,0.063,1.65,0.218
			c0.506,0.149,0.957,0.396,1.336,0.712c0.375,0.311,0.695,0.707,0.924,1.17c0.232,0.494,0.33,1.037,0.385,1.68L88.893,32.675z"/>
	</g>
	<g>
		<path fill="#E90E8B" d="M22.97,52.021l-8.828-22.41l13.463-5.315l2.004,5.062l-7.208,2.869l1.368,3.455l6.721-2.691l1.952,4.916
			l-6.735,2.654l1.539,3.898l7.48-2.965l2.02,5.082L22.97,52.021z"/>
	</g>
</g>
</svg>
