<?xml version="1.0" encoding="utf-8"?>
<!-- Generator: Adobe Illustrator 14.0.0, SVG Export Plug-In . SVG Version: 6.00 Build 43363)  -->
<!DOCTYPE svg PUBLIC "-//W3C//DTD SVG 1.1//EN" "http://www.w3.org/Graphics/SVG/1.1/DTD/svg11.dtd">
<svg version="1.1" id="Layer_1" xmlns="http://www.w3.org/2000/svg" xmlns:xlink="http://www.w3.org/1999/xlink" x="0px" y="0px"
	 width="104.882px" height="56.693px" viewBox="0 0 104.882 56.693" enable-background="new 0 0 104.882 56.693"
	 xml:space="preserve">
<g>
	<g>
		<path fill="#231F20" d="M7.437,32.382c0,0,0.57,0,0.44,0.492l-2.557,9.771h3.917c0.587,0,0.466,0.473,0.466,0.473l-0.168,0.646
			c0,0-0.13,0.49-0.721,0.49H2.99l2.981-11.381c0.127-0.492,0.679-0.492,0.679-0.492H7.437z"/>
		<path fill="#231F20" d="M20.09,32.382c0.572,0,0.448,0.477,0.448,0.477l-0.174,0.66c0,0-0.124,0.475-0.676,0.475H14.63
			l-0.909,3.479h3.74c0.569,0,0.445,0.473,0.445,0.473l-0.174,0.662c0,0-0.124,0.477-0.673,0.477h-3.762l-0.933,3.563h5.039
			c0.572,0,0.447,0.473,0.447,0.473l-0.174,0.662c0,0-0.124,0.475-0.676,0.475h-6.968l3.108-11.873H20.09z"/>
		<path fill="#231F20" d="M25.602,32.382c2.933,0,3.611,1.695,3.052,3.834l-1.102,4.207c-0.56,2.137-2.124,3.832-5.059,3.832h-3.935
			l3.106-11.873H25.602z M20.885,42.662h2.028c1.337,0,2.326-0.695,2.73-2.238l1.101-4.207c0.404-1.543-0.223-2.238-1.56-2.238
			h-2.028L20.885,42.662z"/>
		<path fill="#231F20" d="M40.216,35.046c-0.013,0.203-0.143,0.473-0.544,0.576l-0.728,0.152c-0.396,0.084-0.705-0.018-0.71-0.373
			c-0.016-1.07-0.497-1.477-1.66-1.477c-1.495,0-2.191,0.783-2.36,1.426c-0.147,0.561-0.083,1.068,0.472,1.355l2.984,1.527
			c1.059,0.543,1.458,1.646,1.165,2.766c-0.5,1.916-2.378,3.375-4.996,3.375c-1.614,0-3.826-0.797-3.124-3.477
			c0.13-0.492,0.699-0.492,0.699-0.492h0.787c0,0,0.552,0,0.423,0.492c-0.399,1.525,0.673,1.865,1.637,1.865
			c1.596,0,2.458-0.967,2.665-1.764c0.146-0.545,0.011-1.086-0.842-1.51l-2.507-1.256c-1.601-0.797-1.489-2.053-1.259-2.934
			c0.51-1.951,2.585-3.037,4.69-3.037C39.39,32.263,40.361,33.451,40.216,35.046z"/>
		<path fill="#231F20" d="M48.99,35.148c-0.017,0.203-0.146,0.475-0.547,0.576l-0.728,0.152c-0.396,0.086-0.726-0.084-0.71-0.373
			c0.145-1-0.381-1.627-1.64-1.627c-1.516,0-2.383,0.678-2.795,2.254l-1.15,4.395c-0.414,1.576,0.104,2.238,1.619,2.238
			c1.337,0,2.303-0.678,2.712-2.238c0.13-0.492,0.679-0.492,0.679-0.492h0.787c0,0,0.572,0,0.443,0.492
			c-0.564,2.154-2.111,3.85-5.043,3.85c-2.718,0-3.691-1.611-3.105-3.85l1.149-4.395c0.586-2.238,2.409-3.867,5.126-3.867
			C48.347,32.263,49.124,33.57,48.99,35.148z"/>
		<path fill="#231F20" d="M54.219,32.382c2.932,0,3.758,1.357,3.191,3.529c-0.494,1.883-1.564,2.814-3.262,3.357l0.742,2.578
			c0.219,0.525,0.461,0.799,0.814,0.799h0.297c0.568,0,0.438,0.508,0.438,0.508l-0.156,0.592c0,0-0.135,0.51-0.701,0.51h-0.416
			c-1.18,0-1.693-0.525-2.216-1.832l-0.782-2.883h-1.376l-1.105,4.225c-0.13,0.49-0.682,0.49-0.682,0.49H48.22
			c0,0-0.57,0-0.443-0.49l2.979-11.383H54.219z M51.214,37.929h1.554c1.576,0,2.38-0.678,2.74-2.053
			c0.404-1.545-0.367-1.898-1.705-1.898h-1.555L51.214,37.929z"/>
		<path fill="#231F20" d="M66.973,32.382c0.57,0,0.449,0.477,0.449,0.477l-0.174,0.66c0,0-0.127,0.475-0.68,0.475h-5.055
			l-0.91,3.479h3.74c0.568,0,0.445,0.473,0.445,0.473l-0.174,0.662c0,0-0.127,0.477-0.676,0.477h-3.758l-0.932,3.563h5.037
			c0.57,0,0.447,0.473,0.447,0.473l-0.172,0.662c0,0-0.125,0.475-0.68,0.475h-6.965l3.107-11.873H66.973z"/>
		<path fill="#231F20" d="M75.494,32.382c0.574,0,0.449,0.477,0.449,0.477l-0.174,0.66c0,0-0.125,0.475-0.676,0.475h-5.059
			l-0.91,3.479h3.74c0.57,0,0.445,0.473,0.445,0.473l-0.172,0.662c0,0-0.125,0.477-0.678,0.477h-3.758l-0.932,3.563h5.037
			c0.572,0,0.449,0.473,0.449,0.473l-0.174,0.662c0,0-0.125,0.475-0.676,0.475h-6.969l3.109-11.873H75.494z"/>
		<path fill="#231F20" d="M78.824,32.382c0,0,0.391,0,0.51,0.373l1.916,8.549l2.088-8.43c0,0,0.129-0.492,0.699-0.492h0.768
			c0,0,0.572,0,0.441,0.492l-2.852,10.891c0,0-0.127,0.49-0.695,0.49h-1.184c0,0-0.434,0-0.516-0.355l-1.893-8.566L76,43.765
			c0,0-0.129,0.49-0.697,0.49h-0.77c0,0-0.572,0-0.439-0.49l2.85-10.891c0,0,0.127-0.492,0.699-0.492H78.824z"/>
	</g>
	<g>
		<g>
			<path fill="#EB1F35" d="M73.404,10.33c0.094,0.871-0.541,1.65-1.414,1.743c-0.871,0.092-1.65-0.539-1.742-1.412
				c-0.092-0.87,0.541-1.652,1.41-1.744C72.531,8.824,73.314,9.458,73.404,10.33z"/>
			<path fill="#EB1F35" d="M81.223,9.178c0.092,0.871-0.539,1.651-1.412,1.743c-0.875,0.092-1.656-0.54-1.746-1.412
				c-0.09-0.871,0.541-1.653,1.414-1.746C80.35,7.671,81.131,8.305,81.223,9.178z"/>
			<path fill="#16B14B" d="M85.805,8.601c0.09,0.873-0.543,1.654-1.412,1.745c-0.873,0.092-1.656-0.54-1.748-1.412
				c-0.092-0.873,0.541-1.653,1.414-1.745C84.932,7.098,85.711,7.73,85.805,8.601z"/>
			<circle fill="#EB1F35" cx="89.253" cy="8.192" r="1.588"/>
			<path fill="#EB1F35" d="M102.287,6.869c0.098,0.901-0.557,1.711-1.461,1.804c-0.9,0.097-1.709-0.56-1.803-1.46
				c-0.092-0.903,0.561-1.71,1.461-1.805C101.387,5.313,102.195,5.967,102.287,6.869z"/>
		</g>
		<g>
			<circle fill="#16B14B" cx="71.757" cy="14.227" r="1.587"/>
			<path fill="#EB1F35" d="M77.051,13.855c0.045,0.875-0.629,1.622-1.504,1.669c-0.875,0.045-1.621-0.627-1.668-1.502
				c-0.047-0.877,0.627-1.623,1.502-1.67C76.26,12.305,77.002,12.979,77.051,13.855z"/>
			<circle fill="#0A67B2" cx="79.621" cy="13.65" r="1.588"/>
			<path fill="#EB1F35" d="M85.809,13.28c0.047,0.874-0.623,1.621-1.5,1.668c-0.877,0.045-1.623-0.627-1.67-1.503
				s0.625-1.622,1.506-1.669C85.016,11.73,85.762,12.403,85.809,13.28z"/>
			<circle fill="#0A67B2" cx="94.776" cy="12.785" r="1.587"/>
		</g>
		<g>
			<circle fill="#EB1F35" cx="71.734" cy="17.947" r="1.588"/>
			<circle fill="#EB1F35" cx="79.612" cy="17.947" r="1.587"/>
			<circle fill="#EB1F35" cx="89.284" cy="17.947" r="1.587"/>
			<path fill="#16B14B" d="M96.379,17.947c0,0.879-0.709,1.589-1.59,1.589c-0.875,0-1.586-0.71-1.586-1.589
				c0-0.877,0.711-1.586,1.586-1.586C95.67,16.361,96.379,17.07,96.379,17.947z"/>
			<circle fill="#EB1F35" cx="100.747" cy="17.947" r="1.642"/>
		</g>
		<g>
			<circle fill="#16B14B" cx="75.466" cy="21.958" r="1.587"/>
			<path fill="#EB1F35" d="M81.207,22.329c-0.047,0.877-0.793,1.548-1.668,1.502c-0.879-0.045-1.549-0.792-1.504-1.667
				c0.045-0.877,0.793-1.55,1.668-1.504C80.58,20.707,81.25,21.453,81.207,22.329z"/>
			<path fill="#0A67B2" d="M85.809,22.617c-0.047,0.876-0.793,1.548-1.664,1.503c-0.881-0.046-1.553-0.793-1.506-1.668
				c0.047-0.876,0.793-1.549,1.67-1.504C85.186,20.995,85.855,21.742,85.809,22.617z"/>
			<path fill="#EB1F35" d="M90.863,22.906c-0.047,0.876-0.797,1.547-1.668,1.501c-0.879-0.045-1.553-0.791-1.506-1.668
				c0.047-0.875,0.795-1.548,1.672-1.501C90.236,21.284,90.906,22.031,90.863,22.906z"/>
			<path fill="#EB1F35" d="M96.361,23.194c-0.047,0.876-0.793,1.549-1.668,1.502c-0.879-0.045-1.549-0.793-1.502-1.668
				c0.043-0.877,0.793-1.549,1.668-1.504C95.734,21.571,96.406,22.318,96.361,23.194z"/>
			<circle fill="#EB1F35" cx="100.725" cy="23.399" r="1.641"/>
		</g>
		<g>
			<path fill="#EB1F35" d="M73.404,25.56c-0.09,0.872-0.873,1.503-1.746,1.411c-0.869-0.092-1.502-0.871-1.41-1.743
				c0.092-0.873,0.871-1.506,1.742-1.414C72.863,23.907,73.498,24.688,73.404,25.56z"/>
			<path fill="#EB1F35" d="M77.09,26.136c-0.09,0.871-0.875,1.502-1.746,1.411c-0.869-0.092-1.504-0.871-1.41-1.743
				c0.09-0.873,0.869-1.506,1.742-1.414S77.182,25.263,77.09,26.136z"/>
			<path fill="#EB1F35" d="M85.805,27.288c-0.094,0.87-0.873,1.503-1.746,1.413c-0.873-0.093-1.506-0.875-1.414-1.745
				c0.092-0.873,0.875-1.506,1.748-1.414C85.262,25.633,85.895,26.415,85.805,27.288z"/>
			<path fill="#EB1F35" d="M90.832,27.863c-0.092,0.873-0.873,1.502-1.74,1.411c-0.877-0.09-1.508-0.871-1.416-1.743
				c0.092-0.874,0.873-1.506,1.744-1.414C90.293,26.208,90.924,26.99,90.832,27.863z"/>
			<path fill="#0A67B2" d="M102.287,29.019c-0.092,0.9-0.898,1.557-1.803,1.461c-0.9-0.096-1.553-0.904-1.461-1.803
				c0.096-0.903,0.902-1.557,1.807-1.463C101.73,27.309,102.385,28.117,102.287,29.019z"/>
		</g>
	</g>
</g>
</svg>
