<?xml version="1.0" encoding="utf-8"?>
<!-- Generator: Adobe Illustrator 14.0.0, SVG Export Plug-In . SVG Version: 6.00 Build 43363)  -->
<!DOCTYPE svg PUBLIC "-//W3C//DTD SVG 1.1//EN" "http://www.w3.org/Graphics/SVG/1.1/DTD/svg11.dtd">
<svg version="1.1" id="Layer_1" xmlns="http://www.w3.org/2000/svg" xmlns:xlink="http://www.w3.org/1999/xlink" x="0px" y="0px"
	 width="104.882px" height="56.693px" viewBox="0 0 104.882 56.693" enable-background="new 0 0 104.882 56.693"
	 xml:space="preserve">
<g>
	<g>
		<path fill="#DCAF27" d="M16.803,28.998c0.189,0,0.385,0.038,0.576,0.106c0.177,0.084,0.354,0.185,0.482,0.318
			c0.153,0.145,0.257,0.307,0.343,0.508c0.093,0.211,0.135,0.426,0.135,0.668v1.275c0,0.26-0.042,0.502-0.121,0.684
			c-0.087,0.203-0.198,0.377-0.343,0.506c-0.143,0.148-0.302,0.238-0.497,0.309c-0.176,0.078-0.383,0.121-0.568,0.117L6.407,33.492
			l0.014,2.895H4.785l-0.01-7.372L16.803,28.998z M6.407,30.623v1.264l9.718-0.014c0.149,0,0.282-0.039,0.408-0.115
			c0.13-0.063,0.182-0.213,0.182-0.406v-0.168c0-0.207-0.051-0.359-0.171-0.441c-0.113-0.084-0.249-0.137-0.425-0.127L6.407,30.623z
			"/>
		<path fill="#DCAF27" d="M31.886,28.975c0.192,0,0.381,0.039,0.575,0.109c0.187,0.072,0.352,0.187,0.504,0.326
			c0.133,0.123,0.252,0.295,0.332,0.494c0.092,0.213,0.125,0.438,0.125,0.68l0.01,1.264c0,0.439-0.115,0.791-0.333,1.049
			c-0.209,0.264-0.491,0.439-0.817,0.521l1.172,2.943h-1.655l-1.302-2.885l-8.988,0.006v2.891l-1.644,0.008l-0.005-7.391
			L31.886,28.975z M21.496,30.605l0.003,1.268l9.722-0.025c0.164,0,0.281-0.02,0.398-0.096c0.113-0.057,0.177-0.209,0.177-0.408
			v-0.162c0.008-0.221-0.05-0.357-0.165-0.459c-0.101-0.09-0.247-0.125-0.423-0.139L21.496,30.605z"/>
		<path fill="#DCAF27" d="M36.59,34.738l11.926-0.027v1.617l-13.554,0.021l-0.013-7.386l13.566-0.023v1.61l-11.943,0.033l0.01,1.256
			l11.934-0.021v1.609l-11.934,0.025L36.59,34.738z"/>
		<path fill="#DCAF27" d="M58.428,36.318h-1.633v-5.781l-4.561,0.014c-0.208,0-0.352,0.064-0.438,0.191
			c-0.084,0.129-0.131,0.293-0.131,0.504l0.005,5.082h-1.62l-0.015-5.73c0-0.264,0.04-0.5,0.123-0.701
			c0.084-0.219,0.207-0.387,0.345-0.524c0.139-0.133,0.305-0.242,0.49-0.326c0.186-0.071,0.374-0.114,0.577-0.106l12.07-0.024
			c0.195,0,0.396,0.047,0.568,0.12c0.182,0.074,0.348,0.187,0.502,0.33c0.131,0.144,0.248,0.318,0.336,0.527
			c0.084,0.205,0.133,0.422,0.133,0.668l0.014,5.748l-1.641,0.01v-5.096c0-0.201-0.045-0.367-0.143-0.5
			c-0.092-0.125-0.234-0.186-0.42-0.186h-4.57L58.428,36.318z"/>
		<path fill="#DCAF27" d="M68.357,36.298h-1.646l-0.018-7.382l1.656-0.011L68.357,36.298z"/>
		<path fill="#DCAF27" d="M81.236,34.666c0.146,0,0.285-0.068,0.402-0.195c0.113-0.119,0.17-0.295,0.17-0.496l-0.002-5.09h1.625
			l0.008,5.782c0,0.26-0.037,0.486-0.121,0.682c-0.09,0.207-0.203,0.371-0.34,0.51c-0.15,0.131-0.305,0.244-0.494,0.305
			c-0.207,0.082-0.391,0.121-0.578,0.121l-10.469,0.012c-0.209,0.004-0.412-0.037-0.594-0.096c-0.182-0.07-0.352-0.184-0.492-0.314
			c-0.137-0.139-0.252-0.309-0.34-0.502c-0.08-0.201-0.141-0.438-0.141-0.695l-0.006-5.771l1.631-0.011l0.016,5.084
			c-0.012,0.219,0.051,0.373,0.154,0.502c0.105,0.129,0.215,0.188,0.375,0.188L81.236,34.666z"/>
		<path fill="#DCAF27" d="M93.34,36.257l-1.615,0.01l-0.012-5.771h-4.566c-0.195,0-0.348,0.055-0.422,0.199
			c-0.094,0.111-0.131,0.281-0.131,0.486l0.002,5.086l-1.629,0.016l-0.01-5.752c0-0.252,0.041-0.479,0.127-0.697
			c0.088-0.207,0.205-0.383,0.346-0.517c0.143-0.129,0.305-0.234,0.479-0.319c0.189-0.082,0.383-0.114,0.584-0.114l12.066-0.026
			c0.207,0,0.389,0.036,0.59,0.118c0.174,0.082,0.336,0.188,0.488,0.336c0.146,0.147,0.25,0.336,0.336,0.522
			c0.078,0.219,0.133,0.436,0.133,0.674l0.008,5.738l-1.639-0.002v-5.086c-0.01-0.197-0.049-0.359-0.141-0.492
			c-0.107-0.129-0.24-0.189-0.434-0.182h-4.563L93.34,36.257z"/>
	</g>
	<g>
		<path fill="#DCAF27" d="M13.906,45.828l11.361-0.014c0.153,0,0.284-0.041,0.395-0.129c0.127-0.105,0.18-0.258,0.18-0.455
			l-0.004-0.131c0-0.207-0.042-0.371-0.136-0.445c-0.106-0.07-0.238-0.119-0.422-0.111l-9.85,0.014
			c-0.411,0-0.768-0.145-1.068-0.408c-0.292-0.293-0.458-0.691-0.458-1.207v-1.256c0-0.523,0.146-0.922,0.45-1.201
			c0.308-0.283,0.664-0.43,1.075-0.43l12.023-0.018l0.012,1.625l-11.361,0.023c-0.175,0-0.328,0.021-0.416,0.109
			c-0.11,0.074-0.146,0.213-0.146,0.422l-0.01,0.137c0.01,0.209,0.073,0.355,0.168,0.451c0.128,0.088,0.259,0.133,0.404,0.145
			l9.842-0.029c0.396,0,0.753,0.148,1.07,0.438c0.292,0.293,0.45,0.701,0.45,1.199v1.258c0,0.516-0.158,0.91-0.442,1.199
			c-0.313,0.283-0.663,0.402-1.073,0.416l-12.045,0.023V45.828z"/>
		<path fill="#DCAF27" d="M30.625,45.814l11.942-0.021v1.615l-13.563,0.021l-0.016-7.393l13.561-0.016v1.611l-11.93,0.012
			l0.005,1.275l11.924-0.027v1.621l-11.924,0.021V45.814z"/>
		<path fill="#DCAF27" d="M56.096,39.996c0.184-0.014,0.375,0.029,0.568,0.111c0.189,0.08,0.355,0.184,0.49,0.326
			c0.143,0.137,0.273,0.299,0.34,0.51c0.105,0.193,0.148,0.414,0.148,0.664v1.264c0,0.438-0.117,0.779-0.344,1.051
			c-0.205,0.277-0.475,0.439-0.801,0.516l1.164,2.938l-1.65,0.016l-1.303-2.895l-9.004,0.018v2.881l-1.616,0.012l-0.012-7.391
			L56.096,39.996z M45.705,41.621v1.26h9.721c0.16,0,0.299-0.039,0.416-0.109c0.113-0.063,0.17-0.193,0.17-0.404v-0.158
			c0-0.217-0.057-0.373-0.17-0.465c-0.098-0.1-0.234-0.127-0.43-0.137L45.705,41.621z"/>
		<path fill="#DCAF27" d="M60.822,47.375h-1.656l-0.004-7.393h1.643L60.822,47.375z"/>
		<path fill="#DCAF27" d="M63.969,45.755l11.934-0.023v1.615l-13.557,0.02l-0.029-7.385l13.576-0.029v1.625l-11.936,0.025v1.258
			l11.945-0.02l-0.01,1.611l-11.924,0.02V45.755z"/>
		<path fill="#DCAF27" d="M77.422,45.744l11.354-0.023c0.152,0,0.277-0.045,0.402-0.141c0.105-0.088,0.176-0.236,0.176-0.436v-0.129
			c0-0.221-0.051-0.377-0.148-0.459c-0.102-0.084-0.234-0.119-0.414-0.119l-9.854,0.016c-0.414,0-0.75-0.137-1.07-0.416
			c-0.299-0.285-0.445-0.68-0.445-1.182l-0.006-1.277c0-0.518,0.145-0.912,0.451-1.195c0.303-0.287,0.656-0.43,1.066-0.43
			l12.033-0.016v1.611l-11.354,0.029c-0.195,0-0.338,0.039-0.43,0.107c-0.096,0.076-0.137,0.227-0.137,0.441v0.133
			c0,0.207,0.055,0.348,0.182,0.434c0.105,0.1,0.244,0.148,0.4,0.141l9.818-0.02c0.412,0,0.777,0.15,1.076,0.455
			c0.303,0.287,0.445,0.682,0.445,1.184l0.012,1.268c0,0.51-0.137,0.914-0.453,1.201c-0.299,0.262-0.666,0.414-1.068,0.414
			l-12.037,0.012V45.744z"/>
	</g>
</g>
</svg>
