<?xml version="1.0" encoding="utf-8"?>
<!-- Generator: Adobe Illustrator 14.0.0, SVG Export Plug-In . SVG Version: 6.00 Build 43363)  -->
<!DOCTYPE svg PUBLIC "-//W3C//DTD SVG 1.1//EN" "http://www.w3.org/Graphics/SVG/1.1/DTD/svg11.dtd">
<svg version="1.1" id="Layer_1" xmlns="http://www.w3.org/2000/svg" xmlns:xlink="http://www.w3.org/1999/xlink" x="0px" y="0px"
	 width="104.882px" height="56.693px" viewBox="0 0 104.882 56.693" enable-background="new 0 0 104.882 56.693"
	 xml:space="preserve">
<g>
	<path fill="#03838B" d="M8.014,42.416v-2.023c0.559,0.385,1.107,0.658,1.64,0.861c0.538,0.186,1.01,0.297,1.457,0.297
		c0.489,0,0.864-0.09,1.134-0.273c0.288-0.188,0.416-0.42,0.416-0.736c0-0.402-0.507-0.855-1.546-1.377
		c-0.305-0.129-0.538-0.27-0.688-0.363c-0.892-0.451-1.5-0.885-1.825-1.307c-0.326-0.414-0.486-0.934-0.486-1.539
		c0-0.799,0.275-1.436,0.843-1.896c0.576-0.461,1.349-0.691,2.352-0.691c0.532,0,1.035,0.055,1.542,0.186
		c0.491,0.119,0.964,0.322,1.438,0.574v1.859c-0.585-0.318-1.115-0.557-1.599-0.707c-0.484-0.148-0.933-0.221-1.375-0.221
		c-0.391,0-0.695,0.053-0.921,0.195c-0.203,0.141-0.317,0.342-0.317,0.602c0,0.473,0.664,1.043,1.997,1.689l0.153,0.082
		c1.042,0.518,1.716,0.973,2.034,1.375c0.312,0.395,0.484,0.887,0.484,1.502c0,0.822-0.316,1.498-0.954,1.998
		c-0.617,0.508-1.449,0.748-2.482,0.748c-0.608,0-1.167-0.078-1.703-0.199C9.063,42.914,8.534,42.705,8.014,42.416z"/>
	<path fill="#03838B" d="M16.55,43.06v-9.492h1.891v1.166c0.467-0.449,0.941-0.777,1.41-0.99c0.458-0.223,0.966-0.322,1.515-0.322
		c0.696,0,1.276,0.131,1.741,0.387c0.482,0.262,0.873,0.666,1.193,1.215c0.584-0.58,1.124-0.973,1.636-1.242
		c0.521-0.24,1.059-0.359,1.629-0.359c1.033,0,1.854,0.299,2.456,0.896c0.593,0.594,0.896,1.422,0.896,2.461v6.281h-1.923v-5.813
		c0-0.766-0.157-1.35-0.472-1.697c-0.322-0.359-0.815-0.547-1.5-0.547c-0.499,0-0.934,0.092-1.298,0.289
		c-0.367,0.186-0.736,0.498-1.086,0.93v6.838H22.8v-5.813c0-0.766-0.173-1.332-0.502-1.697c-0.318-0.359-0.831-0.547-1.509-0.547
		c-0.482,0-0.915,0.092-1.282,0.289c-0.36,0.186-0.728,0.498-1.067,0.93v6.838H16.55z"/>
	<path fill="#03838B" d="M37.979,42.269c-0.465,0.35-0.927,0.586-1.348,0.74c-0.423,0.15-0.885,0.227-1.384,0.227
		c-0.864,0-1.513-0.207-2-0.617c-0.457-0.398-0.722-0.975-0.722-1.688c0-0.666,0.265-1.256,0.786-1.768
		c0.521-0.512,1.314-0.934,2.355-1.275l2.248-0.752c0-0.057,0.019-0.111,0.019-0.17c0-0.055,0-0.127,0-0.223
		c0-0.586-0.136-0.982-0.415-1.227c-0.275-0.264-0.738-0.387-1.367-0.387c-0.529,0-1.078,0.115-1.646,0.338
		c-0.554,0.223-1.11,0.545-1.676,0.977v-1.861c0.482-0.393,1.028-0.703,1.629-0.904c0.61-0.186,1.25-0.303,1.927-0.303
		c1.217,0,2.105,0.285,2.67,0.814c0.551,0.537,0.833,1.404,0.833,2.602v4.031c0,0.334,0.023,0.557,0.081,0.707
		c0.059,0.131,0.153,0.211,0.287,0.211c0.134,0,0.248-0.029,0.362-0.098c0.14-0.057,0.342-0.205,0.638-0.432v1.148
		c-0.349,0.295-0.702,0.512-1.048,0.648c-0.342,0.15-0.704,0.227-1.08,0.227c-0.379,0-0.637-0.076-0.811-0.227
		C38.124,42.855,38.023,42.593,37.979,42.269z M37.915,41.14v-2.803c-1.262,0.404-2.152,0.771-2.641,1.1
		c-0.484,0.342-0.715,0.723-0.715,1.182c0,0.385,0.117,0.688,0.368,0.898c0.258,0.213,0.604,0.336,1.052,0.336
		c0.34,0,0.674-0.074,0.997-0.191C37.291,41.544,37.614,41.365,37.915,41.14z"/>
	<path fill="#03838B" d="M42.381,43.06v-9.492h1.902v2.068c0.523-0.84,0.991-1.418,1.436-1.748c0.399-0.32,0.861-0.49,1.365-0.49
		c0.337,0,0.691,0.086,1.03,0.223c0.366,0.146,0.728,0.391,1.112,0.705l-1.016,1.688c-0.305-0.26-0.591-0.463-0.886-0.584
		c-0.268-0.115-0.563-0.176-0.879-0.176c-0.502,0-0.956,0.215-1.342,0.645c-0.393,0.43-0.657,1.035-0.819,1.799v5.363H42.381z"/>
	<path fill="#03838B" d="M53.769,41.439c-0.489,0-0.821-0.113-1.001-0.318c-0.204-0.227-0.298-0.734-0.298-1.533v-4.342h2.972
		v-1.648H52.47v-2.211h-0.212l-3.32,3.672v0.188h1.616v4.486c0,1.344,0.211,2.27,0.641,2.783c0.387,0.439,1.027,0.664,1.891,0.734
		h12.446v-1.811H53.769z"/>
	<path fill="#03838B" d="M86.16,43.25c-1.012,0-1.84-0.82-1.84-1.848V21.641l-8.902-4.995l-8.926,4.995V39.57h11.617V27.869
		l-2.691-1.707l-2.682,1.707v7.457c0,1.002-0.828,1.832-1.848,1.832c-1.01,0-1.852-0.83-1.852-1.832v-8.451
		c0-0.637,0.338-1.217,0.861-1.553l4.52-2.907c0.609-0.373,1.375-0.373,1.986,0l4.535,2.907c0.518,0.336,0.834,0.916,0.834,1.553
		v14.527c0,1.027-0.818,1.848-1.834,1.848H64.66c-1.02,0-1.844-0.82-1.844-1.848V21.335c0-0.624,0.324-1.209,0.854-1.55
		l10.748-6.879c0.609-0.382,1.375-0.382,1.986,0l10.752,6.879c0.518,0.34,0.842,0.926,0.842,1.55v20.066
		C87.998,42.429,87.182,43.25,86.16,43.25L86.16,43.25z M69.91,35.191c0,0.549,0.432,0.967,0.979,0.967s0.973-0.418,0.973-0.967
		c0-0.539-0.426-0.979-0.973-0.979S69.91,34.652,69.91,35.191z M85.193,41.402c0,0.549,0.426,0.988,0.967,0.988
		c0.545,0,0.986-0.439,0.986-0.988c0-0.545-0.441-0.959-0.986-0.959C85.619,40.443,85.193,40.857,85.193,41.402z"/>
	<g>
		<path fill="#03838B" d="M87.863,15.712c0,0.933-0.756,1.684-1.688,1.684c-0.926,0-1.693-0.75-1.693-1.684
			c0-0.934,0.768-1.688,1.693-1.688C87.107,14.024,87.863,14.779,87.863,15.712L87.863,15.712z M87.863,15.712"/>
		<g>
			<path fill="#03838B" d="M90.211,11.642c-0.035-0.017-0.043-0.044-0.09-0.068l-0.072-0.065c0-0.025-0.018-0.033-0.041-0.033
				c-2.186-2-5.525-1.925-7.609,0.166l-0.23,0.244l-0.344,0.342c-0.414,0.412-0.414,1.091,0,1.489c0.414,0.427,1.078,0.427,1.502,0
				l0.584-0.577c1.32-1.319,3.48-1.319,4.795,0l0.422,0.411c0.41,0.401,1.076,0.401,1.488,0c0.197-0.206,0.309-0.448,0.309-0.747
				c0-0.28-0.104-0.549-0.309-0.751L90.211,11.642z M90.211,11.642"/>
			<path fill="#03838B" d="M93.08,9.551l-0.344-0.338c0,0,0,0-0.016,0L92.447,8.92c-0.045-0.047-0.102-0.085-0.158-0.117
				c-3.557-3.132-8.963-3.034-12.412,0.278c-0.027,0.02-0.049,0.026-0.051,0.045l-0.641,0.637c-0.352,0.362-0.352,0.98,0.004,1.365
				c0.379,0.38,0.992,0.38,1.361,0l0.629-0.631c0.029-0.011,0.029-0.025,0.029-0.025c2.781-2.687,7.197-2.697,10.016-0.047
				l0.492,0.504c0.369,0.374,0.988,0.374,1.363,0C93.459,10.542,93.463,9.918,93.08,9.551L93.08,9.551z M93.08,9.551"/>
		</g>
	</g>
	<path fill="#EB1F3C" d="M90.316,25.63c-0.326,0-0.664-0.091-0.969-0.291l-13.93-8.709l-13.943,8.709
		c-0.852,0.545-1.99,0.281-2.529-0.58c-0.533-0.867-0.277-1.997,0.578-2.533l14.912-9.334c0.602-0.369,1.35-0.369,1.941,0
		l14.928,9.334c0.848,0.537,1.117,1.666,0.576,2.533C91.537,25.322,90.932,25.63,90.316,25.63L90.316,25.63z M59.523,23.773
		c0,0.546,0.439,0.987,0.977,0.987c0.541,0,0.975-0.441,0.975-0.987c0-0.542-0.434-0.974-0.975-0.974
		C59.963,22.799,59.523,23.231,59.523,23.773z M89.348,23.773c0,0.546,0.445,0.987,0.979,0.987s0.971-0.441,0.971-0.987
		c0-0.542-0.438-0.974-0.971-0.974S89.348,23.231,89.348,23.773z"/>
</g>
</svg>
