<?xml version="1.0" encoding="utf-8"?>
<!-- Generator: Adobe Illustrator 22.0.1, SVG Export Plug-In . SVG Version: 6.00 Build 0)  -->
<svg version="1.1" id="Layer_1" xmlns="http://www.w3.org/2000/svg" xmlns:xlink="http://www.w3.org/1999/xlink" x="0px" y="0px"
	 viewBox="0 0 180.6 76.1" style="enable-background:new 0 0 180.6 76.1;" xml:space="preserve">
<style type="text/css">
	.Arched_x0020_Green{fill:url(#SVGID_1_);stroke:#FFFFFF;stroke-width:0.25;stroke-miterlimit:1;}
	.st0{fill:#F2F2F2;}
	.st1{fill:#333333;}
	.st2{fill:#FFFFFF;}
	.st3{fill:none;stroke:#FFFFFF;stroke-width:0.9921;stroke-linecap:round;}
	.st4{fill:none;stroke:#FFFFFF;stroke-width:0.7823;stroke-linecap:round;}
	.st5{fill:#EC1A3B;}
	.st6{fill:none;stroke:#C9CBCB;stroke-width:1.4173;}
	.st7{opacity:0.65;fill:#FFFFFF;}
	.st8{opacity:6.000000e-02;fill:#FFFFFF;}
	.st9{fill:#EC1B34;}
	.st10{opacity:0.65;fill:#ED1D35;}
	.st11{fill:#E6E7E8;}
	.st12{fill:#8D8989;}
	.st13{opacity:0.6;}
	.st14{opacity:0.3;fill:url(#SVGID_2_);}
	.st15{opacity:0.5;fill:url(#SVGID_3_);}
	.st16{opacity:0.5;fill:url(#SVGID_4_);}
	.st17{fill:none;stroke:#4D4D4F;stroke-width:0.9075;}
	.st18{fill:#4D4D4F;}
	.st19{fill:url(#SVGID_5_);}
	.st20{fill:url(#SVGID_6_);}
	.st21{fill:url(#SVGID_7_);}
	.st22{fill:url(#SVGID_8_);}
	.st23{fill:url(#SVGID_9_);}
	.st24{fill:url(#SVGID_10_);}
	.st25{fill:url(#SVGID_11_);}
	.st26{fill:url(#SVGID_12_);}
	.st27{fill:url(#SVGID_13_);}
	.st28{fill:url(#SVGID_14_);}
	.st29{fill:url(#SVGID_15_);}
	.st30{fill:url(#SVGID_16_);}
	.st31{fill:url(#SVGID_17_);}
	.st32{fill:url(#SVGID_18_);}
	.st33{fill:url(#SVGID_19_);}
	.st34{fill:url(#SVGID_20_);}
	.st35{fill:url(#SVGID_21_);}
	.st36{fill:url(#SVGID_22_);}
	.st37{fill:url(#SVGID_23_);}
	.st38{fill:url(#SVGID_24_);}
	.st39{fill:url(#SVGID_25_);}
	.st40{fill:url(#SVGID_26_);}
	.st41{fill:url(#SVGID_27_);}
	.st42{fill:url(#SVGID_28_);}
	.st43{fill:url(#SVGID_29_);}
	.st44{fill:url(#SVGID_30_);}
	.st45{fill:url(#SVGID_31_);}
	.st46{fill:url(#SVGID_32_);}
	.st47{fill:url(#SVGID_33_);}
	.st48{fill:url(#SVGID_34_);}
	.st49{fill:url(#SVGID_35_);}
	.st50{fill:url(#SVGID_36_);}
	.st51{opacity:0.3;fill:url(#SVGID_37_);}
	.st52{opacity:0.5;fill:url(#SVGID_38_);}
	.st53{opacity:0.5;fill:url(#SVGID_39_);}
	.st54{filter:url(#Adobe_OpacityMaskFilter);}
	.st55{opacity:0.35;mask:url(#SVGID_40_);fill:url(#SVGID_41_);}
	.st56{filter:url(#Adobe_OpacityMaskFilter_1_);}
	.st57{opacity:0.15;mask:url(#SVGID_42_);fill:url(#SVGID_43_);}
	.st58{fill:#FFF100;}
	.st59{fill:none;stroke:#4D4D4F;stroke-width:1.6834;}
	.st60{fill:url(#SVGID_44_);}
	.st61{fill:url(#SVGID_45_);}
	.st62{fill:url(#SVGID_46_);}
	.st63{fill:url(#SVGID_47_);}
	.st64{fill:url(#SVGID_48_);}
	.st65{fill:url(#SVGID_49_);}
	.st66{fill:url(#SVGID_50_);}
	.st67{fill:url(#SVGID_51_);}
	.st68{fill:url(#SVGID_52_);}
	.st69{fill:url(#SVGID_53_);}
	.st70{fill:url(#SVGID_54_);}
	.st71{fill:url(#SVGID_55_);}
	.st72{fill:url(#SVGID_56_);}
	.st73{fill:url(#SVGID_57_);}
	.st74{fill:url(#SVGID_58_);}
	.st75{fill:url(#SVGID_59_);}
	.st76{fill:url(#SVGID_60_);}
	.st77{fill:url(#SVGID_61_);}
	.st78{fill:url(#SVGID_62_);}
	.st79{fill:url(#SVGID_63_);}
	.st80{fill:url(#SVGID_64_);}
	.st81{fill:url(#SVGID_65_);}
	.st82{fill:url(#SVGID_66_);}
	.st83{fill:url(#SVGID_67_);}
	.st84{fill:url(#SVGID_68_);}
	.st85{fill:url(#SVGID_69_);}
	.st86{fill:url(#SVGID_70_);}
	.st87{fill:url(#SVGID_71_);}
	.st88{fill:url(#SVGID_72_);}
	.st89{fill:url(#SVGID_73_);}
	.st90{fill:url(#SVGID_74_);}
	.st91{fill:url(#SVGID_75_);}
	.st92{opacity:0.3;fill:url(#SVGID_76_);}
	.st93{opacity:0.5;fill:url(#SVGID_77_);}
	.st94{opacity:0.5;fill:url(#SVGID_78_);}
	.st95{filter:url(#Adobe_OpacityMaskFilter_2_);}
	.st96{opacity:0.35;mask:url(#SVGID_79_);fill:url(#SVGID_80_);}
	.st97{filter:url(#Adobe_OpacityMaskFilter_3_);}
	.st98{opacity:0.15;mask:url(#SVGID_81_);fill:url(#SVGID_82_);}
	.st99{fill:url(#SVGID_83_);}
	.st100{filter:url(#Adobe_OpacityMaskFilter_4_);}
	.st101{fill:url(#SVGID_85_);}
	.st102{fill:url(#SVGID_86_);}
	.st103{mask:url(#SVGID_84_);fill:#008C42;}
	.st104{fill:url(#SVGID_87_);}
	.st105{filter:url(#Adobe_OpacityMaskFilter_5_);}
	.st106{fill:url(#SVGID_89_);}
	.st107{fill:url(#SVGID_90_);}
	.st108{mask:url(#SVGID_88_);fill:#0066B2;}
	.st109{fill:url(#SVGID_91_);}
	.st110{filter:url(#Adobe_OpacityMaskFilter_6_);}
	.st111{fill:url(#SVGID_93_);}
	.st112{fill:url(#SVGID_94_);}
	.st113{mask:url(#SVGID_92_);fill:#EC1C24;}
	.st114{filter:url(#Adobe_OpacityMaskFilter_7_);}
	.st115{fill:url(#SVGID_96_);}
	.st116{opacity:0.9;mask:url(#SVGID_95_);}
	.st117{filter:url(#Adobe_OpacityMaskFilter_8_);}
	.st118{fill:url(#SVGID_98_);}
	.st119{mask:url(#SVGID_97_);}
	.st120{fill:url(#SVGID_99_);}
	.st121{fill:url(#SVGID_100_);}
	.st122{fill:url(#SVGID_101_);}
	.st123{fill:#231F20;}
	.st124{fill:#C61D23;}
	.st125{fill:#008C42;}
	.st126{fill:#0066B2;}
	.st127{fill:none;stroke:#4D4D4F;stroke-width:0.9701;}
	.st128{filter:url(#Adobe_OpacityMaskFilter_9_);}
	.st129{fill:url(#SVGID_103_);}
	.st130{mask:url(#SVGID_102_);}
	.st131{fill:none;stroke:#474748;stroke-width:0.3933;}
	.st132{fill:none;stroke:#4D4D4E;stroke-width:0.3728;}
	.st133{fill:none;stroke:#535354;stroke-width:0.3523;}
	.st134{fill:none;stroke:#59595B;stroke-width:0.3319;}
	.st135{fill:none;stroke:#5F5F61;stroke-width:0.3114;}
	.st136{fill:none;stroke:#656567;stroke-width:0.2909;}
	.st137{fill:none;stroke:#6B6B6D;stroke-width:0.2704;}
	.st138{fill:none;stroke:#717173;stroke-width:0.2499;}
	.st139{fill:none;stroke:#77787A;stroke-width:0.2294;}
	.st140{fill:none;stroke:#7C7E80;stroke-width:0.2089;}
	.st141{fill:none;stroke:#828486;stroke-width:0.1885;}
	.st142{fill:none;stroke:#888A8C;stroke-width:0.168;}
	.st143{fill:none;stroke:#8E9092;stroke-width:0.1475;}
	.st144{fill:none;stroke:#949698;stroke-width:0.127;}
	.st145{fill:none;stroke:#9A9C9F;stroke-width:0.1065;}
	.st146{fill:none;stroke:#A0A2A5;stroke-width:8.603600e-02;}
	.st147{fill:none;stroke:#A6A8AB;stroke-width:6.555100e-02;}
	.st148{fill:none;stroke:#333333;stroke-width:0.7767;}
	.st149{fill:url(#SVGID_104_);}
	.st150{filter:url(#Adobe_OpacityMaskFilter_10_);}
	.st151{fill:url(#SVGID_106_);}
	.st152{fill:url(#SVGID_107_);}
	.st153{mask:url(#SVGID_105_);fill:#008C42;}
	.st154{fill:url(#SVGID_108_);}
	.st155{filter:url(#Adobe_OpacityMaskFilter_11_);}
	.st156{fill:url(#SVGID_110_);}
	.st157{fill:url(#SVGID_111_);}
	.st158{mask:url(#SVGID_109_);fill:#0066B2;}
	.st159{fill:url(#SVGID_112_);}
	.st160{filter:url(#Adobe_OpacityMaskFilter_12_);}
	.st161{fill:url(#SVGID_114_);}
	.st162{fill:url(#SVGID_115_);}
	.st163{mask:url(#SVGID_113_);fill:#EC1C24;}
	.st164{filter:url(#Adobe_OpacityMaskFilter_13_);}
	.st165{fill:url(#SVGID_117_);}
	.st166{opacity:0.9;mask:url(#SVGID_116_);}
	.st167{filter:url(#Adobe_OpacityMaskFilter_14_);}
	.st168{fill:url(#SVGID_119_);}
	.st169{mask:url(#SVGID_118_);}
	.st170{fill:url(#SVGID_120_);}
	.st171{fill:url(#SVGID_121_);}
	.st172{fill:url(#SVGID_122_);}
	.st173{fill:#00828B;}
	.st174{fill:#EB008B;}
	.st175{fill:#98C93C;}
	.st176{fill:#DBAE27;}
	.st177{fill:#0DB04B;}
	.st178{fill:url(#SVGID_123_);}
	.st179{fill:url(#SVGID_124_);}
	.st180{fill:url(#SVGID_125_);}
	.st181{fill:url(#SVGID_126_);}
	.st182{fill:url(#SVGID_127_);}
	.st183{fill:url(#SVGID_128_);}
	.st184{fill:url(#SVGID_129_);}
	.st185{fill:#F9A51A;}
	.st186{opacity:0.5;fill:#C3132A;}
	.st187{opacity:0.1;fill:#C3132A;}
	.st188{fill:#474748;}
	.st189{fill:#8A8A8B;}
</style>
<linearGradient id="SVGID_1_" gradientUnits="userSpaceOnUse" x1="-1191.6666" y1="-114.1104" x2="-1190.9596" y2="-114.8175">
	<stop  offset="0" style="stop-color:#1EAB4B"/>
	<stop  offset="0.9831" style="stop-color:#19361A"/>
</linearGradient>
<g>
	<g>
		<g>
			<g>
				<polygon class="st11" points="94.5,68.1 93.8,68.1 93.8,0.4 94.5,0.4 94.5,68.1 				"/>
			</g>
		</g>
	</g>
	<g>
		<g>
			<g>
				<path class="st11" d="M139,45.1h-3.4V14.4h-9.6V11h22.5v3.4H139V45.1z"/>
				<path class="st11" d="M175.5,19.8c-1.5-2.1-3.2-3.7-5.1-4.7c-1.9-1-4.1-1.5-6.5-1.5c-3.8,0-7,1.4-9.7,4.2c-2.7,2.8-4,6.2-4,10
					c0,4.1,1.3,7.6,4,10.4c2.7,2.8,5.9,4.2,9.8,4.2c2.4,0,4.5-0.5,6.4-1.5c1.9-1,3.6-2.5,5-4.4h4c-1.6,2.9-3.7,5.2-6.3,6.7
					c-2.6,1.6-5.6,2.4-8.8,2.4c-5,0-9.2-1.7-12.6-5.1c-3.4-3.4-5-7.7-5-12.8c0-2.4,0.5-4.7,1.4-6.8c0.9-2.1,2.2-4.1,4-5.8
					c1.6-1.6,3.4-2.9,5.5-3.7c2-0.8,4.2-1.3,6.6-1.3c3.4,0,6.4,0.8,9.2,2.5c2.7,1.7,4.9,4,6.4,7H175.5z"/>
			</g>
			<g>
				<path class="st11" d="M101.1,58v-6.8h1l2.4,5.9l2.4-5.9h1V58h-0.6v-6l-2.4,6h-0.6l-2.4-6v6H101.1z"/>
				<path class="st11" d="M109.6,58H109v-6.8h0.7V58z"/>
				<path class="st11" d="M110.9,51.2h1.9c0.5,0,1,0.1,1.3,0.2c0.4,0.1,0.7,0.3,1,0.5c0.4,0.3,0.7,0.7,0.9,1.2
					c0.2,0.5,0.3,1,0.3,1.5c0,0.6-0.1,1.1-0.3,1.6c-0.2,0.5-0.6,0.9-1,1.2c-0.3,0.2-0.6,0.3-0.9,0.4c-0.3,0.1-0.9,0.1-1.5,0.1h-1.6
					V51.2z M111.6,51.9v5.5h1.4c0.9,0,1.5-0.2,2-0.7c0.5-0.5,0.7-1.2,0.7-2.1c0-0.4-0.1-0.9-0.2-1.2c-0.2-0.4-0.4-0.7-0.7-1
					c-0.2-0.2-0.5-0.3-0.7-0.4c-0.3-0.1-0.7-0.1-1.2-0.1H111.6z"/>
				<path class="st11" d="M117.3,51.2h1.9c0.5,0,1,0.1,1.3,0.2c0.4,0.1,0.7,0.3,1,0.5c0.4,0.3,0.7,0.7,0.9,1.2
					c0.2,0.5,0.3,1,0.3,1.5c0,0.6-0.1,1.1-0.4,1.6c-0.2,0.5-0.6,0.9-1,1.2c-0.3,0.2-0.6,0.3-0.9,0.4c-0.3,0.1-0.8,0.1-1.5,0.1h-1.6
					V51.2z M118,51.9v5.5h1.4c0.9,0,1.5-0.2,2-0.7c0.5-0.5,0.7-1.2,0.7-2.1c0-0.4-0.1-0.9-0.2-1.2c-0.2-0.4-0.4-0.7-0.7-1
					c-0.2-0.2-0.5-0.3-0.7-0.4c-0.3-0.1-0.7-0.1-1.2-0.1H118z"/>
				<path class="st11" d="M126.8,58h-3.1v-6.8h0.7v6.2h2.4V58z"/>
				<path class="st11" d="M128.3,54.3h2.9V55h-2.9v2.4h2.9V58h-3.5v-6.8h3.5v0.7h-2.9V54.3z"/>
				<path class="st11" d="M135.9,54.3h2.9V55h-2.9v2.4h2.9V58h-3.5v-6.8h3.5v0.7h-2.9V54.3z"/>
				<path class="st11" d="M139.8,58h-0.7l2.6-6.8h0.8l2.6,6.8h-0.7l-0.8-2.1h-3L139.8,58z M143.5,55.3l-1.3-3.4l-1.3,3.4H143.5z"/>
				<path class="st11" d="M145.6,56.1h0.6c0,0.4,0.1,0.8,0.4,1c0.2,0.2,0.5,0.4,0.9,0.4c0.4,0,0.7-0.1,0.9-0.4
					c0.2-0.2,0.3-0.6,0.3-1c0-0.6-0.5-1.1-1.4-1.4c-0.1,0-0.1,0-0.2-0.1c-0.5-0.2-0.9-0.4-1.1-0.7c-0.2-0.3-0.3-0.6-0.3-1
					c0-0.5,0.2-1,0.5-1.3c0.3-0.3,0.8-0.5,1.3-0.5c0.5,0,0.9,0.2,1.2,0.5c0.3,0.3,0.5,0.8,0.5,1.3h-0.6c0-0.4-0.1-0.7-0.3-0.9
					c-0.2-0.2-0.4-0.3-0.8-0.3c-0.3,0-0.6,0.1-0.8,0.3c-0.2,0.2-0.3,0.5-0.3,0.8c0,0.2,0,0.3,0.1,0.5c0.1,0.1,0.2,0.2,0.3,0.4
					c0.1,0.1,0.4,0.2,0.8,0.4c0.2,0.1,0.4,0.1,0.5,0.2c0.4,0.2,0.8,0.4,1,0.7c0.2,0.3,0.3,0.6,0.3,1.1c0,0.7-0.2,1.2-0.5,1.6
					c-0.4,0.4-0.8,0.6-1.4,0.6c-0.6,0-1-0.2-1.3-0.6C145.8,57.2,145.7,56.7,145.6,56.1z"/>
				<path class="st11" d="M151.9,58h-0.7v-6.2h-1.4v-0.7h3.4v0.7h-1.4V58z"/>
				<path class="st11" d="M156.7,58v-6.8h3.4v0.7h-2.7v2.4h2.7V55h-2.7V58H156.7z"/>
				<path class="st11" d="M164.1,51.9h-3v-0.7h3.8v0.6l-3.2,5.5h3.3V58h-4v-0.7L164.1,51.9z"/>
				<path class="st11" d="M171.2,53c-0.3-0.4-0.6-0.7-1-0.9c-0.4-0.2-0.8-0.3-1.3-0.3c-0.8,0-1.4,0.3-1.9,0.8
					c-0.5,0.6-0.8,1.2-0.8,2c0,0.8,0.3,1.5,0.8,2.1c0.5,0.6,1.2,0.8,1.9,0.8c0.5,0,0.9-0.1,1.3-0.3c0.4-0.2,0.7-0.5,1-0.9h0.8
					c-0.3,0.6-0.7,1-1.3,1.3c-0.5,0.3-1.1,0.5-1.8,0.5c-1,0-1.8-0.3-2.5-1c-0.7-0.7-1-1.5-1-2.6c0-0.5,0.1-0.9,0.3-1.4
					c0.2-0.4,0.4-0.8,0.8-1.2c0.3-0.3,0.7-0.6,1.1-0.7c0.4-0.2,0.8-0.2,1.3-0.2c0.7,0,1.3,0.2,1.8,0.5c0.5,0.3,1,0.8,1.3,1.4H171.2z
					"/>
				<path class="st11" d="M172.6,54.6c0-0.5,0.1-0.9,0.3-1.4c0.2-0.4,0.5-0.8,0.8-1.2c0.3-0.3,0.7-0.6,1.1-0.7
					c0.4-0.2,0.8-0.2,1.3-0.2c0.5,0,0.9,0.1,1.3,0.2c0.4,0.2,0.8,0.4,1.1,0.7c0.3,0.3,0.6,0.7,0.8,1.1c0.2,0.4,0.3,0.9,0.3,1.4
					c0,0.5-0.1,0.9-0.2,1.3c-0.2,0.4-0.4,0.8-0.7,1.1c-0.3,0.4-0.7,0.7-1.2,0.9c-0.4,0.2-0.9,0.3-1.4,0.3c-1,0-1.8-0.3-2.5-1
					C172.9,56.5,172.6,55.6,172.6,54.6z M173.3,54.6c0,0.8,0.3,1.5,0.8,2.1c0.5,0.6,1.2,0.8,2,0.8c0.8,0,1.4-0.3,2-0.9
					c0.5-0.6,0.8-1.3,0.8-2.1c0-0.8-0.3-1.4-0.8-2c-0.6-0.6-1.2-0.8-2-0.8c-0.3,0-0.6,0.1-0.9,0.2c-0.3,0.1-0.6,0.3-0.8,0.5
					c-0.3,0.3-0.6,0.6-0.8,1C173.4,53.8,173.3,54.2,173.3,54.6z"/>
			</g>
			<polygon class="st11" points="118.4,11 114.3,11 101.1,45.1 104.6,45.1 108.4,35.2 108.4,35.2 110.1,30.9 110.1,30.9 116.3,14.2 
				122.7,31.4 112.3,31.4 111.3,34.4 123.9,34.4 128,45.1 131.6,45.1 			"/>
		</g>
	</g>
	<g>
		<g>
			<g>
				<g>
					<polyline class="st11" points="48,4.2 54.3,0.6 60.6,4.1 					"/>
				</g>
				<g>
					<polyline class="st11" points="39.6,8.9 48.4,7.4 47.3,14.3 					"/>
				</g>
				<g>
					<polyline class="st11" points="27.5,23.6 33.1,16.4 37.3,21.3 					"/>
				</g>
				<g>
					<polyline class="st11" points="22.4,29.5 27.4,28.9 27.4,38.5 					"/>
				</g>
				<g>
					<polyline class="st11" points="60.3,7.4 69.3,8.8 71.2,15.9 					"/>
				</g>
				<g>
					<polyline class="st11" points="48.5,15.2 60.2,15.1 61,25.7 					"/>
				</g>
				<g>
					<polyline class="st11" points="33.9,33.9 40.7,25.2 48.7,33.9 					"/>
				</g>
				<g>
					<polyline class="st11" points="71.6,21.5 75.9,16.5 81.7,23.8 					"/>
				</g>
				<g>
					<polyline class="st11" points="60.1,34.1 68.3,25.3 75.2,34.1 					"/>
				</g>
				<g>
					<polyline class="st11" points="81.9,29.4 86.9,30 86.9,38.4 					"/>
				</g>
				<g>
					<polyline class="st11" points="27.6,44.1 31.1,38.1 37.5,46.3 					"/>
				</g>
				<g>
					<polyline class="st11" points="47.8,42.2 61.2,42.2 60.3,52.7 					"/>
				</g>
				<g>
					<polyline class="st11" points="37.9,51.8 47.7,53.5 48.7,60.3 					"/>
				</g>
				<g>
					<polyline class="st11" points="71.7,46.7 78.1,38.5 81.7,44.4 					"/>
				</g>
				<g>
					<polyline class="st11" points="61.6,53.6 71.4,52 69.5,59.1 					"/>
				</g>
				<g>
					<polyline class="st11" points="48.5,63.6 54.8,60.2 61,63.6 					"/>
				</g>
			</g>
		</g>
		<g>
			<polyline class="st12" points="27.4,38.5 22.4,37.9 22.4,29.5 			"/>
			<polyline class="st12" points="48.7,33.9 40.7,42.6 33.9,33.9 			"/>
			<polyline class="st12" points="37.5,46.3 33.2,51.2 27.6,44.1 			"/>
			<polyline class="st12" points="75.2,34.1 68.2,42.8 60.1,34.1 			"/>
			<polyline class="st12" points="60.3,52.7 48.8,52.7 47.8,42.2 			"/>
			<polyline class="st12" points="48.7,60.3 39.8,58.9 37.9,51.8 			"/>
			<polyline class="st12" points="86.9,38.4 81.8,39 81.9,29.4 			"/>
			<polyline class="st12" points="81.7,44.4 76,51.6 71.7,46.7 			"/>
			<polyline class="st12" points="69.5,59.1 60.6,60.5 61.6,53.6 			"/>
			<polyline class="st12" points="61,63.6 54.8,67.2 48.5,63.6 			"/>
			<polyline class="st12" points="60.6,4.1 54.2,7.7 48,4.2 			"/>
			<polyline class="st12" points="47.3,14.3 37.6,16 39.6,8.9 			"/>
			<polyline class="st12" points="37.3,21.3 31,29.5 27.5,23.6 			"/>
			<polyline class="st12" points="71.2,15.9 61.3,14.3 60.3,7.4 			"/>
			<polyline class="st12" points="61,25.7 47.6,25.8 48.5,15.2 			"/>
			<polyline class="st12" points="81.7,23.8 78.1,29.8 71.6,21.5 			"/>
		</g>
		<g class="st13">
			
				<radialGradient id="SVGID_2_" cx="-838.0368" cy="-82.6277" r="27.1623" gradientTransform="matrix(1.5344 7.271895e-03 -3.406936e-04 0.1151 1340.4974 86.6835)" gradientUnits="userSpaceOnUse">
				<stop  offset="0" style="stop-color:#262626"/>
				<stop  offset="1" style="stop-color:#FFFFFF"/>
			</radialGradient>
			<path class="st14" d="M108.8,71.1c0,2.7-24.3,5-54.2,5c-29.9,0-54.2-2.2-54.2-5c0-2.7,24.3-5,54.2-5
				C86.8,66.1,108.8,68.5,108.8,71.1z"/>
			
				<radialGradient id="SVGID_3_" cx="1041.4125" cy="147.9917" r="35.0643" gradientTransform="matrix(0.722 2.776071e-03 -1.855749e-04 5.949279e-02 -697.2158 59.3826)" gradientUnits="userSpaceOnUse">
				<stop  offset="0" style="stop-color:#000000"/>
				<stop  offset="1" style="stop-color:#FFFFFF"/>
			</radialGradient>
			<path class="st15" d="M80.1,71.1c0,1.1-11.4,2-25.5,2c-14.1,0-25.5-0.9-25.5-2c0-1.1,11.4-2,25.5-2C68.7,69,80.1,70,80.1,71.1z"
				/>
			
				<radialGradient id="SVGID_4_" cx="9407.6396" cy="385.9149" r="35.0597" gradientTransform="matrix(0.215 1.731581e-03 -5.526124e-05 3.710878e-02 -1967.9581 40.4681)" gradientUnits="userSpaceOnUse">
				<stop  offset="0" style="stop-color:#000000"/>
				<stop  offset="1" style="stop-color:#FFFFFF"/>
			</radialGradient>
			<path class="st16" d="M62.2,71.1c0,0.7-3.4,1.3-7.6,1.3c-4.2,0-7.6-0.6-7.6-1.3c0-0.7,3.4-1.3,7.6-1.3
				C58.8,69.8,62.2,70.4,62.2,71.1z"/>
		</g>
	</g>
</g>
</svg>
